<?xml version="1.0" encoding="UTF-8"?>
<svg xmlns="http://www.w3.org/2000/svg" xmlns:xlink="http://www.w3.org/1999/xlink" width="552.755906pt" height="323.641529pt" viewBox="0 0 552.755906 323.641529" version="1.1">
<defs>
<radialGradient id="radial0" gradientUnits="userSpaceOnUse" cx="0" cy="0" fx="0" fy="0" r="50" gradientTransform="matrix(10.423851,0,0,-10.423851,205.548177,252.267803)">
<stop offset="0.2" style="stop-color:rgb(94%,94%,94%);stop-opacity:1;"/>
<stop offset="0.6" style="stop-color:rgb(100%,95%,80%);stop-opacity:1;"/>
<stop offset="1" style="stop-color:rgb(85%,82%,80%);stop-opacity:1;"/>
</radialGradient>
</defs>
<g id="surface6">
<path style=" stroke:none;fill-rule:evenodd;fill:url(#radial0);" d="M 552.757812 0 L 0 0 L 0 323.640625 L 552.757812 323.640625 Z M 552.757812 0 "/>
<path style="fill:none;stroke-width:0.833908;stroke-linecap:butt;stroke-linejoin:miter;stroke:rgb(0%,0%,0%);stroke-opacity:1;stroke-miterlimit:10;" d="M 205.546875 252.269531 L 509.0625 252.269531 "/>
<path style="fill:none;stroke-width:0.625431;stroke-linecap:butt;stroke-linejoin:miter;stroke:rgb(0%,0%,0%);stroke-opacity:1;stroke-miterlimit:10;" d="M 503.433594 255.394531 L 509.6875 252.269531 L 503.433594 249.140625 "/>
<path style="fill:none;stroke-width:0.833908;stroke-linecap:butt;stroke-linejoin:miter;stroke:rgb(0%,0%,0%);stroke-opacity:1;stroke-miterlimit:10;" d="M 205.546875 252.269531 L 205.546875 16.789062 "/>
<path style="fill:none;stroke-width:0.625431;stroke-linecap:butt;stroke-linejoin:miter;stroke:rgb(0%,0%,0%);stroke-opacity:1;stroke-miterlimit:10;" d="M 208.675781 22.417969 L 205.546875 16.164062 L 202.421875 22.417969 "/>
<path style=" stroke:none;fill-rule:evenodd;fill:rgb(0%,0%,0%);fill-opacity:1;" d="M 199.652344 255.230469 C 196.558594 255.230469 194.496094 257.230469 194.496094 260.214844 C 194.496094 263.058594 196.480469 265.105469 199.214844 265.105469 C 202.246094 265.105469 204.542969 262.855469 204.542969 259.871094 C 204.542969 257.027344 202.652344 255.230469 199.652344 255.230469 Z M 199.417969 255.808594 C 201.746094 255.808594 203.105469 257.449219 203.105469 260.277344 C 203.105469 262.949219 201.871094 264.542969 199.746094 264.542969 C 197.464844 264.542969 195.949219 262.621094 195.949219 259.714844 C 195.949219 257.214844 197.199219 255.808594 199.417969 255.808594 Z M 204.851562 264.839844 "/>
<path style=" stroke:none;fill-rule:evenodd;fill:rgb(0%,0%,0%);fill-opacity:1;" d="M 513.328125 258.394531 L 515.25 256.144531 C 515.328125 256.050781 515.46875 255.988281 515.703125 255.988281 L 515.890625 255.988281 L 515.890625 255.613281 L 514.78125 255.613281 L 513.109375 257.988281 L 512.078125 256.410156 C 511.875 256.097656 511.734375 255.957031 511.265625 255.472656 L 509.6875 255.753906 L 509.765625 256.097656 L 510.046875 256.128906 C 510.28125 256.144531 510.59375 256.332031 510.71875 256.519531 L 512.34375 258.878906 L 510.328125 261.269531 C 510.234375 261.378906 510.0625 261.472656 509.921875 261.472656 L 509.6875 261.472656 L 509.6875 261.832031 L 510.859375 261.832031 C 510.953125 261.675781 510.984375 261.628906 511.140625 261.378906 C 511.359375 261.003906 511.578125 260.675781 511.671875 260.566406 L 512.671875 259.238281 L 514.125 261.425781 C 514.265625 261.644531 514.359375 261.785156 514.46875 261.878906 C 514.984375 261.847656 515.15625 261.832031 515.296875 261.832031 C 515.453125 261.832031 515.625 261.847656 516.140625 261.878906 L 516.140625 261.472656 L 515.796875 261.425781 C 515.640625 261.410156 515.484375 261.300781 515.328125 261.097656 Z M 516.414062 261.832031 "/>
<path style=" stroke:none;fill-rule:evenodd;fill:rgb(0%,0%,0%);fill-opacity:1;" d="M 210.867188 11.164062 C 210.554688 10.648438 210.414062 10.351562 210.164062 9.679688 L 209.304688 7.398438 C 209.226562 7.195312 209.179688 6.992188 209.179688 6.835938 C 209.179688 6.648438 209.335938 6.539062 209.632812 6.523438 L 210.148438 6.492188 L 210.148438 6.117188 C 209.242188 6.148438 208.882812 6.164062 208.570312 6.164062 C 208.257812 6.164062 207.898438 6.148438 206.992188 6.117188 L 206.992188 6.492188 L 207.242188 6.523438 C 207.585938 6.554688 207.742188 6.710938 207.945312 7.195312 L 209.429688 10.742188 C 209.804688 11.664062 209.945312 11.976562 210.179688 12.664062 L 209.867188 13.492188 C 209.429688 14.632812 208.914062 15.257812 208.398438 15.257812 C 208.179688 15.257812 207.914062 15.132812 207.695312 14.945312 L 207.523438 14.945312 L 207.195312 15.960938 C 207.460938 16.117188 207.679688 16.164062 207.929688 16.164062 C 208.835938 16.164062 209.429688 15.679688 209.945312 14.507812 L 212.695312 8.164062 C 213.226562 6.929688 213.492188 6.570312 213.820312 6.523438 L 214.210938 6.492188 L 214.210938 6.117188 C 213.476562 6.148438 213.164062 6.164062 212.914062 6.164062 C 212.679688 6.164062 212.367188 6.148438 211.632812 6.117188 L 211.632812 6.492188 L 211.976562 6.523438 C 212.367188 6.554688 212.554688 6.679688 212.554688 6.867188 C 212.554688 6.960938 212.523438 7.085938 212.476562 7.210938 Z M 214.371094 12.335938 "/>
<path style="fill:none;stroke-width:2.08477;stroke-linecap:round;stroke-linejoin:miter;stroke:rgb(40%,70%,30%);stroke-opacity:1;stroke-dasharray:5.211926,10.423851;stroke-miterlimit:10;" d="M 42.070312 237.941406 C 31.144531 171.792969 85.53125 84.484375 212.890625 54.539062 "/>
<path style=" stroke:none;fill-rule:evenodd;fill:rgb(40%,70%,30%);fill-opacity:1;" d="M 88.128906 87.0625 L 89.035156 87.3125 L 89.660156 85.8125 C 90.003906 84.96875 90.972656 84.5 92.378906 84.5 C 94.628906 84.5 96.222656 85.90625 96.222656 87.90625 C 96.222656 89.171875 95.660156 90.171875 93.816406 92.203125 C 91.910156 94.296875 91.410156 95.140625 91.410156 96.203125 C 91.410156 97.140625 91.847656 97.890625 92.785156 98.484375 L 93.441406 98.046875 C 92.941406 97.421875 92.753906 97.046875 92.753906 96.546875 C 92.753906 95.515625 93.160156 94.984375 95.691406 92.671875 C 98.378906 90.234375 99.128906 89.046875 99.128906 87.25 C 99.128906 84.5 96.691406 82.4375 93.472656 82.4375 C 92.066406 82.4375 90.972656 82.71875 89.316406 83.53125 Z M 92.972656 100.671875 C 92.035156 100.671875 91.191406 101.546875 91.191406 102.484375 C 91.191406 103.453125 92.035156 104.296875 92.941406 104.296875 C 93.941406 104.296875 94.816406 103.453125 94.816406 102.484375 C 94.816406 101.546875 93.941406 100.671875 92.972656 100.671875 Z M 100.667969 104.140625 "/>
<path style="fill:none;stroke-width:2.08477;stroke-linecap:round;stroke-linejoin:miter;stroke:rgb(100%,40%,30%);stroke-opacity:1;stroke-dasharray:5.211926,10.423851;stroke-miterlimit:10;" d="M 212.890625 54.539062 C 340.253906 24.589844 388.886719 105.722656 398.890625 203.113281 "/>
<path style=" stroke:none;fill-rule:evenodd;fill:rgb(100%,40%,30%);fill-opacity:1;" d="M 341.894531 51.152344 L 342.800781 51.402344 L 343.425781 49.902344 C 343.769531 49.058594 344.738281 48.589844 346.144531 48.589844 C 348.394531 48.589844 349.988281 49.996094 349.988281 51.996094 C 349.988281 53.261719 349.425781 54.261719 347.582031 56.292969 C 345.675781 58.386719 345.175781 59.230469 345.175781 60.292969 C 345.175781 61.230469 345.613281 61.980469 346.550781 62.574219 L 347.207031 62.136719 C 346.707031 61.511719 346.519531 61.136719 346.519531 60.636719 C 346.519531 59.605469 346.925781 59.074219 349.457031 56.761719 C 352.144531 54.324219 352.894531 53.136719 352.894531 51.339844 C 352.894531 48.589844 350.457031 46.527344 347.238281 46.527344 C 345.832031 46.527344 344.738281 46.808594 343.082031 47.621094 Z M 346.738281 64.761719 C 345.800781 64.761719 344.957031 65.636719 344.957031 66.574219 C 344.957031 67.542969 345.800781 68.386719 346.707031 68.386719 C 347.707031 68.386719 348.582031 67.542969 348.582031 66.574219 C 348.582031 65.636719 347.707031 64.761719 346.738281 64.761719 Z M 354.433594 68.230469 "/>
<path style="fill:none;stroke-width:2.08477;stroke-linecap:butt;stroke-linejoin:miter;stroke:rgb(40%,70%,30%);stroke-opacity:1;stroke-miterlimit:10;" d="M 42.070312 237.941406 L 32.757812 181.5625 "/>
<path style=" stroke:none;fill-rule:evenodd;fill:rgb(40%,70%,30%);fill-opacity:1;" d="M 31.144531 171.792969 L 37.984375 181.230469 L 27.699219 182.925781 Z M 31.144531 171.792969 "/>
<path style=" stroke:none;fill-rule:evenodd;fill:rgb(40%,70%,30%);fill-opacity:1;" d="M 45.195312 237.941406 C 45.195312 233.773438 38.941406 233.773438 38.941406 237.941406 C 38.941406 242.113281 45.195312 242.113281 45.195312 237.941406 "/>
<path style=" stroke:none;fill-rule:evenodd;fill:rgb(40%,70%,30%);fill-opacity:1;" d="M 28.300781 211.285156 L 28.300781 210.707031 C 27.191406 210.738281 26.738281 210.769531 26.347656 210.769531 C 25.941406 210.769531 25.488281 210.738281 24.378906 210.707031 L 24.378906 211.285156 L 25.238281 211.332031 C 25.566406 211.347656 25.738281 211.519531 25.738281 211.863281 C 25.738281 212.222656 25.613281 212.722656 25.347656 213.394531 L 24.472656 215.597656 C 24.222656 216.207031 23.972656 216.785156 23.175781 218.519531 L 20.691406 212.519531 C 20.566406 212.222656 20.503906 211.957031 20.503906 211.722656 C 20.503906 211.472656 20.691406 211.347656 21.019531 211.332031 L 22.050781 211.285156 L 22.050781 210.707031 C 20.675781 210.738281 20.082031 210.769531 19.582031 210.769531 C 19.082031 210.769531 18.550781 210.738281 17.191406 210.707031 L 17.191406 211.285156 L 17.894531 211.332031 C 18.207031 211.363281 18.316406 211.488281 18.550781 212.019531 L 22.128906 220.410156 L 23.175781 220.410156 C 23.566406 219.332031 23.863281 218.566406 24.035156 218.144531 L 26.488281 212.722656 C 26.941406 211.738281 27.253906 211.363281 27.660156 211.332031 Z M 32.125 215.449219 L 32.125 215.136719 C 31.5 215.167969 31.125 215.167969 30.59375 215.167969 C 30.078125 215.167969 29.703125 215.167969 29.078125 215.136719 L 29.078125 215.449219 L 29.578125 215.480469 C 30.046875 215.511719 30.09375 215.574219 30.109375 216.417969 L 30.109375 221.105469 C 30.09375 221.933594 30.046875 222.027344 29.578125 222.042969 L 29.078125 222.074219 L 29.078125 222.386719 C 29.6875 222.371094 30.046875 222.355469 30.59375 222.355469 C 31.140625 222.355469 31.515625 222.371094 32.125 222.386719 L 32.125 222.074219 L 31.625 222.042969 C 31.140625 222.027344 31.109375 221.949219 31.09375 221.105469 L 31.09375 216.417969 C 31.109375 215.574219 31.140625 215.511719 31.625 215.480469 Z M 32.355469 220.269531 "/>
<path style=" stroke:none;fill-rule:evenodd;fill:rgb(40%,70%,30%);fill-opacity:1;" d="M 32.113281 244.417969 L 32.113281 250.433594 C 32.113281 251.964844 32.800781 252.636719 34.394531 252.636719 C 34.878906 252.636719 35.378906 252.527344 35.503906 252.386719 L 36.503906 251.277344 L 36.238281 250.933594 C 35.691406 251.246094 35.425781 251.324219 35.003906 251.324219 C 34.191406 251.324219 33.863281 250.902344 33.863281 249.886719 L 33.863281 244.417969 L 36.535156 244.417969 L 36.722656 243.292969 L 33.863281 243.417969 L 33.863281 242.636719 C 33.863281 241.777344 33.925781 240.886719 34.082031 239.667969 L 33.832031 239.449219 C 33.316406 239.761719 32.707031 240.027344 32.066406 240.230469 C 32.128906 240.824219 32.144531 241.230469 32.144531 241.886719 L 32.144531 243.339844 L 30.519531 244.074219 L 30.519531 244.511719 Z M 40.144531 247.566406 L 40.144531 247.253906 C 39.519531 247.285156 39.144531 247.285156 38.613281 247.285156 C 38.097656 247.285156 37.722656 247.285156 37.097656 247.253906 L 37.097656 247.566406 L 37.597656 247.597656 C 38.066406 247.628906 38.113281 247.691406 38.128906 248.535156 L 38.128906 253.222656 C 38.113281 254.050781 38.066406 254.144531 37.597656 254.160156 L 37.097656 254.191406 L 37.097656 254.503906 C 37.707031 254.488281 38.066406 254.472656 38.613281 254.472656 C 39.160156 254.472656 39.535156 254.488281 40.144531 254.503906 L 40.144531 254.191406 L 39.644531 254.160156 C 39.160156 254.144531 39.128906 254.066406 39.113281 253.222656 L 39.113281 248.535156 C 39.128906 247.691406 39.160156 247.628906 39.644531 247.597656 Z M 40.375 252.386719 "/>
<path style="fill:none;stroke-width:2.08477;stroke-linecap:butt;stroke-linejoin:miter;stroke:rgb(100%,70%,30%);stroke-opacity:1;stroke-miterlimit:10;" d="M 212.890625 54.539062 L 330.613281 26.859375 "/>
<path style=" stroke:none;fill-rule:evenodd;fill:rgb(100%,70%,30%);fill-opacity:1;" d="M 340.253906 24.589844 L 331.296875 32.050781 L 328.910156 21.902344 Z M 340.253906 24.589844 "/>
<path style=" stroke:none;fill-rule:evenodd;fill:rgb(100%,70%,30%);fill-opacity:1;" d="M 216.019531 54.539062 C 216.019531 50.367188 209.765625 50.367188 209.765625 54.539062 C 209.765625 58.707031 216.019531 58.707031 216.019531 54.539062 "/>
<path style=" stroke:none;fill-rule:evenodd;fill:rgb(100%,70%,30%);fill-opacity:1;" d="M 259.980469 27.175781 L 259.980469 26.597656 C 258.871094 26.628906 258.417969 26.660156 258.027344 26.660156 C 257.621094 26.660156 257.167969 26.628906 256.058594 26.597656 L 256.058594 27.175781 L 256.917969 27.222656 C 257.246094 27.238281 257.417969 27.410156 257.417969 27.753906 C 257.417969 28.113281 257.292969 28.613281 257.027344 29.285156 L 256.152344 31.488281 C 255.902344 32.097656 255.652344 32.675781 254.855469 34.410156 L 252.371094 28.410156 C 252.246094 28.113281 252.183594 27.847656 252.183594 27.613281 C 252.183594 27.363281 252.371094 27.238281 252.699219 27.222656 L 253.730469 27.175781 L 253.730469 26.597656 C 252.355469 26.628906 251.761719 26.660156 251.261719 26.660156 C 250.761719 26.660156 250.230469 26.628906 248.871094 26.597656 L 248.871094 27.175781 L 249.574219 27.222656 C 249.886719 27.253906 249.996094 27.378906 250.230469 27.910156 L 253.808594 36.300781 L 254.855469 36.300781 C 255.246094 35.222656 255.542969 34.457031 255.714844 34.035156 L 258.167969 28.613281 C 258.621094 27.628906 258.933594 27.253906 259.339844 27.222656 Z M 270.117188 31.339844 L 270.117188 31.027344 C 269.570312 31.058594 269.335938 31.058594 269.148438 31.058594 C 268.960938 31.058594 268.710938 31.058594 268.148438 31.027344 L 265.414062 36.824219 L 262.664062 31.027344 C 262.070312 31.058594 261.851562 31.058594 261.679688 31.058594 C 261.507812 31.058594 261.289062 31.058594 260.695312 31.027344 L 260.695312 31.339844 L 261.148438 31.371094 C 261.632812 31.417969 261.664062 31.464844 261.679688 32.308594 L 261.679688 36.996094 C 261.664062 37.839844 261.632812 37.886719 261.148438 37.933594 L 260.695312 37.964844 L 260.695312 38.277344 C 261.445312 38.261719 261.695312 38.246094 261.898438 38.246094 C 262.101562 38.246094 262.414062 38.261719 263.148438 38.277344 L 263.148438 37.964844 L 262.695312 37.933594 C 262.195312 37.886719 262.164062 37.839844 262.164062 36.996094 L 262.164062 32.214844 L 265.070312 38.386719 L 265.273438 38.386719 C 265.539062 37.730469 265.742188 37.292969 265.835938 37.058594 L 267.695312 33.121094 C 267.835938 32.808594 267.960938 32.574219 268.148438 32.214844 L 268.148438 36.996094 C 268.148438 37.839844 268.117188 37.886719 267.617188 37.933594 L 267.273438 37.964844 L 267.273438 38.277344 C 267.742188 38.261719 268.054688 38.246094 268.601562 38.246094 C 269.179688 38.246094 269.554688 38.261719 270.179688 38.277344 L 270.179688 37.964844 L 269.679688 37.933594 C 269.195312 37.917969 269.148438 37.824219 269.148438 36.996094 L 269.148438 32.308594 C 269.148438 31.464844 269.179688 31.417969 269.679688 31.371094 Z M 270.382812 36.160156 "/>
<path style=" stroke:none;fill-rule:evenodd;fill:rgb(100%,70%,30%);fill-opacity:1;" d="M 209.683594 38.277344 L 209.683594 44.292969 C 209.683594 45.824219 210.371094 46.496094 211.964844 46.496094 C 212.449219 46.496094 212.949219 46.386719 213.074219 46.246094 L 214.074219 45.136719 L 213.808594 44.792969 C 213.261719 45.105469 212.996094 45.183594 212.574219 45.183594 C 211.761719 45.183594 211.433594 44.761719 211.433594 43.746094 L 211.433594 38.277344 L 214.105469 38.277344 L 214.292969 37.152344 L 211.433594 37.277344 L 211.433594 36.496094 C 211.433594 35.636719 211.496094 34.746094 211.652344 33.527344 L 211.402344 33.308594 C 210.886719 33.621094 210.277344 33.886719 209.636719 34.089844 C 209.699219 34.683594 209.714844 35.089844 209.714844 35.746094 L 209.714844 37.199219 L 208.089844 37.933594 L 208.089844 38.371094 Z M 224.027344 41.425781 L 224.027344 41.113281 C 223.480469 41.144531 223.246094 41.144531 223.058594 41.144531 C 222.871094 41.144531 222.621094 41.144531 222.058594 41.113281 L 219.324219 46.910156 L 216.574219 41.113281 C 215.980469 41.144531 215.761719 41.144531 215.589844 41.144531 C 215.417969 41.144531 215.199219 41.144531 214.605469 41.113281 L 214.605469 41.425781 L 215.058594 41.457031 C 215.542969 41.503906 215.574219 41.550781 215.589844 42.394531 L 215.589844 47.082031 C 215.574219 47.925781 215.542969 47.972656 215.058594 48.019531 L 214.605469 48.050781 L 214.605469 48.363281 C 215.355469 48.347656 215.605469 48.332031 215.808594 48.332031 C 216.011719 48.332031 216.324219 48.347656 217.058594 48.363281 L 217.058594 48.050781 L 216.605469 48.019531 C 216.105469 47.972656 216.074219 47.925781 216.074219 47.082031 L 216.074219 42.300781 L 218.980469 48.472656 L 219.183594 48.472656 C 219.449219 47.816406 219.652344 47.378906 219.746094 47.144531 L 221.605469 43.207031 C 221.746094 42.894531 221.871094 42.660156 222.058594 42.300781 L 222.058594 47.082031 C 222.058594 47.925781 222.027344 47.972656 221.527344 48.019531 L 221.183594 48.050781 L 221.183594 48.363281 C 221.652344 48.347656 221.964844 48.332031 222.511719 48.332031 C 223.089844 48.332031 223.464844 48.347656 224.089844 48.363281 L 224.089844 48.050781 L 223.589844 48.019531 C 223.105469 48.003906 223.058594 47.910156 223.058594 47.082031 L 223.058594 42.394531 C 223.058594 41.550781 223.089844 41.503906 223.589844 41.457031 Z M 224.292969 46.246094 "/>
<path style="fill:none;stroke-width:2.08477;stroke-linecap:butt;stroke-linejoin:miter;stroke:rgb(100%,40%,30%);stroke-opacity:1;stroke-miterlimit:10;" d="M 398.890625 203.113281 L 407.882812 290.65625 "/>
<path style=" stroke:none;fill-rule:evenodd;fill:rgb(100%,40%,30%);fill-opacity:1;" d="M 408.894531 300.507812 L 402.644531 290.671875 L 413.011719 289.605469 Z M 408.894531 300.507812 "/>
<path style=" stroke:none;fill-rule:evenodd;fill:rgb(100%,40%,30%);fill-opacity:1;" d="M 402.019531 203.113281 C 402.019531 198.945312 395.761719 198.945312 395.761719 203.113281 C 395.761719 207.285156 402.019531 207.285156 402.019531 203.113281 "/>
<path style=" stroke:none;fill-rule:evenodd;fill:rgb(100%,40%,30%);fill-opacity:1;" d="M 392.582031 258.230469 L 392.582031 257.652344 C 391.472656 257.683594 391.019531 257.714844 390.628906 257.714844 C 390.222656 257.714844 389.769531 257.683594 388.660156 257.652344 L 388.660156 258.230469 L 389.519531 258.277344 C 389.847656 258.292969 390.019531 258.464844 390.019531 258.808594 C 390.019531 259.167969 389.894531 259.667969 389.628906 260.339844 L 388.753906 262.542969 C 388.503906 263.152344 388.253906 263.730469 387.457031 265.464844 L 384.972656 259.464844 C 384.847656 259.167969 384.785156 258.902344 384.785156 258.667969 C 384.785156 258.417969 384.972656 258.292969 385.300781 258.277344 L 386.332031 258.230469 L 386.332031 257.652344 C 384.957031 257.683594 384.363281 257.714844 383.863281 257.714844 C 383.363281 257.714844 382.832031 257.683594 381.472656 257.652344 L 381.472656 258.230469 L 382.175781 258.277344 C 382.488281 258.308594 382.597656 258.433594 382.832031 258.964844 L 386.410156 267.355469 L 387.457031 267.355469 C 387.847656 266.277344 388.144531 265.511719 388.316406 265.089844 L 390.769531 259.667969 C 391.222656 258.683594 391.535156 258.308594 391.941406 258.277344 Z M 395.375 265.894531 C 395.640625 265.878906 395.9375 265.863281 396.453125 265.863281 C 397.203125 265.863281 397.5 265.894531 397.6875 265.988281 L 397.765625 266.253906 L 397.828125 266.863281 L 398.140625 266.863281 C 398.109375 266.160156 398.109375 265.910156 398.109375 265.707031 C 398.109375 265.503906 398.109375 265.191406 398.140625 264.503906 L 397.828125 264.503906 L 397.765625 265.035156 C 397.765625 265.128906 397.734375 265.222656 397.6875 265.316406 C 397.5 265.394531 397.203125 265.425781 396.515625 265.425781 C 396.015625 265.425781 395.734375 265.410156 395.375 265.394531 L 395.375 262.613281 C 395.6875 262.535156 395.890625 262.519531 396.5 262.519531 C 396.984375 262.519531 397.578125 262.582031 397.890625 262.675781 C 398.140625 262.738281 398.171875 262.785156 398.171875 263.019531 L 398.171875 263.707031 L 398.546875 263.707031 C 398.546875 263.082031 398.59375 262.582031 398.71875 262.113281 C 398.203125 262.097656 397.90625 262.082031 397.4375 262.082031 L 396.328125 262.097656 C 395.8125 262.113281 395.4375 262.113281 395.1875 262.113281 C 394.828125 262.113281 394.34375 262.113281 393.359375 262.082031 L 393.359375 262.394531 L 393.859375 262.425781 C 394.328125 262.457031 394.375 262.519531 394.390625 263.363281 L 394.390625 268.050781 C 394.375 268.878906 394.328125 268.972656 393.859375 268.988281 L 393.359375 269.019531 L 393.359375 269.332031 C 393.96875 269.316406 394.328125 269.300781 394.875 269.300781 C 395.421875 269.300781 395.796875 269.316406 396.40625 269.332031 L 396.40625 269.019531 L 395.90625 268.988281 C 395.421875 268.972656 395.390625 268.894531 395.375 268.050781 Z M 398.921875 267.214844 "/>
<path style=" stroke:none;fill-rule:evenodd;fill:rgb(100%,40%,30%);fill-opacity:1;" d="M 404.066406 191.523438 L 404.066406 197.539062 C 404.066406 199.070312 404.753906 199.742188 406.347656 199.742188 C 406.832031 199.742188 407.332031 199.632812 407.457031 199.492188 L 408.457031 198.382812 L 408.191406 198.039062 C 407.644531 198.351562 407.378906 198.429688 406.957031 198.429688 C 406.144531 198.429688 405.816406 198.007812 405.816406 196.992188 L 405.816406 191.523438 L 408.488281 191.523438 L 408.675781 190.398438 L 405.816406 190.523438 L 405.816406 189.742188 C 405.816406 188.882812 405.878906 187.992188 406.035156 186.773438 L 405.785156 186.554688 C 405.269531 186.867188 404.660156 187.132812 404.019531 187.335938 C 404.082031 187.929688 404.097656 188.335938 404.097656 188.992188 L 404.097656 190.445312 L 402.472656 191.179688 L 402.472656 191.617188 Z M 411.066406 198.171875 C 411.332031 198.15625 411.628906 198.140625 412.144531 198.140625 C 412.894531 198.140625 413.191406 198.171875 413.378906 198.265625 L 413.457031 198.53125 L 413.519531 199.140625 L 413.832031 199.140625 C 413.800781 198.4375 413.800781 198.1875 413.800781 197.984375 C 413.800781 197.78125 413.800781 197.46875 413.832031 196.78125 L 413.519531 196.78125 L 413.457031 197.3125 C 413.457031 197.40625 413.425781 197.5 413.378906 197.59375 C 413.191406 197.671875 412.894531 197.703125 412.207031 197.703125 C 411.707031 197.703125 411.425781 197.6875 411.066406 197.671875 L 411.066406 194.890625 C 411.378906 194.8125 411.582031 194.796875 412.191406 194.796875 C 412.675781 194.796875 413.269531 194.859375 413.582031 194.953125 C 413.832031 195.015625 413.863281 195.0625 413.863281 195.296875 L 413.863281 195.984375 L 414.238281 195.984375 C 414.238281 195.359375 414.285156 194.859375 414.410156 194.390625 C 413.894531 194.375 413.597656 194.359375 413.128906 194.359375 L 412.019531 194.375 C 411.503906 194.390625 411.128906 194.390625 410.878906 194.390625 C 410.519531 194.390625 410.035156 194.390625 409.050781 194.359375 L 409.050781 194.671875 L 409.550781 194.703125 C 410.019531 194.734375 410.066406 194.796875 410.082031 195.640625 L 410.082031 200.328125 C 410.066406 201.15625 410.019531 201.25 409.550781 201.265625 L 409.050781 201.296875 L 409.050781 201.609375 C 409.660156 201.59375 410.019531 201.578125 410.566406 201.578125 C 411.113281 201.578125 411.488281 201.59375 412.097656 201.609375 L 412.097656 201.296875 L 411.597656 201.265625 C 411.113281 201.25 411.082031 201.171875 411.066406 200.328125 Z M 414.613281 199.492188 "/>
<path style="fill:none;stroke-width:2.08477;stroke-linecap:butt;stroke-linejoin:miter;stroke:rgb(40%,70%,30%);stroke-opacity:1;stroke-miterlimit:10;" d="M 205.546875 252.269531 L 51.933594 238.808594 "/>
<path style=" stroke:none;fill-rule:evenodd;fill:rgb(40%,70%,30%);fill-opacity:1;" d="M 42.070312 237.941406 L 52.910156 233.660156 L 52 244.042969 Z M 42.070312 237.941406 "/>
<path style=" stroke:none;fill-rule:evenodd;fill:rgb(40%,70%,30%);fill-opacity:1;" d="M 118.269531 260.273438 L 118.269531 260.898438 C 119.644531 260.851562 120.253906 260.835938 120.832031 260.835938 C 121.332031 260.835938 122.097656 260.851562 123.816406 260.898438 L 123.816406 260.273438 L 122.722656 260.210938 C 121.769531 260.148438 121.753906 260.132812 121.753906 258.710938 L 121.753906 255.117188 C 121.753906 253.851562 122.582031 252.835938 123.613281 252.835938 C 124.238281 252.835938 124.675781 253.117188 125.003906 253.789062 L 125.441406 253.789062 L 125.628906 251.289062 C 125.378906 251.148438 125.019531 251.054688 124.644531 251.054688 C 124.019531 251.054688 123.363281 251.398438 122.910156 251.914062 L 121.753906 253.289062 L 121.753906 251.148438 L 121.566406 251.054688 C 120.535156 251.492188 119.394531 251.789062 118.316406 251.914062 L 118.316406 252.492188 L 119.082031 252.492188 C 119.941406 252.523438 119.972656 252.601562 120.003906 254.023438 L 120.003906 258.710938 C 119.972656 260.070312 119.957031 260.148438 119.222656 260.210938 Z M 129.347656 256.015625 L 129.347656 255.703125 C 128.722656 255.734375 128.347656 255.734375 127.816406 255.734375 C 127.300781 255.734375 126.925781 255.734375 126.300781 255.703125 L 126.300781 256.015625 L 126.800781 256.046875 C 127.269531 256.078125 127.316406 256.140625 127.332031 256.984375 L 127.332031 261.671875 C 127.316406 262.5 127.269531 262.59375 126.800781 262.609375 L 126.300781 262.640625 L 126.300781 262.953125 C 126.910156 262.9375 127.269531 262.921875 127.816406 262.921875 C 128.363281 262.921875 128.738281 262.9375 129.347656 262.953125 L 129.347656 262.640625 L 128.847656 262.609375 C 128.363281 262.59375 128.332031 262.515625 128.316406 261.671875 L 128.316406 256.984375 C 128.332031 256.140625 128.363281 256.078125 128.847656 256.046875 Z M 129.578125 260.835938 "/>
<path style="fill:none;stroke-width:2.08477;stroke-linecap:butt;stroke-linejoin:miter;stroke:rgb(100%,70%,30%);stroke-opacity:1;stroke-miterlimit:10;" d="M 205.546875 252.269531 L 212.523438 64.433594 "/>
<path style=" stroke:none;fill-rule:evenodd;fill:rgb(100%,70%,30%);fill-opacity:1;" d="M 212.890625 54.539062 L 217.710938 65.148438 L 207.296875 64.761719 Z M 212.890625 54.539062 "/>
<path style=" stroke:none;fill-rule:evenodd;fill:rgb(100%,70%,30%);fill-opacity:1;" d="M 214.457031 156.617188 L 214.457031 157.242188 C 215.832031 157.195312 216.441406 157.179688 217.019531 157.179688 C 217.519531 157.179688 218.285156 157.195312 220.003906 157.242188 L 220.003906 156.617188 L 218.910156 156.554688 C 217.957031 156.492188 217.941406 156.476562 217.941406 155.054688 L 217.941406 151.460938 C 217.941406 150.195312 218.769531 149.179688 219.800781 149.179688 C 220.425781 149.179688 220.863281 149.460938 221.191406 150.132812 L 221.628906 150.132812 L 221.816406 147.632812 C 221.566406 147.492188 221.207031 147.398438 220.832031 147.398438 C 220.207031 147.398438 219.550781 147.742188 219.097656 148.257812 L 217.941406 149.632812 L 217.941406 147.492188 L 217.753906 147.398438 C 216.722656 147.835938 215.582031 148.132812 214.503906 148.257812 L 214.503906 148.835938 L 215.269531 148.835938 C 216.128906 148.867188 216.160156 148.945312 216.191406 150.367188 L 216.191406 155.054688 C 216.160156 156.414062 216.144531 156.492188 215.410156 156.554688 Z M 231.847656 152.359375 L 231.847656 152.046875 C 231.300781 152.078125 231.066406 152.078125 230.878906 152.078125 C 230.691406 152.078125 230.441406 152.078125 229.878906 152.046875 L 227.144531 157.84375 L 224.394531 152.046875 C 223.800781 152.078125 223.582031 152.078125 223.410156 152.078125 C 223.238281 152.078125 223.019531 152.078125 222.425781 152.046875 L 222.425781 152.359375 L 222.878906 152.390625 C 223.363281 152.4375 223.394531 152.484375 223.410156 153.328125 L 223.410156 158.015625 C 223.394531 158.859375 223.363281 158.90625 222.878906 158.953125 L 222.425781 158.984375 L 222.425781 159.296875 C 223.175781 159.28125 223.425781 159.265625 223.628906 159.265625 C 223.832031 159.265625 224.144531 159.28125 224.878906 159.296875 L 224.878906 158.984375 L 224.425781 158.953125 C 223.925781 158.90625 223.894531 158.859375 223.894531 158.015625 L 223.894531 153.234375 L 226.800781 159.40625 L 227.003906 159.40625 C 227.269531 158.75 227.472656 158.3125 227.566406 158.078125 L 229.425781 154.140625 C 229.566406 153.828125 229.691406 153.59375 229.878906 153.234375 L 229.878906 158.015625 C 229.878906 158.859375 229.847656 158.90625 229.347656 158.953125 L 229.003906 158.984375 L 229.003906 159.296875 C 229.472656 159.28125 229.785156 159.265625 230.332031 159.265625 C 230.910156 159.265625 231.285156 159.28125 231.910156 159.296875 L 231.910156 158.984375 L 231.410156 158.953125 C 230.925781 158.9375 230.878906 158.84375 230.878906 158.015625 L 230.878906 153.328125 C 230.878906 152.484375 230.910156 152.4375 231.410156 152.390625 Z M 232.113281 157.179688 "/>
<path style="fill:none;stroke-width:2.08477;stroke-linecap:butt;stroke-linejoin:miter;stroke:rgb(100%,40%,30%);stroke-opacity:1;stroke-miterlimit:10;" d="M 205.546875 252.269531 L 389.292969 205.554688 "/>
<path style=" stroke:none;fill-rule:evenodd;fill:rgb(100%,40%,30%);fill-opacity:1;" d="M 398.890625 203.113281 L 390.074219 210.734375 L 387.503906 200.632812 Z M 398.890625 203.113281 "/>
<path style=" stroke:none;fill-rule:evenodd;fill:rgb(100%,40%,30%);fill-opacity:1;" d="M 208.675781 252.269531 C 208.675781 248.097656 202.421875 248.097656 202.421875 252.269531 C 202.421875 256.4375 208.675781 256.4375 208.675781 252.269531 "/>
<path style=" stroke:none;fill-rule:evenodd;fill:rgb(100%,40%,30%);fill-opacity:1;" d="M 295.523438 242.859375 L 295.523438 243.484375 C 296.898438 243.4375 297.507812 243.421875 298.085938 243.421875 C 298.585938 243.421875 299.351562 243.4375 301.070312 243.484375 L 301.070312 242.859375 L 299.976562 242.796875 C 299.023438 242.734375 299.007812 242.71875 299.007812 241.296875 L 299.007812 237.703125 C 299.007812 236.4375 299.835938 235.421875 300.867188 235.421875 C 301.492188 235.421875 301.929688 235.703125 302.257812 236.375 L 302.695312 236.375 L 302.882812 233.875 C 302.632812 233.734375 302.273438 233.640625 301.898438 233.640625 C 301.273438 233.640625 300.617188 233.984375 300.164062 234.5 L 299.007812 235.875 L 299.007812 233.734375 L 298.820312 233.640625 C 297.789062 234.078125 296.648438 234.375 295.570312 234.5 L 295.570312 235.078125 L 296.335938 235.078125 C 297.195312 235.109375 297.226562 235.1875 297.257812 236.609375 L 297.257812 241.296875 C 297.226562 242.65625 297.210938 242.734375 296.476562 242.796875 Z M 305.570312 242.101562 C 305.835938 242.085938 306.132812 242.070312 306.648438 242.070312 C 307.398438 242.070312 307.695312 242.101562 307.882812 242.195312 L 307.960938 242.460938 L 308.023438 243.070312 L 308.335938 243.070312 C 308.304688 242.367188 308.304688 242.117188 308.304688 241.914062 C 308.304688 241.710938 308.304688 241.398438 308.335938 240.710938 L 308.023438 240.710938 L 307.960938 241.242188 C 307.960938 241.335938 307.929688 241.429688 307.882812 241.523438 C 307.695312 241.601562 307.398438 241.632812 306.710938 241.632812 C 306.210938 241.632812 305.929688 241.617188 305.570312 241.601562 L 305.570312 238.820312 C 305.882812 238.742188 306.085938 238.726562 306.695312 238.726562 C 307.179688 238.726562 307.773438 238.789062 308.085938 238.882812 C 308.335938 238.945312 308.367188 238.992188 308.367188 239.226562 L 308.367188 239.914062 L 308.742188 239.914062 C 308.742188 239.289062 308.789062 238.789062 308.914062 238.320312 C 308.398438 238.304688 308.101562 238.289062 307.632812 238.289062 L 306.523438 238.304688 C 306.007812 238.320312 305.632812 238.320312 305.382812 238.320312 C 305.023438 238.320312 304.539062 238.320312 303.554688 238.289062 L 303.554688 238.601562 L 304.054688 238.632812 C 304.523438 238.664062 304.570312 238.726562 304.585938 239.570312 L 304.585938 244.257812 C 304.570312 245.085938 304.523438 245.179688 304.054688 245.195312 L 303.554688 245.226562 L 303.554688 245.539062 C 304.164062 245.523438 304.523438 245.507812 305.070312 245.507812 C 305.617188 245.507812 305.992188 245.523438 306.601562 245.539062 L 306.601562 245.226562 L 306.101562 245.195312 C 305.617188 245.179688 305.585938 245.101562 305.570312 244.257812 Z M 309.117188 243.421875 "/>
<path style="fill:none;stroke-width:4.16954;stroke-linecap:butt;stroke-linejoin:miter;stroke:rgb(40%,70%,30%);stroke-opacity:1;stroke-miterlimit:10;" d="M 102.855469 148.949219 L 155.195312 165.953125 "/>
<path style=" stroke:none;fill-rule:evenodd;fill:rgb(40%,70%,30%);fill-opacity:1;" d="M 168.378906 170.238281 L 152.246094 172.667969 L 156.753906 158.789062 Z M 168.378906 170.238281 "/>
<path style=" stroke:none;fill-rule:evenodd;fill:rgb(40%,70%,30%);fill-opacity:1;" d="M 135.179688 149.824219 L 135.085938 151.589844 C 136.101562 151.542969 136.414062 151.527344 136.710938 151.527344 C 136.976562 151.527344 137.101562 151.527344 137.804688 151.574219 L 138.242188 151.589844 L 138.242188 150.964844 L 137.429688 150.917969 C 136.898438 150.855469 136.867188 150.792969 136.851562 149.714844 L 136.851562 145.902344 C 136.851562 142.855469 135.976562 141.746094 133.554688 141.746094 C 132.632812 141.746094 131.820312 141.980469 131.039062 142.464844 L 129.929688 143.121094 L 129.929688 144.480469 L 130.476562 144.621094 L 130.742188 143.980469 C 131.179688 142.996094 131.382812 142.855469 132.351562 142.855469 C 134.304688 142.855469 135.117188 143.621094 135.179688 145.527344 L 133.117188 145.902344 C 130.289062 146.417969 129.101562 147.402344 129.101562 149.230469 C 129.101562 150.839844 130.054688 151.777344 131.726562 151.777344 C 132.117188 151.777344 132.445312 151.714844 132.601562 151.605469 Z M 135.179688 148.949219 C 134.585938 149.792969 133.257812 150.589844 132.445312 150.589844 C 131.601562 150.589844 130.882812 149.839844 130.882812 148.917969 C 130.882812 148.152344 131.304688 147.417969 131.914062 147.027344 C 132.445312 146.714844 133.601562 146.417969 135.179688 146.183594 Z M 142.136719 146.707031 L 142.136719 146.394531 C 141.511719 146.425781 141.136719 146.425781 140.605469 146.425781 C 140.089844 146.425781 139.714844 146.425781 139.089844 146.394531 L 139.089844 146.707031 L 139.589844 146.738281 C 140.058594 146.769531 140.105469 146.832031 140.121094 147.675781 L 140.121094 152.363281 C 140.105469 153.191406 140.058594 153.285156 139.589844 153.300781 L 139.089844 153.332031 L 139.089844 153.644531 C 139.699219 153.628906 140.058594 153.613281 140.605469 153.613281 C 141.152344 153.613281 141.527344 153.628906 142.136719 153.644531 L 142.136719 153.332031 L 141.636719 153.300781 C 141.152344 153.285156 141.121094 153.207031 141.105469 152.363281 L 141.105469 147.675781 C 141.121094 146.832031 141.152344 146.769531 141.636719 146.738281 Z M 142.367188 151.527344 "/>
<path style="fill:none;stroke-width:4.16954;stroke-linecap:butt;stroke-linejoin:miter;stroke:rgb(100%,40%,30%);stroke-opacity:1;stroke-miterlimit:10;" d="M 290.960938 107.355469 L 271.042969 168.574219 "/>
<path style=" stroke:none;fill-rule:evenodd;fill:rgb(100%,40%,30%);fill-opacity:1;" d="M 266.753906 181.757812 L 264.332031 165.625 L 278.207031 170.136719 Z M 266.753906 181.757812 "/>
<path style=" stroke:none;fill-rule:evenodd;fill:rgb(100%,40%,30%);fill-opacity:1;" d="M 291.074219 146.6875 L 290.980469 148.453125 C 291.996094 148.40625 292.308594 148.390625 292.605469 148.390625 C 292.871094 148.390625 292.996094 148.390625 293.699219 148.4375 L 294.136719 148.453125 L 294.136719 147.828125 L 293.324219 147.78125 C 292.792969 147.71875 292.761719 147.65625 292.746094 146.578125 L 292.746094 142.765625 C 292.746094 139.71875 291.871094 138.609375 289.449219 138.609375 C 288.527344 138.609375 287.714844 138.84375 286.933594 139.328125 L 285.824219 139.984375 L 285.824219 141.34375 L 286.371094 141.484375 L 286.636719 140.84375 C 287.074219 139.859375 287.277344 139.71875 288.246094 139.71875 C 290.199219 139.71875 291.011719 140.484375 291.074219 142.390625 L 289.011719 142.765625 C 286.183594 143.28125 284.996094 144.265625 284.996094 146.09375 C 284.996094 147.703125 285.949219 148.640625 287.621094 148.640625 C 288.011719 148.640625 288.339844 148.578125 288.496094 148.46875 Z M 291.074219 145.8125 C 290.480469 146.65625 289.152344 147.453125 288.339844 147.453125 C 287.496094 147.453125 286.777344 146.703125 286.777344 145.78125 C 286.777344 145.015625 287.199219 144.28125 287.808594 143.890625 C 288.339844 143.578125 289.496094 143.28125 291.074219 143.046875 Z M 297 147.070312 C 297.265625 147.054688 297.5625 147.039062 298.078125 147.039062 C 298.828125 147.039062 299.125 147.070312 299.3125 147.164062 L 299.390625 147.429688 L 299.453125 148.039062 L 299.765625 148.039062 C 299.734375 147.335938 299.734375 147.085938 299.734375 146.882812 C 299.734375 146.679688 299.734375 146.367188 299.765625 145.679688 L 299.453125 145.679688 L 299.390625 146.210938 C 299.390625 146.304688 299.359375 146.398438 299.3125 146.492188 C 299.125 146.570312 298.828125 146.601562 298.140625 146.601562 C 297.640625 146.601562 297.359375 146.585938 297 146.570312 L 297 143.789062 C 297.3125 143.710938 297.515625 143.695312 298.125 143.695312 C 298.609375 143.695312 299.203125 143.757812 299.515625 143.851562 C 299.765625 143.914062 299.796875 143.960938 299.796875 144.195312 L 299.796875 144.882812 L 300.171875 144.882812 C 300.171875 144.257812 300.21875 143.757812 300.34375 143.289062 C 299.828125 143.273438 299.53125 143.257812 299.0625 143.257812 L 297.953125 143.273438 C 297.4375 143.289062 297.0625 143.289062 296.8125 143.289062 C 296.453125 143.289062 295.96875 143.289062 294.984375 143.257812 L 294.984375 143.570312 L 295.484375 143.601562 C 295.953125 143.632812 296 143.695312 296.015625 144.539062 L 296.015625 149.226562 C 296 150.054688 295.953125 150.148438 295.484375 150.164062 L 294.984375 150.195312 L 294.984375 150.507812 C 295.59375 150.492188 295.953125 150.476562 296.5 150.476562 C 297.046875 150.476562 297.421875 150.492188 298.03125 150.507812 L 298.03125 150.195312 L 297.53125 150.164062 C 297.046875 150.148438 297.015625 150.070312 297 149.226562 Z M 300.546875 148.390625 "/>
</g>
</svg>
