<?xml version="1.0" encoding="UTF-8"?>
<svg xmlns="http://www.w3.org/2000/svg" xmlns:xlink="http://www.w3.org/1999/xlink" width="552.755906pt" height="323.641529pt" viewBox="0 0 552.755906 323.641529" version="1.1">
<defs>
<radialGradient id="radial0" gradientUnits="userSpaceOnUse" cx="0" cy="0" fx="0" fy="0" r="50" gradientTransform="matrix(10.423851,0,0,-10.423851,205.548177,252.267803)">
<stop offset="0.2" style="stop-color:rgb(94%,94%,94%);stop-opacity:1;"/>
<stop offset="0.6" style="stop-color:rgb(100%,95%,80%);stop-opacity:1;"/>
<stop offset="1" style="stop-color:rgb(85%,82%,80%);stop-opacity:1;"/>
</radialGradient>
</defs>
<g id="surface1">
<path style=" stroke:none;fill-rule:evenodd;fill:url(#radial0);" d="M 552.757812 0 L 0 0 L 0 323.640625 L 552.757812 323.640625 Z M 552.757812 0 "/>
<path style="fill:none;stroke-width:0.833908;stroke-linecap:butt;stroke-linejoin:miter;stroke:rgb(0%,0%,0%);stroke-opacity:1;stroke-miterlimit:10;" d="M 205.546875 252.269531 L 509.0625 252.269531 "/>
<path style="fill:none;stroke-width:0.625431;stroke-linecap:butt;stroke-linejoin:miter;stroke:rgb(0%,0%,0%);stroke-opacity:1;stroke-miterlimit:10;" d="M 503.433594 255.394531 L 509.6875 252.269531 L 503.433594 249.140625 "/>
<path style="fill:none;stroke-width:0.833908;stroke-linecap:butt;stroke-linejoin:miter;stroke:rgb(0%,0%,0%);stroke-opacity:1;stroke-miterlimit:10;" d="M 205.546875 252.269531 L 205.546875 16.789062 "/>
<path style="fill:none;stroke-width:0.625431;stroke-linecap:butt;stroke-linejoin:miter;stroke:rgb(0%,0%,0%);stroke-opacity:1;stroke-miterlimit:10;" d="M 208.675781 22.417969 L 205.546875 16.164062 L 202.421875 22.417969 "/>
<path style=" stroke:none;fill-rule:evenodd;fill:rgb(0%,0%,0%);fill-opacity:1;" d="M 199.652344 255.230469 C 196.558594 255.230469 194.496094 257.230469 194.496094 260.214844 C 194.496094 263.058594 196.480469 265.105469 199.214844 265.105469 C 202.246094 265.105469 204.542969 262.855469 204.542969 259.871094 C 204.542969 257.027344 202.652344 255.230469 199.652344 255.230469 Z M 199.417969 255.808594 C 201.746094 255.808594 203.105469 257.449219 203.105469 260.277344 C 203.105469 262.949219 201.871094 264.542969 199.746094 264.542969 C 197.464844 264.542969 195.949219 262.621094 195.949219 259.714844 C 195.949219 257.214844 197.199219 255.808594 199.417969 255.808594 Z M 204.851562 264.839844 "/>
<path style=" stroke:none;fill-rule:evenodd;fill:rgb(0%,0%,0%);fill-opacity:1;" d="M 513.328125 258.394531 L 515.25 256.144531 C 515.328125 256.050781 515.46875 255.988281 515.703125 255.988281 L 515.890625 255.988281 L 515.890625 255.613281 L 514.78125 255.613281 L 513.109375 257.988281 L 512.078125 256.410156 C 511.875 256.097656 511.734375 255.957031 511.265625 255.472656 L 509.6875 255.753906 L 509.765625 256.097656 L 510.046875 256.128906 C 510.28125 256.144531 510.59375 256.332031 510.71875 256.519531 L 512.34375 258.878906 L 510.328125 261.269531 C 510.234375 261.378906 510.0625 261.472656 509.921875 261.472656 L 509.6875 261.472656 L 509.6875 261.832031 L 510.859375 261.832031 C 510.953125 261.675781 510.984375 261.628906 511.140625 261.378906 C 511.359375 261.003906 511.578125 260.675781 511.671875 260.566406 L 512.671875 259.238281 L 514.125 261.425781 C 514.265625 261.644531 514.359375 261.785156 514.46875 261.878906 C 514.984375 261.847656 515.15625 261.832031 515.296875 261.832031 C 515.453125 261.832031 515.625 261.847656 516.140625 261.878906 L 516.140625 261.472656 L 515.796875 261.425781 C 515.640625 261.410156 515.484375 261.300781 515.328125 261.097656 Z M 516.414062 261.832031 "/>
<path style=" stroke:none;fill-rule:evenodd;fill:rgb(0%,0%,0%);fill-opacity:1;" d="M 210.867188 11.164062 C 210.554688 10.648438 210.414062 10.351562 210.164062 9.679688 L 209.304688 7.398438 C 209.226562 7.195312 209.179688 6.992188 209.179688 6.835938 C 209.179688 6.648438 209.335938 6.539062 209.632812 6.523438 L 210.148438 6.492188 L 210.148438 6.117188 C 209.242188 6.148438 208.882812 6.164062 208.570312 6.164062 C 208.257812 6.164062 207.898438 6.148438 206.992188 6.117188 L 206.992188 6.492188 L 207.242188 6.523438 C 207.585938 6.554688 207.742188 6.710938 207.945312 7.195312 L 209.429688 10.742188 C 209.804688 11.664062 209.945312 11.976562 210.179688 12.664062 L 209.867188 13.492188 C 209.429688 14.632812 208.914062 15.257812 208.398438 15.257812 C 208.179688 15.257812 207.914062 15.132812 207.695312 14.945312 L 207.523438 14.945312 L 207.195312 15.960938 C 207.460938 16.117188 207.679688 16.164062 207.929688 16.164062 C 208.835938 16.164062 209.429688 15.679688 209.945312 14.507812 L 212.695312 8.164062 C 213.226562 6.929688 213.492188 6.570312 213.820312 6.523438 L 214.210938 6.492188 L 214.210938 6.117188 C 213.476562 6.148438 213.164062 6.164062 212.914062 6.164062 C 212.679688 6.164062 212.367188 6.148438 211.632812 6.117188 L 211.632812 6.492188 L 211.976562 6.523438 C 212.367188 6.554688 212.554688 6.679688 212.554688 6.867188 C 212.554688 6.960938 212.523438 7.085938 212.476562 7.210938 Z M 214.371094 12.335938 "/>
<path style="fill:none;stroke-width:2.08477;stroke-linecap:round;stroke-linejoin:miter;stroke:rgb(65%,65%,65%);stroke-opacity:1;stroke-dasharray:5.211926,10.423851;stroke-miterlimit:10;" d="M 42.070312 237.941406 C 31.144531 171.792969 85.53125 84.484375 212.890625 54.539062 C 340.253906 24.589844 388.886719 105.722656 398.890625 203.113281 "/>
<path style=" stroke:none;fill-rule:evenodd;fill:rgb(65%,65%,65%);fill-opacity:1;" d="M 341.894531 51.152344 L 342.800781 51.402344 L 343.425781 49.902344 C 343.769531 49.058594 344.738281 48.589844 346.144531 48.589844 C 348.394531 48.589844 349.988281 49.996094 349.988281 51.996094 C 349.988281 53.261719 349.425781 54.261719 347.582031 56.292969 C 345.675781 58.386719 345.175781 59.230469 345.175781 60.292969 C 345.175781 61.230469 345.613281 61.980469 346.550781 62.574219 L 347.207031 62.136719 C 346.707031 61.511719 346.519531 61.136719 346.519531 60.636719 C 346.519531 59.605469 346.925781 59.074219 349.457031 56.761719 C 352.144531 54.324219 352.894531 53.136719 352.894531 51.339844 C 352.894531 48.589844 350.457031 46.527344 347.238281 46.527344 C 345.832031 46.527344 344.738281 46.808594 343.082031 47.621094 Z M 346.738281 64.761719 C 345.800781 64.761719 344.957031 65.636719 344.957031 66.574219 C 344.957031 67.542969 345.800781 68.386719 346.707031 68.386719 C 347.707031 68.386719 348.582031 67.542969 348.582031 66.574219 C 348.582031 65.636719 347.707031 64.761719 346.738281 64.761719 Z M 354.433594 68.230469 "/>
<path style="fill:none;stroke-width:2.08477;stroke-linecap:butt;stroke-linejoin:miter;stroke:rgb(40%,70%,30%);stroke-opacity:1;stroke-miterlimit:10;" d="M 42.070312 237.941406 L 32.757812 181.5625 "/>
<path style=" stroke:none;fill-rule:evenodd;fill:rgb(40%,70%,30%);fill-opacity:1;" d="M 31.144531 171.792969 L 37.984375 181.230469 L 27.699219 182.925781 Z M 31.144531 171.792969 "/>
<path style=" stroke:none;fill-rule:evenodd;fill:rgb(40%,70%,30%);fill-opacity:1;" d="M 45.195312 237.941406 C 45.195312 233.773438 38.941406 233.773438 38.941406 237.941406 C 38.941406 242.113281 45.195312 242.113281 45.195312 237.941406 "/>
<path style=" stroke:none;fill-rule:evenodd;fill:rgb(40%,70%,30%);fill-opacity:1;" d="M 28.300781 211.285156 L 28.300781 210.707031 C 27.191406 210.738281 26.738281 210.769531 26.347656 210.769531 C 25.941406 210.769531 25.488281 210.738281 24.378906 210.707031 L 24.378906 211.285156 L 25.238281 211.332031 C 25.566406 211.347656 25.738281 211.519531 25.738281 211.863281 C 25.738281 212.222656 25.613281 212.722656 25.347656 213.394531 L 24.472656 215.597656 C 24.222656 216.207031 23.972656 216.785156 23.175781 218.519531 L 20.691406 212.519531 C 20.566406 212.222656 20.503906 211.957031 20.503906 211.722656 C 20.503906 211.472656 20.691406 211.347656 21.019531 211.332031 L 22.050781 211.285156 L 22.050781 210.707031 C 20.675781 210.738281 20.082031 210.769531 19.582031 210.769531 C 19.082031 210.769531 18.550781 210.738281 17.191406 210.707031 L 17.191406 211.285156 L 17.894531 211.332031 C 18.207031 211.363281 18.316406 211.488281 18.550781 212.019531 L 22.128906 220.410156 L 23.175781 220.410156 C 23.566406 219.332031 23.863281 218.566406 24.035156 218.144531 L 26.488281 212.722656 C 26.941406 211.738281 27.253906 211.363281 27.660156 211.332031 Z M 32.125 215.449219 L 32.125 215.136719 C 31.5 215.167969 31.125 215.167969 30.59375 215.167969 C 30.078125 215.167969 29.703125 215.167969 29.078125 215.136719 L 29.078125 215.449219 L 29.578125 215.480469 C 30.046875 215.511719 30.09375 215.574219 30.109375 216.417969 L 30.109375 221.105469 C 30.09375 221.933594 30.046875 222.027344 29.578125 222.042969 L 29.078125 222.074219 L 29.078125 222.386719 C 29.6875 222.371094 30.046875 222.355469 30.59375 222.355469 C 31.140625 222.355469 31.515625 222.371094 32.125 222.386719 L 32.125 222.074219 L 31.625 222.042969 C 31.140625 222.027344 31.109375 221.949219 31.09375 221.105469 L 31.09375 216.417969 C 31.109375 215.574219 31.140625 215.511719 31.625 215.480469 Z M 32.355469 220.269531 "/>
<path style=" stroke:none;fill-rule:evenodd;fill:rgb(40%,70%,30%);fill-opacity:1;" d="M 32.113281 244.417969 L 32.113281 250.433594 C 32.113281 251.964844 32.800781 252.636719 34.394531 252.636719 C 34.878906 252.636719 35.378906 252.527344 35.503906 252.386719 L 36.503906 251.277344 L 36.238281 250.933594 C 35.691406 251.246094 35.425781 251.324219 35.003906 251.324219 C 34.191406 251.324219 33.863281 250.902344 33.863281 249.886719 L 33.863281 244.417969 L 36.535156 244.417969 L 36.722656 243.292969 L 33.863281 243.417969 L 33.863281 242.636719 C 33.863281 241.777344 33.925781 240.886719 34.082031 239.667969 L 33.832031 239.449219 C 33.316406 239.761719 32.707031 240.027344 32.066406 240.230469 C 32.128906 240.824219 32.144531 241.230469 32.144531 241.886719 L 32.144531 243.339844 L 30.519531 244.074219 L 30.519531 244.511719 Z M 40.144531 247.566406 L 40.144531 247.253906 C 39.519531 247.285156 39.144531 247.285156 38.613281 247.285156 C 38.097656 247.285156 37.722656 247.285156 37.097656 247.253906 L 37.097656 247.566406 L 37.597656 247.597656 C 38.066406 247.628906 38.113281 247.691406 38.128906 248.535156 L 38.128906 253.222656 C 38.113281 254.050781 38.066406 254.144531 37.597656 254.160156 L 37.097656 254.191406 L 37.097656 254.503906 C 37.707031 254.488281 38.066406 254.472656 38.613281 254.472656 C 39.160156 254.472656 39.535156 254.488281 40.144531 254.503906 L 40.144531 254.191406 L 39.644531 254.160156 C 39.160156 254.144531 39.128906 254.066406 39.113281 253.222656 L 39.113281 248.535156 C 39.128906 247.691406 39.160156 247.628906 39.644531 247.597656 Z M 40.375 252.386719 "/>
<path style="fill:none;stroke-width:2.08477;stroke-linecap:butt;stroke-linejoin:miter;stroke:rgb(100%,40%,30%);stroke-opacity:1;stroke-miterlimit:10;" d="M 398.890625 203.113281 L 407.882812 290.65625 "/>
<path style=" stroke:none;fill-rule:evenodd;fill:rgb(100%,40%,30%);fill-opacity:1;" d="M 408.894531 300.507812 L 402.644531 290.671875 L 413.011719 289.605469 Z M 408.894531 300.507812 "/>
<path style=" stroke:none;fill-rule:evenodd;fill:rgb(100%,40%,30%);fill-opacity:1;" d="M 402.019531 203.113281 C 402.019531 198.945312 395.761719 198.945312 395.761719 203.113281 C 395.761719 207.285156 402.019531 207.285156 402.019531 203.113281 "/>
<path style=" stroke:none;fill-rule:evenodd;fill:rgb(100%,40%,30%);fill-opacity:1;" d="M 392.582031 258.230469 L 392.582031 257.652344 C 391.472656 257.683594 391.019531 257.714844 390.628906 257.714844 C 390.222656 257.714844 389.769531 257.683594 388.660156 257.652344 L 388.660156 258.230469 L 389.519531 258.277344 C 389.847656 258.292969 390.019531 258.464844 390.019531 258.808594 C 390.019531 259.167969 389.894531 259.667969 389.628906 260.339844 L 388.753906 262.542969 C 388.503906 263.152344 388.253906 263.730469 387.457031 265.464844 L 384.972656 259.464844 C 384.847656 259.167969 384.785156 258.902344 384.785156 258.667969 C 384.785156 258.417969 384.972656 258.292969 385.300781 258.277344 L 386.332031 258.230469 L 386.332031 257.652344 C 384.957031 257.683594 384.363281 257.714844 383.863281 257.714844 C 383.363281 257.714844 382.832031 257.683594 381.472656 257.652344 L 381.472656 258.230469 L 382.175781 258.277344 C 382.488281 258.308594 382.597656 258.433594 382.832031 258.964844 L 386.410156 267.355469 L 387.457031 267.355469 C 387.847656 266.277344 388.144531 265.511719 388.316406 265.089844 L 390.769531 259.667969 C 391.222656 258.683594 391.535156 258.308594 391.941406 258.277344 Z M 395.375 265.894531 C 395.640625 265.878906 395.9375 265.863281 396.453125 265.863281 C 397.203125 265.863281 397.5 265.894531 397.6875 265.988281 L 397.765625 266.253906 L 397.828125 266.863281 L 398.140625 266.863281 C 398.109375 266.160156 398.109375 265.910156 398.109375 265.707031 C 398.109375 265.503906 398.109375 265.191406 398.140625 264.503906 L 397.828125 264.503906 L 397.765625 265.035156 C 397.765625 265.128906 397.734375 265.222656 397.6875 265.316406 C 397.5 265.394531 397.203125 265.425781 396.515625 265.425781 C 396.015625 265.425781 395.734375 265.410156 395.375 265.394531 L 395.375 262.613281 C 395.6875 262.535156 395.890625 262.519531 396.5 262.519531 C 396.984375 262.519531 397.578125 262.582031 397.890625 262.675781 C 398.140625 262.738281 398.171875 262.785156 398.171875 263.019531 L 398.171875 263.707031 L 398.546875 263.707031 C 398.546875 263.082031 398.59375 262.582031 398.71875 262.113281 C 398.203125 262.097656 397.90625 262.082031 397.4375 262.082031 L 396.328125 262.097656 C 395.8125 262.113281 395.4375 262.113281 395.1875 262.113281 C 394.828125 262.113281 394.34375 262.113281 393.359375 262.082031 L 393.359375 262.394531 L 393.859375 262.425781 C 394.328125 262.457031 394.375 262.519531 394.390625 263.363281 L 394.390625 268.050781 C 394.375 268.878906 394.328125 268.972656 393.859375 268.988281 L 393.359375 269.019531 L 393.359375 269.332031 C 393.96875 269.316406 394.328125 269.300781 394.875 269.300781 C 395.421875 269.300781 395.796875 269.316406 396.40625 269.332031 L 396.40625 269.019531 L 395.90625 268.988281 C 395.421875 268.972656 395.390625 268.894531 395.375 268.050781 Z M 398.921875 267.214844 "/>
<path style=" stroke:none;fill-rule:evenodd;fill:rgb(100%,40%,30%);fill-opacity:1;" d="M 404.066406 191.523438 L 404.066406 197.539062 C 404.066406 199.070312 404.753906 199.742188 406.347656 199.742188 C 406.832031 199.742188 407.332031 199.632812 407.457031 199.492188 L 408.457031 198.382812 L 408.191406 198.039062 C 407.644531 198.351562 407.378906 198.429688 406.957031 198.429688 C 406.144531 198.429688 405.816406 198.007812 405.816406 196.992188 L 405.816406 191.523438 L 408.488281 191.523438 L 408.675781 190.398438 L 405.816406 190.523438 L 405.816406 189.742188 C 405.816406 188.882812 405.878906 187.992188 406.035156 186.773438 L 405.785156 186.554688 C 405.269531 186.867188 404.660156 187.132812 404.019531 187.335938 C 404.082031 187.929688 404.097656 188.335938 404.097656 188.992188 L 404.097656 190.445312 L 402.472656 191.179688 L 402.472656 191.617188 Z M 411.066406 198.171875 C 411.332031 198.15625 411.628906 198.140625 412.144531 198.140625 C 412.894531 198.140625 413.191406 198.171875 413.378906 198.265625 L 413.457031 198.53125 L 413.519531 199.140625 L 413.832031 199.140625 C 413.800781 198.4375 413.800781 198.1875 413.800781 197.984375 C 413.800781 197.78125 413.800781 197.46875 413.832031 196.78125 L 413.519531 196.78125 L 413.457031 197.3125 C 413.457031 197.40625 413.425781 197.5 413.378906 197.59375 C 413.191406 197.671875 412.894531 197.703125 412.207031 197.703125 C 411.707031 197.703125 411.425781 197.6875 411.066406 197.671875 L 411.066406 194.890625 C 411.378906 194.8125 411.582031 194.796875 412.191406 194.796875 C 412.675781 194.796875 413.269531 194.859375 413.582031 194.953125 C 413.832031 195.015625 413.863281 195.0625 413.863281 195.296875 L 413.863281 195.984375 L 414.238281 195.984375 C 414.238281 195.359375 414.285156 194.859375 414.410156 194.390625 C 413.894531 194.375 413.597656 194.359375 413.128906 194.359375 L 412.019531 194.375 C 411.503906 194.390625 411.128906 194.390625 410.878906 194.390625 C 410.519531 194.390625 410.035156 194.390625 409.050781 194.359375 L 409.050781 194.671875 L 409.550781 194.703125 C 410.019531 194.734375 410.066406 194.796875 410.082031 195.640625 L 410.082031 200.328125 C 410.066406 201.15625 410.019531 201.25 409.550781 201.265625 L 409.050781 201.296875 L 409.050781 201.609375 C 409.660156 201.59375 410.019531 201.578125 410.566406 201.578125 C 411.113281 201.578125 411.488281 201.59375 412.097656 201.609375 L 412.097656 201.296875 L 411.597656 201.265625 C 411.113281 201.25 411.082031 201.171875 411.066406 200.328125 Z M 414.613281 199.492188 "/>
<path style="fill:none;stroke-width:2.08477;stroke-linecap:butt;stroke-linejoin:miter;stroke:rgb(40%,70%,30%);stroke-opacity:1;stroke-miterlimit:10;" d="M 205.546875 252.269531 L 51.933594 238.808594 "/>
<path style=" stroke:none;fill-rule:evenodd;fill:rgb(40%,70%,30%);fill-opacity:1;" d="M 42.070312 237.941406 L 52.910156 233.660156 L 52 244.042969 Z M 42.070312 237.941406 "/>
<path style=" stroke:none;fill-rule:evenodd;fill:rgb(40%,70%,30%);fill-opacity:1;" d="M 118.269531 260.273438 L 118.269531 260.898438 C 119.644531 260.851562 120.253906 260.835938 120.832031 260.835938 C 121.332031 260.835938 122.097656 260.851562 123.816406 260.898438 L 123.816406 260.273438 L 122.722656 260.210938 C 121.769531 260.148438 121.753906 260.132812 121.753906 258.710938 L 121.753906 255.117188 C 121.753906 253.851562 122.582031 252.835938 123.613281 252.835938 C 124.238281 252.835938 124.675781 253.117188 125.003906 253.789062 L 125.441406 253.789062 L 125.628906 251.289062 C 125.378906 251.148438 125.019531 251.054688 124.644531 251.054688 C 124.019531 251.054688 123.363281 251.398438 122.910156 251.914062 L 121.753906 253.289062 L 121.753906 251.148438 L 121.566406 251.054688 C 120.535156 251.492188 119.394531 251.789062 118.316406 251.914062 L 118.316406 252.492188 L 119.082031 252.492188 C 119.941406 252.523438 119.972656 252.601562 120.003906 254.023438 L 120.003906 258.710938 C 119.972656 260.070312 119.957031 260.148438 119.222656 260.210938 Z M 129.347656 256.015625 L 129.347656 255.703125 C 128.722656 255.734375 128.347656 255.734375 127.816406 255.734375 C 127.300781 255.734375 126.925781 255.734375 126.300781 255.703125 L 126.300781 256.015625 L 126.800781 256.046875 C 127.269531 256.078125 127.316406 256.140625 127.332031 256.984375 L 127.332031 261.671875 C 127.316406 262.5 127.269531 262.59375 126.800781 262.609375 L 126.300781 262.640625 L 126.300781 262.953125 C 126.910156 262.9375 127.269531 262.921875 127.816406 262.921875 C 128.363281 262.921875 128.738281 262.9375 129.347656 262.953125 L 129.347656 262.640625 L 128.847656 262.609375 C 128.363281 262.59375 128.332031 262.515625 128.316406 261.671875 L 128.316406 256.984375 C 128.332031 256.140625 128.363281 256.078125 128.847656 256.046875 Z M 129.578125 260.835938 "/>
<path style="fill:none;stroke-width:2.08477;stroke-linecap:butt;stroke-linejoin:miter;stroke:rgb(100%,40%,30%);stroke-opacity:1;stroke-miterlimit:10;" d="M 205.546875 252.269531 L 389.292969 205.554688 "/>
<path style=" stroke:none;fill-rule:evenodd;fill:rgb(100%,40%,30%);fill-opacity:1;" d="M 398.890625 203.113281 L 390.074219 210.734375 L 387.503906 200.632812 Z M 398.890625 203.113281 "/>
<path style=" stroke:none;fill-rule:evenodd;fill:rgb(100%,40%,30%);fill-opacity:1;" d="M 208.675781 252.269531 C 208.675781 248.097656 202.421875 248.097656 202.421875 252.269531 C 202.421875 256.4375 208.675781 256.4375 208.675781 252.269531 "/>
<path style=" stroke:none;fill-rule:evenodd;fill:rgb(100%,40%,30%);fill-opacity:1;" d="M 295.523438 242.859375 L 295.523438 243.484375 C 296.898438 243.4375 297.507812 243.421875 298.085938 243.421875 C 298.585938 243.421875 299.351562 243.4375 301.070312 243.484375 L 301.070312 242.859375 L 299.976562 242.796875 C 299.023438 242.734375 299.007812 242.71875 299.007812 241.296875 L 299.007812 237.703125 C 299.007812 236.4375 299.835938 235.421875 300.867188 235.421875 C 301.492188 235.421875 301.929688 235.703125 302.257812 236.375 L 302.695312 236.375 L 302.882812 233.875 C 302.632812 233.734375 302.273438 233.640625 301.898438 233.640625 C 301.273438 233.640625 300.617188 233.984375 300.164062 234.5 L 299.007812 235.875 L 299.007812 233.734375 L 298.820312 233.640625 C 297.789062 234.078125 296.648438 234.375 295.570312 234.5 L 295.570312 235.078125 L 296.335938 235.078125 C 297.195312 235.109375 297.226562 235.1875 297.257812 236.609375 L 297.257812 241.296875 C 297.226562 242.65625 297.210938 242.734375 296.476562 242.796875 Z M 305.570312 242.101562 C 305.835938 242.085938 306.132812 242.070312 306.648438 242.070312 C 307.398438 242.070312 307.695312 242.101562 307.882812 242.195312 L 307.960938 242.460938 L 308.023438 243.070312 L 308.335938 243.070312 C 308.304688 242.367188 308.304688 242.117188 308.304688 241.914062 C 308.304688 241.710938 308.304688 241.398438 308.335938 240.710938 L 308.023438 240.710938 L 307.960938 241.242188 C 307.960938 241.335938 307.929688 241.429688 307.882812 241.523438 C 307.695312 241.601562 307.398438 241.632812 306.710938 241.632812 C 306.210938 241.632812 305.929688 241.617188 305.570312 241.601562 L 305.570312 238.820312 C 305.882812 238.742188 306.085938 238.726562 306.695312 238.726562 C 307.179688 238.726562 307.773438 238.789062 308.085938 238.882812 C 308.335938 238.945312 308.367188 238.992188 308.367188 239.226562 L 308.367188 239.914062 L 308.742188 239.914062 C 308.742188 239.289062 308.789062 238.789062 308.914062 238.320312 C 308.398438 238.304688 308.101562 238.289062 307.632812 238.289062 L 306.523438 238.304688 C 306.007812 238.320312 305.632812 238.320312 305.382812 238.320312 C 305.023438 238.320312 304.539062 238.320312 303.554688 238.289062 L 303.554688 238.601562 L 304.054688 238.632812 C 304.523438 238.664062 304.570312 238.726562 304.585938 239.570312 L 304.585938 244.257812 C 304.570312 245.085938 304.523438 245.179688 304.054688 245.195312 L 303.554688 245.226562 L 303.554688 245.539062 C 304.164062 245.523438 304.523438 245.507812 305.070312 245.507812 C 305.617188 245.507812 305.992188 245.523438 306.601562 245.539062 L 306.601562 245.226562 L 306.101562 245.195312 C 305.617188 245.179688 305.585938 245.101562 305.570312 244.257812 Z M 309.117188 243.421875 "/>
</g>
</svg>
