<?xml version="1.0" encoding="UTF-8"?>
<svg xmlns="http://www.w3.org/2000/svg" xmlns:xlink="http://www.w3.org/1999/xlink" width="552.755906pt" height="162.673736pt" viewBox="0 0 552.755906 162.673736" version="1.1">
<g id="surface6">
<path style="fill:none;stroke-width:1.016711;stroke-linecap:butt;stroke-linejoin:miter;stroke:rgb(0%,0%,0%);stroke-opacity:1;stroke-dasharray:5.083554;stroke-miterlimit:10;" d="M 116.484375 91.035156 L 288.050781 91.035156 "/>
<path style="fill-rule:evenodd;fill:rgb(75%,75%,75%);fill-opacity:1;stroke-width:2.033422;stroke-linecap:round;stroke-linejoin:round;stroke:rgb(0%,0%,0%);stroke-opacity:1;stroke-miterlimit:10;" d="M 313.46875 141.871094 L 262.632812 141.871094 L 262.632812 40.199219 L 313.46875 40.199219 Z M 313.46875 141.871094 "/>
<path style="fill:none;stroke-width:2.033422;stroke-linecap:butt;stroke-linejoin:miter;stroke:rgb(0%,0%,0%);stroke-opacity:1;stroke-miterlimit:10;" d="M 262.632812 107.980469 L 313.46875 107.980469 "/>
<path style="fill:none;stroke-width:2.033422;stroke-linecap:butt;stroke-linejoin:miter;stroke:rgb(0%,0%,0%);stroke-opacity:1;stroke-miterlimit:10;" d="M 262.632812 74.089844 L 313.46875 74.089844 "/>
<path style="fill:none;stroke-width:2.033422;stroke-linecap:butt;stroke-linejoin:miter;stroke:rgb(0%,0%,0%);stroke-opacity:1;stroke-miterlimit:10;" d="M 279.578125 141.871094 L 279.578125 40.199219 "/>
<path style="fill:none;stroke-width:2.033422;stroke-linecap:butt;stroke-linejoin:miter;stroke:rgb(0%,0%,0%);stroke-opacity:1;stroke-miterlimit:10;" d="M 296.523438 141.871094 L 296.523438 40.199219 "/>
<path style=" stroke:none;fill-rule:evenodd;fill:rgb(0%,0%,0%);fill-opacity:1;" d="M 265.683594 141.871094 C 265.683594 137.804688 259.582031 137.804688 259.582031 141.871094 C 259.582031 145.9375 265.683594 145.9375 265.683594 141.871094 "/>
<path style=" stroke:none;fill-rule:evenodd;fill:rgb(0%,0%,0%);fill-opacity:1;" d="M 265.683594 91.035156 C 265.683594 86.96875 259.582031 86.96875 259.582031 91.035156 C 259.582031 95.101562 265.683594 95.101562 265.683594 91.035156 "/>
<path style=" stroke:none;fill-rule:evenodd;fill:rgb(0%,0%,0%);fill-opacity:1;" d="M 265.683594 40.199219 C 265.683594 36.132812 259.582031 36.132812 259.582031 40.199219 C 259.582031 44.265625 265.683594 44.265625 265.683594 40.199219 "/>
<path style=" stroke:none;fill-rule:evenodd;fill:rgb(0%,0%,0%);fill-opacity:1;" d="M 316.519531 141.871094 C 316.519531 137.804688 310.417969 137.804688 310.417969 141.871094 C 310.417969 145.9375 316.519531 145.9375 316.519531 141.871094 "/>
<path style=" stroke:none;fill-rule:evenodd;fill:rgb(0%,0%,0%);fill-opacity:1;" d="M 316.519531 91.035156 C 316.519531 86.96875 310.417969 86.96875 310.417969 91.035156 C 310.417969 95.101562 316.519531 95.101562 316.519531 91.035156 "/>
<path style=" stroke:none;fill-rule:evenodd;fill:rgb(100%,0%,0%);fill-opacity:1;" d="M 316.519531 40.199219 C 316.519531 36.132812 310.417969 36.132812 310.417969 40.199219 C 310.417969 44.265625 316.519531 44.265625 316.519531 40.199219 "/>
<path style="fill:none;stroke-width:2.541777;stroke-linecap:butt;stroke-linejoin:miter;stroke:rgb(100%,0%,0%);stroke-opacity:1;stroke-miterlimit:10;" d="M 288.050781 28.535156 L 348.246094 28.535156 "/>
<path style=" stroke:none;fill-rule:evenodd;fill:rgb(100%,0%,0%);fill-opacity:1;" d="M 357.304688 28.535156 L 347.769531 33.300781 L 347.769531 23.769531 Z M 357.304688 28.535156 "/>
<path style=" stroke:none;fill-rule:evenodd;fill:rgb(100%,0%,0%);fill-opacity:1;" d="M 291.101562 28.535156 C 291.101562 24.46875 285 24.46875 285 28.535156 C 285 32.601562 291.101562 32.601562 291.101562 28.535156 "/>
<path style="fill:none;stroke-width:4.066843;stroke-linecap:butt;stroke-linejoin:miter;stroke:rgb(100%,0%,0%);stroke-opacity:1;stroke-miterlimit:10;" d="M 308.382812 96.117188 L 318.550781 85.953125 "/>
<path style="fill:none;stroke-width:4.066843;stroke-linecap:butt;stroke-linejoin:miter;stroke:rgb(100%,0%,0%);stroke-opacity:1;stroke-miterlimit:10;" d="M 308.382812 85.953125 L 318.550781 96.117188 "/>
<path style="fill-rule:evenodd;fill:rgb(100%,40%,0%);fill-opacity:0.3;stroke-width:1.016711;stroke-linecap:butt;stroke-linejoin:miter;stroke:rgb(100%,40%,0%);stroke-opacity:0.6;stroke-dasharray:4.066843;stroke-miterlimit:10;" d="M 333.144531 91.035156 C 333.144531 80.167969 324.335938 71.359375 313.46875 71.359375 C 302.601562 71.359375 293.792969 80.167969 293.792969 91.035156 C 293.792969 101.902344 302.601562 110.710938 313.46875 110.710938 C 324.335938 110.710938 333.144531 101.902344 333.144531 91.035156 "/>
<path style="fill:none;stroke-width:12.20053;stroke-linecap:round;stroke-linejoin:miter;stroke:rgb(100%,100%,100%);stroke-opacity:0.4;stroke-miterlimit:10;" d="M 327.703125 91.089844 L 372.4375 91.089844 "/>
<path style=" stroke:none;fill-rule:evenodd;fill:rgb(100%,0%,0%);fill-opacity:1;" d="M 328.878906 88.097656 L 328.878906 89.175781 C 328.554688 89 328.226562 88.871094 327.894531 88.785156 C 327.570312 88.691406 327.246094 88.644531 326.925781 88.644531 C 326.175781 88.644531 325.597656 88.878906 325.191406 89.347656 C 324.785156 89.816406 324.582031 90.472656 324.582031 91.316406 C 324.582031 92.160156 324.785156 92.824219 325.191406 93.300781 C 325.597656 93.769531 326.175781 94.003906 326.925781 94.003906 C 327.246094 94.003906 327.570312 93.964844 327.894531 93.878906 C 328.226562 93.785156 328.554688 93.644531 328.878906 93.457031 L 328.878906 94.519531 C 328.554688 94.667969 328.222656 94.777344 327.878906 94.847656 C 327.542969 94.929688 327.183594 94.972656 326.800781 94.972656 C 325.746094 94.972656 324.914062 94.644531 324.300781 93.988281 C 323.683594 93.324219 323.378906 92.433594 323.378906 91.316406 C 323.378906 90.183594 323.683594 89.292969 324.300781 88.644531 C 324.925781 88 325.777344 87.675781 326.863281 87.675781 C 327.214844 87.675781 327.558594 87.714844 327.894531 87.785156 C 328.226562 87.859375 328.554688 87.964844 328.878906 88.097656 Z M 333.554688 88.644531 C 332.9375 88.644531 332.453125 88.886719 332.101562 89.363281 C 331.746094 89.832031 331.570312 90.484375 331.570312 91.316406 C 331.570312 92.152344 331.746094 92.808594 332.101562 93.285156 C 332.453125 93.765625 332.9375 94.003906 333.554688 94.003906 C 334.15625 94.003906 334.636719 93.765625 334.992188 93.285156 C 335.355469 92.796875 335.539062 92.140625 335.539062 91.316406 C 335.539062 90.496094 335.355469 89.84375 334.992188 89.363281 C 334.636719 88.886719 334.15625 88.644531 333.554688 88.644531 Z M 333.554688 87.675781 C 334.542969 87.675781 335.320312 88 335.882812 88.644531 C 336.453125 89.292969 336.742188 90.183594 336.742188 91.316406 C 336.742188 92.453125 336.453125 93.347656 335.882812 94.003906 C 335.320312 94.652344 334.542969 94.972656 333.554688 94.972656 C 332.554688 94.972656 331.773438 94.652344 331.210938 94.003906 C 330.648438 93.347656 330.367188 92.453125 330.367188 91.316406 C 330.367188 90.183594 330.648438 89.292969 331.210938 88.644531 C 331.773438 88 332.554688 87.675781 333.554688 87.675781 Z M 338.640625 85.128906 L 339.78125 85.128906 L 339.78125 94.785156 L 338.640625 94.785156 Z M 342.171875 85.128906 L 343.3125 85.128906 L 343.3125 94.785156 L 342.171875 94.785156 Z M 345.703125 87.832031 L 346.84375 87.832031 L 346.84375 94.785156 L 345.703125 94.785156 Z M 345.703125 85.128906 L 346.84375 85.128906 L 346.84375 86.582031 L 345.703125 86.582031 Z M 353.65625 88.035156 L 353.65625 89.128906 C 353.332031 88.964844 352.992188 88.839844 352.640625 88.753906 C 352.296875 88.671875 351.941406 88.628906 351.578125 88.628906 C 351.003906 88.628906 350.578125 88.71875 350.296875 88.894531 C 350.015625 89.0625 349.875 89.316406 349.875 89.660156 C 349.875 89.933594 349.972656 90.144531 350.171875 90.300781 C 350.378906 90.449219 350.789062 90.589844 351.40625 90.722656 L 351.796875 90.816406 C 352.597656 90.984375 353.171875 91.230469 353.515625 91.550781 C 353.859375 91.863281 354.03125 92.300781 354.03125 92.863281 C 354.03125 93.511719 353.773438 94.027344 353.265625 94.410156 C 352.753906 94.785156 352.050781 94.972656 351.15625 94.972656 C 350.78125 94.972656 350.390625 94.933594 349.984375 94.863281 C 349.585938 94.789062 349.164062 94.683594 348.71875 94.535156 L 348.71875 93.347656 C 349.144531 93.566406 349.5625 93.734375 349.96875 93.847656 C 350.375 93.953125 350.78125 94.003906 351.1875 94.003906 C 351.71875 94.003906 352.128906 93.917969 352.421875 93.738281 C 352.710938 93.550781 352.859375 93.292969 352.859375 92.957031 C 352.859375 92.644531 352.753906 92.40625 352.546875 92.238281 C 352.335938 92.074219 351.878906 91.917969 351.171875 91.769531 L 350.765625 91.675781 C 350.066406 91.519531 349.554688 91.292969 349.234375 90.988281 C 348.921875 90.675781 348.765625 90.253906 348.765625 89.722656 C 348.765625 89.066406 348.992188 88.5625 349.453125 88.207031 C 349.921875 87.855469 350.582031 87.675781 351.4375 87.675781 C 351.851562 87.675781 352.25 87.707031 352.625 87.769531 C 353 87.832031 353.34375 87.921875 353.65625 88.035156 Z M 355.855469 87.832031 L 356.996094 87.832031 L 356.996094 94.785156 L 355.855469 94.785156 Z M 355.855469 85.128906 L 356.996094 85.128906 L 356.996094 86.582031 L 355.855469 86.582031 Z M 362.074219 88.644531 C 361.457031 88.644531 360.972656 88.886719 360.621094 89.363281 C 360.265625 89.832031 360.089844 90.484375 360.089844 91.316406 C 360.089844 92.152344 360.265625 92.808594 360.621094 93.285156 C 360.972656 93.765625 361.457031 94.003906 362.074219 94.003906 C 362.675781 94.003906 363.15625 93.765625 363.511719 93.285156 C 363.875 92.796875 364.058594 92.140625 364.058594 91.316406 C 364.058594 90.496094 363.875 89.84375 363.511719 89.363281 C 363.15625 88.886719 362.675781 88.644531 362.074219 88.644531 Z M 362.074219 87.675781 C 363.0625 87.675781 363.839844 88 364.402344 88.644531 C 364.972656 89.292969 365.261719 90.183594 365.261719 91.316406 C 365.261719 92.453125 364.972656 93.347656 364.402344 94.003906 C 363.839844 94.652344 363.0625 94.972656 362.074219 94.972656 C 361.074219 94.972656 360.292969 94.652344 359.730469 94.003906 C 359.167969 93.347656 358.886719 92.453125 358.886719 91.316406 C 358.886719 90.183594 359.167969 89.292969 359.730469 88.644531 C 360.292969 88 361.074219 87.675781 362.074219 87.675781 Z M 372.929688 90.597656 L 372.929688 94.785156 L 371.789062 94.785156 L 371.789062 90.628906 C 371.789062 89.972656 371.65625 89.484375 371.398438 89.160156 C 371.148438 88.828125 370.765625 88.660156 370.257812 88.660156 C 369.640625 88.660156 369.152344 88.859375 368.789062 89.253906 C 368.433594 89.652344 368.257812 90.1875 368.257812 90.863281 L 368.257812 94.785156 L 367.117188 94.785156 L 367.117188 87.832031 L 368.257812 87.832031 L 368.257812 88.910156 C 368.527344 88.496094 368.851562 88.1875 369.226562 87.988281 C 369.601562 87.78125 370.027344 87.675781 370.507812 87.675781 C 371.308594 87.675781 371.914062 87.925781 372.320312 88.425781 C 372.726562 88.917969 372.929688 89.640625 372.929688 90.597656 Z M 374.015625 94.785156 "/>
<path style=" stroke:none;fill-rule:evenodd;fill:rgb(100%,0%,0%);fill-opacity:1;" d="M 298.21875 16.484375 L 299.4375 16.484375 L 301.609375 22.328125 L 303.78125 16.484375 L 304.984375 16.484375 L 302.375 23.4375 L 300.828125 23.4375 Z M 312.503906 19.671875 L 312.503906 20.234375 L 307.253906 20.234375 C 307.304688 21.027344 307.539062 21.632812 307.957031 22.046875 C 308.382812 22.453125 308.976562 22.65625 309.738281 22.65625 C 310.175781 22.65625 310.597656 22.605469 311.003906 22.5 C 311.417969 22.386719 311.832031 22.21875 312.238281 22 L 312.238281 23.078125 C 311.832031 23.257812 311.410156 23.390625 310.972656 23.484375 C 310.542969 23.578125 310.105469 23.625 309.660156 23.625 C 308.554688 23.625 307.679688 23.304688 307.035156 22.65625 C 306.386719 22.011719 306.066406 21.136719 306.066406 20.03125 C 306.066406 18.898438 306.371094 17.996094 306.988281 17.328125 C 307.601562 16.664062 308.429688 16.328125 309.472656 16.328125 C 310.410156 16.328125 311.148438 16.632812 311.691406 17.234375 C 312.230469 17.828125 312.503906 18.640625 312.503906 19.671875 Z M 311.363281 19.34375 C 311.351562 18.71875 311.175781 18.226562 310.832031 17.859375 C 310.496094 17.484375 310.050781 17.296875 309.488281 17.296875 C 308.839844 17.296875 308.324219 17.480469 307.941406 17.84375 C 307.566406 18.199219 307.347656 18.699219 307.285156 19.34375 Z M 314.386719 13.78125 L 315.527344 13.78125 L 315.527344 23.4375 L 314.386719 23.4375 Z M 320.605469 17.296875 C 319.988281 17.296875 319.503906 17.539062 319.152344 18.015625 C 318.796875 18.484375 318.621094 19.136719 318.621094 19.96875 C 318.621094 20.804688 318.796875 21.460938 319.152344 21.9375 C 319.503906 22.417969 319.988281 22.65625 320.605469 22.65625 C 321.207031 22.65625 321.6875 22.417969 322.042969 21.9375 C 322.40625 21.449219 322.589844 20.792969 322.589844 19.96875 C 322.589844 19.148438 322.40625 18.496094 322.042969 18.015625 C 321.6875 17.539062 321.207031 17.296875 320.605469 17.296875 Z M 320.605469 16.328125 C 321.59375 16.328125 322.371094 16.652344 322.933594 17.296875 C 323.503906 17.945312 323.792969 18.835938 323.792969 19.96875 C 323.792969 21.105469 323.503906 22 322.933594 22.65625 C 322.371094 23.304688 321.59375 23.625 320.605469 23.625 C 319.605469 23.625 318.824219 23.304688 318.261719 22.65625 C 317.699219 22 317.417969 21.105469 317.417969 19.96875 C 317.417969 18.835938 317.699219 17.945312 318.261719 17.296875 C 318.824219 16.652344 319.605469 16.328125 320.605469 16.328125 Z M 330.691406 16.75 L 330.691406 17.828125 C 330.367188 17.652344 330.039062 17.523438 329.707031 17.4375 C 329.382812 17.34375 329.058594 17.296875 328.738281 17.296875 C 327.988281 17.296875 327.410156 17.53125 327.003906 18 C 326.597656 18.46875 326.394531 19.125 326.394531 19.96875 C 326.394531 20.8125 326.597656 21.476562 327.003906 21.953125 C 327.410156 22.421875 327.988281 22.65625 328.738281 22.65625 C 329.058594 22.65625 329.382812 22.617188 329.707031 22.53125 C 330.039062 22.4375 330.367188 22.296875 330.691406 22.109375 L 330.691406 23.171875 C 330.367188 23.320312 330.035156 23.429688 329.691406 23.5 C 329.355469 23.582031 328.996094 23.625 328.613281 23.625 C 327.558594 23.625 326.726562 23.296875 326.113281 22.640625 C 325.496094 21.976562 325.191406 21.085938 325.191406 19.96875 C 325.191406 18.835938 325.496094 17.945312 326.113281 17.296875 C 326.738281 16.652344 327.589844 16.328125 328.675781 16.328125 C 329.027344 16.328125 329.371094 16.367188 329.707031 16.4375 C 330.039062 16.511719 330.367188 16.617188 330.691406 16.75 Z M 332.679688 16.484375 L 333.820312 16.484375 L 333.820312 23.4375 L 332.679688 23.4375 Z M 332.679688 13.78125 L 333.820312 13.78125 L 333.820312 15.234375 L 332.679688 15.234375 Z M 337.335938 14.515625 L 337.335938 16.484375 L 339.679688 16.484375 L 339.679688 17.375 L 337.335938 17.375 L 337.335938 21.15625 C 337.335938 21.71875 337.414062 22.085938 337.570312 22.25 C 337.726562 22.40625 338.039062 22.484375 338.507812 22.484375 L 339.679688 22.484375 L 339.679688 23.4375 L 338.507812 23.4375 C 337.632812 23.4375 337.023438 23.277344 336.679688 22.953125 C 336.34375 22.621094 336.179688 22.023438 336.179688 21.15625 L 336.179688 17.375 L 335.351562 17.375 L 335.351562 16.484375 L 336.179688 16.484375 L 336.179688 14.515625 Z M 344.085938 24.078125 C 343.761719 24.910156 343.445312 25.453125 343.132812 25.703125 C 342.828125 25.953125 342.421875 26.078125 341.914062 26.078125 L 340.992188 26.078125 L 340.992188 25.125 L 341.664062 25.125 C 341.976562 25.125 342.21875 25.046875 342.398438 24.890625 C 342.574219 24.742188 342.765625 24.394531 342.976562 23.84375 L 343.179688 23.328125 L 340.367188 16.484375 L 341.585938 16.484375 L 343.757812 21.921875 L 345.929688 16.484375 L 347.132812 16.484375 Z M 347.511719 23.4375 "/>
<path style="fill:none;stroke-width:1.016711;stroke-linecap:butt;stroke-linejoin:miter;stroke:rgb(100%,0%,0%);stroke-opacity:1;stroke-miterlimit:10;" d="M 313.46875 40.199219 L 331.269531 54.925781 "/>
<path style=" stroke:none;fill-rule:evenodd;fill:rgb(100%,0%,0%);fill-opacity:1;" d="M 337.023438 56.722656 L 337.023438 52.957031 L 338.164062 52.957031 L 338.164062 62.613281 L 337.023438 62.613281 L 337.023438 61.566406 C 336.78125 61.984375 336.480469 62.296875 336.117188 62.503906 C 335.75 62.699219 335.3125 62.800781 334.804688 62.800781 C 333.960938 62.800781 333.273438 62.46875 332.742188 61.800781 C 332.21875 61.125 331.960938 60.238281 331.960938 59.144531 C 331.960938 58.050781 332.21875 57.171875 332.742188 56.503906 C 333.273438 55.839844 333.960938 55.503906 334.804688 55.503906 C 335.3125 55.503906 335.75 55.605469 336.117188 55.800781 C 336.480469 56 336.78125 56.308594 337.023438 56.722656 Z M 333.132812 59.144531 C 333.132812 59.988281 333.304688 60.652344 333.648438 61.128906 C 334 61.597656 334.480469 61.832031 335.085938 61.832031 C 335.679688 61.832031 336.148438 61.597656 336.492188 61.128906 C 336.84375 60.652344 337.023438 59.988281 337.023438 59.144531 C 337.023438 58.3125 336.84375 57.65625 336.492188 57.175781 C 336.148438 56.699219 335.679688 56.457031 335.085938 56.457031 C 334.480469 56.457031 334 56.699219 333.648438 57.175781 C 333.304688 57.65625 333.132812 58.3125 333.132812 59.144531 Z M 346.464844 58.847656 L 346.464844 59.410156 L 341.214844 59.410156 C 341.265625 60.203125 341.5 60.808594 341.917969 61.222656 C 342.34375 61.628906 342.9375 61.832031 343.699219 61.832031 C 344.136719 61.832031 344.558594 61.78125 344.964844 61.675781 C 345.378906 61.5625 345.792969 61.394531 346.199219 61.175781 L 346.199219 62.253906 C 345.792969 62.433594 345.371094 62.566406 344.933594 62.660156 C 344.503906 62.753906 344.066406 62.800781 343.621094 62.800781 C 342.515625 62.800781 341.640625 62.480469 340.996094 61.832031 C 340.347656 61.1875 340.027344 60.3125 340.027344 59.207031 C 340.027344 58.074219 340.332031 57.171875 340.949219 56.503906 C 341.5625 55.839844 342.390625 55.503906 343.433594 55.503906 C 344.371094 55.503906 345.109375 55.808594 345.652344 56.410156 C 346.191406 57.003906 346.464844 57.816406 346.464844 58.847656 Z M 345.324219 58.519531 C 345.3125 57.894531 345.136719 57.402344 344.792969 57.035156 C 344.457031 56.660156 344.011719 56.472656 343.449219 56.472656 C 342.800781 56.472656 342.285156 56.65625 341.902344 57.019531 C 341.527344 57.375 341.308594 57.875 341.246094 58.519531 Z M 352.769531 55.863281 L 352.769531 56.957031 C 352.445312 56.792969 352.105469 56.667969 351.753906 56.582031 C 351.410156 56.5 351.054688 56.457031 350.691406 56.457031 C 350.117188 56.457031 349.691406 56.546875 349.410156 56.722656 C 349.128906 56.890625 348.988281 57.144531 348.988281 57.488281 C 348.988281 57.761719 349.085938 57.972656 349.285156 58.128906 C 349.492188 58.277344 349.902344 58.417969 350.519531 58.550781 L 350.910156 58.644531 C 351.710938 58.8125 352.285156 59.058594 352.628906 59.378906 C 352.972656 59.691406 353.144531 60.128906 353.144531 60.691406 C 353.144531 61.339844 352.886719 61.855469 352.378906 62.238281 C 351.867188 62.613281 351.164062 62.800781 350.269531 62.800781 C 349.894531 62.800781 349.503906 62.761719 349.097656 62.691406 C 348.699219 62.617188 348.277344 62.511719 347.832031 62.363281 L 347.832031 61.175781 C 348.257812 61.394531 348.675781 61.5625 349.082031 61.675781 C 349.488281 61.78125 349.894531 61.832031 350.300781 61.832031 C 350.832031 61.832031 351.242188 61.746094 351.535156 61.566406 C 351.824219 61.378906 351.972656 61.121094 351.972656 60.785156 C 351.972656 60.472656 351.867188 60.234375 351.660156 60.066406 C 351.449219 59.902344 350.992188 59.746094 350.285156 59.597656 L 349.878906 59.503906 C 349.179688 59.347656 348.667969 59.121094 348.347656 58.816406 C 348.035156 58.503906 347.878906 58.082031 347.878906 57.550781 C 347.878906 56.894531 348.105469 56.390625 348.566406 56.035156 C 349.035156 55.683594 349.695312 55.503906 350.550781 55.503906 C 350.964844 55.503906 351.363281 55.535156 351.738281 55.597656 C 352.113281 55.660156 352.457031 55.75 352.769531 55.863281 Z M 356.09375 53.691406 L 356.09375 55.660156 L 358.4375 55.660156 L 358.4375 56.550781 L 356.09375 56.550781 L 356.09375 60.332031 C 356.09375 60.894531 356.171875 61.261719 356.328125 61.425781 C 356.484375 61.582031 356.796875 61.660156 357.265625 61.660156 L 358.4375 61.660156 L 358.4375 62.613281 L 357.265625 62.613281 C 356.390625 62.613281 355.78125 62.453125 355.4375 62.128906 C 355.101562 61.796875 354.9375 61.199219 354.9375 60.332031 L 354.9375 56.550781 L 354.109375 56.550781 L 354.109375 55.660156 L 354.9375 55.660156 L 354.9375 53.691406 Z M 359.953125 55.660156 L 361.09375 55.660156 L 361.09375 62.613281 L 359.953125 62.613281 Z M 359.953125 52.957031 L 361.09375 52.957031 L 361.09375 54.410156 L 359.953125 54.410156 Z M 369.246094 58.425781 L 369.246094 62.613281 L 368.105469 62.613281 L 368.105469 58.457031 C 368.105469 57.800781 367.972656 57.3125 367.714844 56.988281 C 367.464844 56.65625 367.082031 56.488281 366.574219 56.488281 C 365.957031 56.488281 365.46875 56.6875 365.105469 57.082031 C 364.75 57.480469 364.574219 58.015625 364.574219 58.691406 L 364.574219 62.613281 L 363.433594 62.613281 L 363.433594 55.660156 L 364.574219 55.660156 L 364.574219 56.738281 C 364.84375 56.324219 365.167969 56.015625 365.542969 55.816406 C 365.917969 55.609375 366.34375 55.503906 366.824219 55.503906 C 367.625 55.503906 368.230469 55.753906 368.636719 56.253906 C 369.042969 56.746094 369.246094 57.46875 369.246094 58.425781 Z M 374.691406 59.128906 C 373.761719 59.128906 373.121094 59.234375 372.769531 59.441406 C 372.414062 59.652344 372.238281 60.011719 372.238281 60.519531 C 372.238281 60.925781 372.367188 61.25 372.628906 61.488281 C 372.898438 61.71875 373.261719 61.832031 373.722656 61.832031 C 374.355469 61.832031 374.863281 61.609375 375.238281 61.160156 C 375.621094 60.714844 375.816406 60.121094 375.816406 59.378906 L 375.816406 59.128906 Z M 376.957031 58.644531 L 376.957031 62.613281 L 375.816406 62.613281 L 375.816406 61.566406 C 375.554688 61.984375 375.230469 62.296875 374.847656 62.503906 C 374.460938 62.699219 373.988281 62.800781 373.425781 62.800781 C 372.707031 62.800781 372.136719 62.605469 371.722656 62.207031 C 371.304688 61.800781 371.097656 61.265625 371.097656 60.597656 C 371.097656 59.816406 371.355469 59.230469 371.878906 58.832031 C 372.398438 58.425781 373.179688 58.222656 374.222656 58.222656 L 375.816406 58.222656 L 375.816406 58.113281 C 375.816406 57.59375 375.644531 57.191406 375.300781 56.910156 C 374.957031 56.621094 374.472656 56.472656 373.847656 56.472656 C 373.449219 56.472656 373.066406 56.519531 372.691406 56.613281 C 372.316406 56.707031 371.949219 56.847656 371.597656 57.035156 L 371.597656 55.988281 C 372.011719 55.824219 372.417969 55.703125 372.816406 55.628906 C 373.210938 55.546875 373.597656 55.503906 373.972656 55.503906 C 374.972656 55.503906 375.714844 55.765625 376.207031 56.285156 C 376.707031 56.808594 376.957031 57.59375 376.957031 58.644531 Z M 380.449219 53.691406 L 380.449219 55.660156 L 382.792969 55.660156 L 382.792969 56.550781 L 380.449219 56.550781 L 380.449219 60.332031 C 380.449219 60.894531 380.527344 61.261719 380.683594 61.425781 C 380.839844 61.582031 381.152344 61.660156 381.621094 61.660156 L 382.792969 61.660156 L 382.792969 62.613281 L 381.621094 62.613281 C 380.746094 62.613281 380.136719 62.453125 379.792969 62.128906 C 379.457031 61.796875 379.292969 61.199219 379.292969 60.332031 L 379.292969 56.550781 L 378.464844 56.550781 L 378.464844 55.660156 L 379.292969 55.660156 L 379.292969 53.691406 Z M 384.308594 55.660156 L 385.449219 55.660156 L 385.449219 62.613281 L 384.308594 62.613281 Z M 384.308594 52.957031 L 385.449219 52.957031 L 385.449219 54.410156 L 384.308594 54.410156 Z M 390.527344 56.472656 C 389.910156 56.472656 389.425781 56.714844 389.074219 57.191406 C 388.71875 57.660156 388.542969 58.3125 388.542969 59.144531 C 388.542969 59.980469 388.71875 60.636719 389.074219 61.113281 C 389.425781 61.59375 389.910156 61.832031 390.527344 61.832031 C 391.128906 61.832031 391.609375 61.59375 391.964844 61.113281 C 392.328125 60.625 392.511719 59.96875 392.511719 59.144531 C 392.511719 58.324219 392.328125 57.671875 391.964844 57.191406 C 391.609375 56.714844 391.128906 56.472656 390.527344 56.472656 Z M 390.527344 55.503906 C 391.515625 55.503906 392.292969 55.828125 392.855469 56.472656 C 393.425781 57.121094 393.714844 58.011719 393.714844 59.144531 C 393.714844 60.28125 393.425781 61.175781 392.855469 61.832031 C 392.292969 62.480469 391.515625 62.800781 390.527344 62.800781 C 389.527344 62.800781 388.746094 62.480469 388.183594 61.832031 C 387.621094 61.175781 387.339844 60.28125 387.339844 59.144531 C 387.339844 58.011719 387.621094 57.121094 388.183594 56.472656 C 388.746094 55.828125 389.527344 55.503906 390.527344 55.503906 Z M 401.378906 58.425781 L 401.378906 62.613281 L 400.238281 62.613281 L 400.238281 58.457031 C 400.238281 57.800781 400.105469 57.3125 399.847656 56.988281 C 399.597656 56.65625 399.214844 56.488281 398.707031 56.488281 C 398.089844 56.488281 397.601562 56.6875 397.238281 57.082031 C 396.882812 57.480469 396.707031 58.015625 396.707031 58.691406 L 396.707031 62.613281 L 395.566406 62.613281 L 395.566406 55.660156 L 396.707031 55.660156 L 396.707031 56.738281 C 396.976562 56.324219 397.300781 56.015625 397.675781 55.816406 C 398.050781 55.609375 398.476562 55.503906 398.957031 55.503906 C 399.757812 55.503906 400.363281 55.753906 400.769531 56.253906 C 401.175781 56.746094 401.378906 57.46875 401.378906 58.425781 Z M 402.464844 62.613281 "/>
</g>
</svg>
