<?xml version="1.0" encoding="UTF-8"?>
<svg xmlns="http://www.w3.org/2000/svg" xmlns:xlink="http://www.w3.org/1999/xlink" width="552.755906pt" height="162.673736pt" viewBox="0 0 552.755906 162.673736" version="1.1">
<g id="surface1">
<path style="fill-rule:evenodd;fill:rgb(75%,75%,75%);fill-opacity:1;stroke-width:2.033422;stroke-linecap:round;stroke-linejoin:round;stroke:rgb(0%,0%,0%);stroke-opacity:1;stroke-miterlimit:10;" d="M 258.507812 117.355469 L 207.675781 117.355469 L 207.675781 15.683594 L 258.507812 15.683594 Z M 258.507812 117.355469 "/>
<path style="fill:none;stroke-width:2.033422;stroke-linecap:butt;stroke-linejoin:miter;stroke:rgb(0%,0%,0%);stroke-opacity:1;stroke-miterlimit:10;" d="M 207.675781 83.464844 L 258.507812 83.464844 "/>
<path style="fill:none;stroke-width:2.033422;stroke-linecap:butt;stroke-linejoin:miter;stroke:rgb(0%,0%,0%);stroke-opacity:1;stroke-miterlimit:10;" d="M 207.675781 49.574219 L 258.507812 49.574219 "/>
<path style="fill:none;stroke-width:2.033422;stroke-linecap:butt;stroke-linejoin:miter;stroke:rgb(0%,0%,0%);stroke-opacity:1;stroke-miterlimit:10;" d="M 224.621094 117.355469 L 224.621094 15.683594 "/>
<path style="fill:none;stroke-width:2.033422;stroke-linecap:butt;stroke-linejoin:miter;stroke:rgb(0%,0%,0%);stroke-opacity:1;stroke-miterlimit:10;" d="M 241.5625 117.355469 L 241.5625 15.683594 "/>
<path style="fill:none;stroke-width:1.016711;stroke-linecap:butt;stroke-linejoin:miter;stroke:rgb(0%,0%,0%);stroke-opacity:1;stroke-dasharray:5.083554;stroke-miterlimit:10;" d="M 61.195312 66.519531 L 233.089844 66.519531 "/>
<path style="fill:none;stroke-width:2.541777;stroke-linecap:butt;stroke-linejoin:miter;stroke:rgb(100%,0%,0%);stroke-opacity:1;stroke-miterlimit:10;" d="M 233.089844 66.519531 L 292.957031 66.519531 "/>
<path style=" stroke:none;fill-rule:evenodd;fill:rgb(100%,0%,0%);fill-opacity:1;" d="M 302.015625 66.519531 L 292.480469 71.285156 L 292.480469 61.753906 Z M 302.015625 66.519531 "/>
<path style=" stroke:none;fill-rule:evenodd;fill:rgb(100%,0%,0%);fill-opacity:1;" d="M 236.140625 66.519531 C 236.140625 62.453125 230.042969 62.453125 230.042969 66.519531 C 230.042969 70.585938 236.140625 70.585938 236.140625 66.519531 "/>
<path style="fill:none;stroke-width:4.066843;stroke-linecap:butt;stroke-linejoin:miter;stroke:rgb(100%,0%,0%);stroke-opacity:1;stroke-miterlimit:10;" d="M 253.425781 104.074219 L 263.59375 93.90625 "/>
<path style="fill:none;stroke-width:4.066843;stroke-linecap:butt;stroke-linejoin:miter;stroke:rgb(100%,0%,0%);stroke-opacity:1;stroke-miterlimit:10;" d="M 253.425781 93.90625 L 263.59375 104.074219 "/>
<path style="fill-rule:evenodd;fill:rgb(100%,40%,0%);fill-opacity:0.3;stroke-width:1.016711;stroke-linecap:butt;stroke-linejoin:miter;stroke:rgb(100%,40%,0%);stroke-opacity:0.6;stroke-dasharray:4.066843;stroke-miterlimit:10;" d="M 284.554688 98.992188 C 284.554688 84.605469 272.894531 72.945312 258.507812 72.945312 C 244.125 72.945312 232.464844 84.605469 232.464844 98.992188 C 232.464844 113.375 244.125 125.035156 258.507812 125.035156 C 272.894531 125.035156 284.554688 113.375 284.554688 98.992188 "/>
<path style="fill:none;stroke-width:12.20053;stroke-linecap:round;stroke-linejoin:miter;stroke:rgb(100%,100%,100%);stroke-opacity:0.4;stroke-miterlimit:10;" d="M 270.488281 98.480469 L 315.222656 99.5 "/>
<path style=" stroke:none;fill-rule:evenodd;fill:rgb(100%,0%,0%);fill-opacity:1;" d="M 273.039062 95.347656 L 273.039062 96.425781 C 272.714844 96.25 272.386719 96.121094 272.054688 96.035156 C 271.730469 95.941406 271.40625 95.894531 271.085938 95.894531 C 270.335938 95.894531 269.757812 96.128906 269.351562 96.597656 C 268.945312 97.066406 268.742188 97.722656 268.742188 98.566406 C 268.742188 99.410156 268.945312 100.074219 269.351562 100.550781 C 269.757812 101.019531 270.335938 101.253906 271.085938 101.253906 C 271.40625 101.253906 271.730469 101.214844 272.054688 101.128906 C 272.386719 101.035156 272.714844 100.894531 273.039062 100.707031 L 273.039062 101.769531 C 272.714844 101.917969 272.382812 102.027344 272.039062 102.097656 C 271.703125 102.179688 271.34375 102.222656 270.960938 102.222656 C 269.90625 102.222656 269.074219 101.894531 268.460938 101.238281 C 267.84375 100.574219 267.539062 99.683594 267.539062 98.566406 C 267.539062 97.433594 267.84375 96.542969 268.460938 95.894531 C 269.085938 95.25 269.9375 94.925781 271.023438 94.925781 C 271.375 94.925781 271.71875 94.964844 272.054688 95.035156 C 272.386719 95.109375 272.714844 95.214844 273.039062 95.347656 Z M 277.714844 95.894531 C 277.097656 95.894531 276.613281 96.136719 276.261719 96.613281 C 275.90625 97.082031 275.730469 97.734375 275.730469 98.566406 C 275.730469 99.402344 275.90625 100.058594 276.261719 100.535156 C 276.613281 101.015625 277.097656 101.253906 277.714844 101.253906 C 278.316406 101.253906 278.796875 101.015625 279.152344 100.535156 C 279.515625 100.046875 279.699219 99.390625 279.699219 98.566406 C 279.699219 97.746094 279.515625 97.09375 279.152344 96.613281 C 278.796875 96.136719 278.316406 95.894531 277.714844 95.894531 Z M 277.714844 94.925781 C 278.703125 94.925781 279.480469 95.25 280.042969 95.894531 C 280.613281 96.542969 280.902344 97.433594 280.902344 98.566406 C 280.902344 99.703125 280.613281 100.597656 280.042969 101.253906 C 279.480469 101.902344 278.703125 102.222656 277.714844 102.222656 C 276.714844 102.222656 275.933594 101.902344 275.371094 101.253906 C 274.808594 100.597656 274.527344 99.703125 274.527344 98.566406 C 274.527344 97.433594 274.808594 96.542969 275.371094 95.894531 C 275.933594 95.25 276.714844 94.925781 277.714844 94.925781 Z M 282.800781 92.378906 L 283.941406 92.378906 L 283.941406 102.035156 L 282.800781 102.035156 Z M 286.332031 92.378906 L 287.472656 92.378906 L 287.472656 102.035156 L 286.332031 102.035156 Z M 289.863281 95.082031 L 291.003906 95.082031 L 291.003906 102.035156 L 289.863281 102.035156 Z M 289.863281 92.378906 L 291.003906 92.378906 L 291.003906 93.832031 L 289.863281 93.832031 Z M 297.816406 95.285156 L 297.816406 96.378906 C 297.492188 96.214844 297.152344 96.089844 296.800781 96.003906 C 296.457031 95.921875 296.101562 95.878906 295.738281 95.878906 C 295.164062 95.878906 294.738281 95.96875 294.457031 96.144531 C 294.175781 96.3125 294.035156 96.566406 294.035156 96.910156 C 294.035156 97.183594 294.132812 97.394531 294.332031 97.550781 C 294.539062 97.699219 294.949219 97.839844 295.566406 97.972656 L 295.957031 98.066406 C 296.757812 98.234375 297.332031 98.480469 297.675781 98.800781 C 298.019531 99.113281 298.191406 99.550781 298.191406 100.113281 C 298.191406 100.761719 297.933594 101.277344 297.425781 101.660156 C 296.914062 102.035156 296.210938 102.222656 295.316406 102.222656 C 294.941406 102.222656 294.550781 102.183594 294.144531 102.113281 C 293.746094 102.039062 293.324219 101.933594 292.878906 101.785156 L 292.878906 100.597656 C 293.304688 100.816406 293.722656 100.984375 294.128906 101.097656 C 294.535156 101.203125 294.941406 101.253906 295.347656 101.253906 C 295.878906 101.253906 296.289062 101.167969 296.582031 100.988281 C 296.871094 100.800781 297.019531 100.542969 297.019531 100.207031 C 297.019531 99.894531 296.914062 99.65625 296.707031 99.488281 C 296.496094 99.324219 296.039062 99.167969 295.332031 99.019531 L 294.925781 98.925781 C 294.226562 98.769531 293.714844 98.542969 293.394531 98.238281 C 293.082031 97.925781 292.925781 97.503906 292.925781 96.972656 C 292.925781 96.316406 293.152344 95.8125 293.613281 95.457031 C 294.082031 95.105469 294.742188 94.925781 295.597656 94.925781 C 296.011719 94.925781 296.410156 94.957031 296.785156 95.019531 C 297.160156 95.082031 297.503906 95.171875 297.816406 95.285156 Z M 300.015625 95.082031 L 301.15625 95.082031 L 301.15625 102.035156 L 300.015625 102.035156 Z M 300.015625 92.378906 L 301.15625 92.378906 L 301.15625 93.832031 L 300.015625 93.832031 Z M 306.234375 95.894531 C 305.617188 95.894531 305.132812 96.136719 304.78125 96.613281 C 304.425781 97.082031 304.25 97.734375 304.25 98.566406 C 304.25 99.402344 304.425781 100.058594 304.78125 100.535156 C 305.132812 101.015625 305.617188 101.253906 306.234375 101.253906 C 306.835938 101.253906 307.316406 101.015625 307.671875 100.535156 C 308.035156 100.046875 308.21875 99.390625 308.21875 98.566406 C 308.21875 97.746094 308.035156 97.09375 307.671875 96.613281 C 307.316406 96.136719 306.835938 95.894531 306.234375 95.894531 Z M 306.234375 94.925781 C 307.222656 94.925781 308 95.25 308.5625 95.894531 C 309.132812 96.542969 309.421875 97.433594 309.421875 98.566406 C 309.421875 99.703125 309.132812 100.597656 308.5625 101.253906 C 308 101.902344 307.222656 102.222656 306.234375 102.222656 C 305.234375 102.222656 304.453125 101.902344 303.890625 101.253906 C 303.328125 100.597656 303.046875 99.703125 303.046875 98.566406 C 303.046875 97.433594 303.328125 96.542969 303.890625 95.894531 C 304.453125 95.25 305.234375 94.925781 306.234375 94.925781 Z M 317.089844 97.847656 L 317.089844 102.035156 L 315.949219 102.035156 L 315.949219 97.878906 C 315.949219 97.222656 315.816406 96.734375 315.558594 96.410156 C 315.308594 96.078125 314.925781 95.910156 314.417969 95.910156 C 313.800781 95.910156 313.3125 96.109375 312.949219 96.503906 C 312.59375 96.902344 312.417969 97.4375 312.417969 98.113281 L 312.417969 102.035156 L 311.277344 102.035156 L 311.277344 95.082031 L 312.417969 95.082031 L 312.417969 96.160156 C 312.6875 95.746094 313.011719 95.4375 313.386719 95.238281 C 313.761719 95.03125 314.1875 94.925781 314.667969 94.925781 C 315.46875 94.925781 316.074219 95.175781 316.480469 95.675781 C 316.886719 96.167969 317.089844 96.890625 317.089844 97.847656 Z M 326.574219 98.550781 C 325.644531 98.550781 325.003906 98.65625 324.652344 98.863281 C 324.296875 99.074219 324.121094 99.433594 324.121094 99.941406 C 324.121094 100.347656 324.25 100.671875 324.511719 100.910156 C 324.78125 101.140625 325.144531 101.253906 325.605469 101.253906 C 326.238281 101.253906 326.746094 101.03125 327.121094 100.582031 C 327.503906 100.136719 327.699219 99.542969 327.699219 98.800781 L 327.699219 98.550781 Z M 328.839844 98.066406 L 328.839844 102.035156 L 327.699219 102.035156 L 327.699219 100.988281 C 327.4375 101.40625 327.113281 101.71875 326.730469 101.925781 C 326.34375 102.121094 325.871094 102.222656 325.308594 102.222656 C 324.589844 102.222656 324.019531 102.027344 323.605469 101.628906 C 323.1875 101.222656 322.980469 100.6875 322.980469 100.019531 C 322.980469 99.238281 323.238281 98.652344 323.761719 98.253906 C 324.28125 97.847656 325.0625 97.644531 326.105469 97.644531 L 327.699219 97.644531 L 327.699219 97.535156 C 327.699219 97.015625 327.527344 96.613281 327.183594 96.332031 C 326.839844 96.042969 326.355469 95.894531 325.730469 95.894531 C 325.332031 95.894531 324.949219 95.941406 324.574219 96.035156 C 324.199219 96.128906 323.832031 96.269531 323.480469 96.457031 L 323.480469 95.410156 C 323.894531 95.246094 324.300781 95.125 324.699219 95.050781 C 325.09375 94.96875 325.480469 94.925781 325.855469 94.925781 C 326.855469 94.925781 327.597656 95.1875 328.089844 95.707031 C 328.589844 96.230469 328.839844 97.015625 328.839844 98.066406 Z M 332.328125 93.113281 L 332.328125 95.082031 L 334.671875 95.082031 L 334.671875 95.972656 L 332.328125 95.972656 L 332.328125 99.753906 C 332.328125 100.316406 332.40625 100.683594 332.5625 100.847656 C 332.71875 101.003906 333.03125 101.082031 333.5 101.082031 L 334.671875 101.082031 L 334.671875 102.035156 L 333.5 102.035156 C 332.625 102.035156 332.015625 101.875 331.671875 101.550781 C 331.335938 101.21875 331.171875 100.621094 331.171875 99.753906 L 331.171875 95.972656 L 330.34375 95.972656 L 330.34375 95.082031 L 331.171875 95.082031 L 331.171875 93.113281 Z M 341.351562 93.113281 L 341.351562 95.082031 L 343.695312 95.082031 L 343.695312 95.972656 L 341.351562 95.972656 L 341.351562 99.753906 C 341.351562 100.316406 341.429688 100.683594 341.585938 100.847656 C 341.742188 101.003906 342.054688 101.082031 342.523438 101.082031 L 343.695312 101.082031 L 343.695312 102.035156 L 342.523438 102.035156 C 341.648438 102.035156 341.039062 101.875 340.695312 101.550781 C 340.359375 101.21875 340.195312 100.621094 340.195312 99.753906 L 340.195312 95.972656 L 339.367188 95.972656 L 339.367188 95.082031 L 340.195312 95.082031 L 340.195312 93.113281 Z M 345.210938 95.082031 L 346.351562 95.082031 L 346.351562 102.035156 L 345.210938 102.035156 Z M 345.210938 92.378906 L 346.351562 92.378906 L 346.351562 93.832031 L 345.210938 93.832031 Z M 354.148438 96.425781 C 354.429688 95.917969 354.765625 95.542969 355.164062 95.300781 C 355.558594 95.050781 356.027344 94.925781 356.570312 94.925781 C 357.289062 94.925781 357.84375 95.183594 358.242188 95.691406 C 358.636719 96.191406 358.835938 96.910156 358.835938 97.847656 L 358.835938 102.035156 L 357.679688 102.035156 L 357.679688 97.878906 C 357.679688 97.214844 357.558594 96.71875 357.320312 96.394531 C 357.089844 96.074219 356.734375 95.910156 356.257812 95.910156 C 355.664062 95.910156 355.195312 96.109375 354.851562 96.503906 C 354.507812 96.902344 354.335938 97.4375 354.335938 98.113281 L 354.335938 102.035156 L 353.195312 102.035156 L 353.195312 97.878906 C 353.195312 97.214844 353.074219 96.71875 352.835938 96.394531 C 352.59375 96.074219 352.230469 95.910156 351.742188 95.910156 C 351.15625 95.910156 350.695312 96.109375 350.351562 96.503906 C 350.007812 96.902344 349.835938 97.4375 349.835938 98.113281 L 349.835938 102.035156 L 348.695312 102.035156 L 348.695312 95.082031 L 349.835938 95.082031 L 349.835938 96.160156 C 350.09375 95.746094 350.40625 95.4375 350.773438 95.238281 C 351.136719 95.03125 351.570312 94.925781 352.070312 94.925781 C 352.578125 94.925781 353.011719 95.058594 353.367188 95.316406 C 353.71875 95.566406 353.980469 95.9375 354.148438 96.425781 Z M 367.058594 98.269531 L 367.058594 98.832031 L 361.808594 98.832031 C 361.859375 99.625 362.09375 100.230469 362.511719 100.644531 C 362.9375 101.050781 363.53125 101.253906 364.292969 101.253906 C 364.730469 101.253906 365.152344 101.203125 365.558594 101.097656 C 365.972656 100.984375 366.386719 100.816406 366.792969 100.597656 L 366.792969 101.675781 C 366.386719 101.855469 365.964844 101.988281 365.527344 102.082031 C 365.097656 102.175781 364.660156 102.222656 364.214844 102.222656 C 363.109375 102.222656 362.234375 101.902344 361.589844 101.253906 C 360.941406 100.609375 360.621094 99.734375 360.621094 98.628906 C 360.621094 97.496094 360.925781 96.59375 361.542969 95.925781 C 362.15625 95.261719 362.984375 94.925781 364.027344 94.925781 C 364.964844 94.925781 365.703125 95.230469 366.246094 95.832031 C 366.785156 96.425781 367.058594 97.238281 367.058594 98.269531 Z M 365.917969 97.941406 C 365.90625 97.316406 365.730469 96.824219 365.386719 96.457031 C 365.050781 96.082031 364.605469 95.894531 364.042969 95.894531 C 363.394531 95.894531 362.878906 96.078125 362.496094 96.441406 C 362.121094 96.796875 361.902344 97.296875 361.839844 97.941406 Z M 374.105469 93.113281 L 374.105469 95.082031 L 376.449219 95.082031 L 376.449219 95.972656 L 374.105469 95.972656 L 374.105469 99.753906 C 374.105469 100.316406 374.183594 100.683594 374.339844 100.847656 C 374.496094 101.003906 374.808594 101.082031 375.277344 101.082031 L 376.449219 101.082031 L 376.449219 102.035156 L 375.277344 102.035156 C 374.402344 102.035156 373.792969 101.875 373.449219 101.550781 C 373.113281 101.21875 372.949219 100.621094 372.949219 99.753906 L 372.949219 95.972656 L 372.121094 95.972656 L 372.121094 95.082031 L 372.949219 95.082031 L 372.949219 93.113281 Z M 378.777344 99.085938 C 378.453125 99.085938 378.207031 99.25 378.042969 99.570312 C 377.886719 99.882812 377.808594 100.359375 377.808594 100.992188 C 377.808594 101.628906 377.886719 102.109375 378.042969 102.429688 C 378.207031 102.742188 378.453125 102.898438 378.777344 102.898438 C 379.109375 102.898438 379.355469 102.742188 379.511719 102.429688 C 379.675781 102.109375 379.761719 101.628906 379.761719 100.992188 C 379.761719 100.359375 379.675781 99.882812 379.511719 99.570312 C 379.355469 99.25 379.109375 99.085938 378.777344 99.085938 Z M 378.777344 98.585938 C 379.296875 98.585938 379.691406 98.796875 379.964844 99.210938 C 380.246094 99.617188 380.386719 100.210938 380.386719 100.992188 C 380.386719 101.773438 380.246094 102.375 379.964844 102.789062 C 379.691406 103.195312 379.296875 103.398438 378.777344 103.398438 C 378.253906 103.398438 377.859375 103.195312 377.589844 102.789062 C 377.316406 102.375 377.183594 101.773438 377.183594 100.992188 C 377.183594 100.210938 377.316406 99.617188 377.589844 99.210938 C 377.859375 98.796875 378.253906 98.585938 378.777344 98.585938 Z M 380.804688 102.035156 "/>
<path style="fill:none;stroke-width:1.016711;stroke-linecap:butt;stroke-linejoin:miter;stroke:rgb(100%,40%,0%);stroke-opacity:1;stroke-miterlimit:10;" d="M 261.96875 124.804688 L 282.671875 142.902344 "/>
<path style=" stroke:none;fill-rule:evenodd;fill:rgb(100%,40%,0%);fill-opacity:1;" d="M 292.359375 133.367188 L 292.359375 134.445312 C 292.035156 134.269531 291.707031 134.140625 291.375 134.054688 C 291.050781 133.960938 290.726562 133.914062 290.40625 133.914062 C 289.65625 133.914062 289.078125 134.148438 288.671875 134.617188 C 288.265625 135.085938 288.0625 135.742188 288.0625 136.585938 C 288.0625 137.429688 288.265625 138.09375 288.671875 138.570312 C 289.078125 139.039062 289.65625 139.273438 290.40625 139.273438 C 290.726562 139.273438 291.050781 139.234375 291.375 139.148438 C 291.707031 139.054688 292.035156 138.914062 292.359375 138.726562 L 292.359375 139.789062 C 292.035156 139.9375 291.703125 140.046875 291.359375 140.117188 C 291.023438 140.199219 290.664062 140.242188 290.28125 140.242188 C 289.226562 140.242188 288.394531 139.914062 287.78125 139.257812 C 287.164062 138.59375 286.859375 137.703125 286.859375 136.585938 C 286.859375 135.453125 287.164062 134.5625 287.78125 133.914062 C 288.40625 133.269531 289.257812 132.945312 290.34375 132.945312 C 290.695312 132.945312 291.039062 132.984375 291.375 133.054688 C 291.707031 133.128906 292.035156 133.234375 292.359375 133.367188 Z M 297.035156 133.914062 C 296.417969 133.914062 295.933594 134.15625 295.582031 134.632812 C 295.226562 135.101562 295.050781 135.753906 295.050781 136.585938 C 295.050781 137.421875 295.226562 138.078125 295.582031 138.554688 C 295.933594 139.035156 296.417969 139.273438 297.035156 139.273438 C 297.636719 139.273438 298.117188 139.035156 298.472656 138.554688 C 298.835938 138.066406 299.019531 137.410156 299.019531 136.585938 C 299.019531 135.765625 298.835938 135.113281 298.472656 134.632812 C 298.117188 134.15625 297.636719 133.914062 297.035156 133.914062 Z M 297.035156 132.945312 C 298.023438 132.945312 298.800781 133.269531 299.363281 133.914062 C 299.933594 134.5625 300.222656 135.453125 300.222656 136.585938 C 300.222656 137.722656 299.933594 138.617188 299.363281 139.273438 C 298.800781 139.921875 298.023438 140.242188 297.035156 140.242188 C 296.035156 140.242188 295.253906 139.921875 294.691406 139.273438 C 294.128906 138.617188 293.847656 137.722656 293.847656 136.585938 C 293.847656 135.453125 294.128906 134.5625 294.691406 133.914062 C 295.253906 133.269531 296.035156 132.945312 297.035156 132.945312 Z M 302.121094 130.398438 L 303.261719 130.398438 L 303.261719 140.054688 L 302.121094 140.054688 Z M 305.652344 130.398438 L 306.792969 130.398438 L 306.792969 140.054688 L 305.652344 140.054688 Z M 309.183594 133.101562 L 310.324219 133.101562 L 310.324219 140.054688 L 309.183594 140.054688 Z M 309.183594 130.398438 L 310.324219 130.398438 L 310.324219 131.851562 L 309.183594 131.851562 Z M 317.136719 133.304688 L 317.136719 134.398438 C 316.8125 134.234375 316.472656 134.109375 316.121094 134.023438 C 315.777344 133.941406 315.421875 133.898438 315.058594 133.898438 C 314.484375 133.898438 314.058594 133.988281 313.777344 134.164062 C 313.496094 134.332031 313.355469 134.585938 313.355469 134.929688 C 313.355469 135.203125 313.453125 135.414062 313.652344 135.570312 C 313.859375 135.71875 314.269531 135.859375 314.886719 135.992188 L 315.277344 136.085938 C 316.078125 136.253906 316.652344 136.5 316.996094 136.820312 C 317.339844 137.132812 317.511719 137.570312 317.511719 138.132812 C 317.511719 138.78125 317.253906 139.296875 316.746094 139.679688 C 316.234375 140.054688 315.53125 140.242188 314.636719 140.242188 C 314.261719 140.242188 313.871094 140.203125 313.464844 140.132812 C 313.066406 140.058594 312.644531 139.953125 312.199219 139.804688 L 312.199219 138.617188 C 312.625 138.835938 313.042969 139.003906 313.449219 139.117188 C 313.855469 139.222656 314.261719 139.273438 314.667969 139.273438 C 315.199219 139.273438 315.609375 139.1875 315.902344 139.007812 C 316.191406 138.820312 316.339844 138.5625 316.339844 138.226562 C 316.339844 137.914062 316.234375 137.675781 316.027344 137.507812 C 315.816406 137.34375 315.359375 137.1875 314.652344 137.039062 L 314.246094 136.945312 C 313.546875 136.789062 313.035156 136.5625 312.714844 136.257812 C 312.402344 135.945312 312.246094 135.523438 312.246094 134.992188 C 312.246094 134.335938 312.472656 133.832031 312.933594 133.476562 C 313.402344 133.125 314.0625 132.945312 314.917969 132.945312 C 315.332031 132.945312 315.730469 132.976562 316.105469 133.039062 C 316.480469 133.101562 316.824219 133.191406 317.136719 133.304688 Z M 319.335938 133.101562 L 320.476562 133.101562 L 320.476562 140.054688 L 319.335938 140.054688 Z M 319.335938 130.398438 L 320.476562 130.398438 L 320.476562 131.851562 L 319.335938 131.851562 Z M 325.554688 133.914062 C 324.9375 133.914062 324.453125 134.15625 324.101562 134.632812 C 323.746094 135.101562 323.570312 135.753906 323.570312 136.585938 C 323.570312 137.421875 323.746094 138.078125 324.101562 138.554688 C 324.453125 139.035156 324.9375 139.273438 325.554688 139.273438 C 326.15625 139.273438 326.636719 139.035156 326.992188 138.554688 C 327.355469 138.066406 327.539062 137.410156 327.539062 136.585938 C 327.539062 135.765625 327.355469 135.113281 326.992188 134.632812 C 326.636719 134.15625 326.15625 133.914062 325.554688 133.914062 Z M 325.554688 132.945312 C 326.542969 132.945312 327.320312 133.269531 327.882812 133.914062 C 328.453125 134.5625 328.742188 135.453125 328.742188 136.585938 C 328.742188 137.722656 328.453125 138.617188 327.882812 139.273438 C 327.320312 139.921875 326.542969 140.242188 325.554688 140.242188 C 324.554688 140.242188 323.773438 139.921875 323.210938 139.273438 C 322.648438 138.617188 322.367188 137.722656 322.367188 136.585938 C 322.367188 135.453125 322.648438 134.5625 323.210938 133.914062 C 323.773438 133.269531 324.554688 132.945312 325.554688 132.945312 Z M 336.410156 135.867188 L 336.410156 140.054688 L 335.269531 140.054688 L 335.269531 135.898438 C 335.269531 135.242188 335.136719 134.753906 334.878906 134.429688 C 334.628906 134.097656 334.246094 133.929688 333.738281 133.929688 C 333.121094 133.929688 332.632812 134.128906 332.269531 134.523438 C 331.914062 134.921875 331.738281 135.457031 331.738281 136.132812 L 331.738281 140.054688 L 330.597656 140.054688 L 330.597656 133.101562 L 331.738281 133.101562 L 331.738281 134.179688 C 332.007812 133.765625 332.332031 133.457031 332.707031 133.257812 C 333.082031 133.050781 333.507812 132.945312 333.988281 132.945312 C 334.789062 132.945312 335.394531 133.195312 335.800781 133.695312 C 336.207031 134.1875 336.410156 134.910156 336.410156 135.867188 Z M 342.738281 133.101562 L 343.878906 133.101562 L 343.878906 140.054688 L 342.738281 140.054688 Z M 342.738281 130.398438 L 343.878906 130.398438 L 343.878906 131.851562 L 342.738281 131.851562 Z M 352.035156 135.867188 L 352.035156 140.054688 L 350.894531 140.054688 L 350.894531 135.898438 C 350.894531 135.242188 350.761719 134.753906 350.503906 134.429688 C 350.253906 134.097656 349.871094 133.929688 349.363281 133.929688 C 348.746094 133.929688 348.257812 134.128906 347.894531 134.523438 C 347.539062 134.921875 347.363281 135.457031 347.363281 136.132812 L 347.363281 140.054688 L 346.222656 140.054688 L 346.222656 133.101562 L 347.363281 133.101562 L 347.363281 134.179688 C 347.632812 133.765625 347.957031 133.457031 348.332031 133.257812 C 348.707031 133.050781 349.132812 132.945312 349.613281 132.945312 C 350.414062 132.945312 351.019531 133.195312 351.425781 133.695312 C 351.832031 134.1875 352.035156 134.910156 352.035156 135.867188 Z M 357.839844 130.398438 L 357.839844 131.351562 L 356.746094 131.351562 C 356.339844 131.351562 356.050781 131.4375 355.886719 131.601562 C 355.730469 131.769531 355.652344 132.066406 355.652344 132.492188 L 355.652344 133.101562 L 357.527344 133.101562 L 357.527344 133.992188 L 355.652344 133.992188 L 355.652344 140.054688 L 354.511719 140.054688 L 354.511719 133.992188 L 353.417969 133.992188 L 353.417969 133.101562 L 354.511719 133.101562 L 354.511719 132.617188 C 354.511719 131.847656 354.6875 131.285156 355.042969 130.929688 C 355.40625 130.578125 355.980469 130.398438 356.761719 130.398438 Z M 361.484375 133.914062 C 360.867188 133.914062 360.382812 134.15625 360.03125 134.632812 C 359.675781 135.101562 359.5 135.753906 359.5 136.585938 C 359.5 137.421875 359.675781 138.078125 360.03125 138.554688 C 360.382812 139.035156 360.867188 139.273438 361.484375 139.273438 C 362.085938 139.273438 362.566406 139.035156 362.921875 138.554688 C 363.285156 138.066406 363.46875 137.410156 363.46875 136.585938 C 363.46875 135.765625 363.285156 135.113281 362.921875 134.632812 C 362.566406 134.15625 362.085938 133.914062 361.484375 133.914062 Z M 361.484375 132.945312 C 362.472656 132.945312 363.25 133.269531 363.8125 133.914062 C 364.382812 134.5625 364.671875 135.453125 364.671875 136.585938 C 364.671875 137.722656 364.382812 138.617188 363.8125 139.273438 C 363.25 139.921875 362.472656 140.242188 361.484375 140.242188 C 360.484375 140.242188 359.703125 139.921875 359.140625 139.273438 C 358.578125 138.617188 358.296875 137.722656 358.296875 136.585938 C 358.296875 135.453125 358.578125 134.5625 359.140625 133.914062 C 359.703125 133.269531 360.484375 132.945312 361.484375 132.945312 Z M 370.589844 134.179688 C 370.464844 134.109375 370.324219 134.054688 370.167969 134.023438 C 370.019531 133.984375 369.855469 133.960938 369.667969 133.960938 C 369.03125 133.960938 368.535156 134.171875 368.183594 134.585938 C 367.839844 135.003906 367.667969 135.609375 367.667969 136.398438 L 367.667969 140.054688 L 366.527344 140.054688 L 366.527344 133.101562 L 367.667969 133.101562 L 367.667969 134.179688 C 367.90625 133.765625 368.21875 133.457031 368.605469 133.257812 C 368.988281 133.050781 369.457031 132.945312 370.011719 132.945312 C 370.082031 132.945312 370.167969 132.953125 370.261719 132.960938 C 370.363281 132.972656 370.472656 132.988281 370.589844 133.007812 Z M 377.203125 134.445312 C 377.484375 133.9375 377.820312 133.5625 378.21875 133.320312 C 378.613281 133.070312 379.082031 132.945312 379.625 132.945312 C 380.34375 132.945312 380.898438 133.203125 381.296875 133.710938 C 381.691406 134.210938 381.890625 134.929688 381.890625 135.867188 L 381.890625 140.054688 L 380.734375 140.054688 L 380.734375 135.898438 C 380.734375 135.234375 380.613281 134.738281 380.375 134.414062 C 380.144531 134.09375 379.789062 133.929688 379.3125 133.929688 C 378.71875 133.929688 378.25 134.128906 377.90625 134.523438 C 377.5625 134.921875 377.390625 135.457031 377.390625 136.132812 L 377.390625 140.054688 L 376.25 140.054688 L 376.25 135.898438 C 376.25 135.234375 376.128906 134.738281 375.890625 134.414062 C 375.648438 134.09375 375.285156 133.929688 374.796875 133.929688 C 374.210938 133.929688 373.75 134.128906 373.40625 134.523438 C 373.0625 134.921875 372.890625 135.457031 372.890625 136.132812 L 372.890625 140.054688 L 371.75 140.054688 L 371.75 133.101562 L 372.890625 133.101562 L 372.890625 134.179688 C 373.148438 133.765625 373.460938 133.457031 373.828125 133.257812 C 374.191406 133.050781 374.625 132.945312 375.125 132.945312 C 375.632812 132.945312 376.066406 133.078125 376.421875 133.335938 C 376.773438 133.585938 377.035156 133.957031 377.203125 134.445312 Z M 387.335938 136.570312 C 386.40625 136.570312 385.765625 136.675781 385.414062 136.882812 C 385.058594 137.09375 384.882812 137.453125 384.882812 137.960938 C 384.882812 138.367188 385.011719 138.691406 385.273438 138.929688 C 385.542969 139.160156 385.90625 139.273438 386.367188 139.273438 C 387 139.273438 387.507812 139.050781 387.882812 138.601562 C 388.265625 138.15625 388.460938 137.5625 388.460938 136.820312 L 388.460938 136.570312 Z M 389.601562 136.085938 L 389.601562 140.054688 L 388.460938 140.054688 L 388.460938 139.007812 C 388.199219 139.425781 387.875 139.738281 387.492188 139.945312 C 387.105469 140.140625 386.632812 140.242188 386.070312 140.242188 C 385.351562 140.242188 384.78125 140.046875 384.367188 139.648438 C 383.949219 139.242188 383.742188 138.707031 383.742188 138.039062 C 383.742188 137.257812 384 136.671875 384.523438 136.273438 C 385.042969 135.867188 385.824219 135.664062 386.867188 135.664062 L 388.460938 135.664062 L 388.460938 135.554688 C 388.460938 135.035156 388.289062 134.632812 387.945312 134.351562 C 387.601562 134.0625 387.117188 133.914062 386.492188 133.914062 C 386.09375 133.914062 385.710938 133.960938 385.335938 134.054688 C 384.960938 134.148438 384.59375 134.289062 384.242188 134.476562 L 384.242188 133.429688 C 384.65625 133.265625 385.0625 133.144531 385.460938 133.070312 C 385.855469 132.988281 386.242188 132.945312 386.617188 132.945312 C 387.617188 132.945312 388.359375 133.207031 388.851562 133.726562 C 389.351562 134.25 389.601562 135.035156 389.601562 136.085938 Z M 393.089844 131.132812 L 393.089844 133.101562 L 395.433594 133.101562 L 395.433594 133.992188 L 393.089844 133.992188 L 393.089844 137.773438 C 393.089844 138.335938 393.167969 138.703125 393.324219 138.867188 C 393.480469 139.023438 393.792969 139.101562 394.261719 139.101562 L 395.433594 139.101562 L 395.433594 140.054688 L 394.261719 140.054688 C 393.386719 140.054688 392.777344 139.894531 392.433594 139.570312 C 392.097656 139.238281 391.933594 138.640625 391.933594 137.773438 L 391.933594 133.992188 L 391.105469 133.992188 L 391.105469 133.101562 L 391.933594 133.101562 L 391.933594 131.132812 Z M 396.949219 133.101562 L 398.089844 133.101562 L 398.089844 140.054688 L 396.949219 140.054688 Z M 396.949219 130.398438 L 398.089844 130.398438 L 398.089844 131.851562 L 396.949219 131.851562 Z M 403.167969 133.914062 C 402.550781 133.914062 402.066406 134.15625 401.714844 134.632812 C 401.359375 135.101562 401.183594 135.753906 401.183594 136.585938 C 401.183594 137.421875 401.359375 138.078125 401.714844 138.554688 C 402.066406 139.035156 402.550781 139.273438 403.167969 139.273438 C 403.769531 139.273438 404.25 139.035156 404.605469 138.554688 C 404.96875 138.066406 405.152344 137.410156 405.152344 136.585938 C 405.152344 135.765625 404.96875 135.113281 404.605469 134.632812 C 404.25 134.15625 403.769531 133.914062 403.167969 133.914062 Z M 403.167969 132.945312 C 404.15625 132.945312 404.933594 133.269531 405.496094 133.914062 C 406.066406 134.5625 406.355469 135.453125 406.355469 136.585938 C 406.355469 137.722656 406.066406 138.617188 405.496094 139.273438 C 404.933594 139.921875 404.15625 140.242188 403.167969 140.242188 C 402.167969 140.242188 401.386719 139.921875 400.824219 139.273438 C 400.261719 138.617188 399.980469 137.722656 399.980469 136.585938 C 399.980469 135.453125 400.261719 134.5625 400.824219 133.914062 C 401.386719 133.269531 402.167969 132.945312 403.167969 132.945312 Z M 414.019531 135.867188 L 414.019531 140.054688 L 412.878906 140.054688 L 412.878906 135.898438 C 412.878906 135.242188 412.746094 134.753906 412.488281 134.429688 C 412.238281 134.097656 411.855469 133.929688 411.347656 133.929688 C 410.730469 133.929688 410.242188 134.128906 409.878906 134.523438 C 409.523438 134.921875 409.347656 135.457031 409.347656 136.132812 L 409.347656 140.054688 L 408.207031 140.054688 L 408.207031 133.101562 L 409.347656 133.101562 L 409.347656 134.179688 C 409.617188 133.765625 409.941406 133.457031 410.316406 133.257812 C 410.691406 133.050781 411.117188 132.945312 411.597656 132.945312 C 412.398438 132.945312 413.003906 133.195312 413.410156 133.695312 C 413.816406 134.1875 414.019531 134.910156 414.019531 135.867188 Z M 421.445312 139.007812 L 421.445312 142.695312 L 420.304688 142.695312 L 420.304688 133.101562 L 421.445312 133.101562 L 421.445312 134.164062 C 421.683594 133.75 421.984375 133.441406 422.351562 133.242188 C 422.726562 133.046875 423.164062 132.945312 423.664062 132.945312 C 424.507812 132.945312 425.195312 133.28125 425.726562 133.945312 C 426.257812 134.613281 426.523438 135.492188 426.523438 136.585938 C 426.523438 137.679688 426.257812 138.566406 425.726562 139.242188 C 425.195312 139.910156 424.507812 140.242188 423.664062 140.242188 C 423.164062 140.242188 422.726562 140.140625 422.351562 139.945312 C 421.984375 139.738281 421.683594 139.425781 421.445312 139.007812 Z M 425.335938 136.585938 C 425.335938 135.753906 425.15625 135.097656 424.804688 134.617188 C 424.460938 134.140625 423.992188 133.898438 423.398438 133.898438 C 422.792969 133.898438 422.3125 134.140625 421.960938 134.617188 C 421.617188 135.097656 421.445312 135.753906 421.445312 136.585938 C 421.445312 137.429688 421.617188 138.09375 421.960938 138.570312 C 422.3125 139.039062 422.792969 139.273438 423.398438 139.273438 C 423.992188 139.273438 424.460938 139.039062 424.804688 138.570312 C 425.15625 138.09375 425.335938 137.429688 425.335938 136.585938 Z M 432.433594 134.179688 C 432.308594 134.109375 432.167969 134.054688 432.011719 134.023438 C 431.863281 133.984375 431.699219 133.960938 431.511719 133.960938 C 430.875 133.960938 430.378906 134.171875 430.027344 134.585938 C 429.683594 135.003906 429.511719 135.609375 429.511719 136.398438 L 429.511719 140.054688 L 428.371094 140.054688 L 428.371094 133.101562 L 429.511719 133.101562 L 429.511719 134.179688 C 429.75 133.765625 430.0625 133.457031 430.449219 133.257812 C 430.832031 133.050781 431.300781 132.945312 431.855469 132.945312 C 431.925781 132.945312 432.011719 132.953125 432.105469 132.960938 C 432.207031 132.972656 432.316406 132.988281 432.433594 133.007812 Z M 436.328125 133.914062 C 435.710938 133.914062 435.226562 134.15625 434.875 134.632812 C 434.519531 135.101562 434.34375 135.753906 434.34375 136.585938 C 434.34375 137.421875 434.519531 138.078125 434.875 138.554688 C 435.226562 139.035156 435.710938 139.273438 436.328125 139.273438 C 436.929688 139.273438 437.410156 139.035156 437.765625 138.554688 C 438.128906 138.066406 438.3125 137.410156 438.3125 136.585938 C 438.3125 135.765625 438.128906 135.113281 437.765625 134.632812 C 437.410156 134.15625 436.929688 133.914062 436.328125 133.914062 Z M 436.328125 132.945312 C 437.316406 132.945312 438.09375 133.269531 438.65625 133.914062 C 439.226562 134.5625 439.515625 135.453125 439.515625 136.585938 C 439.515625 137.722656 439.226562 138.617188 438.65625 139.273438 C 438.09375 139.921875 437.316406 140.242188 436.328125 140.242188 C 435.328125 140.242188 434.546875 139.921875 433.984375 139.273438 C 433.421875 138.617188 433.140625 137.722656 433.140625 136.585938 C 433.140625 135.453125 433.421875 134.5625 433.984375 133.914062 C 434.546875 133.269531 435.328125 132.945312 436.328125 132.945312 Z M 442.511719 139.007812 L 442.511719 142.695312 L 441.371094 142.695312 L 441.371094 133.101562 L 442.511719 133.101562 L 442.511719 134.164062 C 442.75 133.75 443.050781 133.441406 443.417969 133.242188 C 443.792969 133.046875 444.230469 132.945312 444.730469 132.945312 C 445.574219 132.945312 446.261719 133.28125 446.792969 133.945312 C 447.324219 134.613281 447.589844 135.492188 447.589844 136.585938 C 447.589844 137.679688 447.324219 138.566406 446.792969 139.242188 C 446.261719 139.910156 445.574219 140.242188 444.730469 140.242188 C 444.230469 140.242188 443.792969 140.140625 443.417969 139.945312 C 443.050781 139.738281 442.75 139.425781 442.511719 139.007812 Z M 446.402344 136.585938 C 446.402344 135.753906 446.222656 135.097656 445.871094 134.617188 C 445.527344 134.140625 445.058594 133.898438 444.464844 133.898438 C 443.859375 133.898438 443.378906 134.140625 443.027344 134.617188 C 442.683594 135.097656 442.511719 135.753906 442.511719 136.585938 C 442.511719 137.429688 442.683594 138.09375 443.027344 138.570312 C 443.378906 139.039062 443.859375 139.273438 444.464844 139.273438 C 445.058594 139.273438 445.527344 139.039062 445.871094 138.570312 C 446.222656 138.09375 446.402344 137.429688 446.402344 136.585938 Z M 452.640625 136.570312 C 451.710938 136.570312 451.070312 136.675781 450.71875 136.882812 C 450.363281 137.09375 450.1875 137.453125 450.1875 137.960938 C 450.1875 138.367188 450.316406 138.691406 450.578125 138.929688 C 450.847656 139.160156 451.210938 139.273438 451.671875 139.273438 C 452.304688 139.273438 452.8125 139.050781 453.1875 138.601562 C 453.570312 138.15625 453.765625 137.5625 453.765625 136.820312 L 453.765625 136.570312 Z M 454.90625 136.085938 L 454.90625 140.054688 L 453.765625 140.054688 L 453.765625 139.007812 C 453.503906 139.425781 453.179688 139.738281 452.796875 139.945312 C 452.410156 140.140625 451.9375 140.242188 451.375 140.242188 C 450.65625 140.242188 450.085938 140.046875 449.671875 139.648438 C 449.253906 139.242188 449.046875 138.707031 449.046875 138.039062 C 449.046875 137.257812 449.304688 136.671875 449.828125 136.273438 C 450.347656 135.867188 451.128906 135.664062 452.171875 135.664062 L 453.765625 135.664062 L 453.765625 135.554688 C 453.765625 135.035156 453.59375 134.632812 453.25 134.351562 C 452.90625 134.0625 452.421875 133.914062 451.796875 133.914062 C 451.398438 133.914062 451.015625 133.960938 450.640625 134.054688 C 450.265625 134.148438 449.898438 134.289062 449.546875 134.476562 L 449.546875 133.429688 C 449.960938 133.265625 450.367188 133.144531 450.765625 133.070312 C 451.160156 132.988281 451.546875 132.945312 451.921875 132.945312 C 452.921875 132.945312 453.664062 133.207031 454.15625 133.726562 C 454.65625 134.25 454.90625 135.035156 454.90625 136.085938 Z M 461.835938 136.507812 C 461.835938 135.675781 461.664062 135.035156 461.320312 134.585938 C 460.984375 134.128906 460.511719 133.898438 459.898438 133.898438 C 459.28125 133.898438 458.804688 134.128906 458.460938 134.585938 C 458.117188 135.035156 457.945312 135.675781 457.945312 136.507812 C 457.945312 137.332031 458.117188 137.972656 458.460938 138.429688 C 458.804688 138.878906 459.28125 139.101562 459.898438 139.101562 C 460.511719 139.101562 460.984375 138.878906 461.320312 138.429688 C 461.664062 137.972656 461.835938 137.332031 461.835938 136.507812 Z M 462.976562 139.195312 C 462.976562 140.371094 462.710938 141.246094 462.179688 141.820312 C 461.65625 142.402344 460.855469 142.695312 459.773438 142.695312 C 459.375 142.695312 459 142.664062 458.648438 142.601562 C 458.292969 142.546875 457.945312 142.460938 457.601562 142.335938 L 457.601562 141.226562 C 457.945312 141.402344 458.277344 141.53125 458.601562 141.617188 C 458.921875 141.710938 459.257812 141.757812 459.601562 141.757812 C 460.351562 141.757812 460.90625 141.558594 461.273438 141.164062 C 461.648438 140.777344 461.835938 140.1875 461.835938 139.398438 L 461.835938 138.835938 C 461.605469 139.242188 461.304688 139.550781 460.929688 139.757812 C 460.5625 139.957031 460.125 140.054688 459.617188 140.054688 C 458.761719 140.054688 458.074219 139.734375 457.554688 139.085938 C 457.03125 138.429688 456.773438 137.570312 456.773438 136.507812 C 456.773438 135.425781 457.03125 134.5625 457.554688 133.914062 C 458.074219 133.269531 458.761719 132.945312 459.617188 132.945312 C 460.125 132.945312 460.5625 133.050781 460.929688 133.257812 C 461.304688 133.457031 461.605469 133.757812 461.835938 134.164062 L 461.835938 133.101562 L 462.976562 133.101562 Z M 468.496094 136.570312 C 467.566406 136.570312 466.925781 136.675781 466.574219 136.882812 C 466.21875 137.09375 466.042969 137.453125 466.042969 137.960938 C 466.042969 138.367188 466.171875 138.691406 466.433594 138.929688 C 466.703125 139.160156 467.066406 139.273438 467.527344 139.273438 C 468.160156 139.273438 468.667969 139.050781 469.042969 138.601562 C 469.425781 138.15625 469.621094 137.5625 469.621094 136.820312 L 469.621094 136.570312 Z M 470.761719 136.085938 L 470.761719 140.054688 L 469.621094 140.054688 L 469.621094 139.007812 C 469.359375 139.425781 469.035156 139.738281 468.652344 139.945312 C 468.265625 140.140625 467.792969 140.242188 467.230469 140.242188 C 466.511719 140.242188 465.941406 140.046875 465.527344 139.648438 C 465.109375 139.242188 464.902344 138.707031 464.902344 138.039062 C 464.902344 137.257812 465.160156 136.671875 465.683594 136.273438 C 466.203125 135.867188 466.984375 135.664062 468.027344 135.664062 L 469.621094 135.664062 L 469.621094 135.554688 C 469.621094 135.035156 469.449219 134.632812 469.105469 134.351562 C 468.761719 134.0625 468.277344 133.914062 467.652344 133.914062 C 467.253906 133.914062 466.871094 133.960938 466.496094 134.054688 C 466.121094 134.148438 465.753906 134.289062 465.402344 134.476562 L 465.402344 133.429688 C 465.816406 133.265625 466.222656 133.144531 466.621094 133.070312 C 467.015625 132.988281 467.402344 132.945312 467.777344 132.945312 C 468.777344 132.945312 469.519531 133.207031 470.011719 133.726562 C 470.511719 134.25 470.761719 135.035156 470.761719 136.085938 Z M 474.253906 131.132812 L 474.253906 133.101562 L 476.597656 133.101562 L 476.597656 133.992188 L 474.253906 133.992188 L 474.253906 137.773438 C 474.253906 138.335938 474.332031 138.703125 474.488281 138.867188 C 474.644531 139.023438 474.957031 139.101562 475.425781 139.101562 L 476.597656 139.101562 L 476.597656 140.054688 L 475.425781 140.054688 C 474.550781 140.054688 473.941406 139.894531 473.597656 139.570312 C 473.261719 139.238281 473.097656 138.640625 473.097656 137.773438 L 473.097656 133.992188 L 472.269531 133.992188 L 472.269531 133.101562 L 473.097656 133.101562 L 473.097656 131.132812 Z M 478.109375 133.101562 L 479.25 133.101562 L 479.25 140.054688 L 478.109375 140.054688 Z M 478.109375 130.398438 L 479.25 130.398438 L 479.25 131.851562 L 478.109375 131.851562 Z M 487.40625 135.867188 L 487.40625 140.054688 L 486.265625 140.054688 L 486.265625 135.898438 C 486.265625 135.242188 486.132812 134.753906 485.875 134.429688 C 485.625 134.097656 485.242188 133.929688 484.734375 133.929688 C 484.117188 133.929688 483.628906 134.128906 483.265625 134.523438 C 482.910156 134.921875 482.734375 135.457031 482.734375 136.132812 L 482.734375 140.054688 L 481.59375 140.054688 L 481.59375 133.101562 L 482.734375 133.101562 L 482.734375 134.179688 C 483.003906 133.765625 483.328125 133.457031 483.703125 133.257812 C 484.078125 133.050781 484.503906 132.945312 484.984375 132.945312 C 485.785156 132.945312 486.390625 133.195312 486.796875 133.695312 C 487.203125 134.1875 487.40625 134.910156 487.40625 135.867188 Z M 494.257812 136.507812 C 494.257812 135.675781 494.085938 135.035156 493.742188 134.585938 C 493.40625 134.128906 492.933594 133.898438 492.320312 133.898438 C 491.703125 133.898438 491.226562 134.128906 490.882812 134.585938 C 490.539062 135.035156 490.367188 135.675781 490.367188 136.507812 C 490.367188 137.332031 490.539062 137.972656 490.882812 138.429688 C 491.226562 138.878906 491.703125 139.101562 492.320312 139.101562 C 492.933594 139.101562 493.40625 138.878906 493.742188 138.429688 C 494.085938 137.972656 494.257812 137.332031 494.257812 136.507812 Z M 495.398438 139.195312 C 495.398438 140.371094 495.132812 141.246094 494.601562 141.820312 C 494.078125 142.402344 493.277344 142.695312 492.195312 142.695312 C 491.796875 142.695312 491.421875 142.664062 491.070312 142.601562 C 490.714844 142.546875 490.367188 142.460938 490.023438 142.335938 L 490.023438 141.226562 C 490.367188 141.402344 490.699219 141.53125 491.023438 141.617188 C 491.34375 141.710938 491.679688 141.757812 492.023438 141.757812 C 492.773438 141.757812 493.328125 141.558594 493.695312 141.164062 C 494.070312 140.777344 494.257812 140.1875 494.257812 139.398438 L 494.257812 138.835938 C 494.027344 139.242188 493.726562 139.550781 493.351562 139.757812 C 492.984375 139.957031 492.546875 140.054688 492.039062 140.054688 C 491.183594 140.054688 490.496094 139.734375 489.976562 139.085938 C 489.453125 138.429688 489.195312 137.570312 489.195312 136.507812 C 489.195312 135.425781 489.453125 134.5625 489.976562 133.914062 C 490.496094 133.269531 491.183594 132.945312 492.039062 132.945312 C 492.546875 132.945312 492.984375 133.050781 493.351562 133.257812 C 493.726562 133.457031 494.027344 133.757812 494.257812 134.164062 L 494.257812 133.101562 L 495.398438 133.101562 Z M 291.78125 146.011719 L 291.78125 147.105469 C 291.457031 146.941406 291.117188 146.816406 290.765625 146.730469 C 290.421875 146.648438 290.066406 146.605469 289.703125 146.605469 C 289.128906 146.605469 288.703125 146.695312 288.421875 146.871094 C 288.140625 147.039062 288 147.292969 288 147.636719 C 288 147.910156 288.097656 148.121094 288.296875 148.277344 C 288.503906 148.425781 288.914062 148.566406 289.53125 148.699219 L 289.921875 148.792969 C 290.722656 148.960938 291.296875 149.207031 291.640625 149.527344 C 291.984375 149.839844 292.15625 150.277344 292.15625 150.839844 C 292.15625 151.488281 291.898438 152.003906 291.390625 152.386719 C 290.878906 152.761719 290.175781 152.949219 289.28125 152.949219 C 288.90625 152.949219 288.515625 152.910156 288.109375 152.839844 C 287.710938 152.765625 287.289062 152.660156 286.84375 152.511719 L 286.84375 151.324219 C 287.269531 151.542969 287.6875 151.710938 288.09375 151.824219 C 288.5 151.929688 288.90625 151.980469 289.3125 151.980469 C 289.84375 151.980469 290.253906 151.894531 290.546875 151.714844 C 290.835938 151.527344 290.984375 151.269531 290.984375 150.933594 C 290.984375 150.621094 290.878906 150.382812 290.671875 150.214844 C 290.460938 150.050781 290.003906 149.894531 289.296875 149.746094 L 288.890625 149.652344 C 288.191406 149.496094 287.679688 149.269531 287.359375 148.964844 C 287.046875 148.652344 286.890625 148.230469 286.890625 147.699219 C 286.890625 147.042969 287.117188 146.539062 287.578125 146.183594 C 288.046875 145.832031 288.707031 145.652344 289.5625 145.652344 C 289.976562 145.652344 290.375 145.683594 290.75 145.746094 C 291.125 145.808594 291.46875 145.898438 291.78125 146.011719 Z M 295.074219 151.714844 L 295.074219 155.402344 L 293.933594 155.402344 L 293.933594 145.808594 L 295.074219 145.808594 L 295.074219 146.871094 C 295.3125 146.457031 295.613281 146.148438 295.980469 145.949219 C 296.355469 145.753906 296.792969 145.652344 297.292969 145.652344 C 298.136719 145.652344 298.824219 145.988281 299.355469 146.652344 C 299.886719 147.320312 300.152344 148.199219 300.152344 149.292969 C 300.152344 150.386719 299.886719 151.273438 299.355469 151.949219 C 298.824219 152.617188 298.136719 152.949219 297.292969 152.949219 C 296.792969 152.949219 296.355469 152.847656 295.980469 152.652344 C 295.613281 152.445312 295.3125 152.132812 295.074219 151.714844 Z M 298.964844 149.292969 C 298.964844 148.460938 298.785156 147.804688 298.433594 147.324219 C 298.089844 146.847656 297.621094 146.605469 297.027344 146.605469 C 296.421875 146.605469 295.941406 146.847656 295.589844 147.324219 C 295.246094 147.804688 295.074219 148.460938 295.074219 149.292969 C 295.074219 150.136719 295.246094 150.800781 295.589844 151.277344 C 295.941406 151.746094 296.421875 151.980469 297.027344 151.980469 C 297.621094 151.980469 298.089844 151.746094 298.433594 151.277344 C 298.785156 150.800781 298.964844 150.136719 298.964844 149.292969 Z M 307.8125 148.574219 L 307.8125 152.761719 L 306.671875 152.761719 L 306.671875 148.605469 C 306.671875 147.949219 306.539062 147.460938 306.28125 147.136719 C 306.03125 146.804688 305.648438 146.636719 305.140625 146.636719 C 304.523438 146.636719 304.035156 146.835938 303.671875 147.230469 C 303.316406 147.628906 303.140625 148.164062 303.140625 148.839844 L 303.140625 152.761719 L 302 152.761719 L 302 143.105469 L 303.140625 143.105469 L 303.140625 146.886719 C 303.410156 146.472656 303.734375 146.164062 304.109375 145.964844 C 304.484375 145.757812 304.910156 145.652344 305.390625 145.652344 C 306.191406 145.652344 306.796875 145.902344 307.203125 146.402344 C 307.609375 146.894531 307.8125 147.617188 307.8125 148.574219 Z M 316.039062 148.996094 L 316.039062 149.558594 L 310.789062 149.558594 C 310.839844 150.351562 311.074219 150.957031 311.492188 151.371094 C 311.917969 151.777344 312.511719 151.980469 313.273438 151.980469 C 313.710938 151.980469 314.132812 151.929688 314.539062 151.824219 C 314.953125 151.710938 315.367188 151.542969 315.773438 151.324219 L 315.773438 152.402344 C 315.367188 152.582031 314.945312 152.714844 314.507812 152.808594 C 314.078125 152.902344 313.640625 152.949219 313.195312 152.949219 C 312.089844 152.949219 311.214844 152.628906 310.570312 151.980469 C 309.921875 151.335938 309.601562 150.460938 309.601562 149.355469 C 309.601562 148.222656 309.90625 147.320312 310.523438 146.652344 C 311.136719 145.988281 311.964844 145.652344 313.007812 145.652344 C 313.945312 145.652344 314.683594 145.957031 315.226562 146.558594 C 315.765625 147.152344 316.039062 147.964844 316.039062 148.996094 Z M 314.898438 148.667969 C 314.886719 148.042969 314.710938 147.550781 314.367188 147.183594 C 314.03125 146.808594 313.585938 146.621094 313.023438 146.621094 C 312.375 146.621094 311.859375 146.804688 311.476562 147.167969 C 311.101562 147.523438 310.882812 148.023438 310.820312 148.667969 Z M 321.9375 146.886719 C 321.8125 146.816406 321.671875 146.761719 321.515625 146.730469 C 321.367188 146.691406 321.203125 146.667969 321.015625 146.667969 C 320.378906 146.667969 319.882812 146.878906 319.53125 147.292969 C 319.1875 147.710938 319.015625 148.316406 319.015625 149.105469 L 319.015625 152.761719 L 317.875 152.761719 L 317.875 145.808594 L 319.015625 145.808594 L 319.015625 146.886719 C 319.253906 146.472656 319.566406 146.164062 319.953125 145.964844 C 320.335938 145.757812 320.804688 145.652344 321.359375 145.652344 C 321.429688 145.652344 321.515625 145.660156 321.609375 145.667969 C 321.710938 145.679688 321.820312 145.695312 321.9375 145.714844 Z M 323.148438 145.808594 L 324.289062 145.808594 L 324.289062 152.761719 L 323.148438 152.761719 Z M 323.148438 143.105469 L 324.289062 143.105469 L 324.289062 144.558594 L 323.148438 144.558594 Z M 331.675781 146.074219 L 331.675781 147.152344 C 331.351562 146.976562 331.023438 146.847656 330.691406 146.761719 C 330.367188 146.667969 330.042969 146.621094 329.722656 146.621094 C 328.972656 146.621094 328.394531 146.855469 327.988281 147.324219 C 327.582031 147.792969 327.378906 148.449219 327.378906 149.292969 C 327.378906 150.136719 327.582031 150.800781 327.988281 151.277344 C 328.394531 151.746094 328.972656 151.980469 329.722656 151.980469 C 330.042969 151.980469 330.367188 151.941406 330.691406 151.855469 C 331.023438 151.761719 331.351562 151.621094 331.675781 151.433594 L 331.675781 152.496094 C 331.351562 152.644531 331.019531 152.753906 330.675781 152.824219 C 330.339844 152.90625 329.980469 152.949219 329.597656 152.949219 C 328.542969 152.949219 327.710938 152.621094 327.097656 151.964844 C 326.480469 151.300781 326.175781 150.410156 326.175781 149.292969 C 326.175781 148.160156 326.480469 147.269531 327.097656 146.621094 C 327.722656 145.976562 328.574219 145.652344 329.660156 145.652344 C 330.011719 145.652344 330.355469 145.691406 330.691406 145.761719 C 331.023438 145.835938 331.351562 145.941406 331.675781 146.074219 Z M 336.820312 149.277344 C 335.890625 149.277344 335.25 149.382812 334.898438 149.589844 C 334.542969 149.800781 334.367188 150.160156 334.367188 150.667969 C 334.367188 151.074219 334.496094 151.398438 334.757812 151.636719 C 335.027344 151.867188 335.390625 151.980469 335.851562 151.980469 C 336.484375 151.980469 336.992188 151.757812 337.367188 151.308594 C 337.75 150.863281 337.945312 150.269531 337.945312 149.527344 L 337.945312 149.277344 Z M 339.085938 148.792969 L 339.085938 152.761719 L 337.945312 152.761719 L 337.945312 151.714844 C 337.683594 152.132812 337.359375 152.445312 336.976562 152.652344 C 336.589844 152.847656 336.117188 152.949219 335.554688 152.949219 C 334.835938 152.949219 334.265625 152.753906 333.851562 152.355469 C 333.433594 151.949219 333.226562 151.414062 333.226562 150.746094 C 333.226562 149.964844 333.484375 149.378906 334.007812 148.980469 C 334.527344 148.574219 335.308594 148.371094 336.351562 148.371094 L 337.945312 148.371094 L 337.945312 148.261719 C 337.945312 147.742188 337.773438 147.339844 337.429688 147.058594 C 337.085938 146.769531 336.601562 146.621094 335.976562 146.621094 C 335.578125 146.621094 335.195312 146.667969 334.820312 146.761719 C 334.445312 146.855469 334.078125 146.996094 333.726562 147.183594 L 333.726562 146.136719 C 334.140625 145.972656 334.546875 145.851562 334.945312 145.777344 C 335.339844 145.695312 335.726562 145.652344 336.101562 145.652344 C 337.101562 145.652344 337.84375 145.914062 338.335938 146.433594 C 338.835938 146.957031 339.085938 147.742188 339.085938 148.792969 Z M 341.453125 143.105469 L 342.59375 143.105469 L 342.59375 152.761719 L 341.453125 152.761719 Z M 344.984375 143.105469 L 346.125 143.105469 L 346.125 152.761719 L 344.984375 152.761719 Z M 351.40625 153.402344 C 351.082031 154.234375 350.765625 154.777344 350.453125 155.027344 C 350.148438 155.277344 349.742188 155.402344 349.234375 155.402344 L 348.3125 155.402344 L 348.3125 154.449219 L 348.984375 154.449219 C 349.296875 154.449219 349.539062 154.371094 349.71875 154.214844 C 349.894531 154.066406 350.085938 153.71875 350.296875 153.167969 L 350.5 152.652344 L 347.6875 145.808594 L 348.90625 145.808594 L 351.078125 151.246094 L 353.25 145.808594 L 354.453125 145.808594 Z M 363.230469 149.277344 C 362.300781 149.277344 361.660156 149.382812 361.308594 149.589844 C 360.953125 149.800781 360.777344 150.160156 360.777344 150.667969 C 360.777344 151.074219 360.90625 151.398438 361.167969 151.636719 C 361.4375 151.867188 361.800781 151.980469 362.261719 151.980469 C 362.894531 151.980469 363.402344 151.757812 363.777344 151.308594 C 364.160156 150.863281 364.355469 150.269531 364.355469 149.527344 L 364.355469 149.277344 Z M 365.496094 148.792969 L 365.496094 152.761719 L 364.355469 152.761719 L 364.355469 151.714844 C 364.09375 152.132812 363.769531 152.445312 363.386719 152.652344 C 363 152.847656 362.527344 152.949219 361.964844 152.949219 C 361.246094 152.949219 360.675781 152.753906 360.261719 152.355469 C 359.84375 151.949219 359.636719 151.414062 359.636719 150.746094 C 359.636719 149.964844 359.894531 149.378906 360.417969 148.980469 C 360.9375 148.574219 361.71875 148.371094 362.761719 148.371094 L 364.355469 148.371094 L 364.355469 148.261719 C 364.355469 147.742188 364.183594 147.339844 363.839844 147.058594 C 363.496094 146.769531 363.011719 146.621094 362.386719 146.621094 C 361.988281 146.621094 361.605469 146.667969 361.230469 146.761719 C 360.855469 146.855469 360.488281 146.996094 360.136719 147.183594 L 360.136719 146.136719 C 360.550781 145.972656 360.957031 145.851562 361.355469 145.777344 C 361.75 145.695312 362.136719 145.652344 362.511719 145.652344 C 363.511719 145.652344 364.253906 145.914062 364.746094 146.433594 C 365.246094 146.957031 365.496094 147.742188 365.496094 148.792969 Z M 368.988281 143.839844 L 368.988281 145.808594 L 371.332031 145.808594 L 371.332031 146.699219 L 368.988281 146.699219 L 368.988281 150.480469 C 368.988281 151.042969 369.066406 151.410156 369.222656 151.574219 C 369.378906 151.730469 369.691406 151.808594 370.160156 151.808594 L 371.332031 151.808594 L 371.332031 152.761719 L 370.160156 152.761719 C 369.285156 152.761719 368.675781 152.601562 368.332031 152.277344 C 367.996094 151.945312 367.832031 151.347656 367.832031 150.480469 L 367.832031 146.699219 L 367.003906 146.699219 L 367.003906 145.808594 L 367.832031 145.808594 L 367.832031 143.839844 Z M 378.011719 143.839844 L 378.011719 145.808594 L 380.355469 145.808594 L 380.355469 146.699219 L 378.011719 146.699219 L 378.011719 150.480469 C 378.011719 151.042969 378.089844 151.410156 378.246094 151.574219 C 378.402344 151.730469 378.714844 151.808594 379.183594 151.808594 L 380.355469 151.808594 L 380.355469 152.761719 L 379.183594 152.761719 C 378.308594 152.761719 377.699219 152.601562 377.355469 152.277344 C 377.019531 151.945312 376.855469 151.347656 376.855469 150.480469 L 376.855469 146.699219 L 376.027344 146.699219 L 376.027344 145.808594 L 376.855469 145.808594 L 376.855469 143.839844 Z M 387.636719 148.574219 L 387.636719 152.761719 L 386.496094 152.761719 L 386.496094 148.605469 C 386.496094 147.949219 386.363281 147.460938 386.105469 147.136719 C 385.855469 146.804688 385.472656 146.636719 384.964844 146.636719 C 384.347656 146.636719 383.859375 146.835938 383.496094 147.230469 C 383.140625 147.628906 382.964844 148.164062 382.964844 148.839844 L 382.964844 152.761719 L 381.824219 152.761719 L 381.824219 143.105469 L 382.964844 143.105469 L 382.964844 146.886719 C 383.234375 146.472656 383.558594 146.164062 383.933594 145.964844 C 384.308594 145.757812 384.734375 145.652344 385.214844 145.652344 C 386.015625 145.652344 386.621094 145.902344 387.027344 146.402344 C 387.433594 146.894531 387.636719 147.617188 387.636719 148.574219 Z M 395.863281 148.996094 L 395.863281 149.558594 L 390.613281 149.558594 C 390.664062 150.351562 390.898438 150.957031 391.316406 151.371094 C 391.742188 151.777344 392.335938 151.980469 393.097656 151.980469 C 393.535156 151.980469 393.957031 151.929688 394.363281 151.824219 C 394.777344 151.710938 395.191406 151.542969 395.597656 151.324219 L 395.597656 152.402344 C 395.191406 152.582031 394.769531 152.714844 394.332031 152.808594 C 393.902344 152.902344 393.464844 152.949219 393.019531 152.949219 C 391.914062 152.949219 391.039062 152.628906 390.394531 151.980469 C 389.746094 151.335938 389.425781 150.460938 389.425781 149.355469 C 389.425781 148.222656 389.730469 147.320312 390.347656 146.652344 C 390.960938 145.988281 391.789062 145.652344 392.832031 145.652344 C 393.769531 145.652344 394.507812 145.957031 395.050781 146.558594 C 395.589844 147.152344 395.863281 147.964844 395.863281 148.996094 Z M 394.722656 148.667969 C 394.710938 148.042969 394.535156 147.550781 394.191406 147.183594 C 393.855469 146.808594 393.410156 146.621094 392.847656 146.621094 C 392.199219 146.621094 391.683594 146.804688 391.300781 147.167969 C 390.925781 147.523438 390.707031 148.023438 390.644531 148.667969 Z M 406.203125 146.011719 L 406.203125 147.105469 C 405.878906 146.941406 405.539062 146.816406 405.1875 146.730469 C 404.84375 146.648438 404.488281 146.605469 404.125 146.605469 C 403.550781 146.605469 403.125 146.695312 402.84375 146.871094 C 402.5625 147.039062 402.421875 147.292969 402.421875 147.636719 C 402.421875 147.910156 402.519531 148.121094 402.71875 148.277344 C 402.925781 148.425781 403.335938 148.566406 403.953125 148.699219 L 404.34375 148.792969 C 405.144531 148.960938 405.71875 149.207031 406.0625 149.527344 C 406.40625 149.839844 406.578125 150.277344 406.578125 150.839844 C 406.578125 151.488281 406.320312 152.003906 405.8125 152.386719 C 405.300781 152.761719 404.597656 152.949219 403.703125 152.949219 C 403.328125 152.949219 402.9375 152.910156 402.53125 152.839844 C 402.132812 152.765625 401.710938 152.660156 401.265625 152.511719 L 401.265625 151.324219 C 401.691406 151.542969 402.109375 151.710938 402.515625 151.824219 C 402.921875 151.929688 403.328125 151.980469 403.734375 151.980469 C 404.265625 151.980469 404.675781 151.894531 404.96875 151.714844 C 405.257812 151.527344 405.40625 151.269531 405.40625 150.933594 C 405.40625 150.621094 405.300781 150.382812 405.09375 150.214844 C 404.882812 150.050781 404.425781 149.894531 403.71875 149.746094 L 403.3125 149.652344 C 402.613281 149.496094 402.101562 149.269531 401.78125 148.964844 C 401.46875 148.652344 401.3125 148.230469 401.3125 147.699219 C 401.3125 147.042969 401.539062 146.539062 402 146.183594 C 402.46875 145.832031 403.128906 145.652344 403.984375 145.652344 C 404.398438 145.652344 404.796875 145.683594 405.171875 145.746094 C 405.546875 145.808594 405.890625 145.898438 406.203125 146.011719 Z M 409.496094 151.714844 L 409.496094 155.402344 L 408.355469 155.402344 L 408.355469 145.808594 L 409.496094 145.808594 L 409.496094 146.871094 C 409.734375 146.457031 410.035156 146.148438 410.402344 145.949219 C 410.777344 145.753906 411.214844 145.652344 411.714844 145.652344 C 412.558594 145.652344 413.246094 145.988281 413.777344 146.652344 C 414.308594 147.320312 414.574219 148.199219 414.574219 149.292969 C 414.574219 150.386719 414.308594 151.273438 413.777344 151.949219 C 413.246094 152.617188 412.558594 152.949219 411.714844 152.949219 C 411.214844 152.949219 410.777344 152.847656 410.402344 152.652344 C 410.035156 152.445312 409.734375 152.132812 409.496094 151.714844 Z M 413.386719 149.292969 C 413.386719 148.460938 413.207031 147.804688 412.855469 147.324219 C 412.511719 146.847656 412.042969 146.605469 411.449219 146.605469 C 410.84375 146.605469 410.363281 146.847656 410.011719 147.324219 C 409.667969 147.804688 409.496094 148.460938 409.496094 149.292969 C 409.496094 150.136719 409.667969 150.800781 410.011719 151.277344 C 410.363281 151.746094 410.84375 151.980469 411.449219 151.980469 C 412.042969 151.980469 412.511719 151.746094 412.855469 151.277344 C 413.207031 150.800781 413.386719 150.136719 413.386719 149.292969 Z M 422.410156 148.996094 L 422.410156 149.558594 L 417.160156 149.558594 C 417.210938 150.351562 417.445312 150.957031 417.863281 151.371094 C 418.289062 151.777344 418.882812 151.980469 419.644531 151.980469 C 420.082031 151.980469 420.503906 151.929688 420.910156 151.824219 C 421.324219 151.710938 421.738281 151.542969 422.144531 151.324219 L 422.144531 152.402344 C 421.738281 152.582031 421.316406 152.714844 420.878906 152.808594 C 420.449219 152.902344 420.011719 152.949219 419.566406 152.949219 C 418.460938 152.949219 417.585938 152.628906 416.941406 151.980469 C 416.292969 151.335938 415.972656 150.460938 415.972656 149.355469 C 415.972656 148.222656 416.277344 147.320312 416.894531 146.652344 C 417.507812 145.988281 418.335938 145.652344 419.378906 145.652344 C 420.316406 145.652344 421.054688 145.957031 421.597656 146.558594 C 422.136719 147.152344 422.410156 147.964844 422.410156 148.996094 Z M 421.269531 148.667969 C 421.257812 148.042969 421.082031 147.550781 420.738281 147.183594 C 420.402344 146.808594 419.957031 146.621094 419.394531 146.621094 C 418.746094 146.621094 418.230469 146.804688 417.847656 147.167969 C 417.472656 147.523438 417.253906 148.023438 417.191406 148.667969 Z M 430.226562 148.996094 L 430.226562 149.558594 L 424.976562 149.558594 C 425.027344 150.351562 425.261719 150.957031 425.679688 151.371094 C 426.105469 151.777344 426.699219 151.980469 427.460938 151.980469 C 427.898438 151.980469 428.320312 151.929688 428.726562 151.824219 C 429.140625 151.710938 429.554688 151.542969 429.960938 151.324219 L 429.960938 152.402344 C 429.554688 152.582031 429.132812 152.714844 428.695312 152.808594 C 428.265625 152.902344 427.828125 152.949219 427.382812 152.949219 C 426.277344 152.949219 425.402344 152.628906 424.757812 151.980469 C 424.109375 151.335938 423.789062 150.460938 423.789062 149.355469 C 423.789062 148.222656 424.09375 147.320312 424.710938 146.652344 C 425.324219 145.988281 426.152344 145.652344 427.195312 145.652344 C 428.132812 145.652344 428.871094 145.957031 429.414062 146.558594 C 429.953125 147.152344 430.226562 147.964844 430.226562 148.996094 Z M 429.085938 148.667969 C 429.074219 148.042969 428.898438 147.550781 428.554688 147.183594 C 428.21875 146.808594 427.773438 146.621094 427.210938 146.621094 C 426.5625 146.621094 426.046875 146.804688 425.664062 147.167969 C 425.289062 147.523438 425.070312 148.023438 425.007812 148.667969 Z M 436.671875 146.871094 L 436.671875 143.105469 L 437.8125 143.105469 L 437.8125 152.761719 L 436.671875 152.761719 L 436.671875 151.714844 C 436.429688 152.132812 436.128906 152.445312 435.765625 152.652344 C 435.398438 152.847656 434.960938 152.949219 434.453125 152.949219 C 433.609375 152.949219 432.921875 152.617188 432.390625 151.949219 C 431.867188 151.273438 431.609375 150.386719 431.609375 149.292969 C 431.609375 148.199219 431.867188 147.320312 432.390625 146.652344 C 432.921875 145.988281 433.609375 145.652344 434.453125 145.652344 C 434.960938 145.652344 435.398438 145.753906 435.765625 145.949219 C 436.128906 146.148438 436.429688 146.457031 436.671875 146.871094 Z M 432.78125 149.292969 C 432.78125 150.136719 432.953125 150.800781 433.296875 151.277344 C 433.648438 151.746094 434.128906 151.980469 434.734375 151.980469 C 435.328125 151.980469 435.796875 151.746094 436.140625 151.277344 C 436.492188 150.800781 436.671875 150.136719 436.671875 149.292969 C 436.671875 148.460938 436.492188 147.804688 436.140625 147.324219 C 435.796875 146.847656 435.328125 146.605469 434.734375 146.605469 C 434.128906 146.605469 433.648438 146.847656 433.296875 147.324219 C 432.953125 147.804688 432.78125 148.460938 432.78125 149.292969 Z M 446.902344 146.621094 C 446.285156 146.621094 445.800781 146.863281 445.449219 147.339844 C 445.09375 147.808594 444.917969 148.460938 444.917969 149.292969 C 444.917969 150.128906 445.09375 150.785156 445.449219 151.261719 C 445.800781 151.742188 446.285156 151.980469 446.902344 151.980469 C 447.503906 151.980469 447.984375 151.742188 448.339844 151.261719 C 448.703125 150.773438 448.886719 150.117188 448.886719 149.292969 C 448.886719 148.472656 448.703125 147.820312 448.339844 147.339844 C 447.984375 146.863281 447.503906 146.621094 446.902344 146.621094 Z M 446.902344 145.652344 C 447.890625 145.652344 448.667969 145.976562 449.230469 146.621094 C 449.800781 147.269531 450.089844 148.160156 450.089844 149.292969 C 450.089844 150.429688 449.800781 151.324219 449.230469 151.980469 C 448.667969 152.628906 447.890625 152.949219 446.902344 152.949219 C 445.902344 152.949219 445.121094 152.628906 444.558594 151.980469 C 443.996094 151.324219 443.714844 150.429688 443.714844 149.292969 C 443.714844 148.160156 443.996094 147.269531 444.558594 146.621094 C 445.121094 145.976562 445.902344 145.652344 446.902344 145.652344 Z M 455.507812 143.105469 L 455.507812 144.058594 L 454.414062 144.058594 C 454.007812 144.058594 453.71875 144.144531 453.554688 144.308594 C 453.398438 144.476562 453.320312 144.773438 453.320312 145.199219 L 453.320312 145.808594 L 455.195312 145.808594 L 455.195312 146.699219 L 453.320312 146.699219 L 453.320312 152.761719 L 452.179688 152.761719 L 452.179688 146.699219 L 451.085938 146.699219 L 451.085938 145.808594 L 452.179688 145.808594 L 452.179688 145.324219 C 452.179688 144.554688 452.355469 143.992188 452.710938 143.636719 C 453.074219 143.285156 453.648438 143.105469 454.429688 143.105469 Z M 460.503906 143.105469 L 461.644531 143.105469 L 461.644531 152.761719 L 460.503906 152.761719 Z M 464.035156 145.808594 L 465.175781 145.808594 L 465.175781 152.761719 L 464.035156 152.761719 Z M 464.035156 143.105469 L 465.175781 143.105469 L 465.175781 144.558594 L 464.035156 144.558594 Z M 472.128906 149.214844 C 472.128906 148.382812 471.957031 147.742188 471.613281 147.292969 C 471.277344 146.835938 470.804688 146.605469 470.191406 146.605469 C 469.574219 146.605469 469.097656 146.835938 468.753906 147.292969 C 468.410156 147.742188 468.238281 148.382812 468.238281 149.214844 C 468.238281 150.039062 468.410156 150.679688 468.753906 151.136719 C 469.097656 151.585938 469.574219 151.808594 470.191406 151.808594 C 470.804688 151.808594 471.277344 151.585938 471.613281 151.136719 C 471.957031 150.679688 472.128906 150.039062 472.128906 149.214844 Z M 473.269531 151.902344 C 473.269531 153.078125 473.003906 153.953125 472.472656 154.527344 C 471.949219 155.109375 471.148438 155.402344 470.066406 155.402344 C 469.667969 155.402344 469.292969 155.371094 468.941406 155.308594 C 468.585938 155.253906 468.238281 155.167969 467.894531 155.042969 L 467.894531 153.933594 C 468.238281 154.109375 468.570312 154.238281 468.894531 154.324219 C 469.214844 154.417969 469.550781 154.464844 469.894531 154.464844 C 470.644531 154.464844 471.199219 154.265625 471.566406 153.871094 C 471.941406 153.484375 472.128906 152.894531 472.128906 152.105469 L 472.128906 151.542969 C 471.898438 151.949219 471.597656 152.257812 471.222656 152.464844 C 470.855469 152.664062 470.417969 152.761719 469.910156 152.761719 C 469.054688 152.761719 468.367188 152.441406 467.847656 151.792969 C 467.324219 151.136719 467.066406 150.277344 467.066406 149.214844 C 467.066406 148.132812 467.324219 147.269531 467.847656 146.621094 C 468.367188 145.976562 469.054688 145.652344 469.910156 145.652344 C 470.417969 145.652344 470.855469 145.757812 471.222656 145.964844 C 471.597656 146.164062 471.898438 146.464844 472.128906 146.871094 L 472.128906 145.808594 L 473.269531 145.808594 Z M 481.398438 148.574219 L 481.398438 152.761719 L 480.257812 152.761719 L 480.257812 148.605469 C 480.257812 147.949219 480.125 147.460938 479.867188 147.136719 C 479.617188 146.804688 479.234375 146.636719 478.726562 146.636719 C 478.109375 146.636719 477.621094 146.835938 477.257812 147.230469 C 476.902344 147.628906 476.726562 148.164062 476.726562 148.839844 L 476.726562 152.761719 L 475.585938 152.761719 L 475.585938 143.105469 L 476.726562 143.105469 L 476.726562 146.886719 C 476.996094 146.472656 477.320312 146.164062 477.695312 145.964844 C 478.070312 145.757812 478.496094 145.652344 478.976562 145.652344 C 479.777344 145.652344 480.382812 145.902344 480.789062 146.402344 C 481.195312 146.894531 481.398438 147.617188 481.398438 148.574219 Z M 484.8125 143.839844 L 484.8125 145.808594 L 487.15625 145.808594 L 487.15625 146.699219 L 484.8125 146.699219 L 484.8125 150.480469 C 484.8125 151.042969 484.890625 151.410156 485.046875 151.574219 C 485.203125 151.730469 485.515625 151.808594 485.984375 151.808594 L 487.15625 151.808594 L 487.15625 152.761719 L 485.984375 152.761719 C 485.109375 152.761719 484.5 152.601562 484.15625 152.277344 C 483.820312 151.945312 483.65625 151.347656 483.65625 150.480469 L 483.65625 146.699219 L 482.828125 146.699219 L 482.828125 145.808594 L 483.65625 145.808594 L 483.65625 143.839844 Z M 487.46875 152.761719 "/>
<path style=" stroke:none;fill-rule:evenodd;fill:rgb(100%,0%,0%);fill-opacity:1;" d="M 265.085938 53.28125 L 266.304688 53.28125 L 268.476562 59.125 L 270.648438 53.28125 L 271.851562 53.28125 L 269.242188 60.234375 L 267.695312 60.234375 Z M 279.371094 56.46875 L 279.371094 57.03125 L 274.121094 57.03125 C 274.171875 57.824219 274.40625 58.429688 274.824219 58.84375 C 275.25 59.25 275.84375 59.453125 276.605469 59.453125 C 277.042969 59.453125 277.464844 59.402344 277.871094 59.296875 C 278.285156 59.183594 278.699219 59.015625 279.105469 58.796875 L 279.105469 59.875 C 278.699219 60.054688 278.277344 60.1875 277.839844 60.28125 C 277.410156 60.375 276.972656 60.421875 276.527344 60.421875 C 275.421875 60.421875 274.546875 60.101562 273.902344 59.453125 C 273.253906 58.808594 272.933594 57.933594 272.933594 56.828125 C 272.933594 55.695312 273.238281 54.792969 273.855469 54.125 C 274.46875 53.460938 275.296875 53.125 276.339844 53.125 C 277.277344 53.125 278.015625 53.429688 278.558594 54.03125 C 279.097656 54.625 279.371094 55.4375 279.371094 56.46875 Z M 278.230469 56.140625 C 278.21875 55.515625 278.042969 55.023438 277.699219 54.65625 C 277.363281 54.28125 276.917969 54.09375 276.355469 54.09375 C 275.707031 54.09375 275.191406 54.277344 274.808594 54.640625 C 274.433594 54.996094 274.214844 55.496094 274.152344 56.140625 Z M 281.253906 50.578125 L 282.394531 50.578125 L 282.394531 60.234375 L 281.253906 60.234375 Z M 287.472656 54.09375 C 286.855469 54.09375 286.371094 54.335938 286.019531 54.8125 C 285.664062 55.28125 285.488281 55.933594 285.488281 56.765625 C 285.488281 57.601562 285.664062 58.257812 286.019531 58.734375 C 286.371094 59.214844 286.855469 59.453125 287.472656 59.453125 C 288.074219 59.453125 288.554688 59.214844 288.910156 58.734375 C 289.273438 58.246094 289.457031 57.589844 289.457031 56.765625 C 289.457031 55.945312 289.273438 55.292969 288.910156 54.8125 C 288.554688 54.335938 288.074219 54.09375 287.472656 54.09375 Z M 287.472656 53.125 C 288.460938 53.125 289.238281 53.449219 289.800781 54.09375 C 290.371094 54.742188 290.660156 55.632812 290.660156 56.765625 C 290.660156 57.902344 290.371094 58.796875 289.800781 59.453125 C 289.238281 60.101562 288.460938 60.421875 287.472656 60.421875 C 286.472656 60.421875 285.691406 60.101562 285.128906 59.453125 C 284.566406 58.796875 284.285156 57.902344 284.285156 56.765625 C 284.285156 55.632812 284.566406 54.742188 285.128906 54.09375 C 285.691406 53.449219 286.472656 53.125 287.472656 53.125 Z M 297.558594 53.546875 L 297.558594 54.625 C 297.234375 54.449219 296.90625 54.320312 296.574219 54.234375 C 296.25 54.140625 295.925781 54.09375 295.605469 54.09375 C 294.855469 54.09375 294.277344 54.328125 293.871094 54.796875 C 293.464844 55.265625 293.261719 55.921875 293.261719 56.765625 C 293.261719 57.609375 293.464844 58.273438 293.871094 58.75 C 294.277344 59.21875 294.855469 59.453125 295.605469 59.453125 C 295.925781 59.453125 296.25 59.414062 296.574219 59.328125 C 296.90625 59.234375 297.234375 59.09375 297.558594 58.90625 L 297.558594 59.96875 C 297.234375 60.117188 296.902344 60.226562 296.558594 60.296875 C 296.222656 60.378906 295.863281 60.421875 295.480469 60.421875 C 294.425781 60.421875 293.59375 60.09375 292.980469 59.4375 C 292.363281 58.773438 292.058594 57.882812 292.058594 56.765625 C 292.058594 55.632812 292.363281 54.742188 292.980469 54.09375 C 293.605469 53.449219 294.457031 53.125 295.542969 53.125 C 295.894531 53.125 296.238281 53.164062 296.574219 53.234375 C 296.90625 53.308594 297.234375 53.414062 297.558594 53.546875 Z M 299.546875 53.28125 L 300.6875 53.28125 L 300.6875 60.234375 L 299.546875 60.234375 Z M 299.546875 50.578125 L 300.6875 50.578125 L 300.6875 52.03125 L 299.546875 52.03125 Z M 304.203125 51.3125 L 304.203125 53.28125 L 306.546875 53.28125 L 306.546875 54.171875 L 304.203125 54.171875 L 304.203125 57.953125 C 304.203125 58.515625 304.28125 58.882812 304.4375 59.046875 C 304.59375 59.203125 304.90625 59.28125 305.375 59.28125 L 306.546875 59.28125 L 306.546875 60.234375 L 305.375 60.234375 C 304.5 60.234375 303.890625 60.074219 303.546875 59.75 C 303.210938 59.417969 303.046875 58.820312 303.046875 57.953125 L 303.046875 54.171875 L 302.21875 54.171875 L 302.21875 53.28125 L 303.046875 53.28125 L 303.046875 51.3125 Z M 310.953125 60.875 C 310.628906 61.707031 310.3125 62.25 310 62.5 C 309.695312 62.75 309.289062 62.875 308.78125 62.875 L 307.859375 62.875 L 307.859375 61.921875 L 308.53125 61.921875 C 308.84375 61.921875 309.085938 61.84375 309.265625 61.6875 C 309.441406 61.539062 309.632812 61.191406 309.84375 60.640625 L 310.046875 60.125 L 307.234375 53.28125 L 308.453125 53.28125 L 310.625 58.71875 L 312.796875 53.28125 L 314 53.28125 Z M 314.378906 60.234375 "/>
</g>
</svg>
