<?xml version="1.0" encoding="UTF-8"?>
<svg xmlns="http://www.w3.org/2000/svg" xmlns:xlink="http://www.w3.org/1999/xlink" width="552.755906pt" height="317.382056pt" viewBox="0 0 552.755906 317.382056" version="1.1">
<g id="surface1">
<path style=" stroke:none;fill-rule:evenodd;fill:rgb(0%,0%,0%);fill-opacity:1;" d="M 338.59375 54.765625 L 338.59375 58.84375 L 341 58.84375 C 341.8125 58.84375 342.410156 58.679688 342.796875 58.34375 C 343.191406 58.011719 343.390625 57.496094 343.390625 56.796875 C 343.390625 56.109375 343.191406 55.601562 342.796875 55.265625 C 342.410156 54.933594 341.8125 54.765625 341 54.765625 Z M 338.59375 50.203125 L 338.59375 53.546875 L 340.828125 53.546875 C 341.554688 53.546875 342.097656 53.414062 342.453125 53.140625 C 342.816406 52.859375 343 52.4375 343 51.875 C 343 51.3125 342.816406 50.898438 342.453125 50.625 C 342.097656 50.34375 341.554688 50.203125 340.828125 50.203125 Z M 337.09375 48.953125 L 340.9375 48.953125 C 342.082031 48.953125 342.960938 49.195312 343.578125 49.671875 C 344.203125 50.152344 344.515625 50.828125 344.515625 51.703125 C 344.515625 52.390625 344.351562 52.9375 344.03125 53.34375 C 343.71875 53.742188 343.253906 53.984375 342.640625 54.078125 C 343.378906 54.246094 343.953125 54.578125 344.359375 55.078125 C 344.765625 55.578125 344.96875 56.210938 344.96875 56.96875 C 344.96875 57.960938 344.628906 58.726562 343.953125 59.265625 C 343.285156 59.808594 342.328125 60.078125 341.078125 60.078125 L 337.09375 60.078125 Z M 350.726562 52.703125 C 349.984375 52.703125 349.402344 52.992188 348.976562 53.5625 C 348.546875 54.136719 348.335938 54.921875 348.335938 55.921875 C 348.335938 56.914062 348.546875 57.695312 348.976562 58.265625 C 349.402344 58.839844 349.984375 59.125 350.726562 59.125 C 351.453125 59.125 352.03125 58.839844 352.460938 58.265625 C 352.886719 57.695312 353.101562 56.914062 353.101562 55.921875 C 353.101562 54.933594 352.886719 54.152344 352.460938 53.578125 C 352.03125 52.996094 351.453125 52.703125 350.726562 52.703125 Z M 350.726562 51.53125 C 351.914062 51.53125 352.84375 51.921875 353.523438 52.703125 C 354.210938 53.476562 354.554688 54.546875 354.554688 55.921875 C 354.554688 57.289062 354.210938 58.359375 353.523438 59.140625 C 352.84375 59.914062 351.914062 60.296875 350.726562 60.296875 C 349.527344 60.296875 348.589844 59.914062 347.914062 59.140625 C 347.234375 58.359375 346.898438 57.289062 346.898438 55.921875 C 346.898438 54.546875 347.234375 53.476562 347.914062 52.703125 C 348.589844 51.921875 349.527344 51.53125 350.726562 51.53125 Z M 362.308594 53 L 362.308594 48.484375 L 363.683594 48.484375 L 363.683594 60.078125 L 362.308594 60.078125 L 362.308594 58.828125 C 362.027344 59.328125 361.660156 59.699219 361.214844 59.9375 C 360.777344 60.175781 360.25 60.296875 359.636719 60.296875 C 358.625 60.296875 357.800781 59.898438 357.167969 59.09375 C 356.542969 58.28125 356.230469 57.226562 356.230469 55.921875 C 356.230469 54.609375 356.542969 53.554688 357.167969 52.75 C 357.800781 51.9375 358.625 51.53125 359.636719 51.53125 C 360.25 51.53125 360.777344 51.65625 361.214844 51.90625 C 361.660156 52.148438 362.027344 52.511719 362.308594 53 Z M 357.636719 55.921875 C 357.636719 56.921875 357.84375 57.710938 358.261719 58.28125 C 358.675781 58.855469 359.25 59.140625 359.980469 59.140625 C 360.699219 59.140625 361.265625 58.855469 361.683594 58.28125 C 362.097656 57.710938 362.308594 56.921875 362.308594 55.921875 C 362.308594 54.914062 362.097656 54.121094 361.683594 53.546875 C 361.265625 52.976562 360.699219 52.6875 359.980469 52.6875 C 359.25 52.6875 358.675781 52.976562 358.261719 53.546875 C 357.84375 54.121094 357.636719 54.914062 357.636719 55.921875 Z M 369.972656 60.859375 C 369.585938 61.847656 369.207031 62.492188 368.832031 62.796875 C 368.464844 63.097656 367.976562 63.25 367.363281 63.25 L 366.269531 63.25 L 366.269531 62.109375 L 367.082031 62.109375 C 367.457031 62.109375 367.746094 62.015625 367.957031 61.828125 C 368.164062 61.648438 368.394531 61.226562 368.644531 60.5625 L 368.894531 59.9375 L 365.519531 51.734375 L 366.972656 51.734375 L 369.582031 58.265625 L 372.191406 51.734375 L 373.644531 51.734375 Z M 384.175781 55.890625 C 383.058594 55.890625 382.289062 56.015625 381.863281 56.265625 C 381.433594 56.515625 381.222656 56.949219 381.222656 57.5625 C 381.222656 58.054688 381.382812 58.4375 381.707031 58.71875 C 382.027344 59 382.464844 59.140625 383.019531 59.140625 C 383.777344 59.140625 384.386719 58.875 384.847656 58.34375 C 385.304688 57.804688 385.535156 57.085938 385.535156 56.1875 L 385.535156 55.890625 Z M 386.894531 55.3125 L 386.894531 60.078125 L 385.535156 60.078125 L 385.535156 58.8125 C 385.222656 59.324219 384.832031 59.699219 384.363281 59.9375 C 383.894531 60.175781 383.320312 60.296875 382.644531 60.296875 C 381.789062 60.296875 381.113281 60.058594 380.613281 59.578125 C 380.113281 59.101562 379.863281 58.460938 379.863281 57.65625 C 379.863281 56.71875 380.175781 56.011719 380.800781 55.53125 C 381.425781 55.054688 382.363281 54.8125 383.613281 54.8125 L 385.535156 54.8125 L 385.535156 54.671875 C 385.535156 54.046875 385.324219 53.5625 384.910156 53.21875 C 384.492188 52.875 383.910156 52.703125 383.160156 52.703125 C 382.679688 52.703125 382.214844 52.761719 381.769531 52.875 C 381.320312 52.992188 380.886719 53.164062 380.472656 53.390625 L 380.472656 52.125 C 380.972656 51.929688 381.457031 51.78125 381.925781 51.6875 C 382.394531 51.585938 382.851562 51.53125 383.300781 51.53125 C 384.507812 51.53125 385.410156 51.84375 386.003906 52.46875 C 386.597656 53.09375 386.894531 54.042969 386.894531 55.3125 Z M 391.082031 49.375 L 391.082031 51.734375 L 393.894531 51.734375 L 393.894531 52.796875 L 391.082031 52.796875 L 391.082031 57.328125 C 391.082031 58.007812 391.167969 58.445312 391.347656 58.640625 C 391.535156 58.839844 391.914062 58.9375 392.488281 58.9375 L 393.894531 58.9375 L 393.894531 60.078125 L 392.488281 60.078125 C 391.433594 60.078125 390.707031 59.882812 390.300781 59.484375 C 389.902344 59.089844 389.707031 58.371094 389.707031 57.328125 L 389.707031 52.796875 L 388.691406 52.796875 L 388.691406 51.734375 L 389.707031 51.734375 L 389.707031 49.375 Z M 405.378906 53.015625 C 405.222656 52.933594 405.054688 52.871094 404.878906 52.828125 C 404.699219 52.789062 404.503906 52.765625 404.285156 52.765625 C 403.503906 52.765625 402.902344 53.015625 402.488281 53.515625 C 402.082031 54.015625 401.878906 54.742188 401.878906 55.6875 L 401.878906 60.078125 L 400.503906 60.078125 L 400.503906 51.734375 L 401.878906 51.734375 L 401.878906 53.03125 C 402.160156 52.53125 402.527344 52.15625 402.988281 51.90625 C 403.457031 51.65625 404.019531 51.53125 404.675781 51.53125 C 404.777344 51.53125 404.882812 51.542969 404.988281 51.5625 C 405.101562 51.574219 405.230469 51.589844 405.378906 51.609375 Z M 413.960938 55.5625 L 413.960938 56.234375 L 407.648438 56.234375 C 407.710938 57.183594 407.996094 57.902344 408.507812 58.390625 C 409.015625 58.882812 409.726562 59.125 410.632812 59.125 C 411.152344 59.125 411.65625 59.0625 412.148438 58.9375 C 412.648438 58.8125 413.140625 58.621094 413.632812 58.359375 L 413.632812 59.65625 C 413.140625 59.867188 412.636719 60.023438 412.117188 60.125 C 411.605469 60.238281 411.085938 60.296875 410.554688 60.296875 C 409.21875 60.296875 408.164062 59.914062 407.382812 59.140625 C 406.609375 58.359375 406.226562 57.308594 406.226562 55.984375 C 406.226562 54.621094 406.589844 53.539062 407.320312 52.734375 C 408.058594 51.933594 409.054688 51.53125 410.304688 51.53125 C 411.429688 51.53125 412.320312 51.898438 412.976562 52.625 C 413.632812 53.34375 413.960938 54.324219 413.960938 55.5625 Z M 412.585938 55.15625 C 412.574219 54.417969 412.359375 53.824219 411.945312 53.375 C 411.539062 52.929688 410.996094 52.703125 410.320312 52.703125 C 409.558594 52.703125 408.949219 52.921875 408.492188 53.359375 C 408.03125 53.789062 407.765625 54.390625 407.695312 55.171875 Z M 421.515625 51.984375 L 421.515625 53.28125 C 421.128906 53.085938 420.726562 52.9375 420.3125 52.84375 C 419.894531 52.742188 419.460938 52.6875 419.015625 52.6875 C 418.335938 52.6875 417.828125 52.792969 417.484375 53 C 417.148438 53.210938 416.984375 53.523438 416.984375 53.9375 C 416.984375 54.25 417.101562 54.5 417.34375 54.6875 C 417.582031 54.867188 418.070312 55.039062 418.8125 55.203125 L 419.28125 55.3125 C 420.25 55.523438 420.9375 55.8125 421.34375 56.1875 C 421.757812 56.5625 421.96875 57.09375 421.96875 57.78125 C 421.96875 58.554688 421.660156 59.167969 421.046875 59.625 C 420.429688 60.074219 419.585938 60.296875 418.515625 60.296875 C 418.066406 60.296875 417.597656 60.25 417.109375 60.15625 C 416.628906 60.074219 416.125 59.945312 415.59375 59.765625 L 415.59375 58.359375 C 416.101562 58.621094 416.601562 58.820312 417.09375 58.953125 C 417.582031 59.078125 418.066406 59.140625 418.546875 59.140625 C 419.191406 59.140625 419.6875 59.03125 420.03125 58.8125 C 420.382812 58.59375 420.5625 58.28125 420.5625 57.875 C 420.5625 57.511719 420.4375 57.230469 420.1875 57.03125 C 419.9375 56.835938 419.382812 56.640625 418.53125 56.453125 L 418.0625 56.34375 C 417.207031 56.167969 416.59375 55.898438 416.21875 55.53125 C 415.84375 55.15625 415.65625 54.648438 415.65625 54 C 415.65625 53.210938 415.929688 52.601562 416.484375 52.171875 C 417.035156 51.746094 417.828125 51.53125 418.859375 51.53125 C 419.359375 51.53125 419.832031 51.574219 420.28125 51.65625 C 420.726562 51.730469 421.140625 51.839844 421.515625 51.984375 Z M 425.507812 49.375 L 425.507812 51.734375 L 428.320312 51.734375 L 428.320312 52.796875 L 425.507812 52.796875 L 425.507812 57.328125 C 425.507812 58.007812 425.59375 58.445312 425.773438 58.640625 C 425.960938 58.839844 426.339844 58.9375 426.914062 58.9375 L 428.320312 58.9375 L 428.320312 60.078125 L 426.914062 60.078125 C 425.859375 60.078125 425.132812 59.882812 424.726562 59.484375 C 424.328125 59.089844 424.132812 58.371094 424.132812 57.328125 L 424.132812 52.796875 L 423.117188 52.796875 L 423.117188 51.734375 L 424.132812 51.734375 L 424.132812 49.375 Z M 430.472656 58.1875 L 432.050781 58.1875 L 432.050781 60.078125 L 430.472656 60.078125 Z M 430.472656 52.1875 L 432.050781 52.1875 L 432.050781 54.078125 L 430.472656 54.078125 Z M 336.890625 72.03125 L 336.890625 66.984375 L 338.265625 66.984375 L 338.265625 71.984375 C 338.265625 72.777344 338.414062 73.371094 338.71875 73.765625 C 339.03125 74.164062 339.492188 74.359375 340.109375 74.359375 C 340.847656 74.359375 341.429688 74.125 341.859375 73.65625 C 342.285156 73.179688 342.5 72.53125 342.5 71.71875 L 342.5 66.984375 L 343.875 66.984375 L 343.875 75.328125 L 342.5 75.328125 L 342.5 74.046875 C 342.164062 74.558594 341.78125 74.9375 341.34375 75.1875 C 340.90625 75.425781 340.394531 75.546875 339.8125 75.546875 C 338.851562 75.546875 338.125 75.25 337.625 74.65625 C 337.132812 74.054688 336.890625 73.179688 336.890625 72.03125 Z M 340.34375 66.78125 Z M 353.632812 70.296875 L 353.632812 75.328125 L 352.257812 75.328125 L 352.257812 70.34375 C 352.257812 69.554688 352.101562 68.964844 351.789062 68.578125 C 351.484375 68.183594 351.027344 67.984375 350.414062 67.984375 C 349.671875 67.984375 349.089844 68.21875 348.664062 68.6875 C 348.234375 69.15625 348.023438 69.796875 348.023438 70.609375 L 348.023438 75.328125 L 346.648438 75.328125 L 346.648438 66.984375 L 348.023438 66.984375 L 348.023438 68.28125 C 348.34375 67.78125 348.730469 67.40625 349.179688 67.15625 C 349.625 66.90625 350.136719 66.78125 350.710938 66.78125 C 351.667969 66.78125 352.390625 67.078125 352.882812 67.671875 C 353.382812 68.265625 353.632812 69.140625 353.632812 70.296875 Z M 362.363281 67.3125 L 362.363281 68.59375 C 361.976562 68.375 361.585938 68.214844 361.191406 68.109375 C 360.804688 68.007812 360.414062 67.953125 360.019531 67.953125 C 359.132812 67.953125 358.441406 68.234375 357.941406 68.796875 C 357.449219 69.359375 357.207031 70.152344 357.207031 71.171875 C 357.207031 72.183594 357.449219 72.96875 357.941406 73.53125 C 358.441406 74.09375 359.132812 74.375 360.019531 74.375 C 360.414062 74.375 360.804688 74.324219 361.191406 74.21875 C 361.585938 74.117188 361.976562 73.953125 362.363281 73.734375 L 362.363281 75.015625 C 361.976562 75.195312 361.582031 75.324219 361.175781 75.40625 C 360.769531 75.5 360.332031 75.546875 359.863281 75.546875 C 358.613281 75.546875 357.617188 75.152344 356.878906 74.359375 C 356.136719 73.570312 355.769531 72.507812 355.769531 71.171875 C 355.769531 69.808594 356.136719 68.734375 356.878906 67.953125 C 357.628906 67.171875 358.652344 66.78125 359.957031 66.78125 C 360.382812 66.78125 360.792969 66.828125 361.191406 66.921875 C 361.597656 67.007812 361.988281 67.136719 362.363281 67.3125 Z M 367.980469 67.953125 C 367.238281 67.953125 366.65625 68.242188 366.230469 68.8125 C 365.800781 69.386719 365.589844 70.171875 365.589844 71.171875 C 365.589844 72.164062 365.800781 72.945312 366.230469 73.515625 C 366.65625 74.089844 367.238281 74.375 367.980469 74.375 C 368.707031 74.375 369.285156 74.089844 369.714844 73.515625 C 370.140625 72.945312 370.355469 72.164062 370.355469 71.171875 C 370.355469 70.183594 370.140625 69.402344 369.714844 68.828125 C 369.285156 68.246094 368.707031 67.953125 367.980469 67.953125 Z M 367.980469 66.78125 C 369.167969 66.78125 370.097656 67.171875 370.777344 67.953125 C 371.464844 68.726562 371.808594 69.796875 371.808594 71.171875 C 371.808594 72.539062 371.464844 73.609375 370.777344 74.390625 C 370.097656 75.164062 369.167969 75.546875 367.980469 75.546875 C 366.78125 75.546875 365.84375 75.164062 365.167969 74.390625 C 364.488281 73.609375 364.152344 72.539062 364.152344 71.171875 C 364.152344 69.796875 364.488281 68.726562 365.167969 67.953125 C 365.84375 67.171875 366.78125 66.78125 367.980469 66.78125 Z M 381.015625 70.296875 L 381.015625 75.328125 L 379.640625 75.328125 L 379.640625 70.34375 C 379.640625 69.554688 379.484375 68.964844 379.171875 68.578125 C 378.867188 68.183594 378.410156 67.984375 377.796875 67.984375 C 377.054688 67.984375 376.472656 68.21875 376.046875 68.6875 C 375.617188 69.15625 375.40625 69.796875 375.40625 70.609375 L 375.40625 75.328125 L 374.03125 75.328125 L 374.03125 66.984375 L 375.40625 66.984375 L 375.40625 68.28125 C 375.726562 67.78125 376.113281 67.40625 376.5625 67.15625 C 377.007812 66.90625 377.519531 66.78125 378.09375 66.78125 C 379.050781 66.78125 379.773438 67.078125 380.265625 67.671875 C 380.765625 68.265625 381.015625 69.140625 381.015625 70.296875 Z M 385.101562 64.625 L 385.101562 66.984375 L 387.914062 66.984375 L 387.914062 68.046875 L 385.101562 68.046875 L 385.101562 72.578125 C 385.101562 73.257812 385.1875 73.695312 385.367188 73.890625 C 385.554688 74.089844 385.933594 74.1875 386.507812 74.1875 L 387.914062 74.1875 L 387.914062 75.328125 L 386.507812 75.328125 C 385.453125 75.328125 384.726562 75.132812 384.320312 74.734375 C 383.921875 74.339844 383.726562 73.621094 383.726562 72.578125 L 383.726562 68.046875 L 382.710938 68.046875 L 382.710938 66.984375 L 383.726562 66.984375 L 383.726562 64.625 Z M 394.550781 68.265625 C 394.394531 68.183594 394.226562 68.121094 394.050781 68.078125 C 393.871094 68.039062 393.675781 68.015625 393.457031 68.015625 C 392.675781 68.015625 392.074219 68.265625 391.660156 68.765625 C 391.253906 69.265625 391.050781 69.992188 391.050781 70.9375 L 391.050781 75.328125 L 389.675781 75.328125 L 389.675781 66.984375 L 391.050781 66.984375 L 391.050781 68.28125 C 391.332031 67.78125 391.699219 67.40625 392.160156 67.15625 C 392.628906 66.90625 393.191406 66.78125 393.847656 66.78125 C 393.949219 66.78125 394.054688 66.792969 394.160156 66.8125 C 394.273438 66.824219 394.402344 66.839844 394.550781 66.859375 Z M 399.789062 71.140625 C 398.671875 71.140625 397.902344 71.265625 397.476562 71.515625 C 397.046875 71.765625 396.835938 72.199219 396.835938 72.8125 C 396.835938 73.304688 396.996094 73.6875 397.320312 73.96875 C 397.640625 74.25 398.078125 74.390625 398.632812 74.390625 C 399.390625 74.390625 400 74.125 400.460938 73.59375 C 400.917969 73.054688 401.148438 72.335938 401.148438 71.4375 L 401.148438 71.140625 Z M 402.507812 70.5625 L 402.507812 75.328125 L 401.148438 75.328125 L 401.148438 74.0625 C 400.835938 74.574219 400.445312 74.949219 399.976562 75.1875 C 399.507812 75.425781 398.933594 75.546875 398.257812 75.546875 C 397.402344 75.546875 396.726562 75.308594 396.226562 74.828125 C 395.726562 74.351562 395.476562 73.710938 395.476562 72.90625 C 395.476562 71.96875 395.789062 71.261719 396.414062 70.78125 C 397.039062 70.304688 397.976562 70.0625 399.226562 70.0625 L 401.148438 70.0625 L 401.148438 69.921875 C 401.148438 69.296875 400.9375 68.8125 400.523438 68.46875 C 400.105469 68.125 399.523438 67.953125 398.773438 67.953125 C 398.292969 67.953125 397.828125 68.011719 397.382812 68.125 C 396.933594 68.242188 396.5 68.414062 396.085938 68.640625 L 396.085938 67.375 C 396.585938 67.179688 397.070312 67.03125 397.539062 66.9375 C 398.007812 66.835938 398.464844 66.78125 398.914062 66.78125 C 400.121094 66.78125 401.023438 67.09375 401.617188 67.71875 C 402.210938 68.34375 402.507812 69.292969 402.507812 70.5625 Z M 411.339844 67.3125 L 411.339844 68.59375 C 410.953125 68.375 410.5625 68.214844 410.167969 68.109375 C 409.78125 68.007812 409.390625 67.953125 408.996094 67.953125 C 408.109375 67.953125 407.417969 68.234375 406.917969 68.796875 C 406.425781 69.359375 406.183594 70.152344 406.183594 71.171875 C 406.183594 72.183594 406.425781 72.96875 406.917969 73.53125 C 407.417969 74.09375 408.109375 74.375 408.996094 74.375 C 409.390625 74.375 409.78125 74.324219 410.167969 74.21875 C 410.5625 74.117188 410.953125 73.953125 411.339844 73.734375 L 411.339844 75.015625 C 410.953125 75.195312 410.558594 75.324219 410.152344 75.40625 C 409.746094 75.5 409.308594 75.546875 408.839844 75.546875 C 407.589844 75.546875 406.59375 75.152344 405.855469 74.359375 C 405.113281 73.570312 404.746094 72.507812 404.746094 71.171875 C 404.746094 69.808594 405.113281 68.734375 405.855469 67.953125 C 406.605469 67.171875 407.628906 66.78125 408.933594 66.78125 C 409.359375 66.78125 409.769531 66.828125 410.167969 66.921875 C 410.574219 67.007812 410.964844 67.136719 411.339844 67.3125 Z M 415.082031 64.625 L 415.082031 66.984375 L 417.894531 66.984375 L 417.894531 68.046875 L 415.082031 68.046875 L 415.082031 72.578125 C 415.082031 73.257812 415.167969 73.695312 415.347656 73.890625 C 415.535156 74.089844 415.914062 74.1875 416.488281 74.1875 L 417.894531 74.1875 L 417.894531 75.328125 L 416.488281 75.328125 C 415.433594 75.328125 414.707031 75.132812 414.300781 74.734375 C 413.902344 74.339844 413.707031 73.621094 413.707031 72.578125 L 413.707031 68.046875 L 412.691406 68.046875 L 412.691406 66.984375 L 413.707031 66.984375 L 413.707031 64.625 Z M 426.84375 70.8125 L 426.84375 71.484375 L 420.53125 71.484375 C 420.59375 72.433594 420.878906 73.152344 421.390625 73.640625 C 421.898438 74.132812 422.609375 74.375 423.515625 74.375 C 424.035156 74.375 424.539062 74.3125 425.03125 74.1875 C 425.53125 74.0625 426.023438 73.871094 426.515625 73.609375 L 426.515625 74.90625 C 426.023438 75.117188 425.519531 75.273438 425 75.375 C 424.488281 75.488281 423.96875 75.546875 423.4375 75.546875 C 422.101562 75.546875 421.046875 75.164062 420.265625 74.390625 C 419.492188 73.609375 419.109375 72.558594 419.109375 71.234375 C 419.109375 69.871094 419.472656 68.789062 420.203125 67.984375 C 420.941406 67.183594 421.9375 66.78125 423.1875 66.78125 C 424.3125 66.78125 425.203125 67.148438 425.859375 67.875 C 426.515625 68.59375 426.84375 69.574219 426.84375 70.8125 Z M 425.46875 70.40625 C 425.457031 69.667969 425.242188 69.074219 424.828125 68.625 C 424.421875 68.179688 423.878906 67.953125 423.203125 67.953125 C 422.441406 67.953125 421.832031 68.171875 421.375 68.609375 C 420.914062 69.039062 420.648438 69.640625 420.578125 70.421875 Z M 434.570312 68.25 L 434.570312 63.734375 L 435.945312 63.734375 L 435.945312 75.328125 L 434.570312 75.328125 L 434.570312 74.078125 C 434.289062 74.578125 433.921875 74.949219 433.476562 75.1875 C 433.039062 75.425781 432.511719 75.546875 431.898438 75.546875 C 430.886719 75.546875 430.0625 75.148438 429.429688 74.34375 C 428.804688 73.53125 428.492188 72.476562 428.492188 71.171875 C 428.492188 69.859375 428.804688 68.804688 429.429688 68 C 430.0625 67.1875 430.886719 66.78125 431.898438 66.78125 C 432.511719 66.78125 433.039062 66.90625 433.476562 67.15625 C 433.921875 67.398438 434.289062 67.761719 434.570312 68.25 Z M 429.898438 71.171875 C 429.898438 72.171875 430.105469 72.960938 430.523438 73.53125 C 430.9375 74.105469 431.511719 74.390625 432.242188 74.390625 C 432.960938 74.390625 433.527344 74.105469 433.945312 73.53125 C 434.359375 72.960938 434.570312 72.171875 434.570312 71.171875 C 434.570312 70.164062 434.359375 69.371094 433.945312 68.796875 C 433.527344 68.226562 432.960938 67.9375 432.242188 67.9375 C 431.511719 67.9375 430.9375 68.226562 430.523438 68.796875 C 430.105469 69.371094 429.898438 70.164062 429.898438 71.171875 Z M 437.328125 75.328125 "/>
<path style="fill-rule:evenodd;fill:rgb(75%,75%,75%);fill-opacity:1;stroke-width:2.033422;stroke-linecap:round;stroke-linejoin:round;stroke:rgb(0%,0%,0%);stroke-opacity:1;stroke-miterlimit:10;" d="M 286.054688 112.851562 L 184.382812 112.851562 L 184.382812 11.179688 L 286.054688 11.179688 Z M 286.054688 112.851562 "/>
<path style="fill:none;stroke-width:2.033422;stroke-linecap:butt;stroke-linejoin:miter;stroke:rgb(0%,0%,0%);stroke-opacity:1;stroke-miterlimit:10;" d="M 184.382812 78.960938 L 286.054688 78.960938 "/>
<path style="fill:none;stroke-width:2.033422;stroke-linecap:butt;stroke-linejoin:miter;stroke:rgb(0%,0%,0%);stroke-opacity:1;stroke-miterlimit:10;" d="M 184.382812 45.070312 L 286.054688 45.070312 "/>
<path style="fill:none;stroke-width:2.033422;stroke-linecap:butt;stroke-linejoin:miter;stroke:rgb(0%,0%,0%);stroke-opacity:1;stroke-miterlimit:10;" d="M 218.273438 112.851562 L 218.273438 11.179688 "/>
<path style="fill:none;stroke-width:2.033422;stroke-linecap:butt;stroke-linejoin:miter;stroke:rgb(0%,0%,0%);stroke-opacity:1;stroke-miterlimit:10;" d="M 252.164062 112.851562 L 252.164062 11.179688 "/>
<path style=" stroke:none;fill-rule:evenodd;fill:rgb(0%,0%,0%);fill-opacity:1;" d="M 338.390625 197.070312 L 338.390625 201.148438 L 340.796875 201.148438 C 341.609375 201.148438 342.207031 200.984375 342.59375 200.648438 C 342.988281 200.316406 343.1875 199.800781 343.1875 199.101562 C 343.1875 198.414062 342.988281 197.90625 342.59375 197.570312 C 342.207031 197.238281 341.609375 197.070312 340.796875 197.070312 Z M 338.390625 192.507812 L 338.390625 195.851562 L 340.625 195.851562 C 341.351562 195.851562 341.894531 195.71875 342.25 195.445312 C 342.613281 195.164062 342.796875 194.742188 342.796875 194.179688 C 342.796875 193.617188 342.613281 193.203125 342.25 192.929688 C 341.894531 192.648438 341.351562 192.507812 340.625 192.507812 Z M 336.890625 191.257812 L 340.734375 191.257812 C 341.878906 191.257812 342.757812 191.5 343.375 191.976562 C 344 192.457031 344.3125 193.132812 344.3125 194.007812 C 344.3125 194.695312 344.148438 195.242188 343.828125 195.648438 C 343.515625 196.046875 343.050781 196.289062 342.4375 196.382812 C 343.175781 196.550781 343.75 196.882812 344.15625 197.382812 C 344.5625 197.882812 344.765625 198.515625 344.765625 199.273438 C 344.765625 200.265625 344.425781 201.03125 343.75 201.570312 C 343.082031 202.113281 342.125 202.382812 340.875 202.382812 L 336.890625 202.382812 Z M 350.523438 195.007812 C 349.78125 195.007812 349.199219 195.296875 348.773438 195.867188 C 348.34375 196.441406 348.132812 197.226562 348.132812 198.226562 C 348.132812 199.21875 348.34375 200 348.773438 200.570312 C 349.199219 201.144531 349.78125 201.429688 350.523438 201.429688 C 351.25 201.429688 351.828125 201.144531 352.257812 200.570312 C 352.683594 200 352.898438 199.21875 352.898438 198.226562 C 352.898438 197.238281 352.683594 196.457031 352.257812 195.882812 C 351.828125 195.300781 351.25 195.007812 350.523438 195.007812 Z M 350.523438 193.835938 C 351.710938 193.835938 352.640625 194.226562 353.320312 195.007812 C 354.007812 195.78125 354.351562 196.851562 354.351562 198.226562 C 354.351562 199.59375 354.007812 200.664062 353.320312 201.445312 C 352.640625 202.21875 351.710938 202.601562 350.523438 202.601562 C 349.324219 202.601562 348.386719 202.21875 347.710938 201.445312 C 347.03125 200.664062 346.695312 199.59375 346.695312 198.226562 C 346.695312 196.851562 347.03125 195.78125 347.710938 195.007812 C 348.386719 194.226562 349.324219 193.835938 350.523438 193.835938 Z M 362.105469 195.304688 L 362.105469 190.789062 L 363.480469 190.789062 L 363.480469 202.382812 L 362.105469 202.382812 L 362.105469 201.132812 C 361.824219 201.632812 361.457031 202.003906 361.011719 202.242188 C 360.574219 202.480469 360.046875 202.601562 359.433594 202.601562 C 358.421875 202.601562 357.597656 202.203125 356.964844 201.398438 C 356.339844 200.585938 356.027344 199.53125 356.027344 198.226562 C 356.027344 196.914062 356.339844 195.859375 356.964844 195.054688 C 357.597656 194.242188 358.421875 193.835938 359.433594 193.835938 C 360.046875 193.835938 360.574219 193.960938 361.011719 194.210938 C 361.457031 194.453125 361.824219 194.816406 362.105469 195.304688 Z M 357.433594 198.226562 C 357.433594 199.226562 357.640625 200.015625 358.058594 200.585938 C 358.472656 201.160156 359.046875 201.445312 359.777344 201.445312 C 360.496094 201.445312 361.0625 201.160156 361.480469 200.585938 C 361.894531 200.015625 362.105469 199.226562 362.105469 198.226562 C 362.105469 197.21875 361.894531 196.425781 361.480469 195.851562 C 361.0625 195.28125 360.496094 194.992188 359.777344 194.992188 C 359.046875 194.992188 358.472656 195.28125 358.058594 195.851562 C 357.640625 196.425781 357.433594 197.21875 357.433594 198.226562 Z M 369.769531 203.164062 C 369.382812 204.152344 369.003906 204.796875 368.628906 205.101562 C 368.261719 205.402344 367.773438 205.554688 367.160156 205.554688 L 366.066406 205.554688 L 366.066406 204.414062 L 366.878906 204.414062 C 367.253906 204.414062 367.542969 204.320312 367.753906 204.132812 C 367.960938 203.953125 368.191406 203.53125 368.441406 202.867188 L 368.691406 202.242188 L 365.316406 194.039062 L 366.769531 194.039062 L 369.378906 200.570312 L 371.988281 194.039062 L 373.441406 194.039062 Z M 386.675781 195.648438 C 387.007812 195.035156 387.414062 194.582031 387.894531 194.289062 C 388.371094 193.988281 388.933594 193.835938 389.582031 193.835938 C 390.445312 193.835938 391.113281 194.144531 391.582031 194.757812 C 392.058594 195.363281 392.300781 196.226562 392.300781 197.351562 L 392.300781 202.382812 L 390.925781 202.382812 L 390.925781 197.398438 C 390.925781 196.597656 390.777344 196.003906 390.488281 195.617188 C 390.207031 195.234375 389.777344 195.039062 389.207031 195.039062 C 388.488281 195.039062 387.917969 195.273438 387.503906 195.742188 C 387.097656 196.210938 386.894531 196.851562 386.894531 197.664062 L 386.894531 202.382812 L 385.519531 202.382812 L 385.519531 197.398438 C 385.519531 196.585938 385.378906 195.992188 385.097656 195.617188 C 384.816406 195.234375 384.378906 195.039062 383.785156 195.039062 C 383.085938 195.039062 382.527344 195.28125 382.113281 195.757812 C 381.707031 196.226562 381.503906 196.863281 381.503906 197.664062 L 381.503906 202.382812 L 380.128906 202.382812 L 380.128906 194.039062 L 381.503906 194.039062 L 381.503906 195.335938 C 381.816406 194.828125 382.191406 194.453125 382.628906 194.210938 C 383.066406 193.960938 383.582031 193.835938 384.175781 193.835938 C 384.789062 193.835938 385.304688 193.992188 385.722656 194.304688 C 386.148438 194.609375 386.464844 195.054688 386.675781 195.648438 Z M 398.265625 195.007812 C 397.523438 195.007812 396.941406 195.296875 396.515625 195.867188 C 396.085938 196.441406 395.875 197.226562 395.875 198.226562 C 395.875 199.21875 396.085938 200 396.515625 200.570312 C 396.941406 201.144531 397.523438 201.429688 398.265625 201.429688 C 398.992188 201.429688 399.570312 201.144531 400 200.570312 C 400.425781 200 400.640625 199.21875 400.640625 198.226562 C 400.640625 197.238281 400.425781 196.457031 400 195.882812 C 399.570312 195.300781 398.992188 195.007812 398.265625 195.007812 Z M 398.265625 193.835938 C 399.453125 193.835938 400.382812 194.226562 401.0625 195.007812 C 401.75 195.78125 402.09375 196.851562 402.09375 198.226562 C 402.09375 199.59375 401.75 200.664062 401.0625 201.445312 C 400.382812 202.21875 399.453125 202.601562 398.265625 202.601562 C 397.066406 202.601562 396.128906 202.21875 395.453125 201.445312 C 394.773438 200.664062 394.4375 199.59375 394.4375 198.226562 C 394.4375 196.851562 394.773438 195.78125 395.453125 195.007812 C 396.128906 194.226562 397.066406 193.835938 398.265625 193.835938 Z M 403.378906 194.039062 L 404.832031 194.039062 L 407.441406 201.039062 L 410.050781 194.039062 L 411.503906 194.039062 L 408.363281 202.382812 L 406.503906 202.382812 Z M 413.386719 194.039062 L 414.761719 194.039062 L 414.761719 202.382812 L 413.386719 202.382812 Z M 413.386719 190.789062 L 414.761719 190.789062 L 414.761719 192.539062 L 413.386719 192.539062 Z M 424.5625 197.351562 L 424.5625 202.382812 L 423.1875 202.382812 L 423.1875 197.398438 C 423.1875 196.609375 423.03125 196.019531 422.71875 195.632812 C 422.414062 195.238281 421.957031 195.039062 421.34375 195.039062 C 420.601562 195.039062 420.019531 195.273438 419.59375 195.742188 C 419.164062 196.210938 418.953125 196.851562 418.953125 197.664062 L 418.953125 202.382812 L 417.578125 202.382812 L 417.578125 194.039062 L 418.953125 194.039062 L 418.953125 195.335938 C 419.273438 194.835938 419.660156 194.460938 420.109375 194.210938 C 420.554688 193.960938 421.066406 193.835938 421.640625 193.835938 C 422.597656 193.835938 423.320312 194.132812 423.8125 194.726562 C 424.3125 195.320312 424.5625 196.195312 424.5625 197.351562 Z M 432.773438 198.117188 C 432.773438 197.128906 432.570312 196.363281 432.164062 195.820312 C 431.757812 195.269531 431.183594 194.992188 430.445312 194.992188 C 429.703125 194.992188 429.125 195.269531 428.710938 195.820312 C 428.304688 196.363281 428.101562 197.128906 428.101562 198.117188 C 428.101562 199.109375 428.304688 199.878906 428.710938 200.429688 C 429.125 200.972656 429.703125 201.242188 430.445312 201.242188 C 431.183594 201.242188 431.757812 200.972656 432.164062 200.429688 C 432.570312 199.878906 432.773438 199.109375 432.773438 198.117188 Z M 434.148438 201.351562 C 434.148438 202.765625 433.828125 203.820312 433.195312 204.507812 C 432.570312 205.203125 431.605469 205.554688 430.304688 205.554688 C 429.824219 205.554688 429.371094 205.515625 428.945312 205.445312 C 428.515625 205.371094 428.101562 205.261719 427.695312 205.117188 L 427.695312 203.789062 C 428.101562 204.007812 428.496094 204.167969 428.882812 204.273438 C 429.277344 204.375 429.679688 204.429688 430.085938 204.429688 C 430.980469 204.429688 431.652344 204.195312 432.101562 203.726562 C 432.546875 203.257812 432.773438 202.542969 432.773438 201.585938 L 432.773438 200.914062 C 432.492188 201.40625 432.125 201.773438 431.679688 202.023438 C 431.242188 202.265625 430.714844 202.382812 430.101562 202.382812 C 429.078125 202.382812 428.257812 201.992188 427.632812 201.210938 C 427.007812 200.429688 426.695312 199.398438 426.695312 198.117188 C 426.695312 196.828125 427.007812 195.789062 427.632812 195.007812 C 428.257812 194.226562 429.078125 193.835938 430.101562 193.835938 C 430.714844 193.835938 431.242188 193.960938 431.679688 194.210938 C 432.125 194.453125 432.492188 194.816406 432.773438 195.304688 L 432.773438 194.039062 L 434.148438 194.039062 Z M 443.175781 191.679688 L 443.175781 194.039062 L 445.988281 194.039062 L 445.988281 195.101562 L 443.175781 195.101562 L 443.175781 199.632812 C 443.175781 200.3125 443.261719 200.75 443.441406 200.945312 C 443.628906 201.144531 444.007812 201.242188 444.582031 201.242188 L 445.988281 201.242188 L 445.988281 202.382812 L 444.582031 202.382812 C 443.527344 202.382812 442.800781 202.1875 442.394531 201.789062 C 441.996094 201.394531 441.800781 200.675781 441.800781 199.632812 L 441.800781 195.101562 L 440.785156 195.101562 L 440.785156 194.039062 L 441.800781 194.039062 L 441.800781 191.679688 Z M 451.03125 195.007812 C 450.289062 195.007812 449.707031 195.296875 449.28125 195.867188 C 448.851562 196.441406 448.640625 197.226562 448.640625 198.226562 C 448.640625 199.21875 448.851562 200 449.28125 200.570312 C 449.707031 201.144531 450.289062 201.429688 451.03125 201.429688 C 451.757812 201.429688 452.335938 201.144531 452.765625 200.570312 C 453.191406 200 453.40625 199.21875 453.40625 198.226562 C 453.40625 197.238281 453.191406 196.457031 452.765625 195.882812 C 452.335938 195.300781 451.757812 195.007812 451.03125 195.007812 Z M 451.03125 193.835938 C 452.21875 193.835938 453.148438 194.226562 453.828125 195.007812 C 454.515625 195.78125 454.859375 196.851562 454.859375 198.226562 C 454.859375 199.59375 454.515625 200.664062 453.828125 201.445312 C 453.148438 202.21875 452.21875 202.601562 451.03125 202.601562 C 449.832031 202.601562 448.894531 202.21875 448.21875 201.445312 C 447.539062 200.664062 447.203125 199.59375 447.203125 198.226562 C 447.203125 196.851562 447.539062 195.78125 448.21875 195.007812 C 448.894531 194.226562 449.832031 193.835938 451.03125 193.835938 Z M 463.335938 191.679688 L 463.335938 194.039062 L 466.148438 194.039062 L 466.148438 195.101562 L 463.335938 195.101562 L 463.335938 199.632812 C 463.335938 200.3125 463.421875 200.75 463.601562 200.945312 C 463.789062 201.144531 464.167969 201.242188 464.742188 201.242188 L 466.148438 201.242188 L 466.148438 202.382812 L 464.742188 202.382812 C 463.6875 202.382812 462.960938 202.1875 462.554688 201.789062 C 462.15625 201.394531 461.960938 200.675781 461.960938 199.632812 L 461.960938 195.101562 L 460.945312 195.101562 L 460.945312 194.039062 L 461.960938 194.039062 L 461.960938 191.679688 Z M 474.894531 197.351562 L 474.894531 202.382812 L 473.519531 202.382812 L 473.519531 197.398438 C 473.519531 196.609375 473.363281 196.019531 473.050781 195.632812 C 472.746094 195.238281 472.289062 195.039062 471.675781 195.039062 C 470.933594 195.039062 470.351562 195.273438 469.925781 195.742188 C 469.496094 196.210938 469.285156 196.851562 469.285156 197.664062 L 469.285156 202.382812 L 467.910156 202.382812 L 467.910156 190.789062 L 469.285156 190.789062 L 469.285156 195.335938 C 469.605469 194.835938 469.992188 194.460938 470.441406 194.210938 C 470.886719 193.960938 471.398438 193.835938 471.972656 193.835938 C 472.929688 193.835938 473.652344 194.132812 474.144531 194.726562 C 474.644531 195.320312 474.894531 196.195312 474.894531 197.351562 Z M 484.761719 197.867188 L 484.761719 198.539062 L 478.449219 198.539062 C 478.511719 199.488281 478.796875 200.207031 479.308594 200.695312 C 479.816406 201.1875 480.527344 201.429688 481.433594 201.429688 C 481.953125 201.429688 482.457031 201.367188 482.949219 201.242188 C 483.449219 201.117188 483.941406 200.925781 484.433594 200.664062 L 484.433594 201.960938 C 483.941406 202.171875 483.4375 202.328125 482.917969 202.429688 C 482.40625 202.542969 481.886719 202.601562 481.355469 202.601562 C 480.019531 202.601562 478.964844 202.21875 478.183594 201.445312 C 477.410156 200.664062 477.027344 199.613281 477.027344 198.289062 C 477.027344 196.925781 477.390625 195.84375 478.121094 195.039062 C 478.859375 194.238281 479.855469 193.835938 481.105469 193.835938 C 482.230469 193.835938 483.121094 194.203125 483.777344 194.929688 C 484.433594 195.648438 484.761719 196.628906 484.761719 197.867188 Z M 483.386719 197.460938 C 483.375 196.722656 483.160156 196.128906 482.746094 195.679688 C 482.339844 195.234375 481.796875 195.007812 481.121094 195.007812 C 480.359375 195.007812 479.75 195.226562 479.292969 195.664062 C 478.832031 196.09375 478.566406 196.695312 478.496094 197.476562 Z M 496.679688 195.320312 C 496.523438 195.238281 496.355469 195.175781 496.179688 195.132812 C 496 195.09375 495.804688 195.070312 495.585938 195.070312 C 494.804688 195.070312 494.203125 195.320312 493.789062 195.820312 C 493.382812 196.320312 493.179688 197.046875 493.179688 197.992188 L 493.179688 202.382812 L 491.804688 202.382812 L 491.804688 194.039062 L 493.179688 194.039062 L 493.179688 195.335938 C 493.460938 194.835938 493.828125 194.460938 494.289062 194.210938 C 494.757812 193.960938 495.320312 193.835938 495.976562 193.835938 C 496.078125 193.835938 496.183594 193.847656 496.289062 193.867188 C 496.402344 193.878906 496.53125 193.894531 496.679688 193.914062 Z M 498.121094 194.039062 L 499.496094 194.039062 L 499.496094 202.382812 L 498.121094 202.382812 Z M 498.121094 190.789062 L 499.496094 190.789062 L 499.496094 192.539062 L 498.121094 192.539062 Z M 507.84375 198.117188 C 507.84375 197.128906 507.640625 196.363281 507.234375 195.820312 C 506.828125 195.269531 506.253906 194.992188 505.515625 194.992188 C 504.773438 194.992188 504.195312 195.269531 503.78125 195.820312 C 503.375 196.363281 503.171875 197.128906 503.171875 198.117188 C 503.171875 199.109375 503.375 199.878906 503.78125 200.429688 C 504.195312 200.972656 504.773438 201.242188 505.515625 201.242188 C 506.253906 201.242188 506.828125 200.972656 507.234375 200.429688 C 507.640625 199.878906 507.84375 199.109375 507.84375 198.117188 Z M 509.21875 201.351562 C 509.21875 202.765625 508.898438 203.820312 508.265625 204.507812 C 507.640625 205.203125 506.675781 205.554688 505.375 205.554688 C 504.894531 205.554688 504.441406 205.515625 504.015625 205.445312 C 503.585938 205.371094 503.171875 205.261719 502.765625 205.117188 L 502.765625 203.789062 C 503.171875 204.007812 503.566406 204.167969 503.953125 204.273438 C 504.347656 204.375 504.75 204.429688 505.15625 204.429688 C 506.050781 204.429688 506.722656 204.195312 507.171875 203.726562 C 507.617188 203.257812 507.84375 202.542969 507.84375 201.585938 L 507.84375 200.914062 C 507.5625 201.40625 507.195312 201.773438 506.75 202.023438 C 506.3125 202.265625 505.785156 202.382812 505.171875 202.382812 C 504.148438 202.382812 503.328125 201.992188 502.703125 201.210938 C 502.078125 200.429688 501.765625 199.398438 501.765625 198.117188 C 501.765625 196.828125 502.078125 195.789062 502.703125 195.007812 C 503.328125 194.226562 504.148438 193.835938 505.171875 193.835938 C 505.785156 193.835938 506.3125 193.960938 506.75 194.210938 C 507.195312 194.453125 507.5625 194.816406 507.84375 195.304688 L 507.84375 194.039062 L 509.21875 194.039062 Z M 518.976562 197.351562 L 518.976562 202.382812 L 517.601562 202.382812 L 517.601562 197.398438 C 517.601562 196.609375 517.445312 196.019531 517.132812 195.632812 C 516.828125 195.238281 516.371094 195.039062 515.757812 195.039062 C 515.015625 195.039062 514.433594 195.273438 514.007812 195.742188 C 513.578125 196.210938 513.367188 196.851562 513.367188 197.664062 L 513.367188 202.382812 L 511.992188 202.382812 L 511.992188 190.789062 L 513.367188 190.789062 L 513.367188 195.335938 C 513.6875 194.835938 514.074219 194.460938 514.523438 194.210938 C 514.96875 193.960938 515.480469 193.835938 516.054688 193.835938 C 517.011719 193.835938 517.734375 194.132812 518.226562 194.726562 C 518.726562 195.320312 518.976562 196.195312 518.976562 197.351562 Z M 523.066406 191.679688 L 523.066406 194.039062 L 525.878906 194.039062 L 525.878906 195.101562 L 523.066406 195.101562 L 523.066406 199.632812 C 523.066406 200.3125 523.152344 200.75 523.332031 200.945312 C 523.519531 201.144531 523.898438 201.242188 524.472656 201.242188 L 525.878906 201.242188 L 525.878906 202.382812 L 524.472656 202.382812 C 523.417969 202.382812 522.691406 202.1875 522.285156 201.789062 C 521.886719 201.394531 521.691406 200.675781 521.691406 199.632812 L 521.691406 195.101562 L 520.675781 195.101562 L 520.675781 194.039062 L 521.691406 194.039062 L 521.691406 191.679688 Z M 528.027344 200.492188 L 529.605469 200.492188 L 529.605469 202.382812 L 528.027344 202.382812 Z M 528.027344 194.492188 L 529.605469 194.492188 L 529.605469 196.382812 L 528.027344 196.382812 Z M 336.890625 206.507812 L 338.390625 206.507812 L 338.390625 216.367188 L 343.8125 216.367188 L 343.8125 217.632812 L 336.890625 217.632812 Z M 348.558594 210.257812 C 347.816406 210.257812 347.234375 210.546875 346.808594 211.117188 C 346.378906 211.691406 346.167969 212.476562 346.167969 213.476562 C 346.167969 214.46875 346.378906 215.25 346.808594 215.820312 C 347.234375 216.394531 347.816406 216.679688 348.558594 216.679688 C 349.285156 216.679688 349.863281 216.394531 350.292969 215.820312 C 350.71875 215.25 350.933594 214.46875 350.933594 213.476562 C 350.933594 212.488281 350.71875 211.707031 350.292969 211.132812 C 349.863281 210.550781 349.285156 210.257812 348.558594 210.257812 Z M 348.558594 209.085938 C 349.746094 209.085938 350.675781 209.476562 351.355469 210.257812 C 352.042969 211.03125 352.386719 212.101562 352.386719 213.476562 C 352.386719 214.84375 352.042969 215.914062 351.355469 216.695312 C 350.675781 217.46875 349.746094 217.851562 348.558594 217.851562 C 347.359375 217.851562 346.421875 217.46875 345.746094 216.695312 C 345.066406 215.914062 344.730469 214.84375 344.730469 213.476562 C 344.730469 212.101562 345.066406 211.03125 345.746094 210.257812 C 346.421875 209.476562 347.359375 209.085938 348.558594 209.085938 Z M 359.484375 210.570312 C 359.328125 210.488281 359.160156 210.425781 358.984375 210.382812 C 358.804688 210.34375 358.609375 210.320312 358.390625 210.320312 C 357.609375 210.320312 357.007812 210.570312 356.59375 211.070312 C 356.1875 211.570312 355.984375 212.296875 355.984375 213.242188 L 355.984375 217.632812 L 354.609375 217.632812 L 354.609375 209.289062 L 355.984375 209.289062 L 355.984375 210.585938 C 356.265625 210.085938 356.632812 209.710938 357.09375 209.460938 C 357.5625 209.210938 358.125 209.085938 358.78125 209.085938 C 358.882812 209.085938 358.988281 209.097656 359.09375 209.117188 C 359.207031 209.128906 359.335938 209.144531 359.484375 209.164062 Z M 368.066406 213.117188 L 368.066406 213.789062 L 361.753906 213.789062 C 361.816406 214.738281 362.101562 215.457031 362.613281 215.945312 C 363.121094 216.4375 363.832031 216.679688 364.738281 216.679688 C 365.257812 216.679688 365.761719 216.617188 366.253906 216.492188 C 366.753906 216.367188 367.246094 216.175781 367.738281 215.914062 L 367.738281 217.210938 C 367.246094 217.421875 366.742188 217.578125 366.222656 217.679688 C 365.710938 217.792969 365.191406 217.851562 364.660156 217.851562 C 363.324219 217.851562 362.269531 217.46875 361.488281 216.695312 C 360.714844 215.914062 360.332031 214.863281 360.332031 213.539062 C 360.332031 212.175781 360.695312 211.09375 361.425781 210.289062 C 362.164062 209.488281 363.160156 209.085938 364.410156 209.085938 C 365.535156 209.085938 366.425781 209.453125 367.082031 210.179688 C 367.738281 210.898438 368.066406 211.878906 368.066406 213.117188 Z M 366.691406 212.710938 C 366.679688 211.972656 366.464844 211.378906 366.050781 210.929688 C 365.644531 210.484375 365.101562 210.257812 364.425781 210.257812 C 363.664062 210.257812 363.054688 210.476562 362.597656 210.914062 C 362.136719 211.34375 361.871094 211.945312 361.800781 212.726562 Z M 377.246094 212.601562 L 377.246094 217.632812 L 375.871094 217.632812 L 375.871094 212.648438 C 375.871094 211.859375 375.714844 211.269531 375.402344 210.882812 C 375.097656 210.488281 374.640625 210.289062 374.027344 210.289062 C 373.285156 210.289062 372.703125 210.523438 372.277344 210.992188 C 371.847656 211.460938 371.636719 212.101562 371.636719 212.914062 L 371.636719 217.632812 L 370.261719 217.632812 L 370.261719 209.289062 L 371.636719 209.289062 L 371.636719 210.585938 C 371.957031 210.085938 372.34375 209.710938 372.792969 209.460938 C 373.238281 209.210938 373.75 209.085938 374.324219 209.085938 C 375.28125 209.085938 376.003906 209.382812 376.496094 209.976562 C 376.996094 210.570312 377.246094 211.445312 377.246094 212.601562 Z M 381.332031 206.929688 L 381.332031 209.289062 L 384.144531 209.289062 L 384.144531 210.351562 L 381.332031 210.351562 L 381.332031 214.882812 C 381.332031 215.5625 381.417969 216 381.597656 216.195312 C 381.785156 216.394531 382.164062 216.492188 382.738281 216.492188 L 384.144531 216.492188 L 384.144531 217.632812 L 382.738281 217.632812 C 381.683594 217.632812 380.957031 217.4375 380.550781 217.039062 C 380.152344 216.644531 379.957031 215.925781 379.957031 214.882812 L 379.957031 210.351562 L 378.941406 210.351562 L 378.941406 209.289062 L 379.957031 209.289062 L 379.957031 206.929688 Z M 385.359375 209.289062 L 391.859375 209.289062 L 391.859375 210.539062 L 386.71875 216.539062 L 391.859375 216.539062 L 391.859375 217.632812 L 385.171875 217.632812 L 385.171875 216.382812 L 390.328125 210.382812 L 385.359375 210.382812 Z M 393.269531 212.851562 L 397.285156 212.851562 L 397.285156 214.070312 L 393.269531 214.070312 Z M 405.460938 209.617188 L 405.460938 210.898438 C 405.074219 210.679688 404.683594 210.519531 404.289062 210.414062 C 403.902344 210.3125 403.511719 210.257812 403.117188 210.257812 C 402.230469 210.257812 401.539062 210.539062 401.039062 211.101562 C 400.546875 211.664062 400.304688 212.457031 400.304688 213.476562 C 400.304688 214.488281 400.546875 215.273438 401.039062 215.835938 C 401.539062 216.398438 402.230469 216.679688 403.117188 216.679688 C 403.511719 216.679688 403.902344 216.628906 404.289062 216.523438 C 404.683594 216.421875 405.074219 216.257812 405.460938 216.039062 L 405.460938 217.320312 C 405.074219 217.5 404.679688 217.628906 404.273438 217.710938 C 403.867188 217.804688 403.429688 217.851562 402.960938 217.851562 C 401.710938 217.851562 400.714844 217.457031 399.976562 216.664062 C 399.234375 215.875 398.867188 214.8125 398.867188 213.476562 C 398.867188 212.113281 399.234375 211.039062 399.976562 210.257812 C 400.726562 209.476562 401.75 209.085938 403.054688 209.085938 C 403.480469 209.085938 403.890625 209.132812 404.289062 209.226562 C 404.695312 209.3125 405.085938 209.441406 405.460938 209.617188 Z M 411.082031 210.257812 C 410.339844 210.257812 409.757812 210.546875 409.332031 211.117188 C 408.902344 211.691406 408.691406 212.476562 408.691406 213.476562 C 408.691406 214.46875 408.902344 215.25 409.332031 215.820312 C 409.757812 216.394531 410.339844 216.679688 411.082031 216.679688 C 411.808594 216.679688 412.386719 216.394531 412.816406 215.820312 C 413.242188 215.25 413.457031 214.46875 413.457031 213.476562 C 413.457031 212.488281 413.242188 211.707031 412.816406 211.132812 C 412.386719 210.550781 411.808594 210.257812 411.082031 210.257812 Z M 411.082031 209.085938 C 412.269531 209.085938 413.199219 209.476562 413.878906 210.257812 C 414.566406 211.03125 414.910156 212.101562 414.910156 213.476562 C 414.910156 214.84375 414.566406 215.914062 413.878906 216.695312 C 413.199219 217.46875 412.269531 217.851562 411.082031 217.851562 C 409.882812 217.851562 408.945312 217.46875 408.269531 216.695312 C 407.589844 215.914062 407.253906 214.84375 407.253906 213.476562 C 407.253906 212.101562 407.589844 211.03125 408.269531 210.257812 C 408.945312 209.476562 409.882812 209.085938 411.082031 209.085938 Z M 424.113281 212.601562 L 424.113281 217.632812 L 422.738281 217.632812 L 422.738281 212.648438 C 422.738281 211.859375 422.582031 211.269531 422.269531 210.882812 C 421.964844 210.488281 421.507812 210.289062 420.894531 210.289062 C 420.152344 210.289062 419.570312 210.523438 419.144531 210.992188 C 418.714844 211.460938 418.503906 212.101562 418.503906 212.914062 L 418.503906 217.632812 L 417.128906 217.632812 L 417.128906 209.289062 L 418.503906 209.289062 L 418.503906 210.585938 C 418.824219 210.085938 419.210938 209.710938 419.660156 209.460938 C 420.105469 209.210938 420.617188 209.085938 421.191406 209.085938 C 422.148438 209.085938 422.871094 209.382812 423.363281 209.976562 C 423.863281 210.570312 424.113281 211.445312 424.113281 212.601562 Z M 428.203125 206.929688 L 428.203125 209.289062 L 431.015625 209.289062 L 431.015625 210.351562 L 428.203125 210.351562 L 428.203125 214.882812 C 428.203125 215.5625 428.289062 216 428.46875 216.195312 C 428.65625 216.394531 429.035156 216.492188 429.609375 216.492188 L 431.015625 216.492188 L 431.015625 217.632812 L 429.609375 217.632812 C 428.554688 217.632812 427.828125 217.4375 427.421875 217.039062 C 427.023438 216.644531 426.828125 215.925781 426.828125 214.882812 L 426.828125 210.351562 L 425.8125 210.351562 L 425.8125 209.289062 L 426.828125 209.289062 L 426.828125 206.929688 Z M 437.652344 210.570312 C 437.496094 210.488281 437.328125 210.425781 437.152344 210.382812 C 436.972656 210.34375 436.777344 210.320312 436.558594 210.320312 C 435.777344 210.320312 435.175781 210.570312 434.761719 211.070312 C 434.355469 211.570312 434.152344 212.296875 434.152344 213.242188 L 434.152344 217.632812 L 432.777344 217.632812 L 432.777344 209.289062 L 434.152344 209.289062 L 434.152344 210.585938 C 434.433594 210.085938 434.800781 209.710938 435.261719 209.460938 C 435.730469 209.210938 436.292969 209.085938 436.949219 209.085938 C 437.050781 209.085938 437.15625 209.097656 437.261719 209.117188 C 437.375 209.128906 437.503906 209.144531 437.652344 209.164062 Z M 442.890625 213.445312 C 441.773438 213.445312 441.003906 213.570312 440.578125 213.820312 C 440.148438 214.070312 439.9375 214.503906 439.9375 215.117188 C 439.9375 215.609375 440.097656 215.992188 440.421875 216.273438 C 440.742188 216.554688 441.179688 216.695312 441.734375 216.695312 C 442.492188 216.695312 443.101562 216.429688 443.5625 215.898438 C 444.019531 215.359375 444.25 214.640625 444.25 213.742188 L 444.25 213.445312 Z M 445.609375 212.867188 L 445.609375 217.632812 L 444.25 217.632812 L 444.25 216.367188 C 443.9375 216.878906 443.546875 217.253906 443.078125 217.492188 C 442.609375 217.730469 442.035156 217.851562 441.359375 217.851562 C 440.503906 217.851562 439.828125 217.613281 439.328125 217.132812 C 438.828125 216.65625 438.578125 216.015625 438.578125 215.210938 C 438.578125 214.273438 438.890625 213.566406 439.515625 213.085938 C 440.140625 212.609375 441.078125 212.367188 442.328125 212.367188 L 444.25 212.367188 L 444.25 212.226562 C 444.25 211.601562 444.039062 211.117188 443.625 210.773438 C 443.207031 210.429688 442.625 210.257812 441.875 210.257812 C 441.394531 210.257812 440.929688 210.316406 440.484375 210.429688 C 440.035156 210.546875 439.601562 210.71875 439.1875 210.945312 L 439.1875 209.679688 C 439.6875 209.484375 440.171875 209.335938 440.640625 209.242188 C 441.109375 209.140625 441.566406 209.085938 442.015625 209.085938 C 443.222656 209.085938 444.125 209.398438 444.71875 210.023438 C 445.3125 210.648438 445.609375 211.597656 445.609375 212.867188 Z M 454.4375 209.617188 L 454.4375 210.898438 C 454.050781 210.679688 453.660156 210.519531 453.265625 210.414062 C 452.878906 210.3125 452.488281 210.257812 452.09375 210.257812 C 451.207031 210.257812 450.515625 210.539062 450.015625 211.101562 C 449.523438 211.664062 449.28125 212.457031 449.28125 213.476562 C 449.28125 214.488281 449.523438 215.273438 450.015625 215.835938 C 450.515625 216.398438 451.207031 216.679688 452.09375 216.679688 C 452.488281 216.679688 452.878906 216.628906 453.265625 216.523438 C 453.660156 216.421875 454.050781 216.257812 454.4375 216.039062 L 454.4375 217.320312 C 454.050781 217.5 453.65625 217.628906 453.25 217.710938 C 452.84375 217.804688 452.40625 217.851562 451.9375 217.851562 C 450.6875 217.851562 449.691406 217.457031 448.953125 216.664062 C 448.210938 215.875 447.84375 214.8125 447.84375 213.476562 C 447.84375 212.113281 448.210938 211.039062 448.953125 210.257812 C 449.703125 209.476562 450.726562 209.085938 452.03125 209.085938 C 452.457031 209.085938 452.867188 209.132812 453.265625 209.226562 C 453.671875 209.3125 454.0625 209.441406 454.4375 209.617188 Z M 458.183594 206.929688 L 458.183594 209.289062 L 460.996094 209.289062 L 460.996094 210.351562 L 458.183594 210.351562 L 458.183594 214.882812 C 458.183594 215.5625 458.269531 216 458.449219 216.195312 C 458.636719 216.394531 459.015625 216.492188 459.589844 216.492188 L 460.996094 216.492188 L 460.996094 217.632812 L 459.589844 217.632812 C 458.535156 217.632812 457.808594 217.4375 457.402344 217.039062 C 457.003906 216.644531 456.808594 215.925781 456.808594 214.882812 L 456.808594 210.351562 L 455.792969 210.351562 L 455.792969 209.289062 L 456.808594 209.289062 L 456.808594 206.929688 Z M 469.941406 213.117188 L 469.941406 213.789062 L 463.628906 213.789062 C 463.691406 214.738281 463.976562 215.457031 464.488281 215.945312 C 464.996094 216.4375 465.707031 216.679688 466.613281 216.679688 C 467.132812 216.679688 467.636719 216.617188 468.128906 216.492188 C 468.628906 216.367188 469.121094 216.175781 469.613281 215.914062 L 469.613281 217.210938 C 469.121094 217.421875 468.617188 217.578125 468.097656 217.679688 C 467.585938 217.792969 467.066406 217.851562 466.535156 217.851562 C 465.199219 217.851562 464.144531 217.46875 463.363281 216.695312 C 462.589844 215.914062 462.207031 214.863281 462.207031 213.539062 C 462.207031 212.175781 462.570312 211.09375 463.300781 210.289062 C 464.039062 209.488281 465.035156 209.085938 466.285156 209.085938 C 467.410156 209.085938 468.300781 209.453125 468.957031 210.179688 C 469.613281 210.898438 469.941406 211.878906 469.941406 213.117188 Z M 468.566406 212.710938 C 468.554688 211.972656 468.339844 211.378906 467.925781 210.929688 C 467.519531 210.484375 466.976562 210.257812 466.300781 210.257812 C 465.539062 210.257812 464.929688 210.476562 464.472656 210.914062 C 464.011719 211.34375 463.746094 211.945312 463.675781 212.726562 Z M 477.667969 210.554688 L 477.667969 206.039062 L 479.042969 206.039062 L 479.042969 217.632812 L 477.667969 217.632812 L 477.667969 216.382812 C 477.386719 216.882812 477.019531 217.253906 476.574219 217.492188 C 476.136719 217.730469 475.609375 217.851562 474.996094 217.851562 C 473.984375 217.851562 473.160156 217.453125 472.527344 216.648438 C 471.902344 215.835938 471.589844 214.78125 471.589844 213.476562 C 471.589844 212.164062 471.902344 211.109375 472.527344 210.304688 C 473.160156 209.492188 473.984375 209.085938 474.996094 209.085938 C 475.609375 209.085938 476.136719 209.210938 476.574219 209.460938 C 477.019531 209.703125 477.386719 210.066406 477.667969 210.554688 Z M 472.996094 213.476562 C 472.996094 214.476562 473.203125 215.265625 473.621094 215.835938 C 474.035156 216.410156 474.609375 216.695312 475.339844 216.695312 C 476.058594 216.695312 476.625 216.410156 477.042969 215.835938 C 477.457031 215.265625 477.667969 214.476562 477.667969 213.476562 C 477.667969 212.46875 477.457031 211.675781 477.042969 211.101562 C 476.625 210.53125 476.058594 210.242188 475.339844 210.242188 C 474.609375 210.242188 474.035156 210.53125 473.621094 211.101562 C 473.203125 211.675781 472.996094 212.46875 472.996094 213.476562 Z M 480.429688 217.632812 "/>
<path style="fill-rule:evenodd;fill:rgb(75%,75%,75%);fill-opacity:1;stroke-width:2.033422;stroke-linecap:round;stroke-linejoin:round;stroke:rgb(0%,0%,0%);stroke-opacity:1;stroke-miterlimit:10;" d="M 260.636719 255.15625 L 209.800781 255.15625 L 209.800781 153.484375 L 260.636719 153.484375 Z M 260.636719 255.15625 "/>
<path style="fill:none;stroke-width:2.033422;stroke-linecap:butt;stroke-linejoin:miter;stroke:rgb(0%,0%,0%);stroke-opacity:1;stroke-miterlimit:10;" d="M 209.800781 221.265625 L 260.636719 221.265625 "/>
<path style="fill:none;stroke-width:2.033422;stroke-linecap:butt;stroke-linejoin:miter;stroke:rgb(0%,0%,0%);stroke-opacity:1;stroke-miterlimit:10;" d="M 209.800781 187.375 L 260.636719 187.375 "/>
<path style="fill:none;stroke-width:2.033422;stroke-linecap:butt;stroke-linejoin:miter;stroke:rgb(0%,0%,0%);stroke-opacity:1;stroke-miterlimit:10;" d="M 226.746094 255.15625 L 226.746094 153.484375 "/>
<path style="fill:none;stroke-width:2.033422;stroke-linecap:butt;stroke-linejoin:miter;stroke:rgb(0%,0%,0%);stroke-opacity:1;stroke-miterlimit:10;" d="M 243.691406 255.15625 L 243.691406 153.484375 "/>
<path style="fill:none;stroke-width:1.016711;stroke-linecap:butt;stroke-linejoin:miter;stroke:rgb(0%,0%,0%);stroke-opacity:1;stroke-dasharray:5.083554;stroke-miterlimit:10;" d="M 63.324219 204.320312 L 235.21875 204.320312 "/>
<path style="fill:none;stroke-width:2.541777;stroke-linecap:butt;stroke-linejoin:miter;stroke:rgb(100%,0%,0%);stroke-opacity:1;stroke-miterlimit:10;" d="M 235.21875 204.320312 L 295.085938 204.320312 "/>
<path style=" stroke:none;fill-rule:evenodd;fill:rgb(100%,0%,0%);fill-opacity:1;" d="M 304.140625 204.320312 L 294.609375 209.085938 L 294.609375 199.554688 Z M 304.140625 204.320312 "/>
<path style=" stroke:none;fill-rule:evenodd;fill:rgb(100%,0%,0%);fill-opacity:1;" d="M 238.269531 204.320312 C 238.269531 200.253906 232.167969 200.253906 232.167969 204.320312 C 232.167969 208.386719 238.269531 208.386719 238.269531 204.320312 "/>
<path style="fill:none;stroke-width:1.016711;stroke-linecap:butt;stroke-linejoin:miter;stroke:rgb(0%,0%,0%);stroke-opacity:1;stroke-miterlimit:10;" d="M 260.636719 260.835938 L 260.636719 290.339844 L 286.839844 290.339844 "/>
<path style="fill:none;stroke-width:0.635444;stroke-linecap:butt;stroke-linejoin:miter;stroke:rgb(0%,0%,0%);stroke-opacity:1;stroke-miterlimit:10;" d="M 263.8125 266.554688 L 260.636719 260.203125 L 257.457031 266.554688 "/>
<path style=" stroke:none;fill-rule:evenodd;fill:rgb(0%,0%,0%);fill-opacity:1;" d="M 299.71875 277.835938 L 299.71875 278.789062 L 298.625 278.789062 C 298.21875 278.789062 297.929688 278.875 297.765625 279.039062 C 297.609375 279.207031 297.53125 279.503906 297.53125 279.929688 L 297.53125 280.539062 L 299.40625 280.539062 L 299.40625 281.429688 L 297.53125 281.429688 L 297.53125 287.492188 L 296.390625 287.492188 L 296.390625 281.429688 L 295.296875 281.429688 L 295.296875 280.539062 L 296.390625 280.539062 L 296.390625 280.054688 C 296.390625 279.285156 296.566406 278.722656 296.921875 278.367188 C 297.285156 278.015625 297.859375 277.835938 298.640625 277.835938 Z M 304.691406 281.617188 C 304.566406 281.546875 304.425781 281.492188 304.269531 281.460938 C 304.121094 281.421875 303.957031 281.398438 303.769531 281.398438 C 303.132812 281.398438 302.636719 281.609375 302.285156 282.023438 C 301.941406 282.441406 301.769531 283.046875 301.769531 283.835938 L 301.769531 287.492188 L 300.628906 287.492188 L 300.628906 280.539062 L 301.769531 280.539062 L 301.769531 281.617188 C 302.007812 281.203125 302.320312 280.894531 302.707031 280.695312 C 303.089844 280.488281 303.558594 280.382812 304.113281 280.382812 C 304.183594 280.382812 304.269531 280.390625 304.363281 280.398438 C 304.464844 280.410156 304.574219 280.425781 304.691406 280.445312 Z M 308.589844 281.351562 C 307.972656 281.351562 307.488281 281.59375 307.136719 282.070312 C 306.78125 282.539062 306.605469 283.191406 306.605469 284.023438 C 306.605469 284.859375 306.78125 285.515625 307.136719 285.992188 C 307.488281 286.472656 307.972656 286.710938 308.589844 286.710938 C 309.191406 286.710938 309.671875 286.472656 310.027344 285.992188 C 310.390625 285.503906 310.574219 284.847656 310.574219 284.023438 C 310.574219 283.203125 310.390625 282.550781 310.027344 282.070312 C 309.671875 281.59375 309.191406 281.351562 308.589844 281.351562 Z M 308.589844 280.382812 C 309.578125 280.382812 310.355469 280.707031 310.917969 281.351562 C 311.488281 282 311.777344 282.890625 311.777344 284.023438 C 311.777344 285.160156 311.488281 286.054688 310.917969 286.710938 C 310.355469 287.359375 309.578125 287.679688 308.589844 287.679688 C 307.589844 287.679688 306.808594 287.359375 306.246094 286.710938 C 305.683594 286.054688 305.402344 285.160156 305.402344 284.023438 C 305.402344 282.890625 305.683594 282 306.246094 281.351562 C 306.808594 280.707031 307.589844 280.382812 308.589844 280.382812 Z M 319.445312 283.304688 L 319.445312 287.492188 L 318.304688 287.492188 L 318.304688 283.335938 C 318.304688 282.679688 318.171875 282.191406 317.914062 281.867188 C 317.664062 281.535156 317.28125 281.367188 316.773438 281.367188 C 316.15625 281.367188 315.667969 281.566406 315.304688 281.960938 C 314.949219 282.359375 314.773438 282.894531 314.773438 283.570312 L 314.773438 287.492188 L 313.632812 287.492188 L 313.632812 280.539062 L 314.773438 280.539062 L 314.773438 281.617188 C 315.042969 281.203125 315.367188 280.894531 315.742188 280.695312 C 316.117188 280.488281 316.542969 280.382812 317.023438 280.382812 C 317.824219 280.382812 318.429688 280.632812 318.835938 281.132812 C 319.242188 281.625 319.445312 282.347656 319.445312 283.304688 Z M 322.859375 278.570312 L 322.859375 280.539062 L 325.203125 280.539062 L 325.203125 281.429688 L 322.859375 281.429688 L 322.859375 285.210938 C 322.859375 285.773438 322.9375 286.140625 323.09375 286.304688 C 323.25 286.460938 323.5625 286.539062 324.03125 286.539062 L 325.203125 286.539062 L 325.203125 287.492188 L 324.03125 287.492188 C 323.15625 287.492188 322.546875 287.332031 322.203125 287.007812 C 321.867188 286.675781 321.703125 286.078125 321.703125 285.210938 L 321.703125 281.429688 L 320.875 281.429688 L 320.875 280.539062 L 321.703125 280.539062 L 321.703125 278.570312 Z M 298.9375 290.558594 C 298.382812 291.507812 297.972656 292.449219 297.703125 293.386719 C 297.429688 294.316406 297.296875 295.257812 297.296875 296.214844 C 297.296875 297.164062 297.429688 298.105469 297.703125 299.042969 C 297.972656 299.980469 298.382812 300.921875 298.9375 301.871094 L 297.953125 301.871094 C 297.328125 300.902344 296.859375 299.949219 296.546875 299.011719 C 296.242188 298.074219 296.09375 297.144531 296.09375 296.214844 C 296.09375 295.289062 296.242188 294.363281 296.546875 293.433594 C 296.859375 292.496094 297.328125 291.539062 297.953125 290.558594 Z M 302.253906 299.152344 L 302.253906 302.839844 L 301.113281 302.839844 L 301.113281 293.246094 L 302.253906 293.246094 L 302.253906 294.308594 C 302.492188 293.894531 302.792969 293.585938 303.160156 293.386719 C 303.535156 293.191406 303.972656 293.089844 304.472656 293.089844 C 305.316406 293.089844 306.003906 293.425781 306.535156 294.089844 C 307.066406 294.757812 307.332031 295.636719 307.332031 296.730469 C 307.332031 297.824219 307.066406 298.710938 306.535156 299.386719 C 306.003906 300.054688 305.316406 300.386719 304.472656 300.386719 C 303.972656 300.386719 303.535156 300.285156 303.160156 300.089844 C 302.792969 299.882812 302.492188 299.570312 302.253906 299.152344 Z M 306.144531 296.730469 C 306.144531 295.898438 305.964844 295.242188 305.613281 294.761719 C 305.269531 294.285156 304.800781 294.042969 304.207031 294.042969 C 303.601562 294.042969 303.121094 294.285156 302.769531 294.761719 C 302.425781 295.242188 302.253906 295.898438 302.253906 296.730469 C 302.253906 297.574219 302.425781 298.238281 302.769531 298.714844 C 303.121094 299.183594 303.601562 299.417969 304.207031 299.417969 C 304.800781 299.417969 305.269531 299.183594 305.613281 298.714844 C 305.964844 298.238281 306.144531 297.574219 306.144531 296.730469 Z M 313.242188 294.324219 C 313.117188 294.253906 312.976562 294.199219 312.820312 294.167969 C 312.671875 294.128906 312.507812 294.105469 312.320312 294.105469 C 311.683594 294.105469 311.1875 294.316406 310.835938 294.730469 C 310.492188 295.148438 310.320312 295.753906 310.320312 296.542969 L 310.320312 300.199219 L 309.179688 300.199219 L 309.179688 293.246094 L 310.320312 293.246094 L 310.320312 294.324219 C 310.558594 293.910156 310.871094 293.601562 311.257812 293.402344 C 311.640625 293.195312 312.109375 293.089844 312.664062 293.089844 C 312.734375 293.089844 312.820312 293.097656 312.914062 293.105469 C 313.015625 293.117188 313.125 293.132812 313.242188 293.152344 Z M 320.390625 296.433594 L 320.390625 296.996094 L 315.140625 296.996094 C 315.191406 297.789062 315.425781 298.394531 315.84375 298.808594 C 316.269531 299.214844 316.863281 299.417969 317.625 299.417969 C 318.0625 299.417969 318.484375 299.367188 318.890625 299.261719 C 319.304688 299.148438 319.71875 298.980469 320.125 298.761719 L 320.125 299.839844 C 319.71875 300.019531 319.296875 300.152344 318.859375 300.246094 C 318.429688 300.339844 317.992188 300.386719 317.546875 300.386719 C 316.441406 300.386719 315.566406 300.066406 314.921875 299.417969 C 314.273438 298.773438 313.953125 297.898438 313.953125 296.792969 C 313.953125 295.660156 314.257812 294.757812 314.875 294.089844 C 315.488281 293.425781 316.316406 293.089844 317.359375 293.089844 C 318.296875 293.089844 319.035156 293.394531 319.578125 293.996094 C 320.117188 294.589844 320.390625 295.402344 320.390625 296.433594 Z M 319.25 296.105469 C 319.238281 295.480469 319.0625 294.988281 318.71875 294.621094 C 318.382812 294.246094 317.9375 294.058594 317.375 294.058594 C 316.726562 294.058594 316.210938 294.242188 315.828125 294.605469 C 315.453125 294.960938 315.234375 295.460938 315.171875 296.105469 Z M 326.835938 294.308594 L 326.835938 290.542969 L 327.976562 290.542969 L 327.976562 300.199219 L 326.835938 300.199219 L 326.835938 299.152344 C 326.59375 299.570312 326.292969 299.882812 325.929688 300.089844 C 325.5625 300.285156 325.125 300.386719 324.617188 300.386719 C 323.773438 300.386719 323.085938 300.054688 322.554688 299.386719 C 322.03125 298.710938 321.773438 297.824219 321.773438 296.730469 C 321.773438 295.636719 322.03125 294.757812 322.554688 294.089844 C 323.085938 293.425781 323.773438 293.089844 324.617188 293.089844 C 325.125 293.089844 325.5625 293.191406 325.929688 293.386719 C 326.292969 293.585938 326.59375 293.894531 326.835938 294.308594 Z M 322.945312 296.730469 C 322.945312 297.574219 323.117188 298.238281 323.460938 298.714844 C 323.8125 299.183594 324.292969 299.417969 324.898438 299.417969 C 325.492188 299.417969 325.960938 299.183594 326.304688 298.714844 C 326.65625 298.238281 326.835938 297.574219 326.835938 296.730469 C 326.835938 295.898438 326.65625 295.242188 326.304688 294.761719 C 325.960938 294.285156 325.492188 294.042969 324.898438 294.042969 C 324.292969 294.042969 323.8125 294.285156 323.460938 294.761719 C 323.117188 295.242188 322.945312 295.898438 322.945312 296.730469 Z M 336.277344 296.433594 L 336.277344 296.996094 L 331.027344 296.996094 C 331.078125 297.789062 331.3125 298.394531 331.730469 298.808594 C 332.15625 299.214844 332.75 299.417969 333.511719 299.417969 C 333.949219 299.417969 334.371094 299.367188 334.777344 299.261719 C 335.191406 299.148438 335.605469 298.980469 336.011719 298.761719 L 336.011719 299.839844 C 335.605469 300.019531 335.183594 300.152344 334.746094 300.246094 C 334.316406 300.339844 333.878906 300.386719 333.433594 300.386719 C 332.328125 300.386719 331.453125 300.066406 330.808594 299.417969 C 330.160156 298.773438 329.839844 297.898438 329.839844 296.792969 C 329.839844 295.660156 330.144531 294.757812 330.761719 294.089844 C 331.375 293.425781 332.203125 293.089844 333.246094 293.089844 C 334.183594 293.089844 334.921875 293.394531 335.464844 293.996094 C 336.003906 294.589844 336.277344 295.402344 336.277344 296.433594 Z M 335.136719 296.105469 C 335.125 295.480469 334.949219 294.988281 334.605469 294.621094 C 334.269531 294.246094 333.824219 294.058594 333.261719 294.058594 C 332.613281 294.058594 332.097656 294.242188 331.714844 294.605469 C 331.339844 294.960938 331.121094 295.460938 331.058594 296.105469 Z M 342.582031 293.449219 L 342.582031 294.542969 C 342.257812 294.378906 341.917969 294.253906 341.566406 294.167969 C 341.222656 294.085938 340.867188 294.042969 340.503906 294.042969 C 339.929688 294.042969 339.503906 294.132812 339.222656 294.308594 C 338.941406 294.476562 338.800781 294.730469 338.800781 295.074219 C 338.800781 295.347656 338.898438 295.558594 339.097656 295.714844 C 339.304688 295.863281 339.714844 296.003906 340.332031 296.136719 L 340.722656 296.230469 C 341.523438 296.398438 342.097656 296.644531 342.441406 296.964844 C 342.785156 297.277344 342.957031 297.714844 342.957031 298.277344 C 342.957031 298.925781 342.699219 299.441406 342.191406 299.824219 C 341.679688 300.199219 340.976562 300.386719 340.082031 300.386719 C 339.707031 300.386719 339.316406 300.347656 338.910156 300.277344 C 338.511719 300.203125 338.089844 300.097656 337.644531 299.949219 L 337.644531 298.761719 C 338.070312 298.980469 338.488281 299.148438 338.894531 299.261719 C 339.300781 299.367188 339.707031 299.417969 340.113281 299.417969 C 340.644531 299.417969 341.054688 299.332031 341.347656 299.152344 C 341.636719 298.964844 341.785156 298.707031 341.785156 298.371094 C 341.785156 298.058594 341.679688 297.820312 341.472656 297.652344 C 341.261719 297.488281 340.804688 297.332031 340.097656 297.183594 L 339.691406 297.089844 C 338.992188 296.933594 338.480469 296.707031 338.160156 296.402344 C 337.847656 296.089844 337.691406 295.667969 337.691406 295.136719 C 337.691406 294.480469 337.917969 293.976562 338.378906 293.621094 C 338.847656 293.269531 339.507812 293.089844 340.363281 293.089844 C 340.777344 293.089844 341.175781 293.121094 341.550781 293.183594 C 341.925781 293.246094 342.269531 293.335938 342.582031 293.449219 Z M 345.90625 291.277344 L 345.90625 293.246094 L 348.25 293.246094 L 348.25 294.136719 L 345.90625 294.136719 L 345.90625 297.917969 C 345.90625 298.480469 345.984375 298.847656 346.140625 299.011719 C 346.296875 299.167969 346.609375 299.246094 347.078125 299.246094 L 348.25 299.246094 L 348.25 300.199219 L 347.078125 300.199219 C 346.203125 300.199219 345.59375 300.039062 345.25 299.714844 C 344.914062 299.382812 344.75 298.785156 344.75 297.917969 L 344.75 294.136719 L 343.921875 294.136719 L 343.921875 293.246094 L 344.75 293.246094 L 344.75 291.277344 Z M 349.761719 293.246094 L 350.902344 293.246094 L 350.902344 300.199219 L 349.761719 300.199219 Z M 349.761719 290.542969 L 350.902344 290.542969 L 350.902344 291.996094 L 349.761719 291.996094 Z M 359.058594 296.011719 L 359.058594 300.199219 L 357.917969 300.199219 L 357.917969 296.042969 C 357.917969 295.386719 357.785156 294.898438 357.527344 294.574219 C 357.277344 294.242188 356.894531 294.074219 356.386719 294.074219 C 355.769531 294.074219 355.28125 294.273438 354.917969 294.667969 C 354.5625 295.066406 354.386719 295.601562 354.386719 296.277344 L 354.386719 300.199219 L 353.246094 300.199219 L 353.246094 293.246094 L 354.386719 293.246094 L 354.386719 294.324219 C 354.65625 293.910156 354.980469 293.601562 355.355469 293.402344 C 355.730469 293.195312 356.15625 293.089844 356.636719 293.089844 C 357.4375 293.089844 358.042969 293.339844 358.449219 293.839844 C 358.855469 294.332031 359.058594 295.054688 359.058594 296.011719 Z M 367.285156 296.433594 L 367.285156 296.996094 L 362.035156 296.996094 C 362.085938 297.789062 362.320312 298.394531 362.738281 298.808594 C 363.164062 299.214844 363.757812 299.417969 364.519531 299.417969 C 364.957031 299.417969 365.378906 299.367188 365.785156 299.261719 C 366.199219 299.148438 366.613281 298.980469 367.019531 298.761719 L 367.019531 299.839844 C 366.613281 300.019531 366.191406 300.152344 365.753906 300.246094 C 365.324219 300.339844 364.886719 300.386719 364.441406 300.386719 C 363.335938 300.386719 362.460938 300.066406 361.816406 299.417969 C 361.167969 298.773438 360.847656 297.898438 360.847656 296.792969 C 360.847656 295.660156 361.152344 294.757812 361.769531 294.089844 C 362.382812 293.425781 363.210938 293.089844 364.253906 293.089844 C 365.191406 293.089844 365.929688 293.394531 366.472656 293.996094 C 367.011719 294.589844 367.285156 295.402344 367.285156 296.433594 Z M 366.144531 296.105469 C 366.132812 295.480469 365.957031 294.988281 365.613281 294.621094 C 365.277344 294.246094 364.832031 294.058594 364.269531 294.058594 C 363.621094 294.058594 363.105469 294.242188 362.722656 294.605469 C 362.347656 294.960938 362.128906 295.460938 362.066406 296.105469 Z M 373.730469 294.308594 L 373.730469 290.542969 L 374.871094 290.542969 L 374.871094 300.199219 L 373.730469 300.199219 L 373.730469 299.152344 C 373.488281 299.570312 373.1875 299.882812 372.824219 300.089844 C 372.457031 300.285156 372.019531 300.386719 371.511719 300.386719 C 370.667969 300.386719 369.980469 300.054688 369.449219 299.386719 C 368.925781 298.710938 368.667969 297.824219 368.667969 296.730469 C 368.667969 295.636719 368.925781 294.757812 369.449219 294.089844 C 369.980469 293.425781 370.667969 293.089844 371.511719 293.089844 C 372.019531 293.089844 372.457031 293.191406 372.824219 293.386719 C 373.1875 293.585938 373.488281 293.894531 373.730469 294.308594 Z M 369.839844 296.730469 C 369.839844 297.574219 370.011719 298.238281 370.355469 298.714844 C 370.707031 299.183594 371.1875 299.417969 371.792969 299.417969 C 372.386719 299.417969 372.855469 299.183594 373.199219 298.714844 C 373.550781 298.238281 373.730469 297.574219 373.730469 296.730469 C 373.730469 295.898438 373.550781 295.242188 373.199219 294.761719 C 372.855469 294.285156 372.386719 294.042969 371.792969 294.042969 C 371.1875 294.042969 370.707031 294.285156 370.355469 294.761719 C 370.011719 295.242188 369.839844 295.898438 369.839844 296.730469 Z M 377.046875 290.558594 L 378.046875 290.558594 C 378.660156 291.539062 379.117188 292.496094 379.421875 293.433594 C 379.734375 294.363281 379.890625 295.289062 379.890625 296.214844 C 379.890625 297.144531 379.734375 298.074219 379.421875 299.011719 C 379.117188 299.949219 378.660156 300.902344 378.046875 301.871094 L 377.046875 301.871094 C 377.597656 300.921875 378.007812 299.980469 378.28125 299.042969 C 378.550781 298.105469 378.6875 297.164062 378.6875 296.214844 C 378.6875 295.257812 378.550781 294.316406 378.28125 293.386719 C 378.007812 292.449219 377.597656 291.507812 377.046875 290.558594 Z M 380.988281 300.199219 "/>
<path style="fill:none;stroke-width:1.016711;stroke-linecap:butt;stroke-linejoin:miter;stroke:rgb(0%,0%,0%);stroke-opacity:1;stroke-miterlimit:10;" d="M 209.800781 260.835938 L 209.800781 290.339844 L 183.597656 290.339844 "/>
<path style="fill:none;stroke-width:0.635444;stroke-linecap:butt;stroke-linejoin:miter;stroke:rgb(0%,0%,0%);stroke-opacity:1;stroke-miterlimit:10;" d="M 212.976562 266.554688 L 209.800781 260.203125 L 206.625 266.554688 "/>
<path style=" stroke:none;fill-rule:evenodd;fill:rgb(0%,0%,0%);fill-opacity:1;" d="M 151.335938 284.023438 C 151.335938 283.191406 151.15625 282.535156 150.804688 282.054688 C 150.460938 281.578125 149.992188 281.335938 149.398438 281.335938 C 148.792969 281.335938 148.3125 281.578125 147.960938 282.054688 C 147.617188 282.535156 147.445312 283.191406 147.445312 284.023438 C 147.445312 284.867188 147.617188 285.53125 147.960938 286.007812 C 148.3125 286.476562 148.792969 286.710938 149.398438 286.710938 C 149.992188 286.710938 150.460938 286.476562 150.804688 286.007812 C 151.15625 285.53125 151.335938 284.867188 151.335938 284.023438 Z M 147.445312 281.601562 C 147.683594 281.1875 147.984375 280.878906 148.351562 280.679688 C 148.726562 280.484375 149.164062 280.382812 149.664062 280.382812 C 150.507812 280.382812 151.195312 280.71875 151.726562 281.382812 C 152.257812 282.050781 152.523438 282.929688 152.523438 284.023438 C 152.523438 285.117188 152.257812 286.003906 151.726562 286.679688 C 151.195312 287.347656 150.507812 287.679688 149.664062 287.679688 C 149.164062 287.679688 148.726562 287.578125 148.351562 287.382812 C 147.984375 287.175781 147.683594 286.863281 147.445312 286.445312 L 147.445312 287.492188 L 146.304688 287.492188 L 146.304688 277.835938 L 147.445312 277.835938 Z M 157.578125 284.007812 C 156.648438 284.007812 156.007812 284.113281 155.65625 284.320312 C 155.300781 284.53125 155.125 284.890625 155.125 285.398438 C 155.125 285.804688 155.253906 286.128906 155.515625 286.367188 C 155.785156 286.597656 156.148438 286.710938 156.609375 286.710938 C 157.242188 286.710938 157.75 286.488281 158.125 286.039062 C 158.507812 285.59375 158.703125 285 158.703125 284.257812 L 158.703125 284.007812 Z M 159.84375 283.523438 L 159.84375 287.492188 L 158.703125 287.492188 L 158.703125 286.445312 C 158.441406 286.863281 158.117188 287.175781 157.734375 287.382812 C 157.347656 287.578125 156.875 287.679688 156.3125 287.679688 C 155.59375 287.679688 155.023438 287.484375 154.609375 287.085938 C 154.191406 286.679688 153.984375 286.144531 153.984375 285.476562 C 153.984375 284.695312 154.242188 284.109375 154.765625 283.710938 C 155.285156 283.304688 156.066406 283.101562 157.109375 283.101562 L 158.703125 283.101562 L 158.703125 282.992188 C 158.703125 282.472656 158.53125 282.070312 158.1875 281.789062 C 157.84375 281.5 157.359375 281.351562 156.734375 281.351562 C 156.335938 281.351562 155.953125 281.398438 155.578125 281.492188 C 155.203125 281.585938 154.835938 281.726562 154.484375 281.914062 L 154.484375 280.867188 C 154.898438 280.703125 155.304688 280.582031 155.703125 280.507812 C 156.097656 280.425781 156.484375 280.382812 156.859375 280.382812 C 157.859375 280.382812 158.601562 280.644531 159.09375 281.164062 C 159.59375 281.6875 159.84375 282.472656 159.84375 283.523438 Z M 167.207031 280.804688 L 167.207031 281.882812 C 166.882812 281.707031 166.554688 281.578125 166.222656 281.492188 C 165.898438 281.398438 165.574219 281.351562 165.253906 281.351562 C 164.503906 281.351562 163.925781 281.585938 163.519531 282.054688 C 163.113281 282.523438 162.910156 283.179688 162.910156 284.023438 C 162.910156 284.867188 163.113281 285.53125 163.519531 286.007812 C 163.925781 286.476562 164.503906 286.710938 165.253906 286.710938 C 165.574219 286.710938 165.898438 286.671875 166.222656 286.585938 C 166.554688 286.492188 166.882812 286.351562 167.207031 286.164062 L 167.207031 287.226562 C 166.882812 287.375 166.550781 287.484375 166.207031 287.554688 C 165.871094 287.636719 165.511719 287.679688 165.128906 287.679688 C 164.074219 287.679688 163.242188 287.351562 162.628906 286.695312 C 162.011719 286.03125 161.707031 285.140625 161.707031 284.023438 C 161.707031 282.890625 162.011719 282 162.628906 281.351562 C 163.253906 280.707031 164.105469 280.382812 165.191406 280.382812 C 165.542969 280.382812 165.886719 280.421875 166.222656 280.492188 C 166.554688 280.566406 166.882812 280.671875 167.207031 280.804688 Z M 169.148438 277.835938 L 170.289062 277.835938 L 170.289062 283.539062 L 173.695312 280.539062 L 175.164062 280.539062 L 171.476562 283.789062 L 175.304688 287.492188 L 173.820312 287.492188 L 170.289062 284.101562 L 170.289062 287.492188 L 169.148438 287.492188 Z M 96.570312 290.558594 C 96.015625 291.507812 95.605469 292.449219 95.335938 293.386719 C 95.0625 294.316406 94.929688 295.257812 94.929688 296.214844 C 94.929688 297.164062 95.0625 298.105469 95.335938 299.042969 C 95.605469 299.980469 96.015625 300.921875 96.570312 301.871094 L 95.585938 301.871094 C 94.960938 300.902344 94.492188 299.949219 94.179688 299.011719 C 93.875 298.074219 93.726562 297.144531 93.726562 296.214844 C 93.726562 295.289062 93.875 294.363281 94.179688 293.433594 C 94.492188 292.496094 94.960938 291.539062 95.585938 290.558594 Z M 103.792969 293.511719 L 103.792969 294.589844 C 103.46875 294.414062 103.140625 294.285156 102.808594 294.199219 C 102.484375 294.105469 102.160156 294.058594 101.839844 294.058594 C 101.089844 294.058594 100.511719 294.292969 100.105469 294.761719 C 99.699219 295.230469 99.496094 295.886719 99.496094 296.730469 C 99.496094 297.574219 99.699219 298.238281 100.105469 298.714844 C 100.511719 299.183594 101.089844 299.417969 101.839844 299.417969 C 102.160156 299.417969 102.484375 299.378906 102.808594 299.292969 C 103.140625 299.199219 103.46875 299.058594 103.792969 298.871094 L 103.792969 299.933594 C 103.46875 300.082031 103.136719 300.191406 102.792969 300.261719 C 102.457031 300.34375 102.097656 300.386719 101.714844 300.386719 C 100.660156 300.386719 99.828125 300.058594 99.214844 299.402344 C 98.597656 298.738281 98.292969 297.847656 98.292969 296.730469 C 98.292969 295.597656 98.597656 294.707031 99.214844 294.058594 C 99.839844 293.414062 100.691406 293.089844 101.777344 293.089844 C 102.128906 293.089844 102.472656 293.128906 102.808594 293.199219 C 103.140625 293.273438 103.46875 293.378906 103.792969 293.511719 Z M 111.546875 296.011719 L 111.546875 300.199219 L 110.40625 300.199219 L 110.40625 296.042969 C 110.40625 295.386719 110.273438 294.898438 110.015625 294.574219 C 109.765625 294.242188 109.382812 294.074219 108.875 294.074219 C 108.257812 294.074219 107.769531 294.273438 107.40625 294.667969 C 107.050781 295.066406 106.875 295.601562 106.875 296.277344 L 106.875 300.199219 L 105.734375 300.199219 L 105.734375 290.542969 L 106.875 290.542969 L 106.875 294.324219 C 107.144531 293.910156 107.46875 293.601562 107.84375 293.402344 C 108.21875 293.195312 108.644531 293.089844 109.125 293.089844 C 109.925781 293.089844 110.53125 293.339844 110.9375 293.839844 C 111.34375 294.332031 111.546875 295.054688 111.546875 296.011719 Z M 116.992188 296.714844 C 116.0625 296.714844 115.421875 296.820312 115.070312 297.027344 C 114.714844 297.238281 114.539062 297.597656 114.539062 298.105469 C 114.539062 298.511719 114.667969 298.835938 114.929688 299.074219 C 115.199219 299.304688 115.5625 299.417969 116.023438 299.417969 C 116.65625 299.417969 117.164062 299.195312 117.539062 298.746094 C 117.921875 298.300781 118.117188 297.707031 118.117188 296.964844 L 118.117188 296.714844 Z M 119.257812 296.230469 L 119.257812 300.199219 L 118.117188 300.199219 L 118.117188 299.152344 C 117.855469 299.570312 117.53125 299.882812 117.148438 300.089844 C 116.761719 300.285156 116.289062 300.386719 115.726562 300.386719 C 115.007812 300.386719 114.4375 300.191406 114.023438 299.792969 C 113.605469 299.386719 113.398438 298.851562 113.398438 298.183594 C 113.398438 297.402344 113.65625 296.816406 114.179688 296.417969 C 114.699219 296.011719 115.480469 295.808594 116.523438 295.808594 L 118.117188 295.808594 L 118.117188 295.699219 C 118.117188 295.179688 117.945312 294.777344 117.601562 294.496094 C 117.257812 294.207031 116.773438 294.058594 116.148438 294.058594 C 115.75 294.058594 115.367188 294.105469 114.992188 294.199219 C 114.617188 294.292969 114.25 294.433594 113.898438 294.621094 L 113.898438 293.574219 C 114.3125 293.410156 114.71875 293.289062 115.117188 293.214844 C 115.511719 293.132812 115.898438 293.089844 116.273438 293.089844 C 117.273438 293.089844 118.015625 293.351562 118.507812 293.871094 C 119.007812 294.394531 119.257812 295.179688 119.257812 296.230469 Z M 127.390625 296.011719 L 127.390625 300.199219 L 126.25 300.199219 L 126.25 296.042969 C 126.25 295.386719 126.117188 294.898438 125.859375 294.574219 C 125.609375 294.242188 125.226562 294.074219 124.71875 294.074219 C 124.101562 294.074219 123.613281 294.273438 123.25 294.667969 C 122.894531 295.066406 122.71875 295.601562 122.71875 296.277344 L 122.71875 300.199219 L 121.578125 300.199219 L 121.578125 293.246094 L 122.71875 293.246094 L 122.71875 294.324219 C 122.988281 293.910156 123.3125 293.601562 123.6875 293.402344 C 124.0625 293.195312 124.488281 293.089844 124.96875 293.089844 C 125.769531 293.089844 126.375 293.339844 126.78125 293.839844 C 127.1875 294.332031 127.390625 295.054688 127.390625 296.011719 Z M 134.242188 296.652344 C 134.242188 295.820312 134.070312 295.179688 133.726562 294.730469 C 133.390625 294.273438 132.917969 294.042969 132.304688 294.042969 C 131.6875 294.042969 131.210938 294.273438 130.867188 294.730469 C 130.523438 295.179688 130.351562 295.820312 130.351562 296.652344 C 130.351562 297.476562 130.523438 298.117188 130.867188 298.574219 C 131.210938 299.023438 131.6875 299.246094 132.304688 299.246094 C 132.917969 299.246094 133.390625 299.023438 133.726562 298.574219 C 134.070312 298.117188 134.242188 297.476562 134.242188 296.652344 Z M 135.382812 299.339844 C 135.382812 300.515625 135.117188 301.390625 134.585938 301.964844 C 134.0625 302.546875 133.261719 302.839844 132.179688 302.839844 C 131.78125 302.839844 131.40625 302.808594 131.054688 302.746094 C 130.699219 302.691406 130.351562 302.605469 130.007812 302.480469 L 130.007812 301.371094 C 130.351562 301.546875 130.683594 301.675781 131.007812 301.761719 C 131.328125 301.855469 131.664062 301.902344 132.007812 301.902344 C 132.757812 301.902344 133.3125 301.703125 133.679688 301.308594 C 134.054688 300.921875 134.242188 300.332031 134.242188 299.542969 L 134.242188 298.980469 C 134.011719 299.386719 133.710938 299.695312 133.335938 299.902344 C 132.96875 300.101562 132.53125 300.199219 132.023438 300.199219 C 131.167969 300.199219 130.480469 299.878906 129.960938 299.230469 C 129.4375 298.574219 129.179688 297.714844 129.179688 296.652344 C 129.179688 295.570312 129.4375 294.707031 129.960938 294.058594 C 130.480469 293.414062 131.167969 293.089844 132.023438 293.089844 C 132.53125 293.089844 132.96875 293.195312 133.335938 293.402344 C 133.710938 293.601562 134.011719 293.902344 134.242188 294.308594 L 134.242188 293.246094 L 135.382812 293.246094 Z M 143.683594 296.433594 L 143.683594 296.996094 L 138.433594 296.996094 C 138.484375 297.789062 138.71875 298.394531 139.136719 298.808594 C 139.5625 299.214844 140.15625 299.417969 140.917969 299.417969 C 141.355469 299.417969 141.777344 299.367188 142.183594 299.261719 C 142.597656 299.148438 143.011719 298.980469 143.417969 298.761719 L 143.417969 299.839844 C 143.011719 300.019531 142.589844 300.152344 142.152344 300.246094 C 141.722656 300.339844 141.285156 300.386719 140.839844 300.386719 C 139.734375 300.386719 138.859375 300.066406 138.214844 299.417969 C 137.566406 298.773438 137.246094 297.898438 137.246094 296.792969 C 137.246094 295.660156 137.550781 294.757812 138.167969 294.089844 C 138.78125 293.425781 139.609375 293.089844 140.652344 293.089844 C 141.589844 293.089844 142.328125 293.394531 142.871094 293.996094 C 143.410156 294.589844 143.683594 295.402344 143.683594 296.433594 Z M 142.542969 296.105469 C 142.53125 295.480469 142.355469 294.988281 142.011719 294.621094 C 141.675781 294.246094 141.230469 294.058594 140.667969 294.058594 C 140.019531 294.058594 139.503906 294.242188 139.121094 294.605469 C 138.746094 294.960938 138.527344 295.460938 138.464844 296.105469 Z M 148.722656 296.714844 C 147.792969 296.714844 147.152344 296.820312 146.800781 297.027344 C 146.445312 297.238281 146.269531 297.597656 146.269531 298.105469 C 146.269531 298.511719 146.398438 298.835938 146.660156 299.074219 C 146.929688 299.304688 147.292969 299.417969 147.753906 299.417969 C 148.386719 299.417969 148.894531 299.195312 149.269531 298.746094 C 149.652344 298.300781 149.847656 297.707031 149.847656 296.964844 L 149.847656 296.714844 Z M 150.988281 296.230469 L 150.988281 300.199219 L 149.847656 300.199219 L 149.847656 299.152344 C 149.585938 299.570312 149.261719 299.882812 148.878906 300.089844 C 148.492188 300.285156 148.019531 300.386719 147.457031 300.386719 C 146.738281 300.386719 146.167969 300.191406 145.753906 299.792969 C 145.335938 299.386719 145.128906 298.851562 145.128906 298.183594 C 145.128906 297.402344 145.386719 296.816406 145.910156 296.417969 C 146.429688 296.011719 147.210938 295.808594 148.253906 295.808594 L 149.847656 295.808594 L 149.847656 295.699219 C 149.847656 295.179688 149.675781 294.777344 149.332031 294.496094 C 148.988281 294.207031 148.503906 294.058594 147.878906 294.058594 C 147.480469 294.058594 147.097656 294.105469 146.722656 294.199219 C 146.347656 294.292969 145.980469 294.433594 145.628906 294.621094 L 145.628906 293.574219 C 146.042969 293.410156 146.449219 293.289062 146.847656 293.214844 C 147.242188 293.132812 147.628906 293.089844 148.003906 293.089844 C 149.003906 293.089844 149.746094 293.351562 150.238281 293.871094 C 150.738281 294.394531 150.988281 295.179688 150.988281 296.230469 Z M 158.335938 296.730469 C 158.335938 295.898438 158.15625 295.242188 157.804688 294.761719 C 157.460938 294.285156 156.992188 294.042969 156.398438 294.042969 C 155.792969 294.042969 155.3125 294.285156 154.960938 294.761719 C 154.617188 295.242188 154.445312 295.898438 154.445312 296.730469 C 154.445312 297.574219 154.617188 298.238281 154.960938 298.714844 C 155.3125 299.183594 155.792969 299.417969 156.398438 299.417969 C 156.992188 299.417969 157.460938 299.183594 157.804688 298.714844 C 158.15625 298.238281 158.335938 297.574219 158.335938 296.730469 Z M 154.445312 294.308594 C 154.683594 293.894531 154.984375 293.585938 155.351562 293.386719 C 155.726562 293.191406 156.164062 293.089844 156.664062 293.089844 C 157.507812 293.089844 158.195312 293.425781 158.726562 294.089844 C 159.257812 294.757812 159.523438 295.636719 159.523438 296.730469 C 159.523438 297.824219 159.257812 298.710938 158.726562 299.386719 C 158.195312 300.054688 157.507812 300.386719 156.664062 300.386719 C 156.164062 300.386719 155.726562 300.285156 155.351562 300.089844 C 154.984375 299.882812 154.683594 299.570312 154.445312 299.152344 L 154.445312 300.199219 L 153.304688 300.199219 L 153.304688 290.542969 L 154.445312 290.542969 Z M 161.421875 290.542969 L 162.5625 290.542969 L 162.5625 300.199219 L 161.421875 300.199219 Z M 170.886719 296.433594 L 170.886719 296.996094 L 165.636719 296.996094 C 165.6875 297.789062 165.921875 298.394531 166.339844 298.808594 C 166.765625 299.214844 167.359375 299.417969 168.121094 299.417969 C 168.558594 299.417969 168.980469 299.367188 169.386719 299.261719 C 169.800781 299.148438 170.214844 298.980469 170.621094 298.761719 L 170.621094 299.839844 C 170.214844 300.019531 169.792969 300.152344 169.355469 300.246094 C 168.925781 300.339844 168.488281 300.386719 168.042969 300.386719 C 166.9375 300.386719 166.0625 300.066406 165.417969 299.417969 C 164.769531 298.773438 164.449219 297.898438 164.449219 296.792969 C 164.449219 295.660156 164.753906 294.757812 165.371094 294.089844 C 165.984375 293.425781 166.8125 293.089844 167.855469 293.089844 C 168.792969 293.089844 169.53125 293.394531 170.074219 293.996094 C 170.613281 294.589844 170.886719 295.402344 170.886719 296.433594 Z M 169.746094 296.105469 C 169.734375 295.480469 169.558594 294.988281 169.214844 294.621094 C 168.878906 294.246094 168.433594 294.058594 167.871094 294.058594 C 167.222656 294.058594 166.707031 294.242188 166.324219 294.605469 C 165.949219 294.960938 165.730469 295.460938 165.667969 296.105469 Z M 172.582031 290.558594 L 173.582031 290.558594 C 174.195312 291.539062 174.652344 292.496094 174.957031 293.433594 C 175.269531 294.363281 175.425781 295.289062 175.425781 296.214844 C 175.425781 297.144531 175.269531 298.074219 174.957031 299.011719 C 174.652344 299.949219 174.195312 300.902344 173.582031 301.871094 L 172.582031 301.871094 C 173.132812 300.921875 173.542969 299.980469 173.816406 299.042969 C 174.085938 298.105469 174.222656 297.164062 174.222656 296.214844 C 174.222656 295.257812 174.085938 294.316406 173.816406 293.386719 C 173.542969 292.449219 173.132812 291.507812 172.582031 290.558594 Z M 176.523438 300.199219 "/>
<path style=" stroke:none;fill-rule:evenodd;fill:rgb(100%,0%,0%);fill-opacity:1;" d="M 272.425781 193.949219 L 273.285156 193.089844 L 278.957031 195.699219 L 276.363281 190.011719 L 277.207031 189.167969 L 280.285156 195.933594 L 279.191406 197.027344 Z M 284.789062 186.117188 L 285.179688 186.507812 L 281.476562 190.210938 C 282.070312 190.742188 282.65625 191.007812 283.242188 191.007812 C 283.835938 191 284.402344 190.722656 284.945312 190.179688 C 285.257812 189.867188 285.515625 189.53125 285.726562 189.164062 C 285.945312 188.789062 286.117188 188.382812 286.242188 187.945312 L 287.007812 188.710938 C 286.851562 189.117188 286.648438 189.507812 286.398438 189.882812 C 286.15625 190.25 285.875 190.59375 285.554688 190.914062 C 284.773438 191.695312 283.929688 192.085938 283.023438 192.085938 C 282.117188 192.085938 281.273438 191.695312 280.492188 190.914062 C 279.691406 190.113281 279.269531 189.257812 279.226562 188.351562 C 279.1875 187.445312 279.535156 186.625 280.273438 185.882812 C 280.941406 185.21875 281.675781 184.910156 282.476562 184.960938 C 283.289062 185.003906 284.058594 185.390625 284.789062 186.117188 Z M 283.757812 186.679688 C 283.296875 186.242188 282.820312 186.015625 282.320312 185.992188 C 281.820312 185.972656 281.375 186.160156 280.976562 186.554688 C 280.519531 187.015625 280.285156 187.507812 280.273438 188.039062 C 280.253906 188.5625 280.453125 189.070312 280.867188 189.570312 Z M 281.945312 180.617188 L 282.757812 179.804688 L 289.585938 186.632812 L 288.773438 187.445312 Z M 288.832031 178.699219 C 288.394531 179.136719 288.21875 179.648438 288.300781 180.230469 C 288.386719 180.816406 288.722656 181.402344 289.316406 181.996094 C 289.910156 182.589844 290.496094 182.933594 291.082031 183.027344 C 291.675781 183.113281 292.191406 182.933594 292.628906 182.496094 C 293.054688 182.070312 293.222656 181.558594 293.128906 180.964844 C 293.042969 180.363281 292.710938 179.769531 292.128906 179.183594 C 291.542969 178.601562 290.957031 178.269531 290.363281 178.183594 C 289.769531 178.101562 289.261719 178.273438 288.832031 178.699219 Z M 288.144531 178.011719 C 288.84375 177.316406 289.621094 176.996094 290.472656 177.058594 C 291.335938 177.113281 292.167969 177.539062 292.972656 178.339844 C 293.773438 179.144531 294.199219 179.976562 294.253906 180.839844 C 294.316406 181.695312 293.996094 182.472656 293.300781 183.167969 C 292.589844 183.878906 291.808594 184.199219 290.957031 184.136719 C 290.105469 184.074219 289.277344 183.644531 288.472656 182.839844 C 287.671875 182.039062 287.238281 181.210938 287.175781 180.355469 C 287.113281 179.503906 287.4375 178.722656 288.144531 178.011719 Z M 295.582031 171.167969 L 296.347656 171.933594 C 295.992188 172.039062 295.671875 172.179688 295.378906 172.355469 C 295.078125 172.523438 294.8125 172.722656 294.582031 172.949219 C 294.050781 173.480469 293.8125 174.058594 293.863281 174.683594 C 293.90625 175.300781 294.222656 175.902344 294.816406 176.496094 C 295.410156 177.089844 296.019531 177.414062 296.644531 177.464844 C 297.269531 177.519531 297.847656 177.277344 298.378906 176.746094 C 298.605469 176.519531 298.804688 176.257812 298.972656 175.964844 C 299.148438 175.664062 299.285156 175.332031 299.378906 174.964844 L 300.128906 175.714844 C 300.003906 176.050781 299.847656 176.363281 299.660156 176.652344 C 299.472656 176.945312 299.242188 177.226562 298.972656 177.496094 C 298.222656 178.246094 297.398438 178.605469 296.503906 178.574219 C 295.609375 178.542969 294.765625 178.132812 293.972656 177.339844 C 293.171875 176.539062 292.761719 175.691406 292.738281 174.792969 C 292.71875 173.898438 293.09375 173.066406 293.863281 172.292969 C 294.113281 172.042969 294.386719 171.832031 294.675781 171.652344 C 294.957031 171.464844 295.261719 171.304688 295.582031 171.167969 Z M 296.785156 169.589844 L 297.597656 168.777344 L 302.519531 173.699219 L 301.707031 174.511719 Z M 294.878906 167.683594 L 295.691406 166.871094 L 296.722656 167.902344 L 295.910156 168.714844 Z M 298.691406 164.902344 L 300.082031 166.292969 L 301.738281 164.636719 L 302.378906 165.277344 L 300.722656 166.933594 L 303.394531 169.605469 C 303.789062 170.003906 304.101562 170.199219 304.332031 170.199219 C 304.558594 170.199219 304.835938 170.039062 305.160156 169.714844 L 305.988281 168.886719 L 306.660156 169.558594 L 305.832031 170.386719 C 305.214844 171.003906 304.667969 171.316406 304.191406 171.324219 C 303.722656 171.324219 303.1875 171.023438 302.582031 170.417969 L 299.910156 167.746094 L 299.332031 168.324219 L 298.691406 167.683594 L 299.269531 167.105469 L 297.878906 165.714844 Z M 310.230469 166.894531 C 310.59375 167.71875 310.753906 168.324219 310.714844 168.707031 C 310.671875 169.09375 310.46875 169.464844 310.105469 169.832031 L 309.449219 170.488281 L 308.777344 169.816406 L 309.261719 169.332031 C 309.480469 169.113281 309.597656 168.890625 309.621094 168.660156 C 309.640625 168.433594 309.527344 168.046875 309.277344 167.503906 L 309.058594 167.003906 L 302.230469 164.144531 L 303.089844 163.285156 L 308.464844 165.597656 L 306.167969 160.207031 L 307.011719 159.363281 Z M 312.203125 164.015625 "/>
</g>
</svg>
