<?xml version="1.0" encoding="UTF-8"?>
<svg xmlns="http://www.w3.org/2000/svg" xmlns:xlink="http://www.w3.org/1999/xlink" width="552.755906pt" height="162.673736pt" viewBox="0 0 552.755906 162.673736" version="1.1">
<g id="surface1">
<path style="fill:none;stroke-width:1.016711;stroke-linecap:butt;stroke-linejoin:miter;stroke:rgb(0%,0%,0%);stroke-opacity:1;stroke-dasharray:5.083554;stroke-miterlimit:10;" d="M 116.484375 91.035156 L 288.050781 91.035156 "/>
<path style="fill-rule:evenodd;fill:rgb(75%,75%,75%);fill-opacity:1;stroke-width:2.033422;stroke-linecap:round;stroke-linejoin:round;stroke:rgb(0%,0%,0%);stroke-opacity:1;stroke-miterlimit:10;" d="M 313.46875 141.871094 L 262.632812 141.871094 L 262.632812 40.199219 L 313.46875 40.199219 Z M 313.46875 141.871094 "/>
<path style="fill:none;stroke-width:2.033422;stroke-linecap:butt;stroke-linejoin:miter;stroke:rgb(0%,0%,0%);stroke-opacity:1;stroke-miterlimit:10;" d="M 262.632812 107.980469 L 313.46875 107.980469 "/>
<path style="fill:none;stroke-width:2.033422;stroke-linecap:butt;stroke-linejoin:miter;stroke:rgb(0%,0%,0%);stroke-opacity:1;stroke-miterlimit:10;" d="M 262.632812 74.089844 L 313.46875 74.089844 "/>
<path style="fill:none;stroke-width:2.033422;stroke-linecap:butt;stroke-linejoin:miter;stroke:rgb(0%,0%,0%);stroke-opacity:1;stroke-miterlimit:10;" d="M 279.578125 141.871094 L 279.578125 40.199219 "/>
<path style="fill:none;stroke-width:2.033422;stroke-linecap:butt;stroke-linejoin:miter;stroke:rgb(0%,0%,0%);stroke-opacity:1;stroke-miterlimit:10;" d="M 296.523438 141.871094 L 296.523438 40.199219 "/>
<path style=" stroke:none;fill-rule:evenodd;fill:rgb(0%,0%,0%);fill-opacity:1;" d="M 265.683594 141.871094 C 265.683594 137.804688 259.582031 137.804688 259.582031 141.871094 C 259.582031 145.9375 265.683594 145.9375 265.683594 141.871094 "/>
<path style=" stroke:none;fill-rule:evenodd;fill:rgb(100%,0%,0%);fill-opacity:1;" d="M 265.683594 91.035156 C 265.683594 86.96875 259.582031 86.96875 259.582031 91.035156 C 259.582031 95.101562 265.683594 95.101562 265.683594 91.035156 "/>
<path style=" stroke:none;fill-rule:evenodd;fill:rgb(0%,0%,0%);fill-opacity:1;" d="M 265.683594 40.199219 C 265.683594 36.132812 259.582031 36.132812 259.582031 40.199219 C 259.582031 44.265625 265.683594 44.265625 265.683594 40.199219 "/>
<path style=" stroke:none;fill-rule:evenodd;fill:rgb(0%,0%,0%);fill-opacity:1;" d="M 316.519531 141.871094 C 316.519531 137.804688 310.417969 137.804688 310.417969 141.871094 C 310.417969 145.9375 316.519531 145.9375 316.519531 141.871094 "/>
<path style=" stroke:none;fill-rule:evenodd;fill:rgb(0%,0%,0%);fill-opacity:1;" d="M 316.519531 91.035156 C 316.519531 86.96875 310.417969 86.96875 310.417969 91.035156 C 310.417969 95.101562 316.519531 95.101562 316.519531 91.035156 "/>
<path style=" stroke:none;fill-rule:evenodd;fill:rgb(0%,0%,0%);fill-opacity:1;" d="M 316.519531 40.199219 C 316.519531 36.132812 310.417969 36.132812 310.417969 40.199219 C 310.417969 44.265625 316.519531 44.265625 316.519531 40.199219 "/>
<path style="fill:none;stroke-width:2.541777;stroke-linecap:butt;stroke-linejoin:miter;stroke:rgb(100%,0%,0%);stroke-opacity:1;stroke-miterlimit:10;" d="M 288.050781 28.535156 L 348.246094 28.535156 "/>
<path style=" stroke:none;fill-rule:evenodd;fill:rgb(100%,0%,0%);fill-opacity:1;" d="M 357.304688 28.535156 L 347.769531 33.300781 L 347.769531 23.769531 Z M 357.304688 28.535156 "/>
<path style=" stroke:none;fill-rule:evenodd;fill:rgb(100%,0%,0%);fill-opacity:1;" d="M 291.101562 28.535156 C 291.101562 24.46875 285 24.46875 285 28.535156 C 285 32.601562 291.101562 32.601562 291.101562 28.535156 "/>
<path style="fill:none;stroke-width:4.066843;stroke-linecap:butt;stroke-linejoin:miter;stroke:rgb(100%,0%,0%);stroke-opacity:1;stroke-miterlimit:10;" d="M 308.382812 96.117188 L 318.550781 85.953125 "/>
<path style="fill:none;stroke-width:4.066843;stroke-linecap:butt;stroke-linejoin:miter;stroke:rgb(100%,0%,0%);stroke-opacity:1;stroke-miterlimit:10;" d="M 308.382812 85.953125 L 318.550781 96.117188 "/>
<path style="fill-rule:evenodd;fill:rgb(100%,40%,0%);fill-opacity:0.3;stroke-width:1.016711;stroke-linecap:butt;stroke-linejoin:miter;stroke:rgb(100%,40%,0%);stroke-opacity:0.6;stroke-dasharray:4.066843;stroke-miterlimit:10;" d="M 333.144531 91.035156 C 333.144531 80.167969 324.335938 71.359375 313.46875 71.359375 C 302.601562 71.359375 293.792969 80.167969 293.792969 91.035156 C 293.792969 101.902344 302.601562 110.710938 313.46875 110.710938 C 324.335938 110.710938 333.144531 101.902344 333.144531 91.035156 "/>
<path style="fill:none;stroke-width:12.20053;stroke-linecap:round;stroke-linejoin:miter;stroke:rgb(100%,100%,100%);stroke-opacity:0.4;stroke-miterlimit:10;" d="M 327.703125 91.089844 L 372.4375 91.089844 "/>
<path style=" stroke:none;fill-rule:evenodd;fill:rgb(100%,0%,0%);fill-opacity:1;" d="M 328.878906 88.097656 L 328.878906 89.175781 C 328.554688 89 328.226562 88.871094 327.894531 88.785156 C 327.570312 88.691406 327.246094 88.644531 326.925781 88.644531 C 326.175781 88.644531 325.597656 88.878906 325.191406 89.347656 C 324.785156 89.816406 324.582031 90.472656 324.582031 91.316406 C 324.582031 92.160156 324.785156 92.824219 325.191406 93.300781 C 325.597656 93.769531 326.175781 94.003906 326.925781 94.003906 C 327.246094 94.003906 327.570312 93.964844 327.894531 93.878906 C 328.226562 93.785156 328.554688 93.644531 328.878906 93.457031 L 328.878906 94.519531 C 328.554688 94.667969 328.222656 94.777344 327.878906 94.847656 C 327.542969 94.929688 327.183594 94.972656 326.800781 94.972656 C 325.746094 94.972656 324.914062 94.644531 324.300781 93.988281 C 323.683594 93.324219 323.378906 92.433594 323.378906 91.316406 C 323.378906 90.183594 323.683594 89.292969 324.300781 88.644531 C 324.925781 88 325.777344 87.675781 326.863281 87.675781 C 327.214844 87.675781 327.558594 87.714844 327.894531 87.785156 C 328.226562 87.859375 328.554688 87.964844 328.878906 88.097656 Z M 333.554688 88.644531 C 332.9375 88.644531 332.453125 88.886719 332.101562 89.363281 C 331.746094 89.832031 331.570312 90.484375 331.570312 91.316406 C 331.570312 92.152344 331.746094 92.808594 332.101562 93.285156 C 332.453125 93.765625 332.9375 94.003906 333.554688 94.003906 C 334.15625 94.003906 334.636719 93.765625 334.992188 93.285156 C 335.355469 92.796875 335.539062 92.140625 335.539062 91.316406 C 335.539062 90.496094 335.355469 89.84375 334.992188 89.363281 C 334.636719 88.886719 334.15625 88.644531 333.554688 88.644531 Z M 333.554688 87.675781 C 334.542969 87.675781 335.320312 88 335.882812 88.644531 C 336.453125 89.292969 336.742188 90.183594 336.742188 91.316406 C 336.742188 92.453125 336.453125 93.347656 335.882812 94.003906 C 335.320312 94.652344 334.542969 94.972656 333.554688 94.972656 C 332.554688 94.972656 331.773438 94.652344 331.210938 94.003906 C 330.648438 93.347656 330.367188 92.453125 330.367188 91.316406 C 330.367188 90.183594 330.648438 89.292969 331.210938 88.644531 C 331.773438 88 332.554688 87.675781 333.554688 87.675781 Z M 338.640625 85.128906 L 339.78125 85.128906 L 339.78125 94.785156 L 338.640625 94.785156 Z M 342.171875 85.128906 L 343.3125 85.128906 L 343.3125 94.785156 L 342.171875 94.785156 Z M 345.703125 87.832031 L 346.84375 87.832031 L 346.84375 94.785156 L 345.703125 94.785156 Z M 345.703125 85.128906 L 346.84375 85.128906 L 346.84375 86.582031 L 345.703125 86.582031 Z M 353.65625 88.035156 L 353.65625 89.128906 C 353.332031 88.964844 352.992188 88.839844 352.640625 88.753906 C 352.296875 88.671875 351.941406 88.628906 351.578125 88.628906 C 351.003906 88.628906 350.578125 88.71875 350.296875 88.894531 C 350.015625 89.0625 349.875 89.316406 349.875 89.660156 C 349.875 89.933594 349.972656 90.144531 350.171875 90.300781 C 350.378906 90.449219 350.789062 90.589844 351.40625 90.722656 L 351.796875 90.816406 C 352.597656 90.984375 353.171875 91.230469 353.515625 91.550781 C 353.859375 91.863281 354.03125 92.300781 354.03125 92.863281 C 354.03125 93.511719 353.773438 94.027344 353.265625 94.410156 C 352.753906 94.785156 352.050781 94.972656 351.15625 94.972656 C 350.78125 94.972656 350.390625 94.933594 349.984375 94.863281 C 349.585938 94.789062 349.164062 94.683594 348.71875 94.535156 L 348.71875 93.347656 C 349.144531 93.566406 349.5625 93.734375 349.96875 93.847656 C 350.375 93.953125 350.78125 94.003906 351.1875 94.003906 C 351.71875 94.003906 352.128906 93.917969 352.421875 93.738281 C 352.710938 93.550781 352.859375 93.292969 352.859375 92.957031 C 352.859375 92.644531 352.753906 92.40625 352.546875 92.238281 C 352.335938 92.074219 351.878906 91.917969 351.171875 91.769531 L 350.765625 91.675781 C 350.066406 91.519531 349.554688 91.292969 349.234375 90.988281 C 348.921875 90.675781 348.765625 90.253906 348.765625 89.722656 C 348.765625 89.066406 348.992188 88.5625 349.453125 88.207031 C 349.921875 87.855469 350.582031 87.675781 351.4375 87.675781 C 351.851562 87.675781 352.25 87.707031 352.625 87.769531 C 353 87.832031 353.34375 87.921875 353.65625 88.035156 Z M 355.855469 87.832031 L 356.996094 87.832031 L 356.996094 94.785156 L 355.855469 94.785156 Z M 355.855469 85.128906 L 356.996094 85.128906 L 356.996094 86.582031 L 355.855469 86.582031 Z M 362.074219 88.644531 C 361.457031 88.644531 360.972656 88.886719 360.621094 89.363281 C 360.265625 89.832031 360.089844 90.484375 360.089844 91.316406 C 360.089844 92.152344 360.265625 92.808594 360.621094 93.285156 C 360.972656 93.765625 361.457031 94.003906 362.074219 94.003906 C 362.675781 94.003906 363.15625 93.765625 363.511719 93.285156 C 363.875 92.796875 364.058594 92.140625 364.058594 91.316406 C 364.058594 90.496094 363.875 89.84375 363.511719 89.363281 C 363.15625 88.886719 362.675781 88.644531 362.074219 88.644531 Z M 362.074219 87.675781 C 363.0625 87.675781 363.839844 88 364.402344 88.644531 C 364.972656 89.292969 365.261719 90.183594 365.261719 91.316406 C 365.261719 92.453125 364.972656 93.347656 364.402344 94.003906 C 363.839844 94.652344 363.0625 94.972656 362.074219 94.972656 C 361.074219 94.972656 360.292969 94.652344 359.730469 94.003906 C 359.167969 93.347656 358.886719 92.453125 358.886719 91.316406 C 358.886719 90.183594 359.167969 89.292969 359.730469 88.644531 C 360.292969 88 361.074219 87.675781 362.074219 87.675781 Z M 372.929688 90.597656 L 372.929688 94.785156 L 371.789062 94.785156 L 371.789062 90.628906 C 371.789062 89.972656 371.65625 89.484375 371.398438 89.160156 C 371.148438 88.828125 370.765625 88.660156 370.257812 88.660156 C 369.640625 88.660156 369.152344 88.859375 368.789062 89.253906 C 368.433594 89.652344 368.257812 90.1875 368.257812 90.863281 L 368.257812 94.785156 L 367.117188 94.785156 L 367.117188 87.832031 L 368.257812 87.832031 L 368.257812 88.910156 C 368.527344 88.496094 368.851562 88.1875 369.226562 87.988281 C 369.601562 87.78125 370.027344 87.675781 370.507812 87.675781 C 371.308594 87.675781 371.914062 87.925781 372.320312 88.425781 C 372.726562 88.917969 372.929688 89.640625 372.929688 90.597656 Z M 374.015625 94.785156 "/>
<path style=" stroke:none;fill-rule:evenodd;fill:rgb(100%,0%,0%);fill-opacity:1;" d="M 298.21875 16.484375 L 299.4375 16.484375 L 301.609375 22.328125 L 303.78125 16.484375 L 304.984375 16.484375 L 302.375 23.4375 L 300.828125 23.4375 Z M 312.503906 19.671875 L 312.503906 20.234375 L 307.253906 20.234375 C 307.304688 21.027344 307.539062 21.632812 307.957031 22.046875 C 308.382812 22.453125 308.976562 22.65625 309.738281 22.65625 C 310.175781 22.65625 310.597656 22.605469 311.003906 22.5 C 311.417969 22.386719 311.832031 22.21875 312.238281 22 L 312.238281 23.078125 C 311.832031 23.257812 311.410156 23.390625 310.972656 23.484375 C 310.542969 23.578125 310.105469 23.625 309.660156 23.625 C 308.554688 23.625 307.679688 23.304688 307.035156 22.65625 C 306.386719 22.011719 306.066406 21.136719 306.066406 20.03125 C 306.066406 18.898438 306.371094 17.996094 306.988281 17.328125 C 307.601562 16.664062 308.429688 16.328125 309.472656 16.328125 C 310.410156 16.328125 311.148438 16.632812 311.691406 17.234375 C 312.230469 17.828125 312.503906 18.640625 312.503906 19.671875 Z M 311.363281 19.34375 C 311.351562 18.71875 311.175781 18.226562 310.832031 17.859375 C 310.496094 17.484375 310.050781 17.296875 309.488281 17.296875 C 308.839844 17.296875 308.324219 17.480469 307.941406 17.84375 C 307.566406 18.199219 307.347656 18.699219 307.285156 19.34375 Z M 314.386719 13.78125 L 315.527344 13.78125 L 315.527344 23.4375 L 314.386719 23.4375 Z M 320.605469 17.296875 C 319.988281 17.296875 319.503906 17.539062 319.152344 18.015625 C 318.796875 18.484375 318.621094 19.136719 318.621094 19.96875 C 318.621094 20.804688 318.796875 21.460938 319.152344 21.9375 C 319.503906 22.417969 319.988281 22.65625 320.605469 22.65625 C 321.207031 22.65625 321.6875 22.417969 322.042969 21.9375 C 322.40625 21.449219 322.589844 20.792969 322.589844 19.96875 C 322.589844 19.148438 322.40625 18.496094 322.042969 18.015625 C 321.6875 17.539062 321.207031 17.296875 320.605469 17.296875 Z M 320.605469 16.328125 C 321.59375 16.328125 322.371094 16.652344 322.933594 17.296875 C 323.503906 17.945312 323.792969 18.835938 323.792969 19.96875 C 323.792969 21.105469 323.503906 22 322.933594 22.65625 C 322.371094 23.304688 321.59375 23.625 320.605469 23.625 C 319.605469 23.625 318.824219 23.304688 318.261719 22.65625 C 317.699219 22 317.417969 21.105469 317.417969 19.96875 C 317.417969 18.835938 317.699219 17.945312 318.261719 17.296875 C 318.824219 16.652344 319.605469 16.328125 320.605469 16.328125 Z M 330.691406 16.75 L 330.691406 17.828125 C 330.367188 17.652344 330.039062 17.523438 329.707031 17.4375 C 329.382812 17.34375 329.058594 17.296875 328.738281 17.296875 C 327.988281 17.296875 327.410156 17.53125 327.003906 18 C 326.597656 18.46875 326.394531 19.125 326.394531 19.96875 C 326.394531 20.8125 326.597656 21.476562 327.003906 21.953125 C 327.410156 22.421875 327.988281 22.65625 328.738281 22.65625 C 329.058594 22.65625 329.382812 22.617188 329.707031 22.53125 C 330.039062 22.4375 330.367188 22.296875 330.691406 22.109375 L 330.691406 23.171875 C 330.367188 23.320312 330.035156 23.429688 329.691406 23.5 C 329.355469 23.582031 328.996094 23.625 328.613281 23.625 C 327.558594 23.625 326.726562 23.296875 326.113281 22.640625 C 325.496094 21.976562 325.191406 21.085938 325.191406 19.96875 C 325.191406 18.835938 325.496094 17.945312 326.113281 17.296875 C 326.738281 16.652344 327.589844 16.328125 328.675781 16.328125 C 329.027344 16.328125 329.371094 16.367188 329.707031 16.4375 C 330.039062 16.511719 330.367188 16.617188 330.691406 16.75 Z M 332.679688 16.484375 L 333.820312 16.484375 L 333.820312 23.4375 L 332.679688 23.4375 Z M 332.679688 13.78125 L 333.820312 13.78125 L 333.820312 15.234375 L 332.679688 15.234375 Z M 337.335938 14.515625 L 337.335938 16.484375 L 339.679688 16.484375 L 339.679688 17.375 L 337.335938 17.375 L 337.335938 21.15625 C 337.335938 21.71875 337.414062 22.085938 337.570312 22.25 C 337.726562 22.40625 338.039062 22.484375 338.507812 22.484375 L 339.679688 22.484375 L 339.679688 23.4375 L 338.507812 23.4375 C 337.632812 23.4375 337.023438 23.277344 336.679688 22.953125 C 336.34375 22.621094 336.179688 22.023438 336.179688 21.15625 L 336.179688 17.375 L 335.351562 17.375 L 335.351562 16.484375 L 336.179688 16.484375 L 336.179688 14.515625 Z M 344.085938 24.078125 C 343.761719 24.910156 343.445312 25.453125 343.132812 25.703125 C 342.828125 25.953125 342.421875 26.078125 341.914062 26.078125 L 340.992188 26.078125 L 340.992188 25.125 L 341.664062 25.125 C 341.976562 25.125 342.21875 25.046875 342.398438 24.890625 C 342.574219 24.742188 342.765625 24.394531 342.976562 23.84375 L 343.179688 23.328125 L 340.367188 16.484375 L 341.585938 16.484375 L 343.757812 21.921875 L 345.929688 16.484375 L 347.132812 16.484375 Z M 347.511719 23.4375 "/>
<path style="fill:none;stroke-width:1.016711;stroke-linecap:butt;stroke-linejoin:miter;stroke:rgb(100%,0%,0%);stroke-opacity:1;stroke-miterlimit:10;" d="M 262.632812 91.035156 L 247.355469 67.609375 "/>
<path style=" stroke:none;fill-rule:evenodd;fill:rgb(100%,0%,0%);fill-opacity:1;" d="M 180.917969 60.546875 L 180.917969 56.78125 L 182.058594 56.78125 L 182.058594 66.4375 L 180.917969 66.4375 L 180.917969 65.390625 C 180.675781 65.808594 180.375 66.121094 180.011719 66.328125 C 179.644531 66.523438 179.207031 66.625 178.699219 66.625 C 177.855469 66.625 177.167969 66.292969 176.636719 65.625 C 176.113281 64.949219 175.855469 64.0625 175.855469 62.96875 C 175.855469 61.875 176.113281 60.996094 176.636719 60.328125 C 177.167969 59.664062 177.855469 59.328125 178.699219 59.328125 C 179.207031 59.328125 179.644531 59.429688 180.011719 59.625 C 180.375 59.824219 180.675781 60.132812 180.917969 60.546875 Z M 177.027344 62.96875 C 177.027344 63.8125 177.199219 64.476562 177.542969 64.953125 C 177.894531 65.421875 178.375 65.65625 178.980469 65.65625 C 179.574219 65.65625 180.042969 65.421875 180.386719 64.953125 C 180.738281 64.476562 180.917969 63.8125 180.917969 62.96875 C 180.917969 62.136719 180.738281 61.480469 180.386719 61 C 180.042969 60.523438 179.574219 60.28125 178.980469 60.28125 C 178.375 60.28125 177.894531 60.523438 177.542969 61 C 177.199219 61.480469 177.027344 62.136719 177.027344 62.96875 Z M 190.359375 62.671875 L 190.359375 63.234375 L 185.109375 63.234375 C 185.160156 64.027344 185.394531 64.632812 185.8125 65.046875 C 186.238281 65.453125 186.832031 65.65625 187.59375 65.65625 C 188.03125 65.65625 188.453125 65.605469 188.859375 65.5 C 189.273438 65.386719 189.6875 65.21875 190.09375 65 L 190.09375 66.078125 C 189.6875 66.257812 189.265625 66.390625 188.828125 66.484375 C 188.398438 66.578125 187.960938 66.625 187.515625 66.625 C 186.410156 66.625 185.535156 66.304688 184.890625 65.65625 C 184.242188 65.011719 183.921875 64.136719 183.921875 63.03125 C 183.921875 61.898438 184.226562 60.996094 184.84375 60.328125 C 185.457031 59.664062 186.285156 59.328125 187.328125 59.328125 C 188.265625 59.328125 189.003906 59.632812 189.546875 60.234375 C 190.085938 60.828125 190.359375 61.640625 190.359375 62.671875 Z M 189.21875 62.34375 C 189.207031 61.71875 189.03125 61.226562 188.6875 60.859375 C 188.351562 60.484375 187.90625 60.296875 187.34375 60.296875 C 186.695312 60.296875 186.179688 60.480469 185.796875 60.84375 C 185.421875 61.199219 185.203125 61.699219 185.140625 62.34375 Z M 196.664062 59.6875 L 196.664062 60.78125 C 196.339844 60.617188 196 60.492188 195.648438 60.40625 C 195.304688 60.324219 194.949219 60.28125 194.585938 60.28125 C 194.011719 60.28125 193.585938 60.371094 193.304688 60.546875 C 193.023438 60.714844 192.882812 60.96875 192.882812 61.3125 C 192.882812 61.585938 192.980469 61.796875 193.179688 61.953125 C 193.386719 62.101562 193.796875 62.242188 194.414062 62.375 L 194.804688 62.46875 C 195.605469 62.636719 196.179688 62.882812 196.523438 63.203125 C 196.867188 63.515625 197.039062 63.953125 197.039062 64.515625 C 197.039062 65.164062 196.78125 65.679688 196.273438 66.0625 C 195.761719 66.4375 195.058594 66.625 194.164062 66.625 C 193.789062 66.625 193.398438 66.585938 192.992188 66.515625 C 192.59375 66.441406 192.171875 66.335938 191.726562 66.1875 L 191.726562 65 C 192.152344 65.21875 192.570312 65.386719 192.976562 65.5 C 193.382812 65.605469 193.789062 65.65625 194.195312 65.65625 C 194.726562 65.65625 195.136719 65.570312 195.429688 65.390625 C 195.71875 65.203125 195.867188 64.945312 195.867188 64.609375 C 195.867188 64.296875 195.761719 64.058594 195.554688 63.890625 C 195.34375 63.726562 194.886719 63.570312 194.179688 63.421875 L 193.773438 63.328125 C 193.074219 63.171875 192.5625 62.945312 192.242188 62.640625 C 191.929688 62.328125 191.773438 61.90625 191.773438 61.375 C 191.773438 60.71875 192 60.214844 192.460938 59.859375 C 192.929688 59.507812 193.589844 59.328125 194.445312 59.328125 C 194.859375 59.328125 195.257812 59.359375 195.632812 59.421875 C 196.007812 59.484375 196.351562 59.574219 196.664062 59.6875 Z M 199.988281 57.515625 L 199.988281 59.484375 L 202.332031 59.484375 L 202.332031 60.375 L 199.988281 60.375 L 199.988281 64.15625 C 199.988281 64.71875 200.066406 65.085938 200.222656 65.25 C 200.378906 65.40625 200.691406 65.484375 201.160156 65.484375 L 202.332031 65.484375 L 202.332031 66.4375 L 201.160156 66.4375 C 200.285156 66.4375 199.675781 66.277344 199.332031 65.953125 C 198.996094 65.621094 198.832031 65.023438 198.832031 64.15625 L 198.832031 60.375 L 198.003906 60.375 L 198.003906 59.484375 L 198.832031 59.484375 L 198.832031 57.515625 Z M 203.847656 59.484375 L 204.988281 59.484375 L 204.988281 66.4375 L 203.847656 66.4375 Z M 203.847656 56.78125 L 204.988281 56.78125 L 204.988281 58.234375 L 203.847656 58.234375 Z M 213.140625 62.25 L 213.140625 66.4375 L 212 66.4375 L 212 62.28125 C 212 61.625 211.867188 61.136719 211.609375 60.8125 C 211.359375 60.480469 210.976562 60.3125 210.46875 60.3125 C 209.851562 60.3125 209.363281 60.511719 209 60.90625 C 208.644531 61.304688 208.46875 61.839844 208.46875 62.515625 L 208.46875 66.4375 L 207.328125 66.4375 L 207.328125 59.484375 L 208.46875 59.484375 L 208.46875 60.5625 C 208.738281 60.148438 209.0625 59.839844 209.4375 59.640625 C 209.8125 59.433594 210.238281 59.328125 210.71875 59.328125 C 211.519531 59.328125 212.125 59.578125 212.53125 60.078125 C 212.9375 60.570312 213.140625 61.292969 213.140625 62.25 Z M 218.585938 62.953125 C 217.65625 62.953125 217.015625 63.058594 216.664062 63.265625 C 216.308594 63.476562 216.132812 63.835938 216.132812 64.34375 C 216.132812 64.75 216.261719 65.074219 216.523438 65.3125 C 216.792969 65.542969 217.15625 65.65625 217.617188 65.65625 C 218.25 65.65625 218.757812 65.433594 219.132812 64.984375 C 219.515625 64.539062 219.710938 63.945312 219.710938 63.203125 L 219.710938 62.953125 Z M 220.851562 62.46875 L 220.851562 66.4375 L 219.710938 66.4375 L 219.710938 65.390625 C 219.449219 65.808594 219.125 66.121094 218.742188 66.328125 C 218.355469 66.523438 217.882812 66.625 217.320312 66.625 C 216.601562 66.625 216.03125 66.429688 215.617188 66.03125 C 215.199219 65.625 214.992188 65.089844 214.992188 64.421875 C 214.992188 63.640625 215.25 63.054688 215.773438 62.65625 C 216.292969 62.25 217.074219 62.046875 218.117188 62.046875 L 219.710938 62.046875 L 219.710938 61.9375 C 219.710938 61.417969 219.539062 61.015625 219.195312 60.734375 C 218.851562 60.445312 218.367188 60.296875 217.742188 60.296875 C 217.34375 60.296875 216.960938 60.34375 216.585938 60.4375 C 216.210938 60.53125 215.84375 60.671875 215.492188 60.859375 L 215.492188 59.8125 C 215.90625 59.648438 216.3125 59.527344 216.710938 59.453125 C 217.105469 59.371094 217.492188 59.328125 217.867188 59.328125 C 218.867188 59.328125 219.609375 59.589844 220.101562 60.109375 C 220.601562 60.632812 220.851562 61.417969 220.851562 62.46875 Z M 224.34375 57.515625 L 224.34375 59.484375 L 226.6875 59.484375 L 226.6875 60.375 L 224.34375 60.375 L 224.34375 64.15625 C 224.34375 64.71875 224.421875 65.085938 224.578125 65.25 C 224.734375 65.40625 225.046875 65.484375 225.515625 65.484375 L 226.6875 65.484375 L 226.6875 66.4375 L 225.515625 66.4375 C 224.640625 66.4375 224.03125 66.277344 223.6875 65.953125 C 223.351562 65.621094 223.1875 65.023438 223.1875 64.15625 L 223.1875 60.375 L 222.359375 60.375 L 222.359375 59.484375 L 223.1875 59.484375 L 223.1875 57.515625 Z M 228.203125 59.484375 L 229.34375 59.484375 L 229.34375 66.4375 L 228.203125 66.4375 Z M 228.203125 56.78125 L 229.34375 56.78125 L 229.34375 58.234375 L 228.203125 58.234375 Z M 234.421875 60.296875 C 233.804688 60.296875 233.320312 60.539062 232.96875 61.015625 C 232.613281 61.484375 232.4375 62.136719 232.4375 62.96875 C 232.4375 63.804688 232.613281 64.460938 232.96875 64.9375 C 233.320312 65.417969 233.804688 65.65625 234.421875 65.65625 C 235.023438 65.65625 235.503906 65.417969 235.859375 64.9375 C 236.222656 64.449219 236.40625 63.792969 236.40625 62.96875 C 236.40625 62.148438 236.222656 61.496094 235.859375 61.015625 C 235.503906 60.539062 235.023438 60.296875 234.421875 60.296875 Z M 234.421875 59.328125 C 235.410156 59.328125 236.1875 59.652344 236.75 60.296875 C 237.320312 60.945312 237.609375 61.835938 237.609375 62.96875 C 237.609375 64.105469 237.320312 65 236.75 65.65625 C 236.1875 66.304688 235.410156 66.625 234.421875 66.625 C 233.421875 66.625 232.640625 66.304688 232.078125 65.65625 C 231.515625 65 231.234375 64.105469 231.234375 62.96875 C 231.234375 61.835938 231.515625 60.945312 232.078125 60.296875 C 232.640625 59.652344 233.421875 59.328125 234.421875 59.328125 Z M 245.273438 62.25 L 245.273438 66.4375 L 244.132812 66.4375 L 244.132812 62.28125 C 244.132812 61.625 244 61.136719 243.742188 60.8125 C 243.492188 60.480469 243.109375 60.3125 242.601562 60.3125 C 241.984375 60.3125 241.496094 60.511719 241.132812 60.90625 C 240.777344 61.304688 240.601562 61.839844 240.601562 62.515625 L 240.601562 66.4375 L 239.460938 66.4375 L 239.460938 59.484375 L 240.601562 59.484375 L 240.601562 60.5625 C 240.871094 60.148438 241.195312 59.839844 241.570312 59.640625 C 241.945312 59.433594 242.371094 59.328125 242.851562 59.328125 C 243.652344 59.328125 244.257812 59.578125 244.664062 60.078125 C 245.070312 60.570312 245.273438 61.292969 245.273438 62.25 Z M 246.359375 66.4375 "/>
</g>
</svg>
