<?xml version="1.0" encoding="UTF-8"?>
<svg xmlns="http://www.w3.org/2000/svg" xmlns:xlink="http://www.w3.org/1999/xlink" width="552.755906pt" height="290.889226pt" viewBox="0 0 552.755906 290.889226" version="1.1">
<g id="surface35696">
<path style=" stroke:none;fill-rule:evenodd;fill:rgb(80%,80%,80%);fill-opacity:1;" d="M 552.757812 290.890625 L 0 290.890625 L 552.757812 290.890625 L 552.757812 265.765625 L 0 265.765625 L 0 240.640625 L 552.757812 240.640625 L 552.757812 215.511719 L 0 215.511719 L 0 190.386719 L 552.757812 190.386719 L 552.757812 165.261719 L 0 165.261719 L 0 140.136719 L 552.757812 140.136719 L 552.757812 115.011719 L 0 115.011719 L 0 89.886719 L 552.757812 89.886719 L 552.757812 64.761719 L 0 64.761719 L 0 39.636719 L 0 290.890625 L 25.125 290.890625 L 25.125 39.636719 L 50.25 39.636719 L 50.25 290.890625 L 75.375 290.890625 L 75.375 39.636719 L 100.5 39.636719 L 100.5 290.890625 L 125.625 290.890625 L 125.625 39.636719 L 150.75 39.636719 L 150.75 290.890625 L 175.875 290.890625 L 175.875 39.636719 L 201.003906 39.636719 L 201.003906 290.890625 L 226.128906 290.890625 L 226.128906 39.636719 L 251.253906 39.636719 L 251.253906 290.890625 L 276.378906 290.890625 L 276.378906 39.636719 L 301.503906 39.636719 L 301.503906 290.890625 L 326.628906 290.890625 L 326.628906 39.636719 L 351.753906 39.636719 L 351.753906 290.890625 L 376.878906 290.890625 L 376.878906 39.636719 L 402.003906 39.636719 L 402.003906 290.890625 L 427.128906 290.890625 L 427.128906 39.636719 L 452.253906 39.636719 L 452.253906 290.890625 L 477.378906 290.890625 L 477.378906 39.636719 L 502.503906 39.636719 L 502.503906 290.890625 L 527.628906 290.890625 L 527.628906 39.636719 L 552.757812 39.636719 Z M 552.757812 290.890625 "/>
<path style=" stroke:none;fill-rule:evenodd;fill:rgb(0%,0%,0%);fill-opacity:1;" d="M 18.601562 16.601562 L 20.023438 16.601562 L 22.242188 25.476562 L 24.445312 16.601562 L 26.039062 16.601562 L 28.242188 25.476562 L 30.445312 16.601562 L 31.882812 16.601562 L 29.257812 27.101562 L 27.460938 27.101562 L 25.242188 17.992188 L 23.007812 27.101562 L 21.226562 27.101562 Z M 33.722656 19.226562 L 35.019531 19.226562 L 35.019531 27.101562 L 33.722656 27.101562 Z M 33.722656 16.148438 L 35.019531 16.148438 L 35.019531 17.789062 L 33.722656 17.789062 Z M 39.003906 16.992188 L 39.003906 19.226562 L 41.660156 19.226562 L 41.660156 20.226562 L 39.003906 20.226562 L 39.003906 24.507812 C 39.003906 25.15625 39.089844 25.570312 39.269531 25.757812 C 39.445312 25.9375 39.800781 26.023438 40.332031 26.023438 L 41.660156 26.023438 L 41.660156 27.101562 L 40.332031 27.101562 C 39.332031 27.101562 38.644531 26.914062 38.269531 26.539062 C 37.894531 26.164062 37.707031 25.488281 37.707031 24.507812 L 37.707031 20.226562 L 36.753906 20.226562 L 36.753906 19.226562 L 37.707031 19.226562 L 37.707031 16.992188 Z M 49.917969 22.351562 L 49.917969 27.101562 L 48.621094 27.101562 L 48.621094 22.382812 C 48.621094 21.644531 48.472656 21.09375 48.183594 20.726562 C 47.890625 20.351562 47.457031 20.164062 46.886719 20.164062 C 46.175781 20.164062 45.621094 20.390625 45.214844 20.835938 C 44.816406 21.273438 44.621094 21.878906 44.621094 22.648438 L 44.621094 27.101562 L 43.324219 27.101562 L 43.324219 16.148438 L 44.621094 16.148438 L 44.621094 20.445312 C 44.933594 19.976562 45.296875 19.628906 45.714844 19.398438 C 46.128906 19.160156 46.613281 19.039062 47.167969 19.039062 C 48.074219 19.039062 48.753906 19.320312 49.214844 19.882812 C 49.683594 20.4375 49.917969 21.257812 49.917969 22.351562 Z M 55.550781 20.132812 C 54.863281 20.132812 54.316406 20.40625 53.910156 20.945312 C 53.503906 21.488281 53.300781 22.226562 53.300781 23.164062 C 53.300781 24.113281 53.496094 24.859375 53.894531 25.398438 C 54.300781 25.941406 54.851562 26.210938 55.550781 26.210938 C 56.238281 26.210938 56.785156 25.941406 57.191406 25.398438 C 57.597656 24.847656 57.800781 24.101562 57.800781 23.164062 C 57.800781 22.238281 57.597656 21.503906 57.191406 20.960938 C 56.785156 20.410156 56.238281 20.132812 55.550781 20.132812 Z M 55.550781 19.039062 C 56.675781 19.039062 57.558594 19.40625 58.207031 20.132812 C 58.851562 20.863281 59.175781 21.875 59.175781 23.164062 C 59.175781 24.457031 58.851562 25.472656 58.207031 26.210938 C 57.558594 26.941406 56.675781 27.304688 55.550781 27.304688 C 54.425781 27.304688 53.539062 26.941406 52.894531 26.210938 C 52.257812 25.472656 51.941406 24.457031 51.941406 23.164062 C 51.941406 21.875 52.257812 20.863281 52.894531 20.132812 C 53.539062 19.40625 54.425781 19.039062 55.550781 19.039062 Z M 61.175781 23.992188 L 61.175781 19.226562 L 62.472656 19.226562 L 62.472656 23.945312 C 62.472656 24.6875 62.617188 25.242188 62.910156 25.617188 C 63.199219 25.992188 63.636719 26.179688 64.222656 26.179688 C 64.917969 26.179688 65.472656 25.957031 65.878906 25.507812 C 66.285156 25.0625 66.488281 24.457031 66.488281 23.695312 L 66.488281 19.226562 L 67.785156 19.226562 L 67.785156 27.101562 L 66.488281 27.101562 L 66.488281 25.898438 C 66.175781 26.367188 65.808594 26.722656 65.394531 26.960938 C 64.976562 27.1875 64.492188 27.304688 63.941406 27.304688 C 63.035156 27.304688 62.347656 27.023438 61.878906 26.460938 C 61.410156 25.898438 61.175781 25.078125 61.175781 23.992188 Z M 64.441406 19.039062 Z M 71.730469 16.992188 L 71.730469 19.226562 L 74.386719 19.226562 L 74.386719 20.226562 L 71.730469 20.226562 L 71.730469 24.507812 C 71.730469 25.15625 71.816406 25.570312 71.996094 25.757812 C 72.171875 25.9375 72.527344 26.023438 73.058594 26.023438 L 74.386719 26.023438 L 74.386719 27.101562 L 73.058594 27.101562 C 72.058594 27.101562 71.371094 26.914062 70.996094 26.539062 C 70.621094 26.164062 70.433594 25.488281 70.433594 24.507812 L 70.433594 20.226562 L 69.480469 20.226562 L 69.480469 19.226562 L 70.433594 19.226562 L 70.433594 16.992188 Z M 81.957031 16.992188 L 81.957031 19.226562 L 84.613281 19.226562 L 84.613281 20.226562 L 81.957031 20.226562 L 81.957031 24.507812 C 81.957031 25.15625 82.042969 25.570312 82.222656 25.757812 C 82.398438 25.9375 82.753906 26.023438 83.285156 26.023438 L 84.613281 26.023438 L 84.613281 27.101562 L 83.285156 27.101562 C 82.285156 27.101562 81.597656 26.914062 81.222656 26.539062 C 80.847656 26.164062 80.660156 25.488281 80.660156 24.507812 L 80.660156 20.226562 L 79.707031 20.226562 L 79.707031 19.226562 L 80.660156 19.226562 L 80.660156 16.992188 Z M 93.058594 22.835938 L 93.058594 23.476562 L 87.105469 23.476562 C 87.167969 24.363281 87.4375 25.039062 87.917969 25.507812 C 88.394531 25.976562 89.0625 26.210938 89.917969 26.210938 C 90.417969 26.210938 90.902344 26.148438 91.371094 26.023438 C 91.839844 25.898438 92.300781 25.71875 92.761719 25.476562 L 92.761719 26.695312 C 92.292969 26.894531 91.8125 27.046875 91.324219 27.148438 C 90.84375 27.25 90.347656 27.304688 89.839844 27.304688 C 88.589844 27.304688 87.59375 26.941406 86.855469 26.210938 C 86.125 25.484375 85.761719 24.492188 85.761719 23.242188 C 85.761719 21.953125 86.109375 20.929688 86.808594 20.179688 C 87.503906 19.421875 88.441406 19.039062 89.621094 19.039062 C 90.683594 19.039062 91.519531 19.382812 92.136719 20.070312 C 92.75 20.75 93.058594 21.671875 93.058594 22.835938 Z M 91.761719 22.460938 C 91.75 21.753906 91.550781 21.191406 91.167969 20.773438 C 90.78125 20.347656 90.269531 20.132812 89.636719 20.132812 C 88.917969 20.132812 88.339844 20.335938 87.902344 20.742188 C 87.464844 21.148438 87.214844 21.722656 87.152344 22.460938 Z M 101.734375 19.226562 L 98.890625 23.054688 L 101.875 27.101562 L 100.359375 27.101562 L 98.0625 24.007812 L 95.765625 27.101562 L 94.25 27.101562 L 97.296875 22.976562 L 94.5 19.226562 L 96.03125 19.226562 L 98.125 22.023438 L 100.203125 19.226562 Z M 104.996094 16.992188 L 104.996094 19.226562 L 107.652344 19.226562 L 107.652344 20.226562 L 104.996094 20.226562 L 104.996094 24.507812 C 104.996094 25.15625 105.082031 25.570312 105.261719 25.757812 C 105.4375 25.9375 105.792969 26.023438 106.324219 26.023438 L 107.652344 26.023438 L 107.652344 27.101562 L 106.324219 27.101562 C 105.324219 27.101562 104.636719 26.914062 104.261719 26.539062 C 103.886719 26.164062 103.699219 25.488281 103.699219 24.507812 L 103.699219 20.226562 L 102.746094 20.226562 L 102.746094 19.226562 L 103.699219 19.226562 L 103.699219 16.992188 Z M 109.222656 23.992188 L 109.222656 19.226562 L 110.519531 19.226562 L 110.519531 23.945312 C 110.519531 24.6875 110.664062 25.242188 110.957031 25.617188 C 111.246094 25.992188 111.683594 26.179688 112.269531 26.179688 C 112.964844 26.179688 113.519531 25.957031 113.925781 25.507812 C 114.332031 25.0625 114.535156 24.457031 114.535156 23.695312 L 114.535156 19.226562 L 115.832031 19.226562 L 115.832031 27.101562 L 114.535156 27.101562 L 114.535156 25.898438 C 114.222656 26.367188 113.855469 26.722656 113.441406 26.960938 C 113.023438 27.1875 112.539062 27.304688 111.988281 27.304688 C 111.082031 27.304688 110.394531 27.023438 109.925781 26.460938 C 109.457031 25.898438 109.222656 25.078125 109.222656 23.992188 Z M 112.488281 19.039062 Z M 123.058594 20.429688 C 122.910156 20.347656 122.75 20.285156 122.574219 20.242188 C 122.40625 20.203125 122.21875 20.179688 122.011719 20.179688 C 121.28125 20.179688 120.71875 20.421875 120.324219 20.898438 C 119.9375 21.378906 119.746094 22.0625 119.746094 22.945312 L 119.746094 27.101562 L 118.449219 27.101562 L 118.449219 19.226562 L 119.746094 19.226562 L 119.746094 20.445312 C 120.015625 19.96875 120.371094 19.613281 120.808594 19.382812 C 121.246094 19.15625 121.777344 19.039062 122.402344 19.039062 C 122.484375 19.039062 122.578125 19.046875 122.683594 19.054688 C 122.796875 19.066406 122.921875 19.082031 123.058594 19.101562 Z M 131.152344 22.835938 L 131.152344 23.476562 L 125.199219 23.476562 C 125.261719 24.363281 125.53125 25.039062 126.011719 25.507812 C 126.488281 25.976562 127.15625 26.210938 128.011719 26.210938 C 128.511719 26.210938 128.996094 26.148438 129.464844 26.023438 C 129.933594 25.898438 130.394531 25.71875 130.855469 25.476562 L 130.855469 26.695312 C 130.386719 26.894531 129.90625 27.046875 129.417969 27.148438 C 128.9375 27.25 128.441406 27.304688 127.933594 27.304688 C 126.683594 27.304688 125.6875 26.941406 124.949219 26.210938 C 124.21875 25.484375 123.855469 24.492188 123.855469 23.242188 C 123.855469 21.953125 124.203125 20.929688 124.902344 20.179688 C 125.597656 19.421875 126.535156 19.039062 127.714844 19.039062 C 128.777344 19.039062 129.613281 19.382812 130.230469 20.070312 C 130.84375 20.75 131.152344 21.671875 131.152344 22.835938 Z M 129.855469 22.460938 C 129.84375 21.753906 129.644531 21.191406 129.261719 20.773438 C 128.875 20.347656 128.363281 20.132812 127.730469 20.132812 C 127.011719 20.132812 126.433594 20.335938 125.996094 20.742188 C 125.558594 21.148438 125.308594 21.722656 125.246094 22.460938 Z M 139.109375 25.914062 L 139.109375 30.101562 L 137.8125 30.101562 L 137.8125 19.226562 L 139.109375 19.226562 L 139.109375 20.414062 C 139.378906 19.945312 139.722656 19.601562 140.140625 19.382812 C 140.554688 19.15625 141.050781 19.039062 141.625 19.039062 C 142.582031 19.039062 143.359375 19.421875 143.953125 20.179688 C 144.554688 20.929688 144.859375 21.925781 144.859375 23.164062 C 144.859375 24.40625 144.554688 25.40625 143.953125 26.164062 C 143.359375 26.925781 142.582031 27.304688 141.625 27.304688 C 141.050781 27.304688 140.554688 27.1875 140.140625 26.960938 C 139.722656 26.734375 139.378906 26.382812 139.109375 25.914062 Z M 143.515625 23.164062 C 143.515625 22.21875 143.316406 21.472656 142.921875 20.929688 C 142.535156 20.390625 142 20.117188 141.3125 20.117188 C 140.625 20.117188 140.082031 20.390625 139.6875 20.929688 C 139.300781 21.472656 139.109375 22.21875 139.109375 23.164062 C 139.109375 24.125 139.300781 24.875 139.6875 25.414062 C 140.082031 25.957031 140.625 26.226562 141.3125 26.226562 C 142 26.226562 142.535156 25.957031 142.921875 25.414062 C 143.316406 24.875 143.515625 24.125 143.515625 23.164062 Z M 151.566406 20.429688 C 151.417969 20.347656 151.257812 20.285156 151.082031 20.242188 C 150.914062 20.203125 150.726562 20.179688 150.519531 20.179688 C 149.789062 20.179688 149.226562 20.421875 148.832031 20.898438 C 148.445312 21.378906 148.253906 22.0625 148.253906 22.945312 L 148.253906 27.101562 L 146.957031 27.101562 L 146.957031 19.226562 L 148.253906 19.226562 L 148.253906 20.445312 C 148.523438 19.96875 148.878906 19.613281 149.316406 19.382812 C 149.753906 19.15625 150.285156 19.039062 150.910156 19.039062 C 150.992188 19.039062 151.085938 19.046875 151.191406 19.054688 C 151.304688 19.066406 151.429688 19.082031 151.566406 19.101562 Z M 159.664062 22.835938 L 159.664062 23.476562 L 153.710938 23.476562 C 153.773438 24.363281 154.042969 25.039062 154.523438 25.507812 C 155 25.976562 155.667969 26.210938 156.523438 26.210938 C 157.023438 26.210938 157.507812 26.148438 157.976562 26.023438 C 158.445312 25.898438 158.90625 25.71875 159.367188 25.476562 L 159.367188 26.695312 C 158.898438 26.894531 158.417969 27.046875 157.929688 27.148438 C 157.449219 27.25 156.953125 27.304688 156.445312 27.304688 C 155.195312 27.304688 154.199219 26.941406 153.460938 26.210938 C 152.730469 25.484375 152.367188 24.492188 152.367188 23.242188 C 152.367188 21.953125 152.714844 20.929688 153.414062 20.179688 C 154.109375 19.421875 155.046875 19.039062 156.226562 19.039062 C 157.289062 19.039062 158.125 19.382812 158.742188 20.070312 C 159.355469 20.75 159.664062 21.671875 159.664062 22.835938 Z M 158.367188 22.460938 C 158.355469 21.753906 158.15625 21.191406 157.773438 20.773438 C 157.386719 20.347656 156.875 20.132812 156.242188 20.132812 C 155.523438 20.132812 154.945312 20.335938 154.507812 20.742188 C 154.070312 21.148438 153.820312 21.722656 153.757812 22.460938 Z M 167.917969 20.742188 C 168.25 20.160156 168.640625 19.734375 169.089844 19.460938 C 169.535156 19.179688 170.0625 19.039062 170.667969 19.039062 C 171.488281 19.039062 172.125 19.328125 172.574219 19.898438 C 173.019531 20.472656 173.246094 21.289062 173.246094 22.351562 L 173.246094 27.101562 L 171.949219 27.101562 L 171.949219 22.382812 C 171.949219 21.632812 171.8125 21.078125 171.542969 20.710938 C 171.269531 20.347656 170.863281 20.164062 170.324219 20.164062 C 169.644531 20.164062 169.109375 20.390625 168.714844 20.835938 C 168.328125 21.273438 168.136719 21.878906 168.136719 22.648438 L 168.136719 27.101562 L 166.839844 27.101562 L 166.839844 22.382812 C 166.839844 21.625 166.703125 21.066406 166.433594 20.710938 C 166.171875 20.347656 165.761719 20.164062 165.199219 20.164062 C 164.542969 20.164062 164.015625 20.390625 163.621094 20.835938 C 163.234375 21.285156 163.042969 21.890625 163.042969 22.648438 L 163.042969 27.101562 L 161.746094 27.101562 L 161.746094 19.226562 L 163.042969 19.226562 L 163.042969 20.445312 C 163.332031 19.96875 163.6875 19.613281 164.105469 19.382812 C 164.519531 19.15625 165.011719 19.039062 165.574219 19.039062 C 166.144531 19.039062 166.628906 19.1875 167.027344 19.476562 C 167.433594 19.757812 167.730469 20.179688 167.917969 20.742188 Z M 175.6875 23.992188 L 175.6875 19.226562 L 176.984375 19.226562 L 176.984375 23.945312 C 176.984375 24.6875 177.128906 25.242188 177.421875 25.617188 C 177.710938 25.992188 178.148438 26.179688 178.734375 26.179688 C 179.429688 26.179688 179.984375 25.957031 180.390625 25.507812 C 180.796875 25.0625 181 24.457031 181 23.695312 L 181 19.226562 L 182.296875 19.226562 L 182.296875 27.101562 L 181 27.101562 L 181 25.898438 C 180.6875 26.367188 180.320312 26.722656 179.90625 26.960938 C 179.488281 27.1875 179.003906 27.304688 178.453125 27.304688 C 177.546875 27.304688 176.859375 27.023438 176.390625 26.460938 C 175.921875 25.898438 175.6875 25.078125 175.6875 23.992188 Z M 178.953125 19.039062 Z M 184.957031 16.148438 L 186.253906 16.148438 L 186.253906 27.101562 L 184.957031 27.101562 Z M 190.242188 16.992188 L 190.242188 19.226562 L 192.898438 19.226562 L 192.898438 20.226562 L 190.242188 20.226562 L 190.242188 24.507812 C 190.242188 25.15625 190.328125 25.570312 190.507812 25.757812 C 190.683594 25.9375 191.039062 26.023438 191.570312 26.023438 L 192.898438 26.023438 L 192.898438 27.101562 L 191.570312 27.101562 C 190.570312 27.101562 189.882812 26.914062 189.507812 26.539062 C 189.132812 26.164062 188.945312 25.488281 188.945312 24.507812 L 188.945312 20.226562 L 187.992188 20.226562 L 187.992188 19.226562 L 188.945312 19.226562 L 188.945312 16.992188 Z M 194.609375 19.226562 L 195.90625 19.226562 L 195.90625 27.101562 L 194.609375 27.101562 Z M 194.609375 16.148438 L 195.90625 16.148438 L 195.90625 17.789062 L 194.609375 17.789062 Z M 199.859375 25.914062 L 199.859375 30.101562 L 198.5625 30.101562 L 198.5625 19.226562 L 199.859375 19.226562 L 199.859375 20.414062 C 200.128906 19.945312 200.472656 19.601562 200.890625 19.382812 C 201.304688 19.15625 201.800781 19.039062 202.375 19.039062 C 203.332031 19.039062 204.109375 19.421875 204.703125 20.179688 C 205.304688 20.929688 205.609375 21.925781 205.609375 23.164062 C 205.609375 24.40625 205.304688 25.40625 204.703125 26.164062 C 204.109375 26.925781 203.332031 27.304688 202.375 27.304688 C 201.800781 27.304688 201.304688 27.1875 200.890625 26.960938 C 200.472656 26.734375 200.128906 26.382812 199.859375 25.914062 Z M 204.265625 23.164062 C 204.265625 22.21875 204.066406 21.472656 203.671875 20.929688 C 203.285156 20.390625 202.75 20.117188 202.0625 20.117188 C 201.375 20.117188 200.832031 20.390625 200.4375 20.929688 C 200.050781 21.472656 199.859375 22.21875 199.859375 23.164062 C 199.859375 24.125 200.050781 24.875 200.4375 25.414062 C 200.832031 25.957031 201.375 26.226562 202.0625 26.226562 C 202.75 26.226562 203.285156 25.957031 203.671875 25.414062 C 204.066406 24.875 204.265625 24.125 204.265625 23.164062 Z M 207.757812 16.148438 L 209.054688 16.148438 L 209.054688 27.101562 L 207.757812 27.101562 Z M 211.757812 19.226562 L 213.054688 19.226562 L 213.054688 27.101562 L 211.757812 27.101562 Z M 211.757812 16.148438 L 213.054688 16.148438 L 213.054688 17.789062 L 211.757812 17.789062 Z M 221.433594 19.523438 L 221.433594 20.742188 C 221.066406 20.535156 220.699219 20.382812 220.324219 20.289062 C 219.957031 20.1875 219.589844 20.132812 219.214844 20.132812 C 218.371094 20.132812 217.714844 20.398438 217.246094 20.929688 C 216.785156 21.460938 216.558594 22.207031 216.558594 23.164062 C 216.558594 24.132812 216.785156 24.882812 217.246094 25.414062 C 217.714844 25.945312 218.371094 26.210938 219.214844 26.210938 C 219.589844 26.210938 219.957031 26.160156 220.324219 26.054688 C 220.699219 25.953125 221.066406 25.800781 221.433594 25.601562 L 221.433594 26.804688 C 221.066406 26.972656 220.691406 27.097656 220.308594 27.179688 C 219.921875 27.261719 219.511719 27.304688 219.074219 27.304688 C 217.886719 27.304688 216.941406 26.9375 216.246094 26.195312 C 215.546875 25.445312 215.199219 24.4375 215.199219 23.164062 C 215.199219 21.882812 215.546875 20.878906 216.246094 20.148438 C 216.953125 19.410156 217.921875 19.039062 219.152344 19.039062 C 219.558594 19.039062 219.949219 19.082031 220.324219 19.164062 C 220.707031 19.238281 221.078125 19.359375 221.433594 19.523438 Z M 227.261719 23.148438 C 226.21875 23.148438 225.496094 23.269531 225.089844 23.507812 C 224.683594 23.738281 224.480469 24.144531 224.480469 24.726562 C 224.480469 25.1875 224.628906 25.550781 224.933594 25.820312 C 225.234375 26.09375 225.644531 26.226562 226.167969 26.226562 C 226.886719 26.226562 227.457031 25.972656 227.886719 25.460938 C 228.324219 24.953125 228.542969 24.273438 228.542969 23.429688 L 228.542969 23.148438 Z M 229.839844 22.601562 L 229.839844 27.101562 L 228.542969 27.101562 L 228.542969 25.898438 C 228.25 26.378906 227.878906 26.734375 227.433594 26.960938 C 226.996094 27.1875 226.457031 27.304688 225.824219 27.304688 C 225.019531 27.304688 224.378906 27.082031 223.902344 26.632812 C 223.421875 26.175781 223.183594 25.566406 223.183594 24.804688 C 223.183594 23.921875 223.480469 23.253906 224.074219 22.804688 C 224.667969 22.359375 225.550781 22.132812 226.730469 22.132812 L 228.542969 22.132812 L 228.542969 22.007812 C 228.542969 21.40625 228.34375 20.941406 227.949219 20.617188 C 227.5625 20.296875 227.015625 20.132812 226.308594 20.132812 C 225.859375 20.132812 225.421875 20.191406 224.996094 20.304688 C 224.566406 20.410156 224.15625 20.566406 223.761719 20.773438 L 223.761719 19.585938 C 224.238281 19.398438 224.699219 19.265625 225.136719 19.179688 C 225.582031 19.085938 226.019531 19.039062 226.449219 19.039062 C 227.582031 19.039062 228.433594 19.335938 228.996094 19.929688 C 229.558594 20.515625 229.839844 21.40625 229.839844 22.601562 Z M 233.792969 16.992188 L 233.792969 19.226562 L 236.449219 19.226562 L 236.449219 20.226562 L 233.792969 20.226562 L 233.792969 24.507812 C 233.792969 25.15625 233.878906 25.570312 234.058594 25.757812 C 234.234375 25.9375 234.589844 26.023438 235.121094 26.023438 L 236.449219 26.023438 L 236.449219 27.101562 L 235.121094 27.101562 C 234.121094 27.101562 233.433594 26.914062 233.058594 26.539062 C 232.683594 26.164062 232.496094 25.488281 232.496094 24.507812 L 232.496094 20.226562 L 231.542969 20.226562 L 231.542969 19.226562 L 232.496094 19.226562 L 232.496094 16.992188 Z M 238.160156 19.226562 L 239.457031 19.226562 L 239.457031 27.101562 L 238.160156 27.101562 Z M 238.160156 16.148438 L 239.457031 16.148438 L 239.457031 17.789062 L 238.160156 17.789062 Z M 245.207031 20.132812 C 244.519531 20.132812 243.972656 20.40625 243.566406 20.945312 C 243.160156 21.488281 242.957031 22.226562 242.957031 23.164062 C 242.957031 24.113281 243.152344 24.859375 243.550781 25.398438 C 243.957031 25.941406 244.507812 26.210938 245.207031 26.210938 C 245.894531 26.210938 246.441406 25.941406 246.847656 25.398438 C 247.253906 24.847656 247.457031 24.101562 247.457031 23.164062 C 247.457031 22.238281 247.253906 21.503906 246.847656 20.960938 C 246.441406 20.410156 245.894531 20.132812 245.207031 20.132812 Z M 245.207031 19.039062 C 246.332031 19.039062 247.214844 19.40625 247.863281 20.132812 C 248.507812 20.863281 248.832031 21.875 248.832031 23.164062 C 248.832031 24.457031 248.507812 25.472656 247.863281 26.210938 C 247.214844 26.941406 246.332031 27.304688 245.207031 27.304688 C 244.082031 27.304688 243.195312 26.941406 242.550781 26.210938 C 241.914062 25.472656 241.597656 24.457031 241.597656 23.164062 C 241.597656 21.875 241.914062 20.863281 242.550781 20.132812 C 243.195312 19.40625 244.082031 19.039062 245.207031 19.039062 Z M 257.523438 22.351562 L 257.523438 27.101562 L 256.226562 27.101562 L 256.226562 22.382812 C 256.226562 21.644531 256.078125 21.09375 255.789062 20.726562 C 255.496094 20.351562 255.0625 20.164062 254.492188 20.164062 C 253.78125 20.164062 253.226562 20.390625 252.820312 20.835938 C 252.421875 21.273438 252.226562 21.878906 252.226562 22.648438 L 252.226562 27.101562 L 250.929688 27.101562 L 250.929688 19.226562 L 252.226562 19.226562 L 252.226562 20.445312 C 252.539062 19.976562 252.902344 19.628906 253.320312 19.398438 C 253.734375 19.160156 254.21875 19.039062 254.773438 19.039062 C 255.679688 19.039062 256.359375 19.320312 256.820312 19.882812 C 257.289062 20.4375 257.523438 21.257812 257.523438 22.351562 Z M 258.746094 27.101562 "/>
<path style=" stroke:none;fill-rule:evenodd;fill:rgb(100%,0%,0%);fill-opacity:0.7;" d="M 25.328125 65.566406 L 138.0625 65.566406 L 138.0625 140.882812 L 25.328125 140.882812 Z M 25.328125 65.566406 "/>
<path style=" stroke:none;fill-rule:evenodd;fill:rgb(100%,100%,100%);fill-opacity:1;" d="M 45.609375 97.449219 C 45.046875 98.417969 44.625 99.382812 44.34375 100.339844 C 44.070312 101.289062 43.9375 102.246094 43.9375 103.214844 C 43.9375 104.195312 44.070312 105.164062 44.34375 106.121094 C 44.625 107.082031 45.046875 108.035156 45.609375 108.996094 L 44.609375 108.996094 C 43.972656 108.003906 43.492188 107.035156 43.171875 106.074219 C 42.859375 105.117188 42.703125 104.164062 42.703125 103.214844 C 42.703125 102.277344 42.859375 101.335938 43.171875 100.386719 C 43.484375 99.429688 43.960938 98.449219 44.609375 97.449219 Z M 48.261719 106.214844 L 50.355469 106.214844 L 50.355469 98.996094 L 48.074219 99.464844 L 48.074219 98.292969 L 50.339844 97.839844 L 51.621094 97.839844 L 51.621094 106.214844 L 53.699219 106.214844 L 53.699219 107.292969 L 48.261719 107.292969 Z M 56.417969 105.683594 L 57.761719 105.683594 L 57.761719 106.777344 L 56.714844 108.792969 L 55.902344 108.792969 L 56.417969 106.777344 Z M 67.269531 98.683594 C 66.613281 98.683594 66.117188 99.007812 65.785156 99.652344 C 65.449219 100.300781 65.285156 101.273438 65.285156 102.574219 C 65.285156 103.867188 65.449219 104.839844 65.785156 105.496094 C 66.117188 106.144531 66.613281 106.464844 67.269531 106.464844 C 67.925781 106.464844 68.417969 106.144531 68.753906 105.496094 C 69.085938 104.839844 69.253906 103.867188 69.253906 102.574219 C 69.253906 101.273438 69.085938 100.300781 68.753906 99.652344 C 68.417969 99.007812 67.925781 98.683594 67.269531 98.683594 Z M 67.269531 97.667969 C 68.332031 97.667969 69.136719 98.089844 69.691406 98.933594 C 70.253906 99.769531 70.535156 100.980469 70.535156 102.574219 C 70.535156 104.167969 70.253906 105.386719 69.691406 106.230469 C 69.136719 107.066406 68.332031 107.480469 67.269531 107.480469 C 66.207031 107.480469 65.394531 107.066406 64.832031 106.230469 C 64.277344 105.386719 64.003906 104.167969 64.003906 102.574219 C 64.003906 100.980469 64.277344 99.769531 64.832031 98.933594 C 65.394531 98.089844 66.207031 97.667969 67.269531 97.667969 Z M 72.910156 105.683594 L 74.253906 105.683594 L 74.253906 106.777344 L 73.207031 108.792969 L 72.394531 108.792969 L 72.910156 106.777344 Z M 83.761719 98.683594 C 83.105469 98.683594 82.609375 99.007812 82.277344 99.652344 C 81.941406 100.300781 81.777344 101.273438 81.777344 102.574219 C 81.777344 103.867188 81.941406 104.839844 82.277344 105.496094 C 82.609375 106.144531 83.105469 106.464844 83.761719 106.464844 C 84.417969 106.464844 84.910156 106.144531 85.246094 105.496094 C 85.578125 104.839844 85.746094 103.867188 85.746094 102.574219 C 85.746094 101.273438 85.578125 100.300781 85.246094 99.652344 C 84.910156 99.007812 84.417969 98.683594 83.761719 98.683594 Z M 83.761719 97.667969 C 84.824219 97.667969 85.628906 98.089844 86.183594 98.933594 C 86.746094 99.769531 87.027344 100.980469 87.027344 102.574219 C 87.027344 104.167969 86.746094 105.386719 86.183594 106.230469 C 85.628906 107.066406 84.824219 107.480469 83.761719 107.480469 C 82.699219 107.480469 81.886719 107.066406 81.324219 106.230469 C 80.769531 105.386719 80.496094 104.167969 80.496094 102.574219 C 80.496094 100.980469 80.769531 99.769531 81.324219 98.933594 C 81.886719 98.089844 82.699219 97.667969 83.761719 97.667969 Z M 89.402344 105.683594 L 90.746094 105.683594 L 90.746094 106.777344 L 89.699219 108.792969 L 88.886719 108.792969 L 89.402344 106.777344 Z M 100.253906 98.683594 C 99.597656 98.683594 99.101562 99.007812 98.769531 99.652344 C 98.433594 100.300781 98.269531 101.273438 98.269531 102.574219 C 98.269531 103.867188 98.433594 104.839844 98.769531 105.496094 C 99.101562 106.144531 99.597656 106.464844 100.253906 106.464844 C 100.910156 106.464844 101.402344 106.144531 101.738281 105.496094 C 102.070312 104.839844 102.238281 103.867188 102.238281 102.574219 C 102.238281 101.273438 102.070312 100.300781 101.738281 99.652344 C 101.402344 99.007812 100.910156 98.683594 100.253906 98.683594 Z M 100.253906 97.667969 C 101.316406 97.667969 102.121094 98.089844 102.675781 98.933594 C 103.238281 99.769531 103.519531 100.980469 103.519531 102.574219 C 103.519531 104.167969 103.238281 105.386719 102.675781 106.230469 C 102.121094 107.066406 101.316406 107.480469 100.253906 107.480469 C 99.191406 107.480469 98.378906 107.066406 97.816406 106.230469 C 97.261719 105.386719 96.988281 104.167969 96.988281 102.574219 C 96.988281 100.980469 97.261719 99.769531 97.816406 98.933594 C 98.378906 98.089844 99.191406 97.667969 100.253906 97.667969 Z M 105.769531 105.683594 L 107.097656 105.683594 L 107.097656 107.292969 L 105.769531 107.292969 Z M 109.5625 97.839844 L 115.640625 97.839844 L 115.640625 98.386719 L 112.203125 107.292969 L 110.875 107.292969 L 114.109375 98.917969 L 109.5625 98.917969 Z M 117.78125 97.449219 L 118.796875 97.449219 C 119.429688 98.449219 119.90625 99.429688 120.21875 100.386719 C 120.53125 101.335938 120.6875 102.277344 120.6875 103.214844 C 120.6875 104.164062 120.53125 105.117188 120.21875 106.074219 C 119.90625 107.035156 119.429688 108.003906 118.796875 108.996094 L 117.78125 108.996094 C 118.34375 108.035156 118.757812 107.082031 119.03125 106.121094 C 119.3125 105.164062 119.453125 104.195312 119.453125 103.214844 C 119.453125 102.246094 119.3125 101.289062 119.03125 100.339844 C 118.757812 99.382812 118.34375 98.417969 117.78125 97.449219 Z M 121.808594 107.292969 "/>
<path style=" stroke:none;fill-rule:evenodd;fill:rgb(0%,100%,0%);fill-opacity:0.1;" d="M 250.796875 65.566406 L 138.0625 65.566406 L 138.0625 140.882812 L 250.796875 140.882812 Z M 250.796875 65.566406 "/>
<path style=" stroke:none;fill-rule:evenodd;fill:rgb(0%,0%,0%);fill-opacity:1;" d="M 158.34375 97.449219 C 157.78125 98.417969 157.359375 99.382812 157.078125 100.339844 C 156.804688 101.289062 156.671875 102.246094 156.671875 103.214844 C 156.671875 104.195312 156.804688 105.164062 157.078125 106.121094 C 157.359375 107.082031 157.78125 108.035156 158.34375 108.996094 L 157.34375 108.996094 C 156.707031 108.003906 156.226562 107.035156 155.90625 106.074219 C 155.59375 105.117188 155.4375 104.164062 155.4375 103.214844 C 155.4375 102.277344 155.59375 101.335938 155.90625 100.386719 C 156.21875 99.429688 156.695312 98.449219 157.34375 97.449219 Z M 163.511719 98.683594 C 162.855469 98.683594 162.359375 99.007812 162.027344 99.652344 C 161.691406 100.300781 161.527344 101.273438 161.527344 102.574219 C 161.527344 103.867188 161.691406 104.839844 162.027344 105.496094 C 162.359375 106.144531 162.855469 106.464844 163.511719 106.464844 C 164.167969 106.464844 164.660156 106.144531 164.996094 105.496094 C 165.328125 104.839844 165.496094 103.867188 165.496094 102.574219 C 165.496094 101.273438 165.328125 100.300781 164.996094 99.652344 C 164.660156 99.007812 164.167969 98.683594 163.511719 98.683594 Z M 163.511719 97.667969 C 164.574219 97.667969 165.378906 98.089844 165.933594 98.933594 C 166.496094 99.769531 166.777344 100.980469 166.777344 102.574219 C 166.777344 104.167969 166.496094 105.386719 165.933594 106.230469 C 165.378906 107.066406 164.574219 107.480469 163.511719 107.480469 C 162.449219 107.480469 161.636719 107.066406 161.074219 106.230469 C 160.519531 105.386719 160.246094 104.167969 160.246094 102.574219 C 160.246094 100.980469 160.519531 99.769531 161.074219 98.933594 C 161.636719 98.089844 162.449219 97.667969 163.511719 97.667969 Z M 169.152344 105.683594 L 170.496094 105.683594 L 170.496094 106.777344 L 169.449219 108.792969 L 168.636719 108.792969 L 169.152344 106.777344 Z M 177.488281 106.214844 L 179.582031 106.214844 L 179.582031 98.996094 L 177.300781 99.464844 L 177.300781 98.292969 L 179.566406 97.839844 L 180.847656 97.839844 L 180.847656 106.214844 L 182.925781 106.214844 L 182.925781 107.292969 L 177.488281 107.292969 Z M 185.644531 105.683594 L 186.988281 105.683594 L 186.988281 106.777344 L 185.941406 108.792969 L 185.128906 108.792969 L 185.644531 106.777344 Z M 196.496094 98.683594 C 195.839844 98.683594 195.34375 99.007812 195.011719 99.652344 C 194.675781 100.300781 194.511719 101.273438 194.511719 102.574219 C 194.511719 103.867188 194.675781 104.839844 195.011719 105.496094 C 195.34375 106.144531 195.839844 106.464844 196.496094 106.464844 C 197.152344 106.464844 197.644531 106.144531 197.980469 105.496094 C 198.3125 104.839844 198.480469 103.867188 198.480469 102.574219 C 198.480469 101.273438 198.3125 100.300781 197.980469 99.652344 C 197.644531 99.007812 197.152344 98.683594 196.496094 98.683594 Z M 196.496094 97.667969 C 197.558594 97.667969 198.363281 98.089844 198.917969 98.933594 C 199.480469 99.769531 199.761719 100.980469 199.761719 102.574219 C 199.761719 104.167969 199.480469 105.386719 198.917969 106.230469 C 198.363281 107.066406 197.558594 107.480469 196.496094 107.480469 C 195.433594 107.480469 194.621094 107.066406 194.058594 106.230469 C 193.503906 105.386719 193.230469 104.167969 193.230469 102.574219 C 193.230469 100.980469 193.503906 99.769531 194.058594 98.933594 C 194.621094 98.089844 195.433594 97.667969 196.496094 97.667969 Z M 202.136719 105.683594 L 203.480469 105.683594 L 203.480469 106.777344 L 202.433594 108.792969 L 201.621094 108.792969 L 202.136719 106.777344 Z M 212.988281 98.683594 C 212.332031 98.683594 211.835938 99.007812 211.503906 99.652344 C 211.167969 100.300781 211.003906 101.273438 211.003906 102.574219 C 211.003906 103.867188 211.167969 104.839844 211.503906 105.496094 C 211.835938 106.144531 212.332031 106.464844 212.988281 106.464844 C 213.644531 106.464844 214.136719 106.144531 214.472656 105.496094 C 214.804688 104.839844 214.972656 103.867188 214.972656 102.574219 C 214.972656 101.273438 214.804688 100.300781 214.472656 99.652344 C 214.136719 99.007812 213.644531 98.683594 212.988281 98.683594 Z M 212.988281 97.667969 C 214.050781 97.667969 214.855469 98.089844 215.410156 98.933594 C 215.972656 99.769531 216.253906 100.980469 216.253906 102.574219 C 216.253906 104.167969 215.972656 105.386719 215.410156 106.230469 C 214.855469 107.066406 214.050781 107.480469 212.988281 107.480469 C 211.925781 107.480469 211.113281 107.066406 210.550781 106.230469 C 209.996094 105.386719 209.722656 104.167969 209.722656 102.574219 C 209.722656 100.980469 209.996094 99.769531 210.550781 98.933594 C 211.113281 98.089844 211.925781 97.667969 212.988281 97.667969 Z M 218.503906 105.683594 L 219.832031 105.683594 L 219.832031 107.292969 L 218.503906 107.292969 Z M 222.84375 106.214844 L 224.9375 106.214844 L 224.9375 98.996094 L 222.65625 99.464844 L 222.65625 98.292969 L 224.921875 97.839844 L 226.203125 97.839844 L 226.203125 106.214844 L 228.28125 106.214844 L 228.28125 107.292969 L 222.84375 107.292969 Z M 230.515625 97.449219 L 231.53125 97.449219 C 232.164062 98.449219 232.640625 99.429688 232.953125 100.386719 C 233.265625 101.335938 233.421875 102.277344 233.421875 103.214844 C 233.421875 104.164062 233.265625 105.117188 232.953125 106.074219 C 232.640625 107.035156 232.164062 108.003906 231.53125 108.996094 L 230.515625 108.996094 C 231.078125 108.035156 231.492188 107.082031 231.765625 106.121094 C 232.046875 105.164062 232.1875 104.195312 232.1875 103.214844 C 232.1875 102.246094 232.046875 101.289062 231.765625 100.339844 C 231.492188 99.382812 231.078125 98.417969 230.515625 97.449219 Z M 234.542969 107.292969 "/>
<path style="fill:none;stroke-width:1.440674;stroke-linecap:butt;stroke-linejoin:miter;stroke:rgb(0%,0%,0%);stroke-opacity:1;stroke-miterlimit:10;" d="M 250.796875 140.882812 L 25.328125 140.882812 L 25.328125 65.566406 L 250.796875 65.566406 Z M 250.796875 140.882812 "/>
<path style=" stroke:none;fill-rule:evenodd;fill:rgb(0%,0%,0%);fill-opacity:1;" d="M 145.265625 103.222656 C 145.265625 99.246094 142.042969 96.019531 138.0625 96.019531 C 134.085938 96.019531 130.859375 99.246094 130.859375 103.222656 C 130.859375 107.203125 134.085938 110.425781 138.0625 110.425781 C 142.042969 110.425781 145.265625 107.203125 145.265625 103.222656 M 147.425781 103.222656 C 147.425781 98.050781 143.234375 93.859375 138.0625 93.859375 C 132.890625 93.859375 128.699219 98.050781 128.699219 103.222656 C 128.699219 108.394531 132.890625 112.585938 138.0625 112.585938 C 143.234375 112.585938 147.425781 108.394531 147.425781 103.222656 "/>
<path style="fill:none;stroke-width:3.601685;stroke-linecap:butt;stroke-linejoin:miter;stroke:rgb(0%,0%,0%);stroke-opacity:1;stroke-miterlimit:10;" d="M 138.0625 111.867188 L 138.0625 156.894531 "/>
<path style=" stroke:none;fill-rule:evenodd;fill:rgb(0%,0%,0%);fill-opacity:1;" d="M 138.0625 170.582031 L 130.859375 156.175781 L 145.265625 156.175781 Z M 138.0625 170.582031 "/>
<path style=" stroke:none;fill-rule:evenodd;fill:rgb(50%,50%,0%);fill-opacity:0.4;" d="M 196.410156 228.207031 C 196.410156 195.984375 170.289062 169.859375 138.0625 169.859375 C 105.839844 169.859375 79.714844 195.984375 79.714844 228.207031 C 79.714844 260.433594 105.839844 286.554688 138.0625 286.554688 C 170.289062 286.554688 196.410156 260.433594 196.410156 228.207031 "/>
<path style=" stroke:none;fill-rule:evenodd;fill:rgb(0%,0%,0%);fill-opacity:1;" d="M 97.6875 223.394531 C 97.207031 224.207031 96.851562 225.011719 96.625 225.800781 C 96.394531 226.59375 96.28125 227.394531 96.28125 228.207031 C 96.28125 229.019531 96.394531 229.828125 96.625 230.628906 C 96.863281 231.421875 97.21875 232.214844 97.6875 233.019531 L 96.828125 233.019531 C 96.304688 232.195312 95.910156 231.386719 95.640625 230.582031 C 95.378906 229.78125 95.25 228.988281 95.25 228.207031 C 95.25 227.417969 95.378906 226.625 95.640625 225.832031 C 95.898438 225.042969 96.296875 224.230469 96.828125 223.394531 Z M 101.980469 224.410156 C 101.425781 224.410156 101.011719 224.683594 100.730469 225.222656 C 100.457031 225.765625 100.324219 226.578125 100.324219 227.660156 C 100.324219 228.746094 100.457031 229.558594 100.730469 230.097656 C 101.011719 230.640625 101.425781 230.910156 101.980469 230.910156 C 102.53125 230.910156 102.941406 230.640625 103.214844 230.097656 C 103.496094 229.558594 103.636719 228.746094 103.636719 227.660156 C 103.636719 226.578125 103.496094 225.765625 103.214844 225.222656 C 102.941406 224.683594 102.53125 224.410156 101.980469 224.410156 Z M 101.980469 223.566406 C 102.863281 223.566406 103.535156 223.921875 103.996094 224.628906 C 104.464844 225.328125 104.699219 226.339844 104.699219 227.660156 C 104.699219 228.996094 104.464844 230.011719 103.996094 230.707031 C 103.535156 231.40625 102.863281 231.753906 101.980469 231.753906 C 101.09375 231.753906 100.417969 231.40625 99.949219 230.707031 C 99.488281 230.011719 99.261719 228.996094 99.261719 227.660156 C 99.261719 226.339844 99.488281 225.328125 99.949219 224.628906 C 100.417969 223.921875 101.09375 223.566406 101.980469 223.566406 Z M 106.574219 230.253906 L 107.683594 230.253906 L 107.683594 231.597656 L 106.574219 231.597656 Z M 110.023438 223.722656 L 114.210938 223.722656 L 114.210938 224.613281 L 110.992188 224.613281 L 110.992188 226.550781 C 111.148438 226.5 111.304688 226.464844 111.460938 226.441406 C 111.617188 226.410156 111.773438 226.394531 111.929688 226.394531 C 112.804688 226.394531 113.496094 226.636719 114.007812 227.113281 C 114.527344 227.59375 114.789062 228.246094 114.789062 229.066406 C 114.789062 229.921875 114.523438 230.582031 113.992188 231.050781 C 113.460938 231.519531 112.714844 231.753906 111.757812 231.753906 C 111.421875 231.753906 111.085938 231.722656 110.742188 231.660156 C 110.40625 231.605469 110.054688 231.527344 109.679688 231.410156 L 109.679688 230.347656 C 110 230.515625 110.328125 230.640625 110.664062 230.722656 C 111.007812 230.808594 111.367188 230.847656 111.742188 230.847656 C 112.34375 230.847656 112.824219 230.691406 113.179688 230.378906 C 113.542969 230.058594 113.726562 229.621094 113.726562 229.066406 C 113.726562 228.515625 113.542969 228.082031 113.179688 227.769531 C 112.824219 227.449219 112.34375 227.285156 111.742188 227.285156 C 111.449219 227.285156 111.164062 227.316406 110.882812 227.378906 C 110.601562 227.441406 110.3125 227.542969 110.023438 227.675781 Z M 116.992188 230.253906 L 118.101562 230.253906 L 118.101562 231.160156 L 117.242188 232.847656 L 116.554688 232.847656 L 116.992188 231.160156 Z M 126.035156 224.410156 C 125.480469 224.410156 125.066406 224.683594 124.785156 225.222656 C 124.511719 225.765625 124.378906 226.578125 124.378906 227.660156 C 124.378906 228.746094 124.511719 229.558594 124.785156 230.097656 C 125.066406 230.640625 125.480469 230.910156 126.035156 230.910156 C 126.585938 230.910156 126.996094 230.640625 127.269531 230.097656 C 127.550781 229.558594 127.691406 228.746094 127.691406 227.660156 C 127.691406 226.578125 127.550781 225.765625 127.269531 225.222656 C 126.996094 224.683594 126.585938 224.410156 126.035156 224.410156 Z M 126.035156 223.566406 C 126.917969 223.566406 127.589844 223.921875 128.050781 224.628906 C 128.519531 225.328125 128.753906 226.339844 128.753906 227.660156 C 128.753906 228.996094 128.519531 230.011719 128.050781 230.707031 C 127.589844 231.40625 126.917969 231.753906 126.035156 231.753906 C 125.148438 231.753906 124.472656 231.40625 124.003906 230.707031 C 123.542969 230.011719 123.316406 228.996094 123.316406 227.660156 C 123.316406 226.339844 123.542969 225.328125 124.003906 224.628906 C 124.472656 223.921875 125.148438 223.566406 126.035156 223.566406 Z M 130.628906 230.253906 L 131.738281 230.253906 L 131.738281 231.597656 L 130.628906 231.597656 Z M 134.078125 223.722656 L 138.265625 223.722656 L 138.265625 224.613281 L 135.046875 224.613281 L 135.046875 226.550781 C 135.203125 226.5 135.359375 226.464844 135.515625 226.441406 C 135.671875 226.410156 135.828125 226.394531 135.984375 226.394531 C 136.859375 226.394531 137.550781 226.636719 138.0625 227.113281 C 138.582031 227.59375 138.84375 228.246094 138.84375 229.066406 C 138.84375 229.921875 138.578125 230.582031 138.046875 231.050781 C 137.515625 231.519531 136.769531 231.753906 135.8125 231.753906 C 135.476562 231.753906 135.140625 231.722656 134.796875 231.660156 C 134.460938 231.605469 134.109375 231.527344 133.734375 231.410156 L 133.734375 230.347656 C 134.054688 230.515625 134.382812 230.640625 134.71875 230.722656 C 135.0625 230.808594 135.421875 230.847656 135.796875 230.847656 C 136.398438 230.847656 136.878906 230.691406 137.234375 230.378906 C 137.597656 230.058594 137.78125 229.621094 137.78125 229.066406 C 137.78125 228.515625 137.597656 228.082031 137.234375 227.769531 C 136.878906 227.449219 136.398438 227.285156 135.796875 227.285156 C 135.503906 227.285156 135.21875 227.316406 134.9375 227.378906 C 134.65625 227.441406 134.367188 227.542969 134.078125 227.675781 Z M 141.046875 230.253906 L 142.15625 230.253906 L 142.15625 231.160156 L 141.296875 232.847656 L 140.609375 232.847656 L 141.046875 231.160156 Z M 150.085938 224.410156 C 149.53125 224.410156 149.117188 224.683594 148.835938 225.222656 C 148.5625 225.765625 148.429688 226.578125 148.429688 227.660156 C 148.429688 228.746094 148.5625 229.558594 148.835938 230.097656 C 149.117188 230.640625 149.53125 230.910156 150.085938 230.910156 C 150.636719 230.910156 151.046875 230.640625 151.320312 230.097656 C 151.601562 229.558594 151.742188 228.746094 151.742188 227.660156 C 151.742188 226.578125 151.601562 225.765625 151.320312 225.222656 C 151.046875 224.683594 150.636719 224.410156 150.085938 224.410156 Z M 150.085938 223.566406 C 150.96875 223.566406 151.640625 223.921875 152.101562 224.628906 C 152.570312 225.328125 152.804688 226.339844 152.804688 227.660156 C 152.804688 228.996094 152.570312 230.011719 152.101562 230.707031 C 151.640625 231.40625 150.96875 231.753906 150.085938 231.753906 C 149.199219 231.753906 148.523438 231.40625 148.054688 230.707031 C 147.59375 230.011719 147.367188 228.996094 147.367188 227.660156 C 147.367188 226.339844 147.59375 225.328125 148.054688 224.628906 C 148.523438 223.921875 149.199219 223.566406 150.085938 223.566406 Z M 154.789062 230.253906 L 155.898438 230.253906 L 155.898438 231.160156 L 155.039062 232.847656 L 154.351562 232.847656 L 154.789062 231.160156 Z M 163.832031 224.410156 C 163.277344 224.410156 162.863281 224.683594 162.582031 225.222656 C 162.308594 225.765625 162.175781 226.578125 162.175781 227.660156 C 162.175781 228.746094 162.308594 229.558594 162.582031 230.097656 C 162.863281 230.640625 163.277344 230.910156 163.832031 230.910156 C 164.382812 230.910156 164.792969 230.640625 165.066406 230.097656 C 165.347656 229.558594 165.488281 228.746094 165.488281 227.660156 C 165.488281 226.578125 165.347656 225.765625 165.066406 225.222656 C 164.792969 224.683594 164.382812 224.410156 163.832031 224.410156 Z M 163.832031 223.566406 C 164.714844 223.566406 165.386719 223.921875 165.847656 224.628906 C 166.316406 225.328125 166.550781 226.339844 166.550781 227.660156 C 166.550781 228.996094 166.316406 230.011719 165.847656 230.707031 C 165.386719 231.40625 164.714844 231.753906 163.832031 231.753906 C 162.945312 231.753906 162.269531 231.40625 161.800781 230.707031 C 161.339844 230.011719 161.113281 228.996094 161.113281 227.660156 C 161.113281 226.339844 161.339844 225.328125 161.800781 224.628906 C 162.269531 223.921875 162.945312 223.566406 163.832031 223.566406 Z M 168.421875 230.253906 L 169.53125 230.253906 L 169.53125 231.597656 L 168.421875 231.597656 Z M 174.796875 224.644531 L 172.09375 228.847656 L 174.796875 228.847656 Z M 174.515625 223.722656 L 175.84375 223.722656 L 175.84375 228.847656 L 176.96875 228.847656 L 176.96875 229.738281 L 175.84375 229.738281 L 175.84375 231.597656 L 174.796875 231.597656 L 174.796875 229.738281 L 171.234375 229.738281 L 171.234375 228.707031 Z M 178.4375 223.394531 L 179.28125 223.394531 C 179.8125 224.230469 180.207031 225.042969 180.46875 225.832031 C 180.738281 226.625 180.875 227.417969 180.875 228.207031 C 180.875 228.988281 180.738281 229.78125 180.46875 230.582031 C 180.207031 231.386719 179.8125 232.195312 179.28125 233.019531 L 178.4375 233.019531 C 178.90625 232.214844 179.253906 231.421875 179.484375 230.628906 C 179.722656 229.828125 179.84375 229.019531 179.84375 228.207031 C 179.84375 227.394531 179.722656 226.59375 179.484375 225.800781 C 179.253906 225.011719 178.90625 224.207031 178.4375 223.394531 Z M 181.792969 231.597656 "/>
<path style=" stroke:none;fill-rule:evenodd;fill:rgb(0%,0%,0%);fill-opacity:1;" d="M 195.691406 228.207031 C 195.691406 196.382812 169.890625 170.582031 138.0625 170.582031 C 106.238281 170.582031 80.4375 196.382812 80.4375 228.207031 C 80.4375 260.035156 106.238281 285.835938 138.0625 285.835938 C 169.890625 285.835938 195.691406 260.035156 195.691406 228.207031 M 197.851562 228.207031 C 197.851562 195.1875 171.082031 168.421875 138.0625 168.421875 C 105.042969 168.421875 78.273438 195.1875 78.273438 228.207031 C 78.273438 261.226562 105.042969 287.996094 138.0625 287.996094 C 171.082031 287.996094 197.851562 261.226562 197.851562 228.207031 "/>
<path style=" stroke:none;fill-rule:evenodd;fill:rgb(0%,0%,0%);fill-opacity:1;" d="M 306.96875 16.601562 L 308.390625 16.601562 L 310.609375 25.476562 L 312.8125 16.601562 L 314.40625 16.601562 L 316.609375 25.476562 L 318.8125 16.601562 L 320.25 16.601562 L 317.625 27.101562 L 315.828125 27.101562 L 313.609375 17.992188 L 311.375 27.101562 L 309.59375 27.101562 Z M 322.089844 19.226562 L 323.386719 19.226562 L 323.386719 27.101562 L 322.089844 27.101562 Z M 322.089844 16.148438 L 323.386719 16.148438 L 323.386719 17.789062 L 322.089844 17.789062 Z M 327.371094 16.992188 L 327.371094 19.226562 L 330.027344 19.226562 L 330.027344 20.226562 L 327.371094 20.226562 L 327.371094 24.507812 C 327.371094 25.15625 327.457031 25.570312 327.636719 25.757812 C 327.8125 25.9375 328.167969 26.023438 328.699219 26.023438 L 330.027344 26.023438 L 330.027344 27.101562 L 328.699219 27.101562 C 327.699219 27.101562 327.011719 26.914062 326.636719 26.539062 C 326.261719 26.164062 326.074219 25.488281 326.074219 24.507812 L 326.074219 20.226562 L 325.121094 20.226562 L 325.121094 19.226562 L 326.074219 19.226562 L 326.074219 16.992188 Z M 338.285156 22.351562 L 338.285156 27.101562 L 336.988281 27.101562 L 336.988281 22.382812 C 336.988281 21.644531 336.839844 21.09375 336.550781 20.726562 C 336.257812 20.351562 335.824219 20.164062 335.253906 20.164062 C 334.542969 20.164062 333.988281 20.390625 333.582031 20.835938 C 333.183594 21.273438 332.988281 21.878906 332.988281 22.648438 L 332.988281 27.101562 L 331.691406 27.101562 L 331.691406 16.148438 L 332.988281 16.148438 L 332.988281 20.445312 C 333.300781 19.976562 333.664062 19.628906 334.082031 19.398438 C 334.496094 19.160156 334.980469 19.039062 335.535156 19.039062 C 336.441406 19.039062 337.121094 19.320312 337.582031 19.882812 C 338.050781 20.4375 338.285156 21.257812 338.285156 22.351562 Z M 346.730469 16.992188 L 346.730469 19.226562 L 349.386719 19.226562 L 349.386719 20.226562 L 346.730469 20.226562 L 346.730469 24.507812 C 346.730469 25.15625 346.816406 25.570312 346.996094 25.757812 C 347.171875 25.9375 347.527344 26.023438 348.058594 26.023438 L 349.386719 26.023438 L 349.386719 27.101562 L 348.058594 27.101562 C 347.058594 27.101562 346.371094 26.914062 345.996094 26.539062 C 345.621094 26.164062 345.433594 25.488281 345.433594 24.507812 L 345.433594 20.226562 L 344.480469 20.226562 L 344.480469 19.226562 L 345.433594 19.226562 L 345.433594 16.992188 Z M 357.832031 22.835938 L 357.832031 23.476562 L 351.878906 23.476562 C 351.941406 24.363281 352.210938 25.039062 352.691406 25.507812 C 353.167969 25.976562 353.835938 26.210938 354.691406 26.210938 C 355.191406 26.210938 355.675781 26.148438 356.144531 26.023438 C 356.613281 25.898438 357.074219 25.71875 357.535156 25.476562 L 357.535156 26.695312 C 357.066406 26.894531 356.585938 27.046875 356.097656 27.148438 C 355.617188 27.25 355.121094 27.304688 354.613281 27.304688 C 353.363281 27.304688 352.367188 26.941406 351.628906 26.210938 C 350.898438 25.484375 350.535156 24.492188 350.535156 23.242188 C 350.535156 21.953125 350.882812 20.929688 351.582031 20.179688 C 352.277344 19.421875 353.214844 19.039062 354.394531 19.039062 C 355.457031 19.039062 356.292969 19.382812 356.910156 20.070312 C 357.523438 20.75 357.832031 21.671875 357.832031 22.835938 Z M 356.535156 22.460938 C 356.523438 21.753906 356.324219 21.191406 355.941406 20.773438 C 355.554688 20.347656 355.042969 20.132812 354.410156 20.132812 C 353.691406 20.132812 353.113281 20.335938 352.675781 20.742188 C 352.238281 21.148438 351.988281 21.722656 351.925781 22.460938 Z M 366.507812 19.226562 L 363.664062 23.054688 L 366.648438 27.101562 L 365.132812 27.101562 L 362.835938 24.007812 L 360.539062 27.101562 L 359.023438 27.101562 L 362.070312 22.976562 L 359.273438 19.226562 L 360.804688 19.226562 L 362.898438 22.023438 L 364.976562 19.226562 Z M 369.769531 16.992188 L 369.769531 19.226562 L 372.425781 19.226562 L 372.425781 20.226562 L 369.769531 20.226562 L 369.769531 24.507812 C 369.769531 25.15625 369.855469 25.570312 370.035156 25.757812 C 370.210938 25.9375 370.566406 26.023438 371.097656 26.023438 L 372.425781 26.023438 L 372.425781 27.101562 L 371.097656 27.101562 C 370.097656 27.101562 369.410156 26.914062 369.035156 26.539062 C 368.660156 26.164062 368.472656 25.488281 368.472656 24.507812 L 368.472656 20.226562 L 367.519531 20.226562 L 367.519531 19.226562 L 368.472656 19.226562 L 368.472656 16.992188 Z M 373.996094 23.992188 L 373.996094 19.226562 L 375.292969 19.226562 L 375.292969 23.945312 C 375.292969 24.6875 375.4375 25.242188 375.730469 25.617188 C 376.019531 25.992188 376.457031 26.179688 377.042969 26.179688 C 377.738281 26.179688 378.292969 25.957031 378.699219 25.507812 C 379.105469 25.0625 379.308594 24.457031 379.308594 23.695312 L 379.308594 19.226562 L 380.605469 19.226562 L 380.605469 27.101562 L 379.308594 27.101562 L 379.308594 25.898438 C 378.996094 26.367188 378.628906 26.722656 378.214844 26.960938 C 377.796875 27.1875 377.3125 27.304688 376.761719 27.304688 C 375.855469 27.304688 375.167969 27.023438 374.699219 26.460938 C 374.230469 25.898438 373.996094 25.078125 373.996094 23.992188 Z M 377.261719 19.039062 Z M 387.832031 20.429688 C 387.683594 20.347656 387.523438 20.285156 387.347656 20.242188 C 387.179688 20.203125 386.992188 20.179688 386.785156 20.179688 C 386.054688 20.179688 385.492188 20.421875 385.097656 20.898438 C 384.710938 21.378906 384.519531 22.0625 384.519531 22.945312 L 384.519531 27.101562 L 383.222656 27.101562 L 383.222656 19.226562 L 384.519531 19.226562 L 384.519531 20.445312 C 384.789062 19.96875 385.144531 19.613281 385.582031 19.382812 C 386.019531 19.15625 386.550781 19.039062 387.175781 19.039062 C 387.257812 19.039062 387.351562 19.046875 387.457031 19.054688 C 387.570312 19.066406 387.695312 19.082031 387.832031 19.101562 Z M 395.925781 22.835938 L 395.925781 23.476562 L 389.972656 23.476562 C 390.035156 24.363281 390.304688 25.039062 390.785156 25.507812 C 391.261719 25.976562 391.929688 26.210938 392.785156 26.210938 C 393.285156 26.210938 393.769531 26.148438 394.238281 26.023438 C 394.707031 25.898438 395.167969 25.71875 395.628906 25.476562 L 395.628906 26.695312 C 395.160156 26.894531 394.679688 27.046875 394.191406 27.148438 C 393.710938 27.25 393.214844 27.304688 392.707031 27.304688 C 391.457031 27.304688 390.460938 26.941406 389.722656 26.210938 C 388.992188 25.484375 388.628906 24.492188 388.628906 23.242188 C 388.628906 21.953125 388.976562 20.929688 389.675781 20.179688 C 390.371094 19.421875 391.308594 19.039062 392.488281 19.039062 C 393.550781 19.039062 394.386719 19.382812 395.003906 20.070312 C 395.617188 20.75 395.925781 21.671875 395.925781 22.835938 Z M 394.628906 22.460938 C 394.617188 21.753906 394.417969 21.191406 394.035156 20.773438 C 393.648438 20.347656 393.136719 20.132812 392.503906 20.132812 C 391.785156 20.132812 391.207031 20.335938 390.769531 20.742188 C 390.332031 21.148438 390.082031 21.722656 390.019531 22.460938 Z M 403.882812 25.914062 L 403.882812 30.101562 L 402.585938 30.101562 L 402.585938 19.226562 L 403.882812 19.226562 L 403.882812 20.414062 C 404.152344 19.945312 404.496094 19.601562 404.914062 19.382812 C 405.328125 19.15625 405.824219 19.039062 406.398438 19.039062 C 407.355469 19.039062 408.132812 19.421875 408.726562 20.179688 C 409.328125 20.929688 409.632812 21.925781 409.632812 23.164062 C 409.632812 24.40625 409.328125 25.40625 408.726562 26.164062 C 408.132812 26.925781 407.355469 27.304688 406.398438 27.304688 C 405.824219 27.304688 405.328125 27.1875 404.914062 26.960938 C 404.496094 26.734375 404.152344 26.382812 403.882812 25.914062 Z M 408.289062 23.164062 C 408.289062 22.21875 408.089844 21.472656 407.695312 20.929688 C 407.308594 20.390625 406.773438 20.117188 406.085938 20.117188 C 405.398438 20.117188 404.855469 20.390625 404.460938 20.929688 C 404.074219 21.472656 403.882812 22.21875 403.882812 23.164062 C 403.882812 24.125 404.074219 24.875 404.460938 25.414062 C 404.855469 25.957031 405.398438 26.226562 406.085938 26.226562 C 406.773438 26.226562 407.308594 25.957031 407.695312 25.414062 C 408.089844 24.875 408.289062 24.125 408.289062 23.164062 Z M 416.339844 20.429688 C 416.191406 20.347656 416.03125 20.285156 415.855469 20.242188 C 415.6875 20.203125 415.5 20.179688 415.292969 20.179688 C 414.5625 20.179688 414 20.421875 413.605469 20.898438 C 413.21875 21.378906 413.027344 22.0625 413.027344 22.945312 L 413.027344 27.101562 L 411.730469 27.101562 L 411.730469 19.226562 L 413.027344 19.226562 L 413.027344 20.445312 C 413.296875 19.96875 413.652344 19.613281 414.089844 19.382812 C 414.527344 19.15625 415.058594 19.039062 415.683594 19.039062 C 415.765625 19.039062 415.859375 19.046875 415.964844 19.054688 C 416.078125 19.066406 416.203125 19.082031 416.339844 19.101562 Z M 424.4375 22.835938 L 424.4375 23.476562 L 418.484375 23.476562 C 418.546875 24.363281 418.816406 25.039062 419.296875 25.507812 C 419.773438 25.976562 420.441406 26.210938 421.296875 26.210938 C 421.796875 26.210938 422.28125 26.148438 422.75 26.023438 C 423.21875 25.898438 423.679688 25.71875 424.140625 25.476562 L 424.140625 26.695312 C 423.671875 26.894531 423.191406 27.046875 422.703125 27.148438 C 422.222656 27.25 421.726562 27.304688 421.21875 27.304688 C 419.96875 27.304688 418.972656 26.941406 418.234375 26.210938 C 417.503906 25.484375 417.140625 24.492188 417.140625 23.242188 C 417.140625 21.953125 417.488281 20.929688 418.1875 20.179688 C 418.882812 19.421875 419.820312 19.039062 421 19.039062 C 422.0625 19.039062 422.898438 19.382812 423.515625 20.070312 C 424.128906 20.75 424.4375 21.671875 424.4375 22.835938 Z M 423.140625 22.460938 C 423.128906 21.753906 422.929688 21.191406 422.546875 20.773438 C 422.160156 20.347656 421.648438 20.132812 421.015625 20.132812 C 420.296875 20.132812 419.71875 20.335938 419.28125 20.742188 C 418.84375 21.148438 418.59375 21.722656 418.53125 22.460938 Z M 432.691406 20.742188 C 433.023438 20.160156 433.414062 19.734375 433.863281 19.460938 C 434.308594 19.179688 434.835938 19.039062 435.441406 19.039062 C 436.261719 19.039062 436.898438 19.328125 437.347656 19.898438 C 437.792969 20.472656 438.019531 21.289062 438.019531 22.351562 L 438.019531 27.101562 L 436.722656 27.101562 L 436.722656 22.382812 C 436.722656 21.632812 436.585938 21.078125 436.316406 20.710938 C 436.042969 20.347656 435.636719 20.164062 435.097656 20.164062 C 434.417969 20.164062 433.882812 20.390625 433.488281 20.835938 C 433.101562 21.273438 432.910156 21.878906 432.910156 22.648438 L 432.910156 27.101562 L 431.613281 27.101562 L 431.613281 22.382812 C 431.613281 21.625 431.476562 21.066406 431.207031 20.710938 C 430.945312 20.347656 430.535156 20.164062 429.972656 20.164062 C 429.316406 20.164062 428.789062 20.390625 428.394531 20.835938 C 428.007812 21.285156 427.816406 21.890625 427.816406 22.648438 L 427.816406 27.101562 L 426.519531 27.101562 L 426.519531 19.226562 L 427.816406 19.226562 L 427.816406 20.445312 C 428.105469 19.96875 428.460938 19.613281 428.878906 19.382812 C 429.292969 19.15625 429.785156 19.039062 430.347656 19.039062 C 430.917969 19.039062 431.402344 19.1875 431.800781 19.476562 C 432.207031 19.757812 432.503906 20.179688 432.691406 20.742188 Z M 440.460938 23.992188 L 440.460938 19.226562 L 441.757812 19.226562 L 441.757812 23.945312 C 441.757812 24.6875 441.902344 25.242188 442.195312 25.617188 C 442.484375 25.992188 442.921875 26.179688 443.507812 26.179688 C 444.203125 26.179688 444.757812 25.957031 445.164062 25.507812 C 445.570312 25.0625 445.773438 24.457031 445.773438 23.695312 L 445.773438 19.226562 L 447.070312 19.226562 L 447.070312 27.101562 L 445.773438 27.101562 L 445.773438 25.898438 C 445.460938 26.367188 445.09375 26.722656 444.679688 26.960938 C 444.261719 27.1875 443.777344 27.304688 443.226562 27.304688 C 442.320312 27.304688 441.632812 27.023438 441.164062 26.460938 C 440.695312 25.898438 440.460938 25.078125 440.460938 23.992188 Z M 443.726562 19.039062 Z M 449.730469 16.148438 L 451.027344 16.148438 L 451.027344 27.101562 L 449.730469 27.101562 Z M 455.015625 16.992188 L 455.015625 19.226562 L 457.671875 19.226562 L 457.671875 20.226562 L 455.015625 20.226562 L 455.015625 24.507812 C 455.015625 25.15625 455.101562 25.570312 455.28125 25.757812 C 455.457031 25.9375 455.8125 26.023438 456.34375 26.023438 L 457.671875 26.023438 L 457.671875 27.101562 L 456.34375 27.101562 C 455.34375 27.101562 454.65625 26.914062 454.28125 26.539062 C 453.90625 26.164062 453.71875 25.488281 453.71875 24.507812 L 453.71875 20.226562 L 452.765625 20.226562 L 452.765625 19.226562 L 453.71875 19.226562 L 453.71875 16.992188 Z M 459.382812 19.226562 L 460.679688 19.226562 L 460.679688 27.101562 L 459.382812 27.101562 Z M 459.382812 16.148438 L 460.679688 16.148438 L 460.679688 17.789062 L 459.382812 17.789062 Z M 464.632812 25.914062 L 464.632812 30.101562 L 463.335938 30.101562 L 463.335938 19.226562 L 464.632812 19.226562 L 464.632812 20.414062 C 464.902344 19.945312 465.246094 19.601562 465.664062 19.382812 C 466.078125 19.15625 466.574219 19.039062 467.148438 19.039062 C 468.105469 19.039062 468.882812 19.421875 469.476562 20.179688 C 470.078125 20.929688 470.382812 21.925781 470.382812 23.164062 C 470.382812 24.40625 470.078125 25.40625 469.476562 26.164062 C 468.882812 26.925781 468.105469 27.304688 467.148438 27.304688 C 466.574219 27.304688 466.078125 27.1875 465.664062 26.960938 C 465.246094 26.734375 464.902344 26.382812 464.632812 25.914062 Z M 469.039062 23.164062 C 469.039062 22.21875 468.839844 21.472656 468.445312 20.929688 C 468.058594 20.390625 467.523438 20.117188 466.835938 20.117188 C 466.148438 20.117188 465.605469 20.390625 465.210938 20.929688 C 464.824219 21.472656 464.632812 22.21875 464.632812 23.164062 C 464.632812 24.125 464.824219 24.875 465.210938 25.414062 C 465.605469 25.957031 466.148438 26.226562 466.835938 26.226562 C 467.523438 26.226562 468.058594 25.957031 468.445312 25.414062 C 468.839844 24.875 469.039062 24.125 469.039062 23.164062 Z M 472.53125 16.148438 L 473.828125 16.148438 L 473.828125 27.101562 L 472.53125 27.101562 Z M 476.53125 19.226562 L 477.828125 19.226562 L 477.828125 27.101562 L 476.53125 27.101562 Z M 476.53125 16.148438 L 477.828125 16.148438 L 477.828125 17.789062 L 476.53125 17.789062 Z M 486.207031 19.523438 L 486.207031 20.742188 C 485.839844 20.535156 485.472656 20.382812 485.097656 20.289062 C 484.730469 20.1875 484.363281 20.132812 483.988281 20.132812 C 483.144531 20.132812 482.488281 20.398438 482.019531 20.929688 C 481.558594 21.460938 481.332031 22.207031 481.332031 23.164062 C 481.332031 24.132812 481.558594 24.882812 482.019531 25.414062 C 482.488281 25.945312 483.144531 26.210938 483.988281 26.210938 C 484.363281 26.210938 484.730469 26.160156 485.097656 26.054688 C 485.472656 25.953125 485.839844 25.800781 486.207031 25.601562 L 486.207031 26.804688 C 485.839844 26.972656 485.464844 27.097656 485.082031 27.179688 C 484.695312 27.261719 484.285156 27.304688 483.847656 27.304688 C 482.660156 27.304688 481.714844 26.9375 481.019531 26.195312 C 480.320312 25.445312 479.972656 24.4375 479.972656 23.164062 C 479.972656 21.882812 480.320312 20.878906 481.019531 20.148438 C 481.726562 19.410156 482.695312 19.039062 483.925781 19.039062 C 484.332031 19.039062 484.722656 19.082031 485.097656 19.164062 C 485.480469 19.238281 485.851562 19.359375 486.207031 19.523438 Z M 492.035156 23.148438 C 490.992188 23.148438 490.269531 23.269531 489.863281 23.507812 C 489.457031 23.738281 489.253906 24.144531 489.253906 24.726562 C 489.253906 25.1875 489.402344 25.550781 489.707031 25.820312 C 490.007812 26.09375 490.417969 26.226562 490.941406 26.226562 C 491.660156 26.226562 492.230469 25.972656 492.660156 25.460938 C 493.097656 24.953125 493.316406 24.273438 493.316406 23.429688 L 493.316406 23.148438 Z M 494.613281 22.601562 L 494.613281 27.101562 L 493.316406 27.101562 L 493.316406 25.898438 C 493.023438 26.378906 492.652344 26.734375 492.207031 26.960938 C 491.769531 27.1875 491.230469 27.304688 490.597656 27.304688 C 489.792969 27.304688 489.152344 27.082031 488.675781 26.632812 C 488.195312 26.175781 487.957031 25.566406 487.957031 24.804688 C 487.957031 23.921875 488.253906 23.253906 488.847656 22.804688 C 489.441406 22.359375 490.324219 22.132812 491.503906 22.132812 L 493.316406 22.132812 L 493.316406 22.007812 C 493.316406 21.40625 493.117188 20.941406 492.722656 20.617188 C 492.335938 20.296875 491.789062 20.132812 491.082031 20.132812 C 490.632812 20.132812 490.195312 20.191406 489.769531 20.304688 C 489.339844 20.410156 488.929688 20.566406 488.535156 20.773438 L 488.535156 19.585938 C 489.011719 19.398438 489.472656 19.265625 489.910156 19.179688 C 490.355469 19.085938 490.792969 19.039062 491.222656 19.039062 C 492.355469 19.039062 493.207031 19.335938 493.769531 19.929688 C 494.332031 20.515625 494.613281 21.40625 494.613281 22.601562 Z M 498.566406 16.992188 L 498.566406 19.226562 L 501.222656 19.226562 L 501.222656 20.226562 L 498.566406 20.226562 L 498.566406 24.507812 C 498.566406 25.15625 498.652344 25.570312 498.832031 25.757812 C 499.007812 25.9375 499.363281 26.023438 499.894531 26.023438 L 501.222656 26.023438 L 501.222656 27.101562 L 499.894531 27.101562 C 498.894531 27.101562 498.207031 26.914062 497.832031 26.539062 C 497.457031 26.164062 497.269531 25.488281 497.269531 24.507812 L 497.269531 20.226562 L 496.316406 20.226562 L 496.316406 19.226562 L 497.269531 19.226562 L 497.269531 16.992188 Z M 502.933594 19.226562 L 504.230469 19.226562 L 504.230469 27.101562 L 502.933594 27.101562 Z M 502.933594 16.148438 L 504.230469 16.148438 L 504.230469 17.789062 L 502.933594 17.789062 Z M 509.980469 20.132812 C 509.292969 20.132812 508.746094 20.40625 508.339844 20.945312 C 507.933594 21.488281 507.730469 22.226562 507.730469 23.164062 C 507.730469 24.113281 507.925781 24.859375 508.324219 25.398438 C 508.730469 25.941406 509.28125 26.210938 509.980469 26.210938 C 510.667969 26.210938 511.214844 25.941406 511.621094 25.398438 C 512.027344 24.847656 512.230469 24.101562 512.230469 23.164062 C 512.230469 22.238281 512.027344 21.503906 511.621094 20.960938 C 511.214844 20.410156 510.667969 20.132812 509.980469 20.132812 Z M 509.980469 19.039062 C 511.105469 19.039062 511.988281 19.40625 512.636719 20.132812 C 513.28125 20.863281 513.605469 21.875 513.605469 23.164062 C 513.605469 24.457031 513.28125 25.472656 512.636719 26.210938 C 511.988281 26.941406 511.105469 27.304688 509.980469 27.304688 C 508.855469 27.304688 507.96875 26.941406 507.324219 26.210938 C 506.6875 25.472656 506.371094 24.457031 506.371094 23.164062 C 506.371094 21.875 506.6875 20.863281 507.324219 20.132812 C 507.96875 19.40625 508.855469 19.039062 509.980469 19.039062 Z M 522.296875 22.351562 L 522.296875 27.101562 L 521 27.101562 L 521 22.382812 C 521 21.644531 520.851562 21.09375 520.5625 20.726562 C 520.269531 20.351562 519.835938 20.164062 519.265625 20.164062 C 518.554688 20.164062 518 20.390625 517.59375 20.835938 C 517.195312 21.273438 517 21.878906 517 22.648438 L 517 27.101562 L 515.703125 27.101562 L 515.703125 19.226562 L 517 19.226562 L 517 20.445312 C 517.3125 19.976562 517.675781 19.628906 518.09375 19.398438 C 518.507812 19.160156 518.992188 19.039062 519.546875 19.039062 C 520.453125 19.039062 521.132812 19.320312 521.59375 19.882812 C 522.0625 20.4375 522.296875 21.257812 522.296875 22.351562 Z M 523.519531 27.101562 "/>
<path style=" stroke:none;fill-rule:evenodd;fill:rgb(100%,0%,0%);fill-opacity:0.7;" d="M 301.898438 65.566406 L 414.632812 65.566406 L 414.632812 140.882812 L 301.898438 140.882812 Z M 301.898438 65.566406 "/>
<path style=" stroke:none;fill-rule:evenodd;fill:rgb(100%,100%,100%);fill-opacity:1;" d="M 322.179688 97.449219 C 321.617188 98.417969 321.195312 99.382812 320.914062 100.339844 C 320.640625 101.289062 320.507812 102.246094 320.507812 103.214844 C 320.507812 104.195312 320.640625 105.164062 320.914062 106.121094 C 321.195312 107.082031 321.617188 108.035156 322.179688 108.996094 L 321.179688 108.996094 C 320.542969 108.003906 320.0625 107.035156 319.742188 106.074219 C 319.429688 105.117188 319.273438 104.164062 319.273438 103.214844 C 319.273438 102.277344 319.429688 101.335938 319.742188 100.386719 C 320.054688 99.429688 320.53125 98.449219 321.179688 97.449219 Z M 324.832031 106.214844 L 326.925781 106.214844 L 326.925781 98.996094 L 324.644531 99.464844 L 324.644531 98.292969 L 326.910156 97.839844 L 328.191406 97.839844 L 328.191406 106.214844 L 330.269531 106.214844 L 330.269531 107.292969 L 324.832031 107.292969 Z M 332.988281 105.683594 L 334.332031 105.683594 L 334.332031 106.777344 L 333.285156 108.792969 L 332.472656 108.792969 L 332.988281 106.777344 Z M 343.839844 98.683594 C 343.183594 98.683594 342.6875 99.007812 342.355469 99.652344 C 342.019531 100.300781 341.855469 101.273438 341.855469 102.574219 C 341.855469 103.867188 342.019531 104.839844 342.355469 105.496094 C 342.6875 106.144531 343.183594 106.464844 343.839844 106.464844 C 344.496094 106.464844 344.988281 106.144531 345.324219 105.496094 C 345.65625 104.839844 345.824219 103.867188 345.824219 102.574219 C 345.824219 101.273438 345.65625 100.300781 345.324219 99.652344 C 344.988281 99.007812 344.496094 98.683594 343.839844 98.683594 Z M 343.839844 97.667969 C 344.902344 97.667969 345.707031 98.089844 346.261719 98.933594 C 346.824219 99.769531 347.105469 100.980469 347.105469 102.574219 C 347.105469 104.167969 346.824219 105.386719 346.261719 106.230469 C 345.707031 107.066406 344.902344 107.480469 343.839844 107.480469 C 342.777344 107.480469 341.964844 107.066406 341.402344 106.230469 C 340.847656 105.386719 340.574219 104.167969 340.574219 102.574219 C 340.574219 100.980469 340.847656 99.769531 341.402344 98.933594 C 341.964844 98.089844 342.777344 97.667969 343.839844 97.667969 Z M 349.480469 105.683594 L 350.824219 105.683594 L 350.824219 106.777344 L 349.777344 108.792969 L 348.964844 108.792969 L 349.480469 106.777344 Z M 360.332031 98.683594 C 359.675781 98.683594 359.179688 99.007812 358.847656 99.652344 C 358.511719 100.300781 358.347656 101.273438 358.347656 102.574219 C 358.347656 103.867188 358.511719 104.839844 358.847656 105.496094 C 359.179688 106.144531 359.675781 106.464844 360.332031 106.464844 C 360.988281 106.464844 361.480469 106.144531 361.816406 105.496094 C 362.148438 104.839844 362.316406 103.867188 362.316406 102.574219 C 362.316406 101.273438 362.148438 100.300781 361.816406 99.652344 C 361.480469 99.007812 360.988281 98.683594 360.332031 98.683594 Z M 360.332031 97.667969 C 361.394531 97.667969 362.199219 98.089844 362.753906 98.933594 C 363.316406 99.769531 363.597656 100.980469 363.597656 102.574219 C 363.597656 104.167969 363.316406 105.386719 362.753906 106.230469 C 362.199219 107.066406 361.394531 107.480469 360.332031 107.480469 C 359.269531 107.480469 358.457031 107.066406 357.894531 106.230469 C 357.339844 105.386719 357.066406 104.167969 357.066406 102.574219 C 357.066406 100.980469 357.339844 99.769531 357.894531 98.933594 C 358.457031 98.089844 359.269531 97.667969 360.332031 97.667969 Z M 365.972656 105.683594 L 367.316406 105.683594 L 367.316406 106.777344 L 366.269531 108.792969 L 365.457031 108.792969 L 365.972656 106.777344 Z M 376.824219 98.683594 C 376.167969 98.683594 375.671875 99.007812 375.339844 99.652344 C 375.003906 100.300781 374.839844 101.273438 374.839844 102.574219 C 374.839844 103.867188 375.003906 104.839844 375.339844 105.496094 C 375.671875 106.144531 376.167969 106.464844 376.824219 106.464844 C 377.480469 106.464844 377.972656 106.144531 378.308594 105.496094 C 378.640625 104.839844 378.808594 103.867188 378.808594 102.574219 C 378.808594 101.273438 378.640625 100.300781 378.308594 99.652344 C 377.972656 99.007812 377.480469 98.683594 376.824219 98.683594 Z M 376.824219 97.667969 C 377.886719 97.667969 378.691406 98.089844 379.246094 98.933594 C 379.808594 99.769531 380.089844 100.980469 380.089844 102.574219 C 380.089844 104.167969 379.808594 105.386719 379.246094 106.230469 C 378.691406 107.066406 377.886719 107.480469 376.824219 107.480469 C 375.761719 107.480469 374.949219 107.066406 374.386719 106.230469 C 373.832031 105.386719 373.558594 104.167969 373.558594 102.574219 C 373.558594 100.980469 373.832031 99.769531 374.386719 98.933594 C 374.949219 98.089844 375.761719 97.667969 376.824219 97.667969 Z M 382.339844 105.683594 L 383.667969 105.683594 L 383.667969 107.292969 L 382.339844 107.292969 Z M 386.132812 97.839844 L 392.210938 97.839844 L 392.210938 98.386719 L 388.773438 107.292969 L 387.445312 107.292969 L 390.679688 98.917969 L 386.132812 98.917969 Z M 394.351562 97.449219 L 395.367188 97.449219 C 396 98.449219 396.476562 99.429688 396.789062 100.386719 C 397.101562 101.335938 397.257812 102.277344 397.257812 103.214844 C 397.257812 104.164062 397.101562 105.117188 396.789062 106.074219 C 396.476562 107.035156 396 108.003906 395.367188 108.996094 L 394.351562 108.996094 C 394.914062 108.035156 395.328125 107.082031 395.601562 106.121094 C 395.882812 105.164062 396.023438 104.195312 396.023438 103.214844 C 396.023438 102.246094 395.882812 101.289062 395.601562 100.339844 C 395.328125 99.382812 394.914062 98.417969 394.351562 97.449219 Z M 398.378906 107.292969 "/>
<path style=" stroke:none;fill-rule:evenodd;fill:rgb(0%,100%,0%);fill-opacity:0.1;" d="M 527.367188 65.566406 L 414.632812 65.566406 L 414.632812 140.882812 L 527.367188 140.882812 Z M 527.367188 65.566406 "/>
<path style=" stroke:none;fill-rule:evenodd;fill:rgb(0%,0%,0%);fill-opacity:1;" d="M 434.914062 97.449219 C 434.351562 98.417969 433.929688 99.382812 433.648438 100.339844 C 433.375 101.289062 433.242188 102.246094 433.242188 103.214844 C 433.242188 104.195312 433.375 105.164062 433.648438 106.121094 C 433.929688 107.082031 434.351562 108.035156 434.914062 108.996094 L 433.914062 108.996094 C 433.277344 108.003906 432.796875 107.035156 432.476562 106.074219 C 432.164062 105.117188 432.007812 104.164062 432.007812 103.214844 C 432.007812 102.277344 432.164062 101.335938 432.476562 100.386719 C 432.789062 99.429688 433.265625 98.449219 433.914062 97.449219 Z M 440.082031 98.683594 C 439.425781 98.683594 438.929688 99.007812 438.597656 99.652344 C 438.261719 100.300781 438.097656 101.273438 438.097656 102.574219 C 438.097656 103.867188 438.261719 104.839844 438.597656 105.496094 C 438.929688 106.144531 439.425781 106.464844 440.082031 106.464844 C 440.738281 106.464844 441.230469 106.144531 441.566406 105.496094 C 441.898438 104.839844 442.066406 103.867188 442.066406 102.574219 C 442.066406 101.273438 441.898438 100.300781 441.566406 99.652344 C 441.230469 99.007812 440.738281 98.683594 440.082031 98.683594 Z M 440.082031 97.667969 C 441.144531 97.667969 441.949219 98.089844 442.503906 98.933594 C 443.066406 99.769531 443.347656 100.980469 443.347656 102.574219 C 443.347656 104.167969 443.066406 105.386719 442.503906 106.230469 C 441.949219 107.066406 441.144531 107.480469 440.082031 107.480469 C 439.019531 107.480469 438.207031 107.066406 437.644531 106.230469 C 437.089844 105.386719 436.816406 104.167969 436.816406 102.574219 C 436.816406 100.980469 437.089844 99.769531 437.644531 98.933594 C 438.207031 98.089844 439.019531 97.667969 440.082031 97.667969 Z M 445.722656 105.683594 L 447.066406 105.683594 L 447.066406 106.777344 L 446.019531 108.792969 L 445.207031 108.792969 L 445.722656 106.777344 Z M 454.058594 106.214844 L 456.152344 106.214844 L 456.152344 98.996094 L 453.871094 99.464844 L 453.871094 98.292969 L 456.136719 97.839844 L 457.417969 97.839844 L 457.417969 106.214844 L 459.496094 106.214844 L 459.496094 107.292969 L 454.058594 107.292969 Z M 462.214844 105.683594 L 463.558594 105.683594 L 463.558594 106.777344 L 462.511719 108.792969 L 461.699219 108.792969 L 462.214844 106.777344 Z M 473.066406 98.683594 C 472.410156 98.683594 471.914062 99.007812 471.582031 99.652344 C 471.246094 100.300781 471.082031 101.273438 471.082031 102.574219 C 471.082031 103.867188 471.246094 104.839844 471.582031 105.496094 C 471.914062 106.144531 472.410156 106.464844 473.066406 106.464844 C 473.722656 106.464844 474.214844 106.144531 474.550781 105.496094 C 474.882812 104.839844 475.050781 103.867188 475.050781 102.574219 C 475.050781 101.273438 474.882812 100.300781 474.550781 99.652344 C 474.214844 99.007812 473.722656 98.683594 473.066406 98.683594 Z M 473.066406 97.667969 C 474.128906 97.667969 474.933594 98.089844 475.488281 98.933594 C 476.050781 99.769531 476.332031 100.980469 476.332031 102.574219 C 476.332031 104.167969 476.050781 105.386719 475.488281 106.230469 C 474.933594 107.066406 474.128906 107.480469 473.066406 107.480469 C 472.003906 107.480469 471.191406 107.066406 470.628906 106.230469 C 470.074219 105.386719 469.800781 104.167969 469.800781 102.574219 C 469.800781 100.980469 470.074219 99.769531 470.628906 98.933594 C 471.191406 98.089844 472.003906 97.667969 473.066406 97.667969 Z M 478.707031 105.683594 L 480.050781 105.683594 L 480.050781 106.777344 L 479.003906 108.792969 L 478.191406 108.792969 L 478.707031 106.777344 Z M 489.558594 98.683594 C 488.902344 98.683594 488.40625 99.007812 488.074219 99.652344 C 487.738281 100.300781 487.574219 101.273438 487.574219 102.574219 C 487.574219 103.867188 487.738281 104.839844 488.074219 105.496094 C 488.40625 106.144531 488.902344 106.464844 489.558594 106.464844 C 490.214844 106.464844 490.707031 106.144531 491.042969 105.496094 C 491.375 104.839844 491.542969 103.867188 491.542969 102.574219 C 491.542969 101.273438 491.375 100.300781 491.042969 99.652344 C 490.707031 99.007812 490.214844 98.683594 489.558594 98.683594 Z M 489.558594 97.667969 C 490.621094 97.667969 491.425781 98.089844 491.980469 98.933594 C 492.542969 99.769531 492.824219 100.980469 492.824219 102.574219 C 492.824219 104.167969 492.542969 105.386719 491.980469 106.230469 C 491.425781 107.066406 490.621094 107.480469 489.558594 107.480469 C 488.496094 107.480469 487.683594 107.066406 487.121094 106.230469 C 486.566406 105.386719 486.292969 104.167969 486.292969 102.574219 C 486.292969 100.980469 486.566406 99.769531 487.121094 98.933594 C 487.683594 98.089844 488.496094 97.667969 489.558594 97.667969 Z M 495.074219 105.683594 L 496.402344 105.683594 L 496.402344 107.292969 L 495.074219 107.292969 Z M 499.414062 106.214844 L 501.507812 106.214844 L 501.507812 98.996094 L 499.226562 99.464844 L 499.226562 98.292969 L 501.492188 97.839844 L 502.773438 97.839844 L 502.773438 106.214844 L 504.851562 106.214844 L 504.851562 107.292969 L 499.414062 107.292969 Z M 507.085938 97.449219 L 508.101562 97.449219 C 508.734375 98.449219 509.210938 99.429688 509.523438 100.386719 C 509.835938 101.335938 509.992188 102.277344 509.992188 103.214844 C 509.992188 104.164062 509.835938 105.117188 509.523438 106.074219 C 509.210938 107.035156 508.734375 108.003906 508.101562 108.996094 L 507.085938 108.996094 C 507.648438 108.035156 508.0625 107.082031 508.335938 106.121094 C 508.617188 105.164062 508.757812 104.195312 508.757812 103.214844 C 508.757812 102.246094 508.617188 101.289062 508.335938 100.339844 C 508.0625 99.382812 507.648438 98.417969 507.085938 97.449219 Z M 511.113281 107.292969 "/>
<path style="fill:none;stroke-width:1.440674;stroke-linecap:butt;stroke-linejoin:miter;stroke:rgb(0%,0%,0%);stroke-opacity:1;stroke-miterlimit:10;" d="M 527.367188 140.882812 L 301.898438 140.882812 L 301.898438 65.566406 L 527.367188 65.566406 Z M 527.367188 140.882812 "/>
<path style=" stroke:none;fill-rule:evenodd;fill:rgb(0%,0%,0%);fill-opacity:1;" d="M 421.839844 103.222656 C 421.839844 99.246094 418.613281 96.019531 414.632812 96.019531 C 410.65625 96.019531 407.429688 99.246094 407.429688 103.222656 C 407.429688 107.203125 410.65625 110.425781 414.632812 110.425781 C 418.613281 110.425781 421.839844 107.203125 421.839844 103.222656 M 424 103.222656 C 424 98.050781 419.804688 93.859375 414.632812 93.859375 C 409.460938 93.859375 405.269531 98.050781 405.269531 103.222656 C 405.269531 108.394531 409.460938 112.585938 414.632812 112.585938 C 419.804688 112.585938 424 108.394531 424 103.222656 "/>
<path style="fill:none;stroke-width:3.601685;stroke-linecap:butt;stroke-linejoin:miter;stroke:rgb(0%,0%,0%);stroke-opacity:1;stroke-miterlimit:10;" d="M 414.632812 111.867188 L 414.632812 156.894531 "/>
<path style=" stroke:none;fill-rule:evenodd;fill:rgb(0%,0%,0%);fill-opacity:1;" d="M 414.632812 170.582031 L 407.429688 156.175781 L 421.839844 156.175781 Z M 414.632812 170.582031 "/>
<path style=" stroke:none;fill-rule:evenodd;fill:rgb(87.5%,12.5%,0%);fill-opacity:0.4;" d="M 472.980469 228.207031 C 472.980469 195.984375 446.859375 169.859375 414.632812 169.859375 C 382.410156 169.859375 356.289062 195.984375 356.289062 228.207031 C 356.289062 260.433594 382.410156 286.554688 414.632812 286.554688 C 446.859375 286.554688 472.980469 260.433594 472.980469 228.207031 "/>
<path style=" stroke:none;fill-rule:evenodd;fill:rgb(0%,0%,0%);fill-opacity:1;" d="M 360.511719 223.394531 C 360.03125 224.207031 359.675781 225.011719 359.449219 225.800781 C 359.21875 226.59375 359.105469 227.394531 359.105469 228.207031 C 359.105469 229.019531 359.21875 229.828125 359.449219 230.628906 C 359.6875 231.421875 360.042969 232.214844 360.511719 233.019531 L 359.652344 233.019531 C 359.128906 232.195312 358.734375 231.386719 358.464844 230.582031 C 358.203125 229.78125 358.074219 228.988281 358.074219 228.207031 C 358.074219 227.417969 358.203125 226.625 358.464844 225.832031 C 358.722656 225.042969 359.121094 224.230469 359.652344 223.394531 Z M 364.804688 224.410156 C 364.25 224.410156 363.835938 224.683594 363.554688 225.222656 C 363.28125 225.765625 363.148438 226.578125 363.148438 227.660156 C 363.148438 228.746094 363.28125 229.558594 363.554688 230.097656 C 363.835938 230.640625 364.25 230.910156 364.804688 230.910156 C 365.355469 230.910156 365.765625 230.640625 366.039062 230.097656 C 366.320312 229.558594 366.460938 228.746094 366.460938 227.660156 C 366.460938 226.578125 366.320312 225.765625 366.039062 225.222656 C 365.765625 224.683594 365.355469 224.410156 364.804688 224.410156 Z M 364.804688 223.566406 C 365.6875 223.566406 366.359375 223.921875 366.820312 224.628906 C 367.289062 225.328125 367.523438 226.339844 367.523438 227.660156 C 367.523438 228.996094 367.289062 230.011719 366.820312 230.707031 C 366.359375 231.40625 365.6875 231.753906 364.804688 231.753906 C 363.917969 231.753906 363.242188 231.40625 362.773438 230.707031 C 362.3125 230.011719 362.085938 228.996094 362.085938 227.660156 C 362.085938 226.339844 362.3125 225.328125 362.773438 224.628906 C 363.242188 223.921875 363.917969 223.566406 364.804688 223.566406 Z M 369.398438 230.253906 L 370.507812 230.253906 L 370.507812 231.597656 L 369.398438 231.597656 Z M 375.113281 227.847656 C 374.601562 227.847656 374.199219 227.984375 373.910156 228.253906 C 373.628906 228.527344 373.488281 228.902344 373.488281 229.378906 C 373.488281 229.859375 373.628906 230.234375 373.910156 230.503906 C 374.199219 230.777344 374.601562 230.910156 375.113281 230.910156 C 375.621094 230.910156 376.023438 230.777344 376.316406 230.503906 C 376.605469 230.222656 376.753906 229.847656 376.753906 229.378906 C 376.753906 228.902344 376.605469 228.527344 376.316406 228.253906 C 376.023438 227.984375 375.621094 227.847656 375.113281 227.847656 Z M 374.050781 227.394531 C 373.589844 227.292969 373.230469 227.082031 372.972656 226.769531 C 372.722656 226.449219 372.597656 226.0625 372.597656 225.613281 C 372.597656 224.988281 372.820312 224.496094 373.269531 224.128906 C 373.714844 223.753906 374.332031 223.566406 375.113281 223.566406 C 375.894531 223.566406 376.507812 223.753906 376.957031 224.128906 C 377.402344 224.496094 377.628906 224.988281 377.628906 225.613281 C 377.628906 226.0625 377.496094 226.449219 377.238281 226.769531 C 376.988281 227.082031 376.636719 227.292969 376.191406 227.394531 C 376.699219 227.519531 377.097656 227.761719 377.378906 228.113281 C 377.667969 228.457031 377.816406 228.878906 377.816406 229.378906 C 377.816406 230.140625 377.582031 230.730469 377.113281 231.144531 C 376.644531 231.550781 375.976562 231.753906 375.113281 231.753906 C 374.246094 231.753906 373.582031 231.550781 373.113281 231.144531 C 372.644531 230.730469 372.410156 230.140625 372.410156 229.378906 C 372.410156 228.878906 372.550781 228.457031 372.832031 228.113281 C 373.121094 227.761719 373.527344 227.519531 374.050781 227.394531 Z M 373.660156 225.722656 C 373.660156 226.128906 373.785156 226.449219 374.035156 226.675781 C 374.292969 226.90625 374.652344 227.019531 375.113281 227.019531 C 375.570312 227.019531 375.929688 226.90625 376.191406 226.675781 C 376.449219 226.449219 376.582031 226.128906 376.582031 225.722656 C 376.582031 225.308594 376.449219 224.984375 376.191406 224.753906 C 375.929688 224.527344 375.570312 224.410156 375.113281 224.410156 C 374.652344 224.410156 374.292969 224.527344 374.035156 224.753906 C 373.785156 224.984375 373.660156 225.308594 373.660156 225.722656 Z M 379.441406 223.722656 L 384.503906 223.722656 L 384.503906 224.175781 L 381.644531 231.597656 L 380.535156 231.597656 L 383.222656 224.613281 L 379.441406 224.613281 Z M 386.597656 223.722656 L 390.785156 223.722656 L 390.785156 224.613281 L 387.566406 224.613281 L 387.566406 226.550781 C 387.722656 226.5 387.878906 226.464844 388.035156 226.441406 C 388.191406 226.410156 388.347656 226.394531 388.503906 226.394531 C 389.378906 226.394531 390.070312 226.636719 390.582031 227.113281 C 391.101562 227.59375 391.363281 228.246094 391.363281 229.066406 C 391.363281 229.921875 391.097656 230.582031 390.566406 231.050781 C 390.035156 231.519531 389.289062 231.753906 388.332031 231.753906 C 387.996094 231.753906 387.660156 231.722656 387.316406 231.660156 C 386.980469 231.605469 386.628906 231.527344 386.253906 231.410156 L 386.253906 230.347656 C 386.574219 230.515625 386.902344 230.640625 387.238281 230.722656 C 387.582031 230.808594 387.941406 230.847656 388.316406 230.847656 C 388.917969 230.847656 389.398438 230.691406 389.753906 230.378906 C 390.117188 230.058594 390.300781 229.621094 390.300781 229.066406 C 390.300781 228.515625 390.117188 228.082031 389.753906 227.769531 C 389.398438 227.449219 388.917969 227.285156 388.316406 227.285156 C 388.023438 227.285156 387.738281 227.316406 387.457031 227.378906 C 387.175781 227.441406 386.886719 227.542969 386.597656 227.675781 Z M 393.566406 230.253906 L 394.675781 230.253906 L 394.675781 231.160156 L 393.816406 232.847656 L 393.128906 232.847656 L 393.566406 231.160156 Z M 402.605469 224.410156 C 402.050781 224.410156 401.636719 224.683594 401.355469 225.222656 C 401.082031 225.765625 400.949219 226.578125 400.949219 227.660156 C 400.949219 228.746094 401.082031 229.558594 401.355469 230.097656 C 401.636719 230.640625 402.050781 230.910156 402.605469 230.910156 C 403.15625 230.910156 403.566406 230.640625 403.839844 230.097656 C 404.121094 229.558594 404.261719 228.746094 404.261719 227.660156 C 404.261719 226.578125 404.121094 225.765625 403.839844 225.222656 C 403.566406 224.683594 403.15625 224.410156 402.605469 224.410156 Z M 402.605469 223.566406 C 403.488281 223.566406 404.160156 223.921875 404.621094 224.628906 C 405.089844 225.328125 405.324219 226.339844 405.324219 227.660156 C 405.324219 228.996094 405.089844 230.011719 404.621094 230.707031 C 404.160156 231.40625 403.488281 231.753906 402.605469 231.753906 C 401.71875 231.753906 401.042969 231.40625 400.574219 230.707031 C 400.113281 230.011719 399.886719 228.996094 399.886719 227.660156 C 399.886719 226.339844 400.113281 225.328125 400.574219 224.628906 C 401.042969 223.921875 401.71875 223.566406 402.605469 223.566406 Z M 407.199219 230.253906 L 408.308594 230.253906 L 408.308594 231.597656 L 407.199219 231.597656 Z M 410.824219 230.707031 L 412.558594 230.707031 L 412.558594 224.691406 L 410.667969 225.066406 L 410.667969 224.097656 L 412.558594 223.722656 L 413.621094 223.722656 L 413.621094 230.707031 L 415.355469 230.707031 L 415.355469 231.597656 L 410.824219 231.597656 Z M 418.429688 230.707031 L 422.148438 230.707031 L 422.148438 231.597656 L 417.148438 231.597656 L 417.148438 230.707031 C 417.554688 230.28125 418.105469 229.71875 418.804688 229.019531 C 419.5 228.3125 419.9375 227.855469 420.117188 227.644531 C 420.460938 227.261719 420.699219 226.9375 420.835938 226.675781 C 420.96875 226.40625 421.039062 226.144531 421.039062 225.894531 C 421.039062 225.480469 420.886719 225.140625 420.585938 224.878906 C 420.292969 224.609375 419.914062 224.472656 419.445312 224.472656 C 419.109375 224.472656 418.757812 224.53125 418.382812 224.644531 C 418.015625 224.761719 417.621094 224.9375 417.195312 225.175781 L 417.195312 224.097656 C 417.621094 223.921875 418.023438 223.792969 418.398438 223.707031 C 418.773438 223.613281 419.117188 223.566406 419.429688 223.566406 C 420.242188 223.566406 420.886719 223.777344 421.367188 224.191406 C 421.855469 224.597656 422.101562 225.140625 422.101562 225.816406 C 422.101562 226.140625 422.039062 226.449219 421.914062 226.738281 C 421.796875 227.03125 421.578125 227.375 421.257812 227.769531 C 421.171875 227.875 420.890625 228.171875 420.414062 228.660156 C 419.945312 229.140625 419.28125 229.824219 418.429688 230.707031 Z M 424.398438 223.722656 L 428.585938 223.722656 L 428.585938 224.613281 L 425.367188 224.613281 L 425.367188 226.550781 C 425.523438 226.5 425.679688 226.464844 425.835938 226.441406 C 425.992188 226.410156 426.148438 226.394531 426.304688 226.394531 C 427.179688 226.394531 427.871094 226.636719 428.382812 227.113281 C 428.902344 227.59375 429.164062 228.246094 429.164062 229.066406 C 429.164062 229.921875 428.898438 230.582031 428.367188 231.050781 C 427.835938 231.519531 427.089844 231.753906 426.132812 231.753906 C 425.796875 231.753906 425.460938 231.722656 425.117188 231.660156 C 424.78125 231.605469 424.429688 231.527344 424.054688 231.410156 L 424.054688 230.347656 C 424.375 230.515625 424.703125 230.640625 425.039062 230.722656 C 425.382812 230.808594 425.742188 230.847656 426.117188 230.847656 C 426.71875 230.847656 427.199219 230.691406 427.554688 230.378906 C 427.917969 230.058594 428.101562 229.621094 428.101562 229.066406 C 428.101562 228.515625 427.917969 228.082031 427.554688 227.769531 C 427.199219 227.449219 426.71875 227.285156 426.117188 227.285156 C 425.824219 227.285156 425.539062 227.316406 425.257812 227.378906 C 424.976562 227.441406 424.6875 227.542969 424.398438 227.675781 Z M 431.367188 230.253906 L 432.476562 230.253906 L 432.476562 231.160156 L 431.617188 232.847656 L 430.929688 232.847656 L 431.367188 231.160156 Z M 440.410156 224.410156 C 439.855469 224.410156 439.441406 224.683594 439.160156 225.222656 C 438.886719 225.765625 438.753906 226.578125 438.753906 227.660156 C 438.753906 228.746094 438.886719 229.558594 439.160156 230.097656 C 439.441406 230.640625 439.855469 230.910156 440.410156 230.910156 C 440.960938 230.910156 441.371094 230.640625 441.644531 230.097656 C 441.925781 229.558594 442.066406 228.746094 442.066406 227.660156 C 442.066406 226.578125 441.925781 225.765625 441.644531 225.222656 C 441.371094 224.683594 440.960938 224.410156 440.410156 224.410156 Z M 440.410156 223.566406 C 441.292969 223.566406 441.964844 223.921875 442.425781 224.628906 C 442.894531 225.328125 443.128906 226.339844 443.128906 227.660156 C 443.128906 228.996094 442.894531 230.011719 442.425781 230.707031 C 441.964844 231.40625 441.292969 231.753906 440.410156 231.753906 C 439.523438 231.753906 438.847656 231.40625 438.378906 230.707031 C 437.917969 230.011719 437.691406 228.996094 437.691406 227.660156 C 437.691406 226.339844 437.917969 225.328125 438.378906 224.628906 C 438.847656 223.921875 439.523438 223.566406 440.410156 223.566406 Z M 445.113281 230.253906 L 446.222656 230.253906 L 446.222656 231.160156 L 445.363281 232.847656 L 444.675781 232.847656 L 445.113281 231.160156 Z M 454.152344 224.410156 C 453.597656 224.410156 453.183594 224.683594 452.902344 225.222656 C 452.628906 225.765625 452.496094 226.578125 452.496094 227.660156 C 452.496094 228.746094 452.628906 229.558594 452.902344 230.097656 C 453.183594 230.640625 453.597656 230.910156 454.152344 230.910156 C 454.703125 230.910156 455.113281 230.640625 455.386719 230.097656 C 455.667969 229.558594 455.808594 228.746094 455.808594 227.660156 C 455.808594 226.578125 455.667969 225.765625 455.386719 225.222656 C 455.113281 224.683594 454.703125 224.410156 454.152344 224.410156 Z M 454.152344 223.566406 C 455.035156 223.566406 455.707031 223.921875 456.167969 224.628906 C 456.636719 225.328125 456.871094 226.339844 456.871094 227.660156 C 456.871094 228.996094 456.636719 230.011719 456.167969 230.707031 C 455.707031 231.40625 455.035156 231.753906 454.152344 231.753906 C 453.265625 231.753906 452.589844 231.40625 452.121094 230.707031 C 451.660156 230.011719 451.433594 228.996094 451.433594 227.660156 C 451.433594 226.339844 451.660156 225.328125 452.121094 224.628906 C 452.589844 223.921875 453.265625 223.566406 454.152344 223.566406 Z M 458.746094 230.253906 L 459.855469 230.253906 L 459.855469 231.597656 L 458.746094 231.597656 Z M 465.117188 224.644531 L 462.414062 228.847656 L 465.117188 228.847656 Z M 464.835938 223.722656 L 466.164062 223.722656 L 466.164062 228.847656 L 467.289062 228.847656 L 467.289062 229.738281 L 466.164062 229.738281 L 466.164062 231.597656 L 465.117188 231.597656 L 465.117188 229.738281 L 461.554688 229.738281 L 461.554688 228.707031 Z M 468.757812 223.394531 L 469.601562 223.394531 C 470.132812 224.230469 470.527344 225.042969 470.789062 225.832031 C 471.058594 226.625 471.195312 227.417969 471.195312 228.207031 C 471.195312 228.988281 471.058594 229.78125 470.789062 230.582031 C 470.527344 231.386719 470.132812 232.195312 469.601562 233.019531 L 468.757812 233.019531 C 469.226562 232.214844 469.574219 231.421875 469.804688 230.628906 C 470.042969 229.828125 470.164062 229.019531 470.164062 228.207031 C 470.164062 227.394531 470.042969 226.59375 469.804688 225.800781 C 469.574219 225.011719 469.226562 224.207031 468.757812 223.394531 Z M 472.113281 231.597656 "/>
<path style=" stroke:none;fill-rule:evenodd;fill:rgb(0%,0%,0%);fill-opacity:1;" d="M 472.261719 228.207031 C 472.261719 196.382812 446.460938 170.582031 414.632812 170.582031 C 382.808594 170.582031 357.007812 196.382812 357.007812 228.207031 C 357.007812 260.035156 382.808594 285.835938 414.632812 285.835938 C 446.460938 285.835938 472.261719 260.035156 472.261719 228.207031 M 474.421875 228.207031 C 474.421875 195.1875 447.65625 168.421875 414.632812 168.421875 C 381.613281 168.421875 354.847656 195.1875 354.847656 228.207031 C 354.847656 261.226562 381.613281 287.996094 414.632812 287.996094 C 447.65625 287.996094 474.421875 261.226562 474.421875 228.207031 "/>
</g>
</svg>
